<svg width="50" height="50" viewBox="0 0 50 50" fill="none" xmlns="http://www.w3.org/2000/svg">
<path fill-rule="evenodd" clip-rule="evenodd" d="M36.6588 41.5691C35.1825 43.02 33.4533 44.1538 31.469 44.9797C29.4847 45.7987 27.3272 46.2093 25.0011 46.2093C22.6728 46.2093 20.5176 45.7987 18.5356 44.9797C16.549 44.1538 14.8175 43.02 13.3412 41.5691C11.8649 40.1228 10.7076 38.4118 9.87379 36.4385C9.0673 34.5336 8.65266 32.4736 8.62305 30.263H12.5484C12.5894 30.9428 12.7352 31.5793 12.9881 32.177C13.2911 32.8956 13.7126 33.5161 14.2457 34.0408C14.7811 34.5678 15.4121 34.9807 16.132 35.275C16.852 35.5761 17.6357 35.7267 18.4809 35.7267C19.3261 35.7267 20.1053 35.5761 20.8274 35.275C21.5474 34.9807 22.1784 34.5678 22.7138 34.0408C23.2492 33.5161 23.6707 32.8956 23.9714 32.177C24.1741 31.7048 24.3063 31.2029 24.3724 30.6782H25.6299C25.696 31.2029 25.8281 31.7048 26.0309 32.177C26.3362 32.8956 26.7531 33.5161 27.2907 34.0408C27.8238 34.5678 28.4549 34.9807 29.1748 35.275C29.8947 35.5761 30.6785 35.7267 31.5214 35.7267C32.3689 35.7267 33.1503 35.5761 33.8702 35.275C34.5901 34.9807 35.2212 34.5678 35.7566 34.0408C36.292 33.5161 36.7134 32.8956 37.0164 32.177C37.2693 31.5793 37.4151 30.9428 37.4584 30.263H41.3747C41.3519 32.4736 40.935 34.5336 40.1285 36.4385C39.2924 38.4118 38.1351 40.1228 36.6588 41.5691ZM22.0121 29.8501C22.0121 30.3474 21.921 30.8082 21.7433 31.2348C21.5633 31.6569 21.315 32.0241 20.9938 32.339C20.6725 32.6538 20.3012 32.8979 19.8752 33.0735C19.4446 33.2515 18.9821 33.3405 18.4809 33.3405C17.9774 33.3405 17.5126 33.2515 17.0843 33.0735C16.6583 32.8979 16.2847 32.6538 15.9657 32.339C15.6445 32.0241 15.3962 31.6569 15.2185 31.2348C15.0385 30.8082 14.9474 30.3474 14.9474 29.8501C14.9474 29.3573 15.0385 28.8942 15.2185 28.4676C15.3962 28.0433 15.6445 27.676 15.9657 27.3612C16.2847 27.0509 16.6583 26.8045 17.0843 26.6289C17.5126 26.4509 17.9774 26.362 18.4809 26.362C18.9821 26.362 19.4446 26.4509 19.8752 26.6289C20.3012 26.8045 20.6725 27.0509 20.9938 27.3612C21.315 27.676 21.5633 28.0433 21.7433 28.4676C21.921 28.8942 22.0121 29.3573 22.0121 29.8501ZM35.0549 29.8501C35.0549 30.3474 34.9661 30.8082 34.7838 31.2348C34.6061 31.6569 34.3555 32.0241 34.0388 32.339C33.7199 32.6538 33.344 32.8979 32.9157 33.0735C32.4896 33.2515 32.0249 33.3405 31.5214 33.3405C31.0202 33.3405 30.5554 33.2515 30.1294 33.0735C29.6988 32.8979 29.3252 32.6538 29.0085 32.339C28.6896 32.0241 28.4412 31.6569 28.259 31.2348C28.079 30.8082 27.9902 30.3474 27.9902 29.8501C27.9902 29.3573 28.079 28.8942 28.259 28.4676C28.4412 28.0433 28.6896 27.676 29.0085 27.3612C29.3252 27.0509 29.6988 26.8045 30.1294 26.6289C30.5554 26.4509 31.0202 26.362 31.5214 26.362C32.0249 26.362 32.4896 26.4509 32.9157 26.6289C33.344 26.8045 33.7199 27.0509 34.0388 27.3612C34.3555 27.676 34.6061 28.0433 34.7838 28.4676C34.9661 28.8942 35.0549 29.3573 35.0549 29.8501ZM10.0811 23.1909C12.8674 22.2716 16.5626 21.099 16.5626 21.099C24.6913 18.5097 25.7803 15.4482 25.7803 15.4482C25.7803 15.4482 27.4912 18.5097 33.3918 20.5287C33.3918 20.5287 36.6519 21.6032 39.6842 22.7005C39.8369 23.0016 39.9941 23.3027 40.1285 23.6221C40.6616 24.8814 41.0238 26.2091 41.2152 27.5984H37.0438L37.0164 27.5254C36.7134 26.8068 36.292 26.1886 35.7566 25.6616C35.2212 25.1346 34.5901 24.7217 33.8702 24.4228C33.1503 24.1263 32.3689 23.978 31.5214 23.978C30.6785 23.978 29.8947 24.1263 29.1748 24.4228C28.4549 24.7217 27.8238 25.1346 27.2907 25.6616C26.7531 26.1886 26.3362 26.8068 26.0309 27.5254C25.9352 27.7513 25.8555 27.9817 25.7894 28.2167H24.2129C24.1491 27.9817 24.0693 27.7513 23.9714 27.5254C23.6707 26.8068 23.2492 26.1886 22.7138 25.6616C22.1784 25.1346 21.5474 24.7217 20.8274 24.4228C20.1053 24.1263 19.3261 23.978 18.4809 23.978C17.6357 23.978 16.852 24.1263 16.132 24.4228C15.4121 24.7217 14.7811 25.1346 14.2457 25.6616C13.7126 26.1886 13.2911 26.8068 12.9881 27.5254C12.9767 27.5482 12.9699 27.5733 12.9585 27.5984H8.78936C8.98073 26.2091 9.34068 24.8814 9.87379 23.6221C9.93758 23.4738 10.015 23.3369 10.0811 23.1909ZM48.0909 15.2178C46.8128 12.2087 45.0517 9.59894 42.794 7.38835C40.5408 5.17321 37.9004 3.4417 34.8726 2.18927C31.8426 0.934548 28.5529 0.30719 25.0011 0.30719C21.4494 0.30719 18.1597 0.934548 15.1296 2.18927C12.1019 3.4417 9.45915 5.17321 7.206 7.38835C4.95284 9.59894 3.18722 12.2087 1.9137 15.2178C0.635622 18.2291 0 21.4914 0 25C0 28.5132 0.635622 31.7709 1.9137 34.7822C3.18722 37.7936 4.95284 40.4011 7.206 42.614C9.45915 44.8268 12.1019 46.5583 15.1296 47.813C18.1597 49.0655 21.4494 49.6928 25.0011 49.6928C28.5529 49.6928 31.8426 49.0655 34.8726 47.813C37.9004 46.5583 40.5408 44.8268 42.794 42.614C45.0517 40.4011 46.8128 37.7936 48.0909 34.7822C49.3621 31.7709 50 28.5132 50 25C50 21.4914 49.3621 18.2291 48.0909 15.2178Z" fill="#121518"/>
</svg>
