<svg width="50" height="40" viewBox="0 0 50 40" fill="none" xmlns="http://www.w3.org/2000/svg">
<path d="M13.4183 7.23695C9.87101 7.21455 9.37703 10.6732 9.36138 13.2784C9.34797 15.8837 9.79948 19.3961 13.3445 19.4163C16.8896 19.4364 17.3858 15.9329 17.4014 13.3232C17.4171 10.718 16.9633 7.25711 13.4183 7.23695ZM13.3065 26.2395C4.08405 26.1858 -0.0421446 20.048 0.000324372 13.2247C0.0405581 6.39916 4.23381 0.359912 13.4563 0.415914C22.6788 0.467436 26.805 6.55597 26.7647 13.3815C26.7223 20.2025 22.529 26.2933 13.3065 26.2395Z" fill="#121518"/>
<path d="M36.6533 7.23471C33.1082 7.21231 32.6143 10.671 32.6009 13.2784C32.583 15.8836 33.0367 19.3939 36.584 19.414C40.1268 19.4364 40.623 15.9307 40.6387 13.3232C40.6521 10.718 40.1983 7.25487 36.6533 7.23471ZM36.5415 26.2395C27.3213 26.1835 23.1951 20.0457 23.2376 13.2224C23.2756 6.39916 27.4711 0.357666 36.6913 0.411428C45.9115 0.46519 50.0377 6.55372 49.9997 13.377C49.9595 20.2048 45.764 26.2911 36.5415 26.2395Z" fill="#121518"/>
<path d="M3.51188 26.2418C10.1594 29.2189 17.0572 30.5405 24.5742 30.5831C32.4712 30.6301 38.4594 29.136 46.039 26.2418L45.9943 34.4405C39.2104 37.8118 31.8521 39.6308 24.5206 39.5882C16.5297 39.5412 10.7718 37.8969 3.46271 34.4405L3.51188 26.2418Z" fill="#121518"/>
</svg>
