<svg width="50" height="50" viewBox="0 0 50 50" fill="none" xmlns="http://www.w3.org/2000/svg">
<path d="M46.9063 12.5381C44.0527 12.5381 41.4199 11.5928 39.3057 9.99805C36.8809 8.16992 35.1387 5.48828 34.5234 2.39746C34.3711 1.63379 34.2891 0.845703 34.2813 0.0380859H26.1299V22.3115L26.1201 34.5117C26.1201 37.7734 23.9961 40.5391 21.0518 41.5117C20.1973 41.7939 19.2744 41.9277 18.3135 41.875C17.0869 41.8076 15.9375 41.4375 14.9385 40.8398C12.8125 39.5684 11.3711 37.2617 11.332 34.623C11.2705 30.499 14.6045 27.1367 18.7256 27.1367C19.5391 27.1367 20.3203 27.2695 21.0518 27.5107V21.4229V19.2344C20.2803 19.1201 19.4951 19.0605 18.7012 19.0605C14.1904 19.0605 9.97169 20.9355 6.95607 24.3135C4.67677 26.8662 3.30958 30.123 3.09864 33.5381C2.82228 38.0244 4.46388 42.2891 7.64747 45.4355C8.11524 45.8975 8.60646 46.3262 9.12013 46.7217C11.8496 48.8223 15.1865 49.9609 18.7012 49.9609C19.4951 49.9609 20.2803 49.9023 21.0518 49.7881C24.335 49.3018 27.3643 47.7988 29.7549 45.4355C32.6924 42.5322 34.3154 38.6777 34.333 34.5752L34.291 16.3564C35.6924 17.4375 37.2246 18.332 38.8692 19.0264C41.4268 20.1055 44.1387 20.6523 46.9297 20.6514V14.7324V12.5361C46.9317 12.5381 46.9082 12.5381 46.9063 12.5381Z" fill="#121518"/>
</svg>
