<svg width="19" height="16" viewBox="0 0 19 16" fill="none" xmlns="http://www.w3.org/2000/svg">
<path d="M11.6214 0.575867L18.5157 7.47016C18.6563 7.61081 18.7354 7.80158 18.7354 8.00049C18.7354 8.1994 18.6563 8.39017 18.5157 8.53082L11.6214 15.4251C11.4808 15.5658 11.29 15.6448 11.0911 15.6448C10.8922 15.6448 10.7014 15.5658 10.5607 15.4251C10.4201 15.2845 10.3411 15.0937 10.3411 14.8948C10.3411 14.6959 10.4201 14.5051 10.5607 14.3644L16.175 8.75024L1.0148 8.75091C0.815779 8.75091 0.624908 8.67184 0.484177 8.53111C0.343447 8.39038 0.264385 8.19951 0.264385 8.00049C0.264385 7.80147 0.343447 7.61059 0.484177 7.46986C0.624908 7.32913 0.815779 7.25007 1.0148 7.25007L16.175 7.25073L10.5607 1.63653C10.4201 1.49587 10.3411 1.30511 10.3411 1.1062C10.3411 0.907285 10.4201 0.716519 10.5607 0.575867C10.7014 0.435214 10.8922 0.356197 11.0911 0.356196C11.29 0.356196 11.4808 0.435214 11.6214 0.575867Z" fill="#0B0B0B"/>
</svg>
