<svg width="12" height="12" viewBox="0 0 12 12" fill="none" xmlns="http://www.w3.org/2000/svg">
<path d="M0.146631 0.855608C0.100144 0.80912 0.0632674 0.753931 0.0381083 0.693192C0.0129493 0.632452 4.8983e-10 0.567352 0 0.501608C-4.8983e-10 0.435864 0.0129493 0.370764 0.0381083 0.310025C0.0632674 0.249285 0.100144 0.194096 0.146631 0.147608C0.193119 0.10112 0.248309 0.064244 0.309048 0.0390849C0.369788 0.0139258 0.434888 0.000976562 0.500632 0.000976563C0.566375 0.000976563 0.631476 0.0139258 0.692215 0.0390849C0.752954 0.064244 0.808144 0.10112 0.854632 0.147608L6.00063 5.29461L11.1466 0.147608C11.1931 0.10112 11.2483 0.064244 11.309 0.0390849C11.3698 0.0139258 11.4349 0.000976563 11.5006 0.000976563C11.5664 0.000976562 11.6315 0.0139258 11.6922 0.0390849C11.753 0.064244 11.8081 0.10112 11.8546 0.147608C11.9011 0.194096 11.938 0.249285 11.9632 0.310025C11.9883 0.370764 12.0013 0.435864 12.0013 0.501608C12.0013 0.567352 11.9883 0.632452 11.9632 0.693192C11.938 0.753931 11.9011 0.80912 11.8546 0.855608L6.70763 6.00161L11.8546 11.1476C11.9011 11.1941 11.938 11.2493 11.9632 11.31C11.9883 11.3708 12.0013 11.4359 12.0013 11.5016C12.0013 11.5674 11.9883 11.6325 11.9632 11.6932C11.938 11.7539 11.9011 11.8091 11.8546 11.8556C11.8081 11.9021 11.753 11.939 11.6922 11.9641C11.6315 11.9893 11.5664 12.0022 11.5006 12.0022C11.4349 12.0022 11.3698 11.9893 11.309 11.9641C11.2483 11.939 11.1931 11.9021 11.1466 11.8556L6.00063 6.70861L0.854632 11.8556C0.808144 11.9021 0.752954 11.939 0.692215 11.9641C0.631476 11.9893 0.566375 12.0022 0.500632 12.0022C0.434888 12.0022 0.369788 11.9893 0.309048 11.9641C0.248309 11.939 0.193119 11.9021 0.146631 11.8556C0.100144 11.8091 0.0632674 11.7539 0.0381083 11.6932C0.0129493 11.6325 0 11.5674 0 11.5016C0 11.4359 0.0129493 11.3708 0.0381083 11.31C0.0632674 11.2493 0.100144 11.1941 0.146631 11.1476L5.29363 6.00161L0.146631 0.855608Z" fill="#DEDEDE"/>
</svg>
