<svg width="100" height="64" viewBox="0 0 100 64" fill="none" xmlns="http://www.w3.org/2000/svg">
<path d="M97.5735 13.9329C94.3383 10.6975 89.0928 10.6975 85.8574 13.9329L55.3666 44.4237L50.3676 39.4247L38.6516 51.1407L47.3313 59.8204C51.769 64.2581 58.9639 64.2581 63.4018 59.8204L97.5735 25.6487C100.809 22.4135 100.809 17.168 97.5735 13.9329Z" fill="#FFD600"/>
<path d="M24.3061 33.7679L54.7971 3.2771C58.0324 0.0417479 63.2778 0.0417479 66.5131 3.2771C69.7485 6.51245 69.7485 11.7578 66.5131 14.9931L32.3414 49.1648C27.9037 53.6025 20.7088 53.6025 16.2709 49.1648L2.42657 35.3205C-0.808777 32.0851 -0.808777 26.8398 2.42657 23.6044C5.66193 20.3693 10.9072 20.3693 14.1426 23.6044L24.3061 33.7679Z" fill="#FFD600"/>
</svg>
