<svg width="14" height="14" viewBox="0 0 14 14" fill="none" xmlns="http://www.w3.org/2000/svg">
<path d="M3.24999 0.250071H13C13.1989 0.250071 13.3897 0.329087 13.5303 0.46974C13.671 0.610393 13.75 0.801158 13.75 1.00007V10.7501C13.75 10.949 13.671 11.1397 13.5303 11.2804C13.3897 11.4211 13.1989 11.5001 13 11.5001C12.8011 11.5001 12.6103 11.4211 12.4697 11.2804C12.329 11.1397 12.25 10.949 12.25 10.7501V2.81038L1.53062 13.5307C1.38988 13.6714 1.19901 13.7505 0.99999 13.7505C0.800967 13.7505 0.610095 13.6714 0.469365 13.5307C0.328634 13.39 0.249573 13.1991 0.249573 13.0001C0.249573 12.801 0.328634 12.6102 0.469365 12.4694L11.1897 1.75007H3.24999C3.05108 1.75007 2.86031 1.67105 2.71966 1.5304C2.57901 1.38975 2.49999 1.19898 2.49999 1.00007C2.49999 0.801158 2.57901 0.610393 2.71966 0.46974C2.86031 0.329087 3.05108 0.250071 3.24999 0.250071Z" fill="#0B0B0B"/>
</svg>
