<svg width="37" height="37" viewBox="0 0 37 37" fill="none" xmlns="http://www.w3.org/2000/svg">
<g clip-path="url(#clip0_2_387)">
<path fill-rule="evenodd" clip-rule="evenodd" d="M13.8722 13.0442H20.5574V16.3742C21.5204 14.459 23.99 12.7382 27.6998 12.7382C34.8116 12.7382 36.5 16.5506 36.5 23.5454V36.5H29.3V25.1384C29.3 21.155 28.337 18.9086 25.8854 18.9086C22.4852 18.9086 21.0722 21.3296 21.0722 25.1366V36.5H13.8722V13.0442ZM1.526 36.194H8.726V12.7382H1.526V36.194ZM9.7574 5.09C9.75767 5.69349 9.63798 6.29102 9.4053 6.84786C9.17261 7.40469 8.83157 7.90972 8.402 8.3336C7.53152 9.19872 6.35326 9.68298 5.126 9.68C3.9009 9.67918 2.72536 9.19616 1.8536 8.3354C1.42558 7.91008 1.08569 7.40448 0.853419 6.84758C0.621143 6.29067 0.501042 5.6934 0.5 5.09C0.5 3.8714 0.986 2.705 1.8554 1.8446C2.72639 0.982685 3.90243 0.499461 5.1278 0.5C6.3554 0.5 7.5326 0.9842 8.402 1.8446C9.2696 2.705 9.7574 3.8714 9.7574 5.09Z" fill="#1E1E1E"/>
</g>
<defs>
<clipPath id="clip0_2_387">
<rect width="36" height="36" fill="white" transform="translate(0.5 0.5)"/>
</clipPath>
</defs>
</svg>
