<svg width="43" height="32" viewBox="0 0 43 32" fill="none" xmlns="http://www.w3.org/2000/svg">
<path d="M41.3099 0.25V2.56063C37.8634 3.75524 35.1625 5.64147 33.2073 8.21931C31.252 10.7657 30.2744 13.4222 30.2744 16.1886C30.2744 16.7859 30.3738 17.226 30.5727 17.509C30.7052 17.6976 30.8544 17.7919 31.0201 17.7919C31.1858 17.7919 31.4343 17.6819 31.7657 17.4618C32.8262 16.7388 34.1683 16.3772 35.7922 16.3772C37.6811 16.3772 39.3547 17.116 40.8128 18.5936C42.2709 20.0397 43 21.7687 43 23.7807C43 25.887 42.1549 27.7418 40.4648 29.3451C38.8078 30.9484 36.7863 31.75 34.4003 31.75C31.6166 31.75 29.214 30.6654 27.1924 28.4963C25.1709 26.3271 24.1602 23.4192 24.1602 19.7725C24.1602 15.5284 25.5355 11.7246 28.286 8.36078C31.0366 4.99701 35.3779 2.29341 41.3099 0.25ZM17.3997 0.25V2.56063C13.9532 3.75524 11.2523 5.64147 9.29709 8.21931C7.34186 10.7657 6.36424 13.4222 6.36424 16.1886C6.36424 16.7859 6.46366 17.226 6.6625 17.509C6.79506 17.6976 6.94419 17.7919 7.10988 17.7919C7.27558 17.7919 7.52413 17.6819 7.85552 17.4618C8.91599 16.7388 10.2581 16.3772 11.882 16.3772C13.7709 16.3772 15.4445 17.116 16.9026 18.5936C18.3608 20.0397 19.0898 21.7687 19.0898 23.7807C19.0898 25.887 18.2448 27.7418 16.5547 29.3451C14.8977 30.9484 12.8762 31.75 10.4901 31.75C7.7064 31.75 5.30378 30.6654 3.28227 28.4963C1.26076 26.3271 0.25 23.4192 0.25 19.7725C0.25 15.5284 1.62529 11.7246 4.37587 8.36078C7.12645 4.99701 11.4677 2.29341 17.3997 0.25Z" fill="#1E1E1E"/>
</svg>
