<svg width="802" height="422" viewBox="0 0 802 422" fill="none" xmlns="http://www.w3.org/2000/svg">
<rect y="42" width="22" height="12" rx="6" fill="#EDEDED"/>
<rect x="42" y="47.2992" width="758" height="1.40157" fill="#464E5F" fill-opacity="0.04"/>
<rect y="129" width="22" height="12" rx="6" fill="#EDEDED"/>
<rect x="42" y="134.299" width="758" height="1.40157" fill="#464E5F" fill-opacity="0.04"/>
<rect y="216" width="22" height="12" rx="6" fill="#EDEDED"/>
<rect x="42" y="221.299" width="758" height="1.40157" fill="#464E5F" fill-opacity="0.04"/>
<rect y="303" width="22" height="12" rx="6" fill="#EDEDED"/>
<rect x="42" y="308.299" width="758" height="1.40157" fill="#464E5F" fill-opacity="0.04"/>
<rect y="390" width="22" height="12" rx="6" fill="#EDEDED"/>
<rect x="42" y="395.299" width="758" height="1.40157" fill="#464E5F" fill-opacity="0.04"/>
<rect x="34.5" y="322" width="23" height="75" rx="11.5" fill="#FFF8D6" stroke="#EDEDED" stroke-width="2"/>
<rect x="34.5" y="351.808" width="23" height="45.1917" rx="11.5" fill="#FFD600" stroke="#EDEDED" stroke-width="2"/>
<rect x="34.5" y="370.667" width="23" height="26.3333" rx="11.5" fill="#FF7A00" stroke="#EDEDED" stroke-width="2"/>
<rect x="35" y="410" width="22" height="12" rx="6" fill="#EDEDED"/>
<rect x="102.045" y="253" width="23" height="144" rx="11.5" fill="#FFF8D6" stroke="#EDEDED" stroke-width="2"/>
<rect x="102.045" y="310.983" width="23" height="86.0167" rx="11.5" fill="#FFD600" stroke="#EDEDED" stroke-width="2"/>
<rect x="102.045" y="347.667" width="23" height="49.3333" rx="11.5" fill="#FF7A00" stroke="#EDEDED" stroke-width="2"/>
<rect x="102.545" y="410" width="22" height="12" rx="6" fill="#EDEDED"/>
<rect x="169.591" y="275" width="23" height="122" rx="11.5" fill="#FFF8D6" stroke="#EDEDED" stroke-width="2"/>
<rect x="169.591" y="324" width="23" height="73" rx="11.5" fill="#FFD600" stroke="#EDEDED" stroke-width="2"/>
<rect x="169.591" y="355" width="23" height="42" rx="11.5" fill="#FF7A00" stroke="#EDEDED" stroke-width="2"/>
<rect x="170.091" y="410" width="22" height="12" rx="6" fill="#EDEDED"/>
<rect x="237.136" y="215" width="23" height="182" rx="11.5" fill="#FFF8D6" stroke="#EDEDED" stroke-width="2"/>
<rect x="237.136" y="288.5" width="23" height="108.5" rx="11.5" fill="#FFD600" stroke="#EDEDED" stroke-width="2"/>
<rect x="237.136" y="335" width="23" height="62" rx="11.5" fill="#FF7A00" stroke="#EDEDED" stroke-width="2"/>
<rect x="237.636" y="410" width="22" height="12" rx="6" fill="#EDEDED"/>
<rect x="304.682" y="238" width="23" height="159" rx="11.5" fill="#FFF8D6" stroke="#EDEDED" stroke-width="2"/>
<rect x="304.682" y="302.108" width="23" height="94.8917" rx="11.5" fill="#FFD600" stroke="#EDEDED" stroke-width="2"/>
<rect x="304.682" y="342.667" width="23" height="54.3333" rx="11.5" fill="#FF7A00" stroke="#EDEDED" stroke-width="2"/>
<rect x="305.182" y="410" width="22" height="12" rx="6" fill="#EDEDED"/>
<rect x="372.227" y="211" width="23" height="186" rx="11.5" fill="#FFF8D6" stroke="#EDEDED" stroke-width="2"/>
<rect x="372.227" y="286.133" width="23" height="110.867" rx="11.5" fill="#FFD600" stroke="#EDEDED" stroke-width="2"/>
<rect x="372.227" y="333.667" width="23" height="63.3333" rx="11.5" fill="#FF7A00" stroke="#EDEDED" stroke-width="2"/>
<rect x="372.727" y="410" width="22" height="12" rx="6" fill="#EDEDED"/>
<rect x="439.773" y="180" width="23" height="217" rx="11.5" fill="#FFF8D6" stroke="#EDEDED" stroke-width="2"/>
<rect x="439.773" y="267.792" width="23" height="129.208" rx="11.5" fill="#FFD600" stroke="#EDEDED" stroke-width="2"/>
<rect x="439.773" y="323.333" width="23" height="73.6667" rx="11.5" fill="#FF7A00" stroke="#EDEDED" stroke-width="2"/>
<rect x="440.273" y="410" width="22" height="12" rx="6" fill="#EDEDED"/>
<rect x="507.318" y="196" width="23" height="201" rx="11.5" fill="#FFF8D6" stroke="#EDEDED" stroke-width="2"/>
<rect x="507.318" y="277.258" width="23" height="119.742" rx="11.5" fill="#FFD600" stroke="#EDEDED" stroke-width="2"/>
<rect x="507.318" y="328.667" width="23" height="68.3333" rx="11.5" fill="#FF7A00" stroke="#EDEDED" stroke-width="2"/>
<rect x="507.818" y="410" width="22" height="12" rx="6" fill="#EDEDED"/>
<rect x="574.864" y="122" width="23" height="275" rx="11.5" fill="#FFF8D6" stroke="#EDEDED" stroke-width="2"/>
<rect x="574.864" y="233.475" width="23" height="163.525" rx="11.5" fill="#FFD600" stroke="#EDEDED" stroke-width="2"/>
<rect x="574.864" y="304" width="23" height="93" rx="11.5" fill="#FF7A00" stroke="#EDEDED" stroke-width="2"/>
<rect x="575.364" y="410" width="22" height="12" rx="6" fill="#EDEDED"/>
<rect x="642.409" y="116" width="23" height="281" rx="11.5" fill="#FFF8D6" stroke="#EDEDED" stroke-width="2"/>
<rect x="642.409" y="229.925" width="23" height="167.075" rx="11.5" fill="#FFD600" stroke="#EDEDED" stroke-width="2"/>
<rect x="642.409" y="302" width="23" height="95" rx="11.5" fill="#FF7A00" stroke="#EDEDED" stroke-width="2"/>
<rect x="642.909" y="410" width="22" height="12" rx="6" fill="#EDEDED"/>
<rect x="709.955" y="71" width="23" height="326" rx="11.5" fill="#FFF8D6" stroke="#EDEDED" stroke-width="2"/>
<rect x="709.955" y="203.3" width="23" height="193.7" rx="11.5" fill="#FFD600" stroke="#EDEDED" stroke-width="2"/>
<rect x="709.955" y="287" width="23" height="110" rx="11.5" fill="#FF7A00" stroke="#EDEDED" stroke-width="2"/>
<rect x="710.455" y="410" width="22" height="12" rx="6" fill="#EDEDED"/>
<rect x="777.5" y="56" width="23" height="341" rx="11.5" fill="#FFF8D6" stroke="#EDEDED" stroke-width="2"/>
<rect x="777.5" y="194.425" width="23" height="202.575" rx="11.5" fill="#FFD600" stroke="#EDEDED" stroke-width="2"/>
<rect x="777.5" y="282" width="23" height="115" rx="11.5" fill="#FF7A00" stroke="#EDEDED" stroke-width="2"/>
<rect x="778" y="410" width="22" height="12" rx="6" fill="#EDEDED"/>
<g filter="url(#filter0_d_11_574)">
<rect x="51.9999" y="22" width="328" height="164" rx="12" fill="white"/>
</g>
<path fill-rule="evenodd" clip-rule="evenodd" d="M133.873 47C159.21 47 181.503 63.7958 188.663 88.2363C195.815 112.652 186.169 138.906 164.934 152.756C143.875 166.491 116.409 164.769 97.2146 148.596L96.6355 148.102L109.838 132.846C122.254 143.59 140.181 144.813 153.913 135.857C167.682 126.877 173.956 109.799 169.301 93.9082C164.7 78.2014 150.517 67.3932 134.363 67.1786L133.873 67.1754V47Z" fill="#FFD600"/>
<path fill-rule="evenodd" clip-rule="evenodd" d="M133.5 47H132.995V67.1754H133.5V47ZM131.054 47.0519L130.55 47.0733L131.407 67.2305L131.911 67.2091L131.054 47.0519ZM128.612 47.2079L128.11 47.2508L129.825 67.3531L130.327 67.3102L128.612 47.2079ZM126.171 47.4689L125.671 47.5333L128.245 67.5437L128.745 67.4793L126.171 47.4689ZM123.742 47.8346L123.245 47.9203L126.676 67.8018L127.173 67.7161L123.742 47.8346ZM121.346 48.3008L120.853 48.4077L125.129 68.1248L125.622 68.0179L121.346 48.3008ZM118.957 48.8729L118.469 49.0009L123.588 68.5161L124.076 68.3882L118.957 48.8729ZM116.599 49.5457L116.117 49.6944L122.067 68.9725L122.549 68.8237L116.599 49.5457ZM114.267 50.3206L113.792 50.4898L120.564 69.4949L121.039 69.3256L114.267 50.3206ZM111.969 51.1954L111.502 51.3849L119.082 70.082L119.55 69.8925L111.969 51.1954ZM109.743 52.1534L109.284 52.3625L117.647 70.7227L118.106 70.5136L109.743 52.1534ZM107.532 53.2179L107.083 53.4464L116.223 71.4327L116.672 71.2042L107.532 53.2179ZM105.372 54.3741L104.933 54.6215L114.831 72.2021L115.27 71.9546L105.372 54.3741ZM103.262 55.6223L102.833 55.8883L113.471 73.0311L113.9 72.7652L103.262 55.6223ZM101.207 56.9586L100.79 57.2426L112.148 73.9172L112.565 73.6333L101.207 56.9586ZM99.2081 58.3836L98.8037 58.6851L110.862 74.8606L111.266 74.5591L99.2081 58.3836ZM97.274 59.8904L96.8828 60.2088L109.618 75.8567L110.009 75.5383L97.274 59.8904ZM95.4012 61.4822L95.0239 61.817L108.415 76.9076L108.792 76.5728L95.4012 61.4822ZM93.5987 63.1517L93.2361 63.5023L107.258 78.0082L107.621 77.6577L93.5987 63.1517ZM91.8808 64.8843L91.5333 65.2499L106.157 79.149L106.505 78.7834L91.8808 64.8843ZM90.2595 66.6631L89.9276 67.0429L105.12 80.3188L105.451 79.939L90.2595 66.6631ZM88.6888 68.5395L88.3734 68.933L104.116 81.5514L104.431 81.1578L88.6888 68.5395ZM87.1975 70.4834L86.8991 70.89L103.164 82.827L103.463 82.4204L87.1975 70.4834ZM85.7903 72.4889L85.5095 72.9078L102.268 84.1419L102.549 83.723L85.7903 72.4889ZM84.4693 74.5533L84.2065 74.9838L101.428 85.4946L101.69 85.064L84.4693 74.5533ZM83.2362 76.6737L82.992 77.1151L100.645 86.8834L100.889 86.4421L83.2362 76.6737ZM82.097 78.8398L81.8717 79.291L99.9229 88.3021L100.148 87.8508L82.097 78.8398ZM81.0488 81.0559L80.8429 81.5163L99.2598 89.754L99.4658 89.2936L81.0488 81.0559ZM80.0967 83.311L79.9104 83.7797L98.6587 91.2326L98.8451 90.7639L80.0967 83.311ZM79.2408 85.6037L79.0744 86.0798L98.1197 92.7372L98.2861 92.2611L79.2408 85.6037ZM78.4836 87.9255L78.3373 88.4082L97.6458 94.2585L97.7921 93.7758L78.4836 87.9255ZM77.8239 90.2807L77.6982 90.7691L97.2365 95.7988L97.3623 95.3104L77.8239 90.2807ZM77.2644 92.662L77.1594 93.1553L96.893 97.354L96.998 96.8607L77.2644 92.662ZM76.8051 95.0704L76.7212 95.5678L96.6152 98.9253L96.6991 98.4279L76.8051 95.0704ZM76.4504 97.4815L76.3875 97.9819L96.4055 100.497L96.4683 99.9965L76.4504 97.4815ZM76.1967 99.9173L76.1551 100.42L96.2617 102.084L96.3033 101.581L76.1967 99.9173ZM76.0463 102.366L76.026 102.87L96.1852 103.679L96.2054 103.175L76.0463 102.366ZM75.9999 104.816L76.0011 105.32L96.1764 105.274L96.1752 104.77L75.9999 104.816ZM76.0575 107.268L76.0801 107.772L96.2353 106.87L96.2127 106.366L76.0575 107.268ZM76.2163 109.684L76.2599 110.187L96.3598 108.443L96.3162 107.941L76.2163 109.684ZM76.4788 112.113L76.5435 112.614L96.552 110.024L96.4872 109.524L76.4788 112.113ZM76.8443 114.535L76.9301 115.032L96.8113 111.599L96.7255 111.102L76.8443 114.535ZM77.3122 116.94L77.4189 117.433L97.1373 113.163L97.0305 112.67L77.3122 116.94ZM77.88 119.319L78.0075 119.807L97.5281 114.709L97.4007 114.221L77.88 119.319ZM78.5501 121.679L78.6981 122.161L97.9855 116.242L97.8375 115.759L78.5501 121.679ZM79.3185 124.006L79.4868 124.482L98.5065 117.751L98.3383 117.276L79.3185 124.006ZM80.1855 126.3L80.3737 126.768L99.0913 119.238L98.903 118.77L80.1855 126.3ZM81.1502 128.559L81.3581 129.018L99.7391 120.7L99.5311 120.241L81.1502 128.559ZM82.1946 130.744L82.4217 131.194L100.438 122.113L100.211 121.663L82.1946 130.744ZM83.3281 132.88L83.5738 133.32L101.194 123.493L100.948 123.052L83.3281 132.88ZM84.5668 134.994L84.831 135.423L102.017 124.856L101.753 124.426L84.5668 134.994ZM85.8935 137.052L86.1757 137.47L102.897 126.182L102.615 125.764L85.8935 137.052ZM87.3065 139.052L87.6062 139.458L103.833 127.468L103.533 127.063L87.3065 139.052ZM88.8065 140.994L89.1233 141.387L104.824 128.716L104.507 128.324L88.8065 140.994ZM90.3865 142.869L90.7197 143.248L105.866 129.92L105.533 129.541L90.3865 142.869ZM92.0441 144.674L92.3931 145.038L106.959 131.078L106.61 130.714L92.0441 144.674ZM93.7767 146.406L94.1408 146.755L108.101 132.189L107.736 131.84L93.7767 146.406ZM95.5819 148.064L95.9605 148.398L109.29 133.253L108.911 132.919L95.5819 148.064Z" fill="#FFD600"/>
<path fill-rule="evenodd" clip-rule="evenodd" d="M256.726 137.829C256.443 137.506 256.672 137 257.102 137H261.898C262.328 137 262.557 137.506 262.274 137.829L259.876 140.57C259.677 140.798 259.323 140.798 259.124 140.57L256.726 137.829Z" fill="#EDEDED"/>
<path fill-rule="evenodd" clip-rule="evenodd" d="M285 150V134.375L290.603 142.645L296.858 138.055L302.157 132.955L307.544 130.436L312.822 132.955L318.821 138.635L324.481 132.955L330.262 138.055L335.922 127.808C335.922 127.808 337.954 129.695 338.789 131.267C338.959 131.586 347.078 122.808 347.716 124.137C348.355 125.466 347.716 150 347.716 150H285Z" fill="url(#paint0_linear_11_574)"/>
<path d="M341.867 45.7333C340.836 45.7333 340 44.8976 340 43.8667C340 42.8357 340.836 42 341.867 42C342.898 42 343.733 42.8357 343.733 43.8667C343.733 44.8976 342.898 45.7333 341.867 45.7333Z" fill="#EDEDED"/>
<path d="M348 45.7333C346.969 45.7333 346.133 44.8976 346.133 43.8667C346.133 42.8357 346.969 42 348 42C349.031 42 349.867 42.8357 349.867 43.8667C349.867 44.8976 349.031 45.7333 348 45.7333Z" fill="#EDEDED"/>
<path d="M354.133 45.7333C353.102 45.7333 352.267 44.8976 352.267 43.8667C352.267 42.8357 353.102 42 354.133 42C355.164 42 356 42.8357 356 43.8667C356 44.8976 355.164 45.7333 354.133 45.7333Z" fill="#EDEDED"/>
<rect x="227" y="76" width="103" height="15" rx="7.5" fill="#EDEDED"/>
<rect x="227" y="96" width="78" height="15" rx="7.5" fill="#EDEDED"/>
<rect x="227" y="134" width="23" height="9" rx="4.5" fill="#EDEDED"/>
<rect x="110" y="98" width="19" height="11" rx="5.5" fill="#EDEDED"/>
<rect x="131" y="98" width="26" height="11" rx="5.5" fill="#EDEDED"/>
<g filter="url(#filter1_d_11_574)">
<g filter="url(#filter2_d_11_574)">
<rect x="400" y="22" width="160" height="112.683" rx="5.85366" fill="white"/>
</g>
<rect x="412.683" y="33.2195" width="53.6585" height="11.7073" rx="5.85366" fill="#D9D9D9"/>
<rect x="458.049" y="77.1219" width="43.9024" height="16.5854" rx="8.29268" fill="#D9D9D9"/>
<rect x="443.415" y="101.024" width="73.1707" height="8.29268" rx="4.14634" fill="#D9D9D9"/>
<rect x="451.22" y="110.78" width="57.561" height="8.29268" rx="4.14634" fill="#D9D9D9"/>
<path d="M420.538 114.195C419.702 114.195 419.022 113.517 419.043 112.682C419.229 105.19 420.795 97.7924 423.666 90.8607C426.73 83.4628 431.222 76.7409 436.884 71.0788C442.546 65.4167 449.268 60.9253 456.666 57.861C463.597 54.9898 470.995 53.4242 478.487 53.2383C479.322 53.2175 480 53.897 480 54.7327C480 55.5684 479.322 56.2438 478.487 56.2656C471.393 56.4509 464.388 57.9379 457.824 60.657C450.793 63.5692 444.405 67.8377 439.024 73.2188C433.643 78.5999 429.374 84.9882 426.462 92.0189C423.743 98.5833 422.256 105.588 422.071 112.682C422.049 113.517 421.373 114.195 420.538 114.195Z" fill="#FFD600"/>
<path d="M483.327 54.8258C483.374 53.9914 484.088 53.351 484.921 53.4184C491.05 53.9147 497.069 55.3353 502.773 57.6318C503.549 57.944 503.901 58.8364 503.57 59.6036C503.239 60.3709 502.349 60.7224 501.573 60.4112C496.196 58.2544 490.526 56.9161 484.752 56.441C483.919 56.3725 483.28 55.6602 483.327 54.8258Z" fill="#F9CD09"/>
<path d="M506.281 60.8558C506.651 60.1062 507.559 59.7962 508.299 60.1841C516.163 64.3044 523.033 70.0927 528.428 77.1438C528.935 77.8076 528.784 78.7552 528.108 79.2464C527.432 79.7376 526.487 79.5863 525.978 78.9232C520.874 72.2689 514.385 66.8017 506.961 62.8997C506.221 62.5109 505.912 61.6055 506.281 60.8558Z" fill="#EDEDED"/>
<circle cx="518.537" cy="68.8293" r="4.39024" fill="#EDEDED"/>
<circle cx="518.537" cy="68.8293" r="1.95122" fill="white"/>
<path d="M529.548 81.3201C530.244 80.8581 531.185 81.0472 531.63 81.7548C537.458 91.0307 540.68 101.707 540.956 112.658C540.977 113.494 540.298 114.172 539.462 114.172C538.627 114.172 537.951 113.495 537.929 112.659C537.654 102.303 534.608 92.208 529.107 83.4285C528.664 82.7203 528.852 81.7822 529.548 81.3201Z" fill="#FFD600"/>
</g>
<defs>
<filter id="filter0_d_11_574" x="21.9999" y="0" width="388" height="224" filterUnits="userSpaceOnUse" color-interpolation-filters="sRGB">
<feFlood flood-opacity="0" result="BackgroundImageFix"/>
<feColorMatrix in="SourceAlpha" type="matrix" values="0 0 0 0 0 0 0 0 0 0 0 0 0 0 0 0 0 0 127 0" result="hardAlpha"/>
<feOffset dy="8"/>
<feGaussianBlur stdDeviation="15"/>
<feComposite in2="hardAlpha" operator="out"/>
<feColorMatrix type="matrix" values="0 0 0 0 0 0 0 0 0 0 0 0 0 0 0 0 0 0 0.08 0"/>
<feBlend mode="normal" in2="BackgroundImageFix" result="effect1_dropShadow_11_574"/>
<feBlend mode="normal" in="SourceGraphic" in2="effect1_dropShadow_11_574" result="shape"/>
</filter>
<filter id="filter1_d_11_574" x="385.366" y="11.2683" width="189.268" height="141.951" filterUnits="userSpaceOnUse" color-interpolation-filters="sRGB">
<feFlood flood-opacity="0" result="BackgroundImageFix"/>
<feColorMatrix in="SourceAlpha" type="matrix" values="0 0 0 0 0 0 0 0 0 0 0 0 0 0 0 0 0 0 127 0" result="hardAlpha"/>
<feOffset dy="3.90244"/>
<feGaussianBlur stdDeviation="7.31707"/>
<feComposite in2="hardAlpha" operator="out"/>
<feColorMatrix type="matrix" values="0 0 0 0 0 0 0 0 0 0 0 0 0 0 0 0 0 0 0.08 0"/>
<feBlend mode="normal" in2="BackgroundImageFix" result="effect1_dropShadow_11_574"/>
<feBlend mode="normal" in="SourceGraphic" in2="effect1_dropShadow_11_574" result="shape"/>
</filter>
<filter id="filter2_d_11_574" x="385.366" y="11.2683" width="189.268" height="141.951" filterUnits="userSpaceOnUse" color-interpolation-filters="sRGB">
<feFlood flood-opacity="0" result="BackgroundImageFix"/>
<feColorMatrix in="SourceAlpha" type="matrix" values="0 0 0 0 0 0 0 0 0 0 0 0 0 0 0 0 0 0 127 0" result="hardAlpha"/>
<feOffset dy="3.90244"/>
<feGaussianBlur stdDeviation="7.31707"/>
<feComposite in2="hardAlpha" operator="out"/>
<feColorMatrix type="matrix" values="0 0 0 0 0 0 0 0 0 0 0 0 0 0 0 0 0 0 0.08 0"/>
<feBlend mode="normal" in2="BackgroundImageFix" result="effect1_dropShadow_11_574"/>
<feBlend mode="normal" in="SourceGraphic" in2="effect1_dropShadow_11_574" result="shape"/>
</filter>
<linearGradient id="paint0_linear_11_574" x1="259.355" y1="105.295" x2="259.355" y2="152.462" gradientUnits="userSpaceOnUse">
<stop stop-color="#FFD600"/>
<stop offset="1" stop-color="white"/>
</linearGradient>
</defs>
</svg>
