<svg width="111" height="67" viewBox="0 0 111 67" fill="none" xmlns="http://www.w3.org/2000/svg">
<g clip-path="url(#clip0_11_214)">
<path d="M106.873 4.39343H5.57924V62.9727H106.873V4.39343Z" fill="white"/>
<path d="M22.6862 40.9499C21.9442 41.2986 21.4536 41.679 21.2144 42.0923C20.974 42.5061 20.8544 43.0825 20.8544 43.8214C20.8544 44.6473 21.2241 45.4196 21.9668 46.1372C22.7075 46.8547 24.0372 47.2138 25.9569 47.2138C28.181 47.2138 30.0666 46.6265 31.6153 45.4519C33.1621 44.2778 33.9371 42.6254 33.9371 40.4934V39.3845C31.4511 39.5592 29.1623 39.7546 27.0687 39.9718C24.9757 40.1903 23.5136 40.5159 22.6862 40.9499Z" fill="#979797"/>
<path d="M61.644 29.5327C61.0552 29.0111 60.3791 28.6197 59.6169 28.3586C58.8529 28.0975 58.0566 27.9673 57.2292 27.9673C56.3999 27.9673 55.6036 28.0975 54.8409 28.3586C54.0775 28.6197 53.402 29.0111 52.8132 29.5327C52.2243 30.0549 51.7441 30.7298 51.3743 31.5551C51.0033 32.3822 50.8184 33.3609 50.8184 34.4911V39.8415C50.8184 40.9723 51.0033 41.9515 51.3743 42.7774C51.7441 43.6039 52.2243 44.2777 52.8132 44.7993C53.402 45.3221 54.0775 45.7128 54.8409 45.9739C55.6036 46.2356 56.3999 46.3659 57.2292 46.3659C58.0566 46.3659 58.8529 46.2356 59.6169 45.9739C60.3791 45.7128 61.0552 45.3221 61.644 44.7993C62.2329 44.2777 62.7125 43.6039 63.0829 42.7774C63.4533 41.9515 63.6394 40.9723 63.6394 39.8415V34.4911C63.6394 33.3609 63.4533 32.3822 63.0829 31.5551C62.7125 30.7298 62.2329 30.0549 61.644 29.5327Z" fill="#979797"/>
<path d="M97.965 49.2035C97.267 50.5309 96.3071 51.607 95.0867 52.4335C93.8651 53.26 92.4592 53.8576 90.8678 54.2277C89.2752 54.5959 87.6069 54.7821 85.8635 54.7821C84.119 54.7821 82.3854 54.5533 80.6634 54.0962C78.9402 53.6404 77.3921 52.9447 76.0185 52.0087C74.645 51.0738 73.5216 49.8785 72.6502 48.4208C72.5136 48.1932 72.3909 47.9571 72.2731 47.7167V54.1297H63.6388V50.9326C63.247 51.498 62.7558 52.0202 62.167 52.498C61.5781 52.9776 60.9344 53.3793 60.2375 53.7049C59.5388 54.0317 58.7981 54.2928 58.0133 54.4888C57.2286 54.6842 56.4653 54.7821 55.7239 54.7821C54.0232 54.7821 52.3556 54.4888 50.7202 53.9009C49.0849 53.3141 47.6344 52.4116 46.3701 51.1943C45.1045 49.9765 44.0904 48.4531 43.3282 46.6266C43.0067 45.8573 42.7571 45.0272 42.5716 44.1428V54.1297H33.9366V50.2802C33.1519 51.5425 32.0401 52.6075 30.6007 53.4766C29.1618 54.3464 27.1341 54.7821 24.5176 54.7821C20.6355 54.7821 17.6162 53.9009 15.4579 52.1395C13.299 50.3782 12.2196 47.9315 12.2196 44.7996C12.2196 42.32 12.6992 40.3092 13.659 38.7651C14.6177 37.2216 16.2756 35.8833 18.6303 34.7524C19.4584 34.3605 20.4719 34.0343 21.6722 33.7732C22.8712 33.5127 24.1575 33.2839 25.5311 33.0885C26.9053 32.8925 28.3118 32.7294 29.75 32.5992C31.1895 32.4683 32.5411 32.3606 33.806 32.2729V32.2078C33.5003 30.6856 32.8248 29.4897 31.7783 28.6194C30.7319 27.7497 29.3144 27.3145 27.5265 27.3145C25.9991 27.3145 24.7348 27.6517 23.7322 28.3254C22.7291 29.0004 22.009 29.903 21.574 31.0332H12.8737C13.5712 27.5099 15.1522 24.7157 17.6162 22.6494C20.0796 20.5844 23.3826 19.5503 27.5265 19.5503C29.924 19.5503 32.0615 19.9204 33.9366 20.6599C35.8112 21.3993 37.3922 22.4437 38.6791 23.7912C39.9654 25.1399 40.9362 26.7601 41.5904 28.6516C41.9187 29.6017 42.164 30.6096 42.3275 31.6747C42.5014 30.2152 42.8328 28.8908 43.3282 27.7058C44.0904 25.8788 45.1045 24.3566 46.3701 23.1388C47.6344 21.9215 49.0849 21.0183 50.7202 20.431C52.3556 19.8443 54.0232 19.5503 55.7239 19.5503C56.4653 19.5503 57.2286 19.6483 58.0133 19.8443C58.7981 20.0397 59.5388 20.3008 60.2375 20.6264C60.9344 20.9532 61.5781 21.3555 62.167 21.8339C62.7558 22.3129 63.247 22.8351 63.6388 23.3999V12.2171H72.2731V27.5318C72.4476 26.8179 72.7021 26.146 73.0426 25.5203C73.7394 24.2373 74.6779 23.1497 75.8556 22.2581C77.0327 21.3671 78.3953 20.6921 79.944 20.2356C81.4914 19.7786 83.1372 19.5503 84.8829 19.5503C86.5836 19.5503 88.1957 19.7573 89.7231 20.1699C91.2486 20.5844 92.6014 21.2362 93.7785 22.1272C94.9555 23.0195 95.9148 24.1503 96.6562 25.5203C97.3976 26.8903 97.8339 28.5324 97.965 30.4459H89.1342C88.9158 29.3595 88.3818 28.5652 87.5312 28.0649C86.6812 27.5653 85.7104 27.3145 84.6206 27.3145C83.3556 27.3145 82.3854 27.5427 81.7093 27.9998C81.0332 28.4563 80.6732 29.0758 80.6304 29.8585C80.6304 30.5992 80.8806 31.1537 81.3822 31.5225C81.8838 31.8925 82.505 32.1646 83.247 32.3381L90.8348 34.0343C91.7508 34.2528 92.688 34.5887 93.6479 35.0452C94.6065 35.5023 95.4889 36.1334 96.2968 36.938C97.1034 37.7432 97.7576 38.7541 98.2592 39.9714C98.7601 41.1898 99.0115 42.6694 99.0115 44.4082C99.0115 46.2785 98.6625 47.8773 97.965 49.2035ZM109.371 -0.000366211H1.85957C1.21825 -0.000366211 0.697754 0.518787 0.697754 1.15906V65.8402C0.697754 66.481 1.21825 66.9996 1.85957 66.9996H109.371C110.013 66.9996 110.534 66.481 110.534 65.8402V1.15906C110.534 0.518787 110.013 -0.000366211 109.371 -0.000366211Z" fill="#979797"/>
<path d="M87.3683 41.7986L80.3034 40.2326C79.3881 40.0153 78.4392 39.6678 77.458 39.1888C76.4768 38.711 75.5829 38.058 74.7762 37.2315C73.9689 36.4062 73.3044 35.3947 72.7809 34.1975C72.5624 33.6991 72.4013 33.1507 72.2738 32.5725V43.2337H79.8458C79.9324 43.8868 80.1832 44.4516 80.5981 44.9305C81.0119 45.4095 81.5134 45.8003 82.1023 46.1046C82.6911 46.4089 83.3343 46.6377 84.0324 46.7899C84.7292 46.9426 85.4273 47.0181 86.1253 47.0181C86.561 47.0181 87.0187 46.9852 87.4989 46.9201C87.9785 46.855 88.4362 46.7247 88.8731 46.5288C89.3082 46.3328 89.6682 46.0717 89.9519 45.7455C90.2351 45.4193 90.3772 44.9744 90.3772 44.4083C90.3772 43.1035 89.3735 42.2343 87.3683 41.7986Z" fill="#979797"/>
<path d="M5.57936 0H0.697754V66.9998H5.57936V0Z" fill="#979797"/>
<path d="M110.534 0H105.652V66.9998H110.534V0Z" fill="#979797"/>
</g>
<defs>
<clipPath id="clip0_11_214">
<rect width="109.836" height="67" fill="white" transform="translate(0.697754)"/>
</clipPath>
</defs>
</svg>
