<svg width="164" height="67" viewBox="0 0 164 67" fill="none" xmlns="http://www.w3.org/2000/svg">
<g clip-path="url(#clip0_11_236)">
<path fill-rule="evenodd" clip-rule="evenodd" d="M22.4698 21.3134C21.2533 21.4548 20.3256 22.4427 20.2393 23.6886C20.2021 24.2254 20.2138 24.2618 21.4306 27.393C24.199 34.517 24.8697 36.2316 24.9825 36.4729C25.2558 37.0573 25.64 37.6071 26.1201 38.1006C26.4886 38.4792 26.7315 38.6828 27.1425 38.9573C27.8648 39.4397 28.2232 39.573 31.0337 40.4052C33.7714 41.2158 35.2671 41.7546 36.5559 42.3943C38.2257 43.223 39.3906 44.1657 40.1275 45.2842C40.6562 46.0868 41.1245 47.526 41.3282 48.9747C41.4079 49.541 41.4084 50.7928 41.3292 51.3047C41.1573 52.4158 40.814 53.3469 40.2887 54.1261C40.0094 54.5405 40.1066 54.4711 40.5127 53.9661C41.662 52.5371 42.8328 50.0948 43.4302 47.8801C44.1532 45.1997 44.2516 42.3214 43.7133 39.5972C42.6649 34.2921 39.3159 29.7138 34.5991 27.1377C34.3027 26.9758 33.1739 26.3841 31.6435 25.5885C31.4113 25.4677 31.0946 25.3023 30.9398 25.2211C30.785 25.1397 30.4683 24.9744 30.2361 24.8537C30.0039 24.733 29.3354 24.3847 28.7505 24.0797C28.1657 23.7747 27.5113 23.4335 27.2963 23.3214C26.6409 22.9797 26.2011 22.7501 25.8732 22.5785C24.3568 21.7846 23.7149 21.4637 23.5319 21.408C23.34 21.3496 22.8524 21.2747 22.73 21.2847C22.7043 21.2869 22.5871 21.2997 22.4698 21.3134Z" fill="url(#paint0_radial_11_236)"/>
<path d="M25.7758 47.9081C25.6917 47.9578 25.5738 48.0299 25.5136 48.0681C25.4533 48.1064 25.3196 48.1895 25.2164 48.2528C24.8377 48.4853 23.8303 49.1061 22.9646 49.6405C22.3957 49.9917 22.3112 50.044 21.5885 50.4925C21.3304 50.6526 21.056 50.8214 20.9786 50.8675C20.9012 50.9137 20.5705 51.1173 20.2436 51.3201C19.9168 51.5228 19.3468 51.8747 18.977 52.102C18.6072 52.3293 17.9457 52.7374 17.5071 53.0088C17.0684 53.2801 16.4914 53.636 16.2248 53.7995C15.9581 53.9629 15.7119 54.1208 15.6775 54.1504C15.6263 54.1942 13.255 55.6631 12.0651 56.388C11.1614 56.9385 10.116 57.3068 9.04581 57.4514C8.54759 57.5187 7.60477 57.5189 7.10797 57.4518C5.76084 57.2699 4.51983 56.7675 3.45699 55.9739C3.04009 55.6626 2.25521 54.8784 1.95515 54.4732C1.24805 53.5186 0.790615 52.4946 0.553704 51.336C0.499192 51.0694 0.447619 50.8442 0.439144 50.8356C0.417001 50.8132 0.457 51.216 0.529152 51.7426C0.604182 52.2902 0.764064 53.0824 0.936267 53.7598C2.26885 59.0028 6.06077 63.2671 11.1941 65.296C12.6723 65.8799 14.1639 66.248 15.7869 66.4284C16.3968 66.4967 18.123 66.5238 18.7595 66.4755C21.6784 66.2544 24.2199 65.3952 26.8271 63.7475C27.0594 63.6007 27.4956 63.3257 27.7966 63.1361C28.0977 62.9466 28.4776 62.7057 28.6411 62.6008C28.8045 62.4959 29.0015 62.3719 29.0789 62.3254C29.1563 62.2788 29.3112 62.1815 29.423 62.1092C29.5348 62.0368 30.0133 61.7342 30.4863 61.4366L32.3779 60.2418L33.0274 59.8316L33.0508 59.8168L33.1223 59.7716L33.1564 59.7501L33.6345 59.4481L35.2871 58.4043C37.3928 57.0811 38.0207 56.6166 38.999 55.6583C39.4068 55.2589 40.0217 54.577 40.0523 54.4904C40.0584 54.4728 40.1678 54.3042 40.2951 54.1158C40.8128 53.3497 41.158 52.4114 41.3292 51.3048C41.4084 50.7928 41.4079 49.541 41.3282 48.9747C41.1743 47.8799 40.8244 46.638 40.4472 45.8472C39.8287 44.5505 38.511 43.3723 36.6181 42.4234C36.0954 42.1614 35.5557 41.9217 35.4954 41.9248C35.4669 41.9263 33.7054 43.003 31.581 44.3176C29.4566 45.6322 27.6129 46.7732 27.4839 46.8532C27.3549 46.9334 27.1332 47.0688 26.9913 47.1541L25.7758 47.9081Z" fill="url(#paint1_radial_11_236)"/>
<path d="M0.407291 41.6016L0.416393 50.7575L0.534897 51.2891C0.905448 52.9514 1.54747 54.1499 2.66359 55.2631C3.18858 55.7867 3.59004 56.1024 4.15894 56.4391C5.36275 57.1515 6.65837 57.5029 8.07753 57.5023C9.56388 57.5015 10.8497 57.1308 12.1746 56.3209C12.3982 56.1843 13.2743 55.6449 14.1215 55.1222L15.6618 54.172V43.3089V32.4457L15.6613 22.508C15.661 16.1678 15.6494 12.4026 15.6294 12.1072C15.503 10.2509 14.7267 8.54433 13.4213 7.25353C13.0206 6.85738 12.6783 6.59279 11.6585 5.89103C11.1511 5.54181 10.2222 4.90207 9.59437 4.46941C8.96653 4.03672 7.93212 3.32392 7.29565 2.88537C6.65918 2.44686 5.75141 1.8212 5.27837 1.49506C4.29292 0.815599 4.21579 0.768341 3.9179 0.661754C3.53042 0.523142 3.11981 0.472226 2.72943 0.514385C1.59163 0.637266 0.680796 1.45878 0.444041 2.57565C0.407199 2.74942 0.400411 5.06195 0.399942 17.6133L0.399411 32.4457H0.398193L0.407291 41.6016Z" fill="url(#paint2_linear_11_236)"/>
<path d="M64.4001 52.7982V14.0266H76.7126C80.4612 14.0266 83.4441 14.8475 85.6329 16.4891C87.8218 18.1309 88.9162 20.2651 88.9162 22.8919C88.9162 25.0807 88.2871 26.9961 87.0554 28.6378C85.7386 30.3036 83.9288 31.5103 81.8843 32.0854V32.1948C84.5656 32.4958 86.6726 33.4808 88.2594 35.1773C89.874 36.8189 90.6674 39.0079 90.6674 41.6619C90.6674 44.9728 89.3538 47.6815 86.7544 49.7063C84.155 51.7311 80.8447 52.7982 76.8499 52.7982H64.4001ZM70.83 19.198V30.2247H74.9892C77.2328 30.2247 78.984 29.6775 80.2427 28.6652C81.5286 27.5707 82.1576 26.0932 82.1576 24.1778C82.1576 20.8397 79.9417 19.198 75.5093 19.198H70.83ZM70.83 35.3961V47.6542H76.3027C78.71 47.6542 80.5708 47.1069 81.8566 46.0125C83.1702 44.8907 83.827 43.3584 83.827 41.4157C83.827 37.3935 81.0632 35.3961 75.4816 35.3961H70.83ZM98.5203 19.3074C97.5078 19.3074 96.6048 18.9517 95.8932 18.2951C95.1546 17.6383 94.7988 16.7901 94.7988 15.7504C94.7988 14.7107 95.1546 13.8624 95.8932 13.1784C96.6325 12.4943 97.5078 12.166 98.5474 12.166C99.587 12.166 100.49 12.4943 101.229 13.1784C101.968 13.8624 102.324 14.738 102.324 15.7504C102.324 16.7354 101.968 17.5563 101.229 18.2677C100.49 18.9517 99.587 19.3074 98.5203 19.3074ZM101.639 52.7982H95.3737V25.1081H101.667L101.639 52.7982ZM132.695 52.7982H126.429V37.202C126.429 32.0033 124.596 29.4313 120.957 29.4313C119.042 29.4313 117.455 30.17 116.196 31.6202C114.929 33.1244 114.266 35.0453 114.335 37.0105V52.7982H108.042V25.1081H114.335V29.7049H114.445C115.302 28.0792 116.596 26.7257 118.182 25.7973C119.769 24.869 121.582 24.4028 123.419 24.4514C126.429 24.4514 128.728 25.4365 130.314 27.4065C131.901 29.3492 132.695 32.1674 132.695 35.8886V52.7982ZM163.751 50.5819C163.751 60.7331 158.662 65.8226 148.428 65.8226C145.189 65.8967 141.971 65.2812 138.989 64.0165V58.2705C141.998 60.0217 144.898 60.8699 147.607 60.8699C154.174 60.8699 157.485 57.6412 157.485 51.1565V48.1467H157.375C156.466 49.8143 155.107 51.1932 153.452 52.1268C151.799 53.0603 149.915 53.5109 148.018 53.4275C146.469 53.4772 144.93 53.1728 143.516 52.5374C142.104 51.902 140.854 50.9525 139.864 49.7611C137.683 46.9242 136.587 43.4021 136.772 39.8287C136.772 35.1225 137.866 31.4013 140.11 28.6105C142.354 25.8195 145.364 24.4514 149.249 24.4514C152.888 24.4514 155.597 25.9563 157.375 28.9388H157.485V25.1081H163.778L163.751 50.5819ZM157.539 40.1297V36.5179C157.539 34.5753 156.883 32.9062 155.597 31.5381C154.991 30.8655 154.247 30.3316 153.416 29.9727C152.585 29.6139 151.686 29.4385 150.782 29.4587C148.401 29.4587 146.54 30.3616 145.199 32.1127C143.733 34.2765 143.021 36.8636 143.175 39.4731C143.175 42.2092 143.832 44.3708 145.09 46.0125C146.403 47.6542 148.1 48.4477 150.234 48.4477C152.423 48.4477 154.174 47.6542 155.515 46.1219C156.883 44.5349 157.539 42.5649 157.539 40.1024V40.1297Z" fill="#979797"/>
</g>
<defs>
<radialGradient id="paint0_radial_11_236" cx="0" cy="0" r="1" gradientUnits="userSpaceOnUse" gradientTransform="translate(42.5586 47.0513) rotate(-130.909) scale(34.0998 24.5363)">
<stop stop-color="#C4C4C4"/>
<stop offset="1" stop-color="#888888"/>
</radialGradient>
<radialGradient id="paint1_radial_11_236" cx="0" cy="0" r="1" gradientUnits="userSpaceOnUse" gradientTransform="translate(6.12282 59.4833) rotate(-23.1954) scale(36.8839 61.4683)">
<stop stop-color="#BFBFBF"/>
<stop offset="1" stop-color="#8A8A8A"/>
</radialGradient>
<linearGradient id="paint2_linear_11_236" x1="8.03003" y1="0.5" x2="8.03003" y2="57.5023" gradientUnits="userSpaceOnUse">
<stop stop-color="#CCCCCC"/>
<stop offset="1" stop-color="#8C8C8C"/>
</linearGradient>
<clipPath id="clip0_11_236">
<rect width="163.389" height="66" fill="white" transform="translate(0.398193 0.5)"/>
</clipPath>
</defs>
</svg>
