<svg width="206" height="67" viewBox="0 0 206 67" fill="none" xmlns="http://www.w3.org/2000/svg">
<g clip-path="url(#clip0_11_229)">
<path d="M25.8502 22.8637V29.7312H42.1846C41.6845 33.5838 40.4067 36.4033 38.4621 38.3854C36.0731 40.7863 32.3506 43.4104 25.8502 43.4104C15.7941 43.4104 7.93248 35.2588 7.93248 25.1529C7.93248 15.0471 15.7941 6.89542 25.8502 6.89542C31.2672 6.89542 35.2397 9.045 38.1566 11.8088L42.9624 6.97917C38.9066 3.015 33.4618 0 25.8502 0C12.0716 0 0.487579 11.2783 0.487579 25.125C0.487579 38.9717 12.0716 50.25 25.8502 50.25C33.2951 50.25 38.9066 47.7933 43.2958 43.215C47.796 38.6925 49.2128 32.2996 49.2128 27.1629C49.2128 25.5717 49.1017 24.0921 48.8517 22.8637H25.8502Z" fill="#979797"/>
<path d="M69.6307 17.2804C60.7135 17.2804 53.4352 24.0921 53.4352 33.5C53.4352 42.8242 60.7135 49.7196 69.6307 49.7196C78.5479 49.7196 85.8261 42.8521 85.8261 33.5C85.8261 24.0921 78.5479 17.2804 69.6307 17.2804ZM69.6307 43.3267C64.7415 43.3267 60.519 39.2787 60.519 33.5C60.519 27.6654 64.7415 23.6733 69.6307 23.6733C74.5199 23.6733 78.7423 27.6654 78.7423 33.5C78.7423 39.2787 74.5199 43.3267 69.6307 43.3267Z" fill="#979797"/>
<path d="M149.024 20.9096H148.774C147.191 19.0112 144.135 17.2804 140.274 17.2804C132.218 17.2804 125.19 24.3433 125.19 33.5C125.19 42.6008 132.218 49.7196 140.274 49.7196C144.135 49.7196 147.191 47.9887 148.774 46.0346H149.024V48.2958C149.024 54.4933 145.719 57.8154 140.413 57.8154C136.079 57.8154 133.385 54.6887 132.273 52.0367L126.106 54.605C127.884 58.9042 132.579 64.1804 140.413 64.1804C148.719 64.1804 155.747 59.2671 155.747 47.2908V18.1179H149.024V20.9096ZM140.885 43.3267C135.996 43.3267 132.273 39.1392 132.273 33.5C132.273 27.7771 135.996 23.6733 140.885 23.6733C145.719 23.6733 149.497 27.8608 149.497 33.5558C149.524 39.2229 145.719 43.3267 140.885 43.3267Z" fill="#979797"/>
<path d="M105.744 17.2804C96.8268 17.2804 89.5485 24.0921 89.5485 33.5C89.5485 42.8242 96.8268 49.7196 105.744 49.7196C114.661 49.7196 121.939 42.8521 121.939 33.5C121.939 24.0921 114.661 17.2804 105.744 17.2804ZM105.744 43.3267C100.855 43.3267 96.6323 39.2787 96.6323 33.5C96.6323 27.6654 100.855 23.6733 105.744 23.6733C110.633 23.6733 114.856 27.6654 114.856 33.5C114.856 39.2787 110.633 43.3267 105.744 43.3267Z" fill="#979797"/>
<path d="M161.303 0.670044H168.276V49.7196H161.303V0.670044Z" fill="#979797"/>
<path d="M189.805 43.3267C186.193 43.3267 183.638 41.6796 181.971 38.4133L203.556 29.4521L202.833 27.6096C201.5 23.9804 197.389 17.2804 189.027 17.2804C180.721 17.2804 173.804 23.8408 173.804 33.5C173.804 42.6008 180.638 49.7196 189.805 49.7196C197.194 49.7196 201.472 45.1691 203.25 42.545L197.75 38.86C195.916 41.54 193.416 43.3267 189.805 43.3267ZM189.305 23.3662C192.166 23.3662 194.611 24.8458 195.416 26.9396L180.832 32.9975C180.832 26.1858 185.638 23.3662 189.305 23.3662Z" fill="#979797"/>
</g>
<defs>
<clipPath id="clip0_11_229">
<rect width="205.568" height="67" fill="white" transform="translate(0.182007)"/>
</clipPath>
</defs>
</svg>
