<svg width="221" height="51" viewBox="0 0 221 51" fill="none" xmlns="http://www.w3.org/2000/svg">
<g clip-path="url(#clip0_11_205)">
<path d="M24.9578 49.67H11.8474V11.96H0V1.26501H36.7752V11.96H24.9578V49.67Z" fill="#979797"/>
<path d="M85.9892 25.4C85.9892 33.5467 83.9845 39.7383 79.9753 43.975C75.966 48.2117 70.1024 50.3317 62.3845 50.335C54.7735 50.335 48.9384 48.205 44.879 43.945C40.8196 39.685 38.7899 33.4817 38.7899 25.335C38.7899 17.2783 40.8095 11.125 44.8489 6.875C48.8882 2.625 54.7568 0.5 62.4547 0.5C70.1759 0.5 76.0228 2.60833 79.9953 6.825C83.9678 11.0417 85.9658 17.2333 85.9892 25.4ZM52.6219 25.4C52.6219 34.76 55.8861 39.44 62.4146 39.44C65.7323 39.44 68.1946 38.3033 69.8017 36.03C71.4087 33.7567 72.1972 30.2133 72.1672 25.4C72.1672 20.5667 71.3536 16.9967 69.7265 14.69C68.0994 12.3833 65.6705 11.23 62.4396 11.23C55.8945 11.23 52.6219 15.9533 52.6219 25.4Z" fill="#979797"/>
<path d="M138.32 49.67H121.131L103.379 15.565H103.084C103.501 20.9283 103.712 25.0233 103.715 27.85V49.67H92.0983V1.26501H109.223L126.879 34.905H127.079C126.769 30.025 126.613 26.1067 126.613 23.15V1.26501H138.32V49.67Z" fill="#979797"/>
<path d="M145.928 49.67V1.26501H159.104V49.67H145.928Z" fill="#979797"/>
<path d="M188.482 11.295C187.037 11.2478 185.604 11.5755 184.325 12.2459C183.045 12.9163 181.961 13.9066 181.18 15.12C179.429 17.67 178.555 21.185 178.559 25.665C178.559 34.9817 182.11 39.64 189.213 39.64C191.326 39.645 193.427 39.3435 195.453 38.745C197.513 38.1334 199.541 37.4157 201.527 36.595V47.65C197.186 49.4968 192.503 50.41 187.785 50.33C180.461 50.33 174.847 48.21 170.941 43.97C167.035 39.73 165.082 33.6067 165.082 25.6C165.082 20.6 166.028 16.1967 167.919 12.39C169.695 8.7168 172.54 5.66371 176.083 3.62999C179.641 1.58666 183.817 0.564993 188.612 0.564993C193.817 0.556036 198.957 1.72179 203.647 3.97499L199.637 14.27C197.892 13.4502 196.096 12.7421 194.26 12.15C192.39 11.5664 190.441 11.2779 188.482 11.295Z" fill="#979797"/>
<path d="M206.759 44.1749C206.759 42.1416 207.362 40.5733 208.568 39.4699C209.774 38.3666 211.528 37.8149 213.83 37.8149C216.022 37.8149 217.704 38.3666 218.877 39.4699C220.05 40.5733 220.636 42.1416 220.636 44.1749C220.636 46.1749 220.033 47.7249 218.827 48.8249C217.621 49.9249 215.95 50.4833 213.815 50.4999C211.627 50.4999 209.901 49.9483 208.638 48.8449C207.375 47.7416 206.749 46.1849 206.759 44.1749Z" fill="#979797"/>
</g>
<defs>
<clipPath id="clip0_11_205">
<rect width="220.631" height="50" fill="white" transform="translate(0 0.5)"/>
</clipPath>
</defs>
</svg>
