<svg width="224" height="63" viewBox="0 0 224 63" fill="none" xmlns="http://www.w3.org/2000/svg">
<g clip-path="url(#clip0_11_241)">
<path d="M0.435059 15.5931H13.7357L21.4805 35.4074L29.3258 15.5931H42.2762L22.7758 62.5H9.74339L15.0813 50.0704L0.435059 15.5931Z" fill="#979797"/>
<path d="M55.7671 14.8043C45.7737 14.8043 39.4561 23.7668 39.4561 32.6921C39.4561 42.7356 46.3825 50.6984 55.5775 50.6984C62.4366 50.6984 65.0228 46.5193 65.0228 46.5193V49.7747H76.6235V15.5933H65.0228V18.7007C65.0228 18.7007 62.1374 14.8043 55.7671 14.8043ZM58.2346 25.7889C62.8456 25.7889 65.2251 29.4375 65.2251 32.7297C65.2251 36.2747 62.6758 39.7537 58.2346 39.7537C54.5537 39.7537 51.2273 36.7456 51.2273 32.8805C51.2273 28.9608 53.9029 25.7889 58.2346 25.7889Z" fill="#979797"/>
<path d="M80.6188 49.7745V0.5H92.7524V18.819C92.7524 18.819 95.6344 14.8085 101.67 14.8085C109.054 14.8085 113.38 20.3097 113.38 28.1706V49.7745H101.335V31.1301C101.335 28.4698 100.068 25.8998 97.1971 25.8998C94.2752 25.8998 92.7524 28.5087 92.7524 31.1301V49.7745H80.6188Z" fill="#979797"/>
<path d="M134.067 14.8083C122.623 14.8083 115.808 23.5106 115.808 32.8343C115.808 43.4447 124.059 50.6983 134.11 50.6983C143.853 50.6983 152.377 43.7739 152.377 33.0123C152.377 21.2371 143.452 14.8083 134.067 14.8083ZM134.176 25.8894C138.219 25.8894 141.016 29.2564 141.016 32.847C141.016 35.9094 138.41 39.6866 134.176 39.6866C130.297 39.6866 127.386 36.5751 127.386 32.8135C127.386 29.1898 129.807 25.8894 134.176 25.8894Z" fill="#979797"/>
<path d="M172.591 14.8083C161.147 14.8083 154.333 23.5106 154.333 32.8343C154.333 43.4447 162.583 50.6983 172.635 50.6983C182.377 50.6983 190.902 43.7739 190.902 33.0123C190.902 21.2371 181.976 14.8083 172.591 14.8083ZM172.701 25.8894C176.743 25.8894 179.54 29.2564 179.54 32.847C179.54 35.9094 176.934 39.6866 172.701 39.6866C168.822 39.6866 165.911 36.5751 165.911 32.8135C165.911 29.1898 168.331 25.8894 172.701 25.8894Z" fill="#979797"/>
<path d="M200.476 50.5001C204.926 50.5001 208.533 46.8928 208.533 42.4429C208.533 37.9931 204.926 34.3857 200.476 34.3857C196.026 34.3857 192.419 37.9931 192.419 42.4429C192.419 46.8928 196.026 50.5001 200.476 50.5001Z" fill="#979797"/>
<path d="M211.181 31.426H196.676L209.549 0.5H224L211.181 31.426Z" fill="#979797"/>
</g>
<defs>
<clipPath id="clip0_11_241">
<rect width="223.565" height="62" fill="white" transform="translate(0.435059 0.5)"/>
</clipPath>
</defs>
</svg>
