<svg width="81" height="292" viewBox="0 0 81 292" fill="none" xmlns="http://www.w3.org/2000/svg">
<rect x="26.3718" y="0.692627" width="28" height="28" rx="14" fill="white"/>
<g clip-path="url(#clip0_21_3138)">
<path d="M48.3718 14.6926C48.3718 18.6858 45.4462 21.9954 41.6218 22.5954V17.0051H43.4859L43.8406 14.6926H41.6218V13.192C41.6218 12.5592 41.9318 11.9426 42.9256 11.9426H43.9343V9.97388C43.9343 9.97388 43.0187 9.81763 42.1434 9.81763C40.3162 9.81763 39.1218 10.9251 39.1218 12.9301V14.6926H37.0906V17.0051H39.1218V22.5954C35.2975 21.9954 32.3718 18.6858 32.3718 14.6926C32.3718 10.2745 35.9537 6.69263 40.3718 6.69263C44.79 6.69263 48.3718 10.2745 48.3718 14.6926Z" fill="#1877F2"/>
<path d="M43.4861 17.0051L43.8408 14.6926H41.6221V13.192C41.6221 12.5593 41.932 11.9426 42.9258 11.9426H43.9346V9.97388C43.9346 9.97388 43.0191 9.81763 42.1438 9.81763C40.3164 9.81763 39.1221 10.9251 39.1221 12.9301V14.6926H37.0908V17.0051H39.1221V22.5954C39.5294 22.6593 39.9468 22.6926 40.3721 22.6926C40.7973 22.6926 41.2148 22.6593 41.6221 22.5954V17.0051H43.4861Z" fill="white"/>
</g>
<path d="M29.1619 45.5002V38.2426H27.5003V36.9041H30.7311V45.5002H29.1619ZM33.2386 45.5002V43.8849H34.7617V45.5002H33.2386ZM39.607 45.6387C39.1532 45.6387 38.7186 45.5541 38.3032 45.3849C37.8955 45.2156 37.5417 44.9772 37.2417 44.6695C36.9494 44.3541 36.7494 43.981 36.6417 43.5502L38.0032 43.0656C38.134 43.4579 38.3455 43.7502 38.6378 43.9426C38.9301 44.1272 39.2532 44.2195 39.607 44.2195C39.8994 44.2195 40.157 44.1579 40.3801 44.0349C40.6109 43.9041 40.7878 43.7272 40.9109 43.5041C41.034 43.2733 41.0955 43.0079 41.0955 42.7079C41.0955 42.4079 41.0301 42.1464 40.8994 41.9233C40.7763 41.7002 40.6032 41.5272 40.3801 41.4041C40.157 41.2733 39.8994 41.2079 39.607 41.2079C39.307 41.2079 39.034 41.2733 38.7878 41.4041C38.5494 41.5349 38.3763 41.7233 38.2686 41.9695L36.9878 41.681L37.6686 36.9041H42.3532V38.231H38.2917L38.8801 37.5502L38.3955 41.1502L37.9455 40.781C38.1609 40.4656 38.4224 40.2349 38.7301 40.0887C39.0455 39.9426 39.4263 39.8695 39.8724 39.8695C40.4417 39.8695 40.934 39.9926 41.3494 40.2387C41.7724 40.4849 42.0994 40.8195 42.3301 41.2426C42.5609 41.6656 42.6763 42.1541 42.6763 42.7079C42.6763 43.2618 42.5417 43.7618 42.2724 44.2079C42.0032 44.6541 41.6378 45.0041 41.1763 45.2579C40.7147 45.5118 40.1917 45.6387 39.607 45.6387ZM44.1097 45.5002V36.9041H45.6097L48.829 41.2772H48.1136L51.2636 36.9041H52.7636V45.5002H51.1828V38.6926L51.7944 38.8426L48.529 43.1926H48.3444L45.1597 38.8426L45.679 38.6926V45.5002H44.1097Z" fill="white"/>
<path d="M12.8842 60.6202C12.3576 60.6202 11.8742 60.5269 11.4342 60.3402C10.9942 60.1469 10.6109 59.8802 10.2842 59.5402C9.96425 59.1936 9.71425 58.7869 9.53425 58.3202C9.35425 57.8536 9.26425 57.3402 9.26425 56.7802C9.26425 56.2202 9.35425 55.7069 9.53425 55.2402C9.71425 54.7736 9.96425 54.3669 10.2842 54.0202C10.6109 53.6736 10.9942 53.4069 11.4342 53.2202C11.8742 53.0269 12.3576 52.9302 12.8842 52.9302C13.3909 52.9302 13.8442 53.0202 14.2442 53.2002C14.6509 53.3802 14.9909 53.6136 15.2642 53.9002C15.5442 54.1802 15.7442 54.4769 15.8642 54.7902L15.1142 55.1202C14.9276 54.6869 14.6409 54.3402 14.2542 54.0802C13.8742 53.8136 13.4176 53.6802 12.8842 53.6802C12.3376 53.6802 11.8509 53.8102 11.4242 54.0702C10.9976 54.3302 10.6642 54.6936 10.4242 55.1602C10.1842 55.6202 10.0642 56.1602 10.0642 56.7802C10.0642 57.3936 10.1842 57.9336 10.4242 58.4002C10.6642 58.8669 10.9976 59.2302 11.4242 59.4902C11.8509 59.7436 12.3376 59.8702 12.8842 59.8702C13.4176 59.8702 13.8742 59.7402 14.2542 59.4802C14.6409 59.2202 14.9276 58.8736 15.1142 58.4402L15.8642 58.7702C15.7442 59.0769 15.5442 59.3736 15.2642 59.6602C14.9909 59.9402 14.6509 60.1702 14.2442 60.3502C13.8442 60.5302 13.3909 60.6202 12.8842 60.6202ZM19.5991 60.6202C19.0924 60.6202 18.6324 60.5002 18.2191 60.2602C17.8058 60.0136 17.4758 59.6802 17.2291 59.2602C16.9891 58.8336 16.8691 58.3502 16.8691 57.8102C16.8691 57.2769 16.9891 56.8002 17.2291 56.3802C17.4691 55.9602 17.7924 55.6302 18.1991 55.3902C18.6124 55.1436 19.0791 55.0202 19.5991 55.0202C20.1191 55.0202 20.5824 55.1402 20.9891 55.3802C21.4024 55.6202 21.7258 55.9502 21.9591 56.3702C22.1991 56.7902 22.3191 57.2702 22.3191 57.8102C22.3191 58.3569 22.1958 58.8436 21.9491 59.2702C21.7024 59.6902 21.3724 60.0202 20.9591 60.2602C20.5524 60.5002 20.0991 60.6202 19.5991 60.6202ZM19.5991 59.8702C19.9591 59.8702 20.2824 59.7802 20.5691 59.6002C20.8624 59.4202 21.0924 59.1736 21.2591 58.8602C21.4324 58.5469 21.5191 58.1969 21.5191 57.8102C21.5191 57.4236 21.4324 57.0769 21.2591 56.7702C21.0924 56.4636 20.8624 56.2202 20.5691 56.0402C20.2824 55.8602 19.9591 55.7702 19.5991 55.7702C19.2391 55.7702 18.9124 55.8602 18.6191 56.0402C18.3324 56.2202 18.1024 56.4636 17.9291 56.7702C17.7558 57.0769 17.6691 57.4236 17.6691 57.8102C17.6691 58.1969 17.7558 58.5469 17.9291 58.8602C18.1024 59.1736 18.3324 59.4202 18.6191 59.6002C18.9124 59.7802 19.2391 59.8702 19.5991 59.8702ZM23.6418 60.5002V55.1402H24.3918V56.1802L24.2218 56.1402C24.3552 55.7936 24.5718 55.5202 24.8718 55.3202C25.1785 55.1202 25.5318 55.0202 25.9318 55.0202C26.3118 55.0202 26.6518 55.1069 26.9518 55.2802C27.2585 55.4536 27.4985 55.6936 27.6718 56.0002C27.8518 56.3002 27.9418 56.6402 27.9418 57.0202V60.5002H27.1918V57.3102C27.1918 56.9836 27.1318 56.7069 27.0118 56.4802C26.8985 56.2536 26.7352 56.0802 26.5218 55.9602C26.3152 55.8336 26.0752 55.7702 25.8018 55.7702C25.5285 55.7702 25.2852 55.8336 25.0718 55.9602C24.8585 56.0802 24.6918 56.2569 24.5718 56.4902C24.4518 56.7169 24.3918 56.9902 24.3918 57.3102V60.5002H23.6418ZM30.7066 60.5002L28.6166 55.1402H29.4566L31.2166 59.8402H30.9466L32.7166 55.1402H33.5666L31.4566 60.5002H30.7066ZM36.785 60.6202C36.285 60.6202 35.8316 60.5002 35.425 60.2602C35.025 60.0136 34.7083 59.6769 34.475 59.2502C34.2416 58.8236 34.125 58.3402 34.125 57.8002C34.125 57.2602 34.2383 56.7836 34.465 56.3702C34.6916 55.9502 34.9983 55.6202 35.385 55.3802C35.7783 55.1402 36.2183 55.0202 36.705 55.0202C37.0916 55.0202 37.435 55.0936 37.735 55.2402C38.0416 55.3802 38.3016 55.5736 38.515 55.8202C38.7283 56.0602 38.8916 56.3336 39.005 56.6402C39.1183 56.9402 39.175 57.2502 39.175 57.5702C39.175 57.6369 39.1716 57.7136 39.165 57.8002C39.1583 57.8802 39.1483 57.9636 39.135 58.0502H34.605V57.3502H38.705L38.345 57.6502C38.405 57.2836 38.3616 56.9569 38.215 56.6702C38.075 56.3769 37.8716 56.1469 37.605 55.9802C37.3383 55.8069 37.0383 55.7202 36.705 55.7202C36.3716 55.7202 36.0616 55.8069 35.775 55.9802C35.495 56.1536 35.275 56.3969 35.115 56.7102C34.955 57.0169 34.8916 57.3836 34.925 57.8102C34.8916 58.2369 34.9583 58.6102 35.125 58.9302C35.2983 59.2436 35.5316 59.4869 35.825 59.6602C36.125 59.8336 36.445 59.9202 36.785 59.9202C37.1783 59.9202 37.5083 59.8269 37.775 59.6402C38.0416 59.4536 38.2583 59.2202 38.425 58.9402L39.065 59.2802C38.9583 59.5202 38.795 59.7436 38.575 59.9502C38.355 60.1502 38.0916 60.3136 37.785 60.4402C37.485 60.5602 37.1516 60.6202 36.785 60.6202ZM40.4973 60.5002V55.1402H41.2473V56.0202L41.1473 55.8902C41.274 55.6369 41.464 55.4369 41.7173 55.2902C41.9773 55.1436 42.2906 55.0702 42.6573 55.0702H42.9973V55.8202H42.5273C42.1406 55.8202 41.8306 55.9402 41.5973 56.1802C41.364 56.4202 41.2473 56.7602 41.2473 57.2002V60.5002H40.4973ZM45.7362 60.6202C45.2229 60.6202 44.7729 60.4902 44.3862 60.2302C43.9995 59.9702 43.7195 59.6169 43.5462 59.1702L44.1762 58.8702C44.3295 59.1969 44.5429 59.4569 44.8162 59.6502C45.0962 59.8436 45.4029 59.9402 45.7362 59.9402C46.0562 59.9402 46.3262 59.8636 46.5462 59.7102C46.7662 59.5502 46.8762 59.3436 46.8762 59.0902C46.8762 58.9036 46.8229 58.7569 46.7162 58.6502C46.6095 58.5369 46.4862 58.4502 46.3462 58.3902C46.2062 58.3302 46.0829 58.2869 45.9762 58.2602L45.2062 58.0402C44.7129 57.9002 44.3562 57.7036 44.1362 57.4502C43.9162 57.1969 43.8062 56.9036 43.8062 56.5702C43.8062 56.2569 43.8862 55.9836 44.0462 55.7502C44.2062 55.5169 44.4229 55.3369 44.6962 55.2102C44.9695 55.0836 45.2729 55.0202 45.6062 55.0202C46.0595 55.0202 46.4695 55.1402 46.8362 55.3802C47.2095 55.6136 47.4729 55.9402 47.6262 56.3602L46.9862 56.6602C46.8529 56.3602 46.6595 56.1269 46.4062 55.9602C46.1595 55.7869 45.8829 55.7002 45.5762 55.7002C45.2762 55.7002 45.0362 55.7769 44.8562 55.9302C44.6762 56.0836 44.5862 56.2769 44.5862 56.5102C44.5862 56.6902 44.6329 56.8336 44.7262 56.9402C44.8195 57.0469 44.9262 57.1269 45.0462 57.1802C45.1729 57.2336 45.2829 57.2736 45.3762 57.3002L46.2662 57.5602C46.6995 57.6869 47.0362 57.8836 47.2762 58.1502C47.5229 58.4169 47.6462 58.7302 47.6462 59.0902C47.6462 59.3836 47.5629 59.6469 47.3962 59.8802C47.2362 60.1136 47.0129 60.2969 46.7262 60.4302C46.4395 60.5569 46.1095 60.6202 45.7362 60.6202ZM48.9641 60.5002V55.1402H49.7141V60.5002H48.9641ZM48.9641 54.1502V53.0502H49.7141V54.1502H48.9641ZM53.7592 60.6202C53.2526 60.6202 52.7926 60.5002 52.3792 60.2602C51.9659 60.0136 51.6359 59.6802 51.3892 59.2602C51.1492 58.8336 51.0292 58.3502 51.0292 57.8102C51.0292 57.2769 51.1492 56.8002 51.3892 56.3802C51.6292 55.9602 51.9526 55.6302 52.3592 55.3902C52.7726 55.1436 53.2392 55.0202 53.7592 55.0202C54.2792 55.0202 54.7426 55.1402 55.1492 55.3802C55.5626 55.6202 55.8859 55.9502 56.1192 56.3702C56.3592 56.7902 56.4792 57.2702 56.4792 57.8102C56.4792 58.3569 56.3559 58.8436 56.1092 59.2702C55.8626 59.6902 55.5326 60.0202 55.1192 60.2602C54.7126 60.5002 54.2592 60.6202 53.7592 60.6202ZM53.7592 59.8702C54.1192 59.8702 54.4426 59.7802 54.7292 59.6002C55.0226 59.4202 55.2526 59.1736 55.4192 58.8602C55.5926 58.5469 55.6792 58.1969 55.6792 57.8102C55.6792 57.4236 55.5926 57.0769 55.4192 56.7702C55.2526 56.4636 55.0226 56.2202 54.7292 56.0402C54.4426 55.8602 54.1192 55.7702 53.7592 55.7702C53.3992 55.7702 53.0726 55.8602 52.7792 56.0402C52.4926 56.2202 52.2626 56.4636 52.0892 56.7702C51.9159 57.0769 51.8292 57.4236 51.8292 57.8102C51.8292 58.1969 51.9159 58.5469 52.0892 58.8602C52.2626 59.1736 52.4926 59.4202 52.7792 59.6002C53.0726 59.7802 53.3992 59.8702 53.7592 59.8702ZM57.802 60.5002V55.1402H58.552V56.1802L58.382 56.1402C58.5153 55.7936 58.732 55.5202 59.032 55.3202C59.3386 55.1202 59.692 55.0202 60.092 55.0202C60.472 55.0202 60.812 55.1069 61.112 55.2802C61.4186 55.4536 61.6586 55.6936 61.832 56.0002C62.012 56.3002 62.102 56.6402 62.102 57.0202V60.5002H61.352V57.3102C61.352 56.9836 61.292 56.7069 61.172 56.4802C61.0586 56.2536 60.8953 56.0802 60.682 55.9602C60.4753 55.8336 60.2353 55.7702 59.962 55.7702C59.6886 55.7702 59.4453 55.8336 59.232 55.9602C59.0186 56.0802 58.852 56.2569 58.732 56.4902C58.612 56.7169 58.552 56.9902 58.552 57.3102V60.5002H57.802ZM65.3944 60.6202C64.8811 60.6202 64.4311 60.4902 64.0444 60.2302C63.6577 59.9702 63.3777 59.6169 63.2044 59.1702L63.8344 58.8702C63.9877 59.1969 64.2011 59.4569 64.4744 59.6502C64.7544 59.8436 65.0611 59.9402 65.3944 59.9402C65.7144 59.9402 65.9844 59.8636 66.2044 59.7102C66.4244 59.5502 66.5344 59.3436 66.5344 59.0902C66.5344 58.9036 66.4811 58.7569 66.3744 58.6502C66.2677 58.5369 66.1444 58.4502 66.0044 58.3902C65.8644 58.3302 65.7411 58.2869 65.6344 58.2602L64.8644 58.0402C64.3711 57.9002 64.0144 57.7036 63.7944 57.4502C63.5744 57.1969 63.4644 56.9036 63.4644 56.5702C63.4644 56.2569 63.5444 55.9836 63.7044 55.7502C63.8644 55.5169 64.0811 55.3369 64.3544 55.2102C64.6277 55.0836 64.9311 55.0202 65.2644 55.0202C65.7177 55.0202 66.1277 55.1402 66.4944 55.3802C66.8677 55.6136 67.1311 55.9402 67.2844 56.3602L66.6444 56.6602C66.5111 56.3602 66.3177 56.1269 66.0644 55.9602C65.8177 55.7869 65.5411 55.7002 65.2344 55.7002C64.9344 55.7002 64.6944 55.7769 64.5144 55.9302C64.3344 56.0836 64.2444 56.2769 64.2444 56.5102C64.2444 56.6902 64.2911 56.8336 64.3844 56.9402C64.4777 57.0469 64.5844 57.1269 64.7044 57.1802C64.8311 57.2336 64.9411 57.2736 65.0344 57.3002L65.9244 57.5602C66.3577 57.6869 66.6944 57.8836 66.9344 58.1502C67.1811 58.4169 67.3044 58.7302 67.3044 59.0902C67.3044 59.3836 67.2211 59.6469 67.0544 59.8802C66.8944 60.1136 66.6711 60.2969 66.3844 60.4302C66.0977 60.5569 65.7677 60.6202 65.3944 60.6202ZM67.8723 61.7002L71.2523 53.4602H72.1223L68.7423 61.7002H67.8723ZM25.6535 73.5002V68.1402H26.4035V69.1602L26.2835 69.0102C26.4302 68.6969 26.6469 68.4536 26.9335 68.2802C27.2269 68.1069 27.5469 68.0202 27.8935 68.0202C28.3069 68.0202 28.6802 68.1369 29.0135 68.3702C29.3469 68.6036 29.5835 68.9069 29.7235 69.2802L29.5135 69.2902C29.6469 68.8769 29.8769 68.5636 30.2035 68.3502C30.5369 68.1302 30.9035 68.0202 31.3035 68.0202C31.6635 68.0202 31.9935 68.1069 32.2935 68.2802C32.6002 68.4536 32.8435 68.6936 33.0235 69.0002C33.2102 69.3002 33.3035 69.6402 33.3035 70.0202V73.5002H32.5535V70.3102C32.5535 69.9836 32.4935 69.7069 32.3735 69.4802C32.2602 69.2536 32.1035 69.0802 31.9035 68.9602C31.7035 68.8336 31.4735 68.7702 31.2135 68.7702C30.9602 68.7702 30.7302 68.8336 30.5235 68.9602C30.3169 69.0802 30.1535 69.2569 30.0335 69.4902C29.9135 69.7169 29.8535 69.9902 29.8535 70.3102V73.5002H29.1035V70.3102C29.1035 69.9836 29.0435 69.7069 28.9235 69.4802C28.8102 69.2536 28.6535 69.0802 28.4535 68.9602C28.2535 68.8336 28.0235 68.7702 27.7635 68.7702C27.5035 68.7702 27.2702 68.8336 27.0635 68.9602C26.8635 69.0802 26.7035 69.2569 26.5835 69.4902C26.4635 69.7169 26.4035 69.9902 26.4035 70.3102V73.5002H25.6535ZM37.2456 73.6202C36.7389 73.6202 36.2789 73.5002 35.8656 73.2602C35.4522 73.0136 35.1222 72.6802 34.8756 72.2602C34.6356 71.8336 34.5156 71.3502 34.5156 70.8102C34.5156 70.2769 34.6356 69.8002 34.8756 69.3802C35.1156 68.9602 35.4389 68.6302 35.8456 68.3902C36.2589 68.1436 36.7256 68.0202 37.2456 68.0202C37.7656 68.0202 38.2289 68.1402 38.6356 68.3802C39.0489 68.6202 39.3722 68.9502 39.6056 69.3702C39.8456 69.7902 39.9656 70.2702 39.9656 70.8102C39.9656 71.3569 39.8422 71.8436 39.5956 72.2702C39.3489 72.6902 39.0189 73.0202 38.6056 73.2602C38.1989 73.5002 37.7456 73.6202 37.2456 73.6202ZM37.2456 72.8702C37.6056 72.8702 37.9289 72.7802 38.2156 72.6002C38.5089 72.4202 38.7389 72.1736 38.9056 71.8602C39.0789 71.5469 39.1656 71.1969 39.1656 70.8102C39.1656 70.4236 39.0789 70.0769 38.9056 69.7702C38.7389 69.4636 38.5089 69.2202 38.2156 69.0402C37.9289 68.8602 37.6056 68.7702 37.2456 68.7702C36.8856 68.7702 36.5589 68.8602 36.2656 69.0402C35.9789 69.2202 35.7489 69.4636 35.5756 69.7702C35.4022 70.0769 35.3156 70.4236 35.3156 70.8102C35.3156 71.1969 35.4022 71.5469 35.5756 71.8602C35.7489 72.1736 35.9789 72.4202 36.2656 72.6002C36.5589 72.7802 36.8856 72.8702 37.2456 72.8702ZM41.2883 73.5002V68.1402H42.0383V69.1802L41.8683 69.1402C42.0016 68.7936 42.2183 68.5202 42.5183 68.3202C42.825 68.1202 43.1783 68.0202 43.5783 68.0202C43.9583 68.0202 44.2983 68.1069 44.5983 68.2802C44.905 68.4536 45.145 68.6936 45.3183 69.0002C45.4983 69.3002 45.5883 69.6402 45.5883 70.0202V73.5002H44.8383V70.3102C44.8383 69.9836 44.7783 69.7069 44.6583 69.4802C44.545 69.2536 44.3816 69.0802 44.1683 68.9602C43.9616 68.8336 43.7216 68.7702 43.4483 68.7702C43.175 68.7702 42.9316 68.8336 42.7183 68.9602C42.505 69.0802 42.3383 69.2569 42.2183 69.4902C42.0983 69.7169 42.0383 69.9902 42.0383 70.3102V73.5002H41.2883ZM49.0707 73.5602C48.5907 73.5602 48.2207 73.4202 47.9607 73.1402C47.7007 72.8602 47.5707 72.4602 47.5707 71.9402V68.8902H46.5807V68.1402H46.8307C47.0574 68.1402 47.2374 68.0669 47.3707 67.9202C47.5041 67.7669 47.5707 67.5769 47.5707 67.3502V66.9002H48.3207V68.1402H49.5007V68.8902H48.3207V71.9402C48.3207 72.1202 48.3474 72.2802 48.4007 72.4202C48.4541 72.5536 48.5441 72.6602 48.6707 72.7402C48.8041 72.8202 48.9807 72.8602 49.2007 72.8602C49.2541 72.8602 49.3174 72.8569 49.3907 72.8502C49.4641 72.8436 49.5274 72.8369 49.5807 72.8302V73.5002C49.5007 73.5202 49.4107 73.5336 49.3107 73.5402C49.2107 73.5536 49.1307 73.5602 49.0707 73.5602ZM50.8977 73.5002V65.9302H51.6477V69.1802L51.4777 69.1402C51.611 68.7936 51.8277 68.5202 52.1277 68.3202C52.4344 68.1202 52.7877 68.0202 53.1877 68.0202C53.5677 68.0202 53.9077 68.1069 54.2077 68.2802C54.5144 68.4536 54.7544 68.6936 54.9277 69.0002C55.1077 69.3002 55.1977 69.6402 55.1977 70.0202V73.5002H54.4477V70.3102C54.4477 69.9836 54.3877 69.7069 54.2677 69.4802C54.1477 69.2536 53.981 69.0802 53.7677 68.9602C53.561 68.8336 53.3244 68.7702 53.0577 68.7702C52.791 68.7702 52.551 68.8336 52.3377 68.9602C52.1244 69.0802 51.9544 69.2569 51.8277 69.4902C51.7077 69.7169 51.6477 69.9902 51.6477 70.3102V73.5002H50.8977Z" fill="white"/>
<g clip-path="url(#clip1_21_3138)">
<path d="M72.1025 124.287V291.846H31.8962V122.432L33.6891 122.515H33.695L38.445 122.738L55.722 123.536L67.5912 124.088H67.597L72.1025 124.287Z" fill="#FFC700"/>
<path d="M64.0171 104.072V108.216L34.5508 105.992V100.868L41.507 87.0388L64.0171 104.072Z" fill="#EF8F00"/>
<path d="M41.5069 87.0388L34.5507 100.868V105.992L31.8962 105.786L17.6055 109.062V104.072L41.5069 87.0388Z" fill="#F7BD79"/>
<path d="M31.8964 122.432V291.846H8.64111V126.212L10.3525 125.937L11.1791 125.802L14.8697 125.197H14.8813L31.8964 122.432Z" fill="#FFF500"/>
<path d="M67.5971 107.371V124.088L33.6892 122.521L33.7009 104.812L34.5507 104.877L64.0171 107.101L67.5971 107.371Z" fill="#FFC700"/>
<path d="M67.5971 112.396V129.112L57.2705 128.637L46.7285 128.144L33.6892 127.539L33.7067 109.831L34.5449 109.901L46.7285 110.817L57.2705 111.615L64.0171 112.126L67.5971 112.396Z" fill="#FFC700"/>
<path d="M33.7005 104.812L14.4851 108.662V125.203L31.896 122.438L33.6889 122.521L33.7005 104.812Z" fill="#FFF500"/>
<g opacity="0.7">
<path d="M46.7283 229.4V232.728L57.2703 233.397V230.069L46.7283 229.4Z" fill="#F9FFD2"/>
<path d="M46.7283 246.058V249.386L57.2703 250.055V246.727L46.7283 246.058Z" fill="#F9FFD2"/>
<path d="M46.7283 240.505V243.833L57.2703 244.503V241.175L46.7283 240.505Z" fill="#F9FFD2"/>
<path d="M46.7283 234.953V238.281L57.2703 238.95V235.622L46.7283 234.953Z" fill="#F9FFD2"/>
<path d="M46.7283 223.847V227.175L57.2703 227.845V224.517L46.7283 223.847Z" fill="#F9FFD2"/>
<path d="M46.7283 212.742V216.07L57.2703 216.739V213.411L46.7283 212.742Z" fill="#F9FFD2"/>
<path d="M46.7283 218.295V221.623L57.2703 222.292V218.964L46.7283 218.295Z" fill="#F9FFD2"/>
<path d="M46.7283 262.716V266.044L57.2703 266.713V263.385L46.7283 262.716Z" fill="#F9FFD2"/>
<path d="M46.7283 284.927V288.249L57.2703 288.924V285.596L46.7283 284.927Z" fill="#F9FFD2"/>
<path d="M46.7283 251.611V254.939L57.2703 255.608V252.28L46.7283 251.611Z" fill="#F9FFD2"/>
<path d="M57.2703 291.142V291.847H46.7283V290.473L55.7219 291.042L57.2703 291.142Z" fill="#F9FFD2"/>
<path d="M46.7283 273.821V277.143L57.2703 277.818V274.49L46.7283 273.821Z" fill="#F9FFD2"/>
<path d="M46.7283 279.374V282.702L57.2703 283.371V280.043L46.7283 279.374Z" fill="#F9FFD2"/>
<path d="M46.7283 268.269V271.597L57.2703 272.266V268.938L46.7283 268.269Z" fill="#F9FFD2"/>
<path d="M46.7283 257.163V260.491L57.2703 261.161V257.832L46.7283 257.163Z" fill="#F9FFD2"/>
<path d="M46.7283 207.19V210.518L57.2703 211.187V207.859L46.7283 207.19Z" fill="#F9FFD2"/>
<path d="M46.7283 173.88V177.202L57.2703 177.871V174.549L46.7283 173.88Z" fill="#F9FFD2"/>
<path d="M46.7283 151.669V154.997L57.2703 155.666V152.338L46.7283 151.669Z" fill="#F9FFD2"/>
<path d="M46.7283 140.564V143.892L57.2703 144.561V141.233L46.7283 140.564Z" fill="#F9FFD2"/>
<path d="M46.7283 135.011V138.339L57.2703 139.008V135.68L46.7283 135.011Z" fill="#F9FFD2"/>
<path d="M46.7283 201.637V204.965L57.2703 205.634V202.312L46.7283 201.637Z" fill="#F9FFD2"/>
<path d="M46.7283 129.458V132.787L57.2703 133.456V130.128L46.7283 129.458Z" fill="#F9FFD2"/>
<path d="M57.2705 116.798V111.615L46.7285 110.817V116.129L57.2705 116.798Z" fill="#F9FFD2"/>
<path d="M46.7283 118.353V121.681L57.2703 122.35V119.022L46.7283 118.353Z" fill="#F9FFD2"/>
<path d="M46.7283 123.906V127.234L57.2703 127.903V124.575L46.7283 123.906Z" fill="#F9FFD2"/>
<path d="M46.7283 146.116V149.445L57.2703 150.114V146.786L46.7283 146.116Z" fill="#F9FFD2"/>
<path d="M46.7283 190.531V193.86L57.2703 194.529V191.206L46.7283 190.531Z" fill="#F9FFD2"/>
<path d="M46.7283 184.985V188.307L57.2703 188.976V185.654L46.7283 184.985Z" fill="#F9FFD2"/>
<path d="M46.7283 196.084V199.412L57.2703 200.081V196.759L46.7283 196.084Z" fill="#F9FFD2"/>
<path d="M46.7283 168.327V171.649L57.2703 172.324V168.996L46.7283 168.327Z" fill="#F9FFD2"/>
<path d="M46.7283 179.432V182.755L57.2703 183.43V180.102L46.7283 179.432Z" fill="#F9FFD2"/>
<path d="M46.7283 162.774V166.097L57.2703 166.772V163.444L46.7283 162.774Z" fill="#F9FFD2"/>
<path d="M46.7283 157.222V160.544L57.2703 161.219V157.891L46.7283 157.222Z" fill="#F9FFD2"/>
</g>
<g opacity="0.7">
<path d="M35.4238 230.768V235.381L43.2066 235.686V231.073L35.4238 230.768Z" fill="#F9FFD2"/>
<path d="M35.4238 285.437V290.05L43.2066 290.355V285.742L35.4238 285.437Z" fill="#F9FFD2"/>
<path d="M35.4238 244.432V249.051L43.2066 249.356V244.737L35.4238 244.432Z" fill="#F9FFD2"/>
<path d="M35.4238 217.097V221.717L43.2066 222.022V217.403L35.4238 217.097Z" fill="#F9FFD2"/>
<path d="M35.4238 223.929V228.549L43.2066 228.854V224.235L35.4238 223.929Z" fill="#F9FFD2"/>
<path d="M35.4238 251.264V255.884L43.2066 256.189V251.57L35.4238 251.264Z" fill="#F9FFD2"/>
<path d="M35.4238 237.6V242.213L43.2066 242.519V237.905L35.4238 237.6Z" fill="#F9FFD2"/>
<path d="M35.4238 278.599V283.218L43.2066 283.523V278.904L35.4238 278.599Z" fill="#F9FFD2"/>
<path d="M35.4238 271.767V276.38L43.2066 276.691V272.072L35.4238 271.767Z" fill="#F9FFD2"/>
<path d="M35.4238 264.934V269.548L43.2066 269.853V265.24L35.4238 264.934Z" fill="#F9FFD2"/>
<path d="M35.4238 210.265V214.879L43.2066 215.184V210.571L35.4238 210.265Z" fill="#F9FFD2"/>
<path d="M35.4238 258.102V262.716L43.2066 263.021V258.408L35.4238 258.102Z" fill="#F9FFD2"/>
<path d="M35.4238 148.763V153.377L43.2066 153.682V149.069L35.4238 148.763Z" fill="#F9FFD2"/>
<path d="M35.4238 141.926V146.545L43.2066 146.85V142.231L35.4238 141.926Z" fill="#F9FFD2"/>
<path d="M35.4238 162.428V167.047L43.2066 167.353V162.733L35.4238 162.428Z" fill="#F9FFD2"/>
<path d="M35.4238 155.596V160.209L43.2066 160.514V155.901L35.4238 155.596Z" fill="#F9FFD2"/>
<path d="M35.4238 203.433V208.046L43.2066 208.352V203.738L35.4238 203.433Z" fill="#F9FFD2"/>
<path d="M35.4238 135.094V139.707L43.2066 140.012V135.399L35.4238 135.094Z" fill="#F9FFD2"/>
<path d="M43.2066 133.18V127.486L35.4238 127.128V132.875L43.2066 133.18Z" fill="#F9FFD2"/>
<path d="M35.4238 196.595V201.214L43.2066 201.519V196.9L35.4238 196.595Z" fill="#F9FFD2"/>
<path d="M35.4238 189.762V194.382L43.2066 194.687V190.068L35.4238 189.762Z" fill="#F9FFD2"/>
<path d="M35.4238 176.098V180.712L43.2066 181.017V176.404L35.4238 176.098Z" fill="#F9FFD2"/>
<path d="M35.4238 182.93V187.544L43.2066 187.849V183.236L35.4238 182.93Z" fill="#F9FFD2"/>
<path d="M35.4238 169.266V173.879L43.2066 174.185V169.565L35.4238 169.266Z" fill="#F9FFD2"/>
</g>
<g opacity="0.7">
<path d="M60.7163 232.124V236.743L68.4991 237.048V232.429L60.7163 232.124Z" fill="#F9FFD2"/>
<path d="M60.7163 286.793V291.412L68.4991 291.718V287.098L60.7163 286.793Z" fill="#F9FFD2"/>
<path d="M60.7163 245.794V250.407L68.4991 250.713V246.099L60.7163 245.794Z" fill="#F9FFD2"/>
<path d="M60.7163 218.459V223.073L68.4991 223.378V218.765L60.7163 218.459Z" fill="#F9FFD2"/>
<path d="M60.7163 225.292V229.911L68.4991 230.21V225.597L60.7163 225.292Z" fill="#F9FFD2"/>
<path d="M60.7163 252.626V257.24L68.4991 257.545V252.931L60.7163 252.626Z" fill="#F9FFD2"/>
<path d="M60.7163 238.962V243.575L68.4991 243.881V239.267L60.7163 238.962Z" fill="#F9FFD2"/>
<path d="M60.7163 279.961V284.574L68.4991 284.88V280.266L60.7163 279.961Z" fill="#F9FFD2"/>
<path d="M60.7163 273.129V277.742L68.4991 278.048V273.434L60.7163 273.129Z" fill="#F9FFD2"/>
<path d="M60.7163 266.291V270.91L68.4991 271.215V266.602L60.7163 266.291Z" fill="#F9FFD2"/>
<path d="M60.7163 211.621V216.241L68.4991 216.546V211.932L60.7163 211.621Z" fill="#F9FFD2"/>
<path d="M60.7163 259.458V264.078L68.4991 264.383V259.764L60.7163 259.458Z" fill="#F9FFD2"/>
<path d="M60.7163 150.12V154.739L68.4991 155.044V150.425L60.7163 150.12Z" fill="#F9FFD2"/>
<path d="M60.7163 143.288V147.901L68.4991 148.206V143.593L60.7163 143.288Z" fill="#F9FFD2"/>
<path d="M60.7163 163.79V168.403L68.4991 168.709V164.095L60.7163 163.79Z" fill="#F9FFD2"/>
<path d="M60.7163 156.958V161.571L68.4991 161.876V157.263L60.7163 156.958Z" fill="#F9FFD2"/>
<path d="M60.7163 204.789V209.408L68.4991 209.714V205.094L60.7163 204.789Z" fill="#F9FFD2"/>
<path d="M60.7163 136.455V141.069L68.4991 141.374V136.761L60.7163 136.455Z" fill="#F9FFD2"/>
<path d="M68.4991 134.542V128.848L60.7163 128.484V134.237L68.4991 134.542Z" fill="#F9FFD2"/>
<path d="M60.7163 197.957V202.57L68.4991 202.876V198.262L60.7163 197.957Z" fill="#F9FFD2"/>
<path d="M60.7163 191.125V195.738L68.4991 196.043V191.43L60.7163 191.125Z" fill="#F9FFD2"/>
<path d="M60.7163 177.454V182.074L68.4991 182.379V177.76L60.7163 177.454Z" fill="#F9FFD2"/>
<path d="M60.7163 184.292V188.906L68.4991 189.211V184.598L60.7163 184.292Z" fill="#F9FFD2"/>
<path d="M60.7163 170.622V175.236L68.4991 175.541V170.927L60.7163 170.622Z" fill="#F9FFD2"/>
</g>
</g>
<defs>
<clipPath id="clip0_21_3138">
<rect width="16" height="16" fill="white" transform="translate(32.3718 6.69263)"/>
</clipPath>
<clipPath id="clip1_21_3138">
<rect width="63.4615" height="204.808" fill="white" transform="translate(8.64111 87.0388)"/>
</clipPath>
</defs>
</svg>
