<svg width="81" height="293" viewBox="0 0 81 293" fill="none" xmlns="http://www.w3.org/2000/svg">
<rect x="26.3718" y="0.92334" width="28" height="28" rx="14" fill="#1E1E1E"/>
<g clip-path="url(#clip0_21_1228)">
<path d="M48.3718 14.9233C48.3718 18.9165 45.4462 22.2262 41.6218 22.8262V17.2358H43.4859L43.8406 14.9233H41.6218V13.4227C41.6218 12.7899 41.9318 12.1733 42.9256 12.1733H43.9343V10.2046C43.9343 10.2046 43.0187 10.0483 42.1434 10.0483C40.3162 10.0483 39.1218 11.1558 39.1218 13.1608V14.9233H37.0906V17.2358H39.1218V22.8262C35.2975 22.2262 32.3718 18.9165 32.3718 14.9233C32.3718 10.5052 35.9537 6.92334 40.3718 6.92334C44.79 6.92334 48.3718 10.5052 48.3718 14.9233Z" fill="#979797"/>
<path d="M43.4861 17.2358L43.8408 14.9233H41.6221V13.4227C41.6221 12.79 41.932 12.1733 42.9258 12.1733H43.9346V10.2046C43.9346 10.2046 43.0191 10.0483 42.1438 10.0483C40.3164 10.0483 39.1221 11.1558 39.1221 13.1608V14.9233H37.0908V17.2358H39.1221V22.8261C39.5294 22.89 39.9468 22.9233 40.3721 22.9233C40.7973 22.9233 41.2148 22.89 41.6221 22.8261V17.2358H43.4861Z" fill="white"/>
</g>
<path d="M29.1619 45.731V38.4733H27.5003V37.1348H30.7311V45.731H29.1619ZM33.2386 45.731V44.1156H34.7617V45.731H33.2386ZM39.607 45.8694C39.1532 45.8694 38.7186 45.7848 38.3032 45.6156C37.8955 45.4463 37.5417 45.2079 37.2417 44.9002C36.9494 44.5848 36.7494 44.2117 36.6417 43.781L38.0032 43.2963C38.134 43.6886 38.3455 43.981 38.6378 44.1733C38.9301 44.3579 39.2532 44.4502 39.607 44.4502C39.8994 44.4502 40.157 44.3886 40.3801 44.2656C40.6109 44.1348 40.7878 43.9579 40.9109 43.7348C41.034 43.504 41.0955 43.2386 41.0955 42.9386C41.0955 42.6386 41.0301 42.3771 40.8994 42.154C40.7763 41.931 40.6032 41.7579 40.3801 41.6348C40.157 41.504 39.8994 41.4386 39.607 41.4386C39.307 41.4386 39.034 41.504 38.7878 41.6348C38.5494 41.7656 38.3763 41.954 38.2686 42.2002L36.9878 41.9117L37.6686 37.1348H42.3532V38.4617H38.2917L38.8801 37.781L38.3955 41.381L37.9455 41.0117C38.1609 40.6963 38.4224 40.4656 38.7301 40.3194C39.0455 40.1733 39.4263 40.1002 39.8724 40.1002C40.4417 40.1002 40.934 40.2233 41.3494 40.4694C41.7724 40.7156 42.0994 41.0502 42.3301 41.4733C42.5609 41.8963 42.6763 42.3848 42.6763 42.9386C42.6763 43.4925 42.5417 43.9925 42.2724 44.4386C42.0032 44.8848 41.6378 45.2348 41.1763 45.4886C40.7147 45.7425 40.1917 45.8694 39.607 45.8694ZM44.1097 45.731V37.1348H45.6097L48.829 41.5079H48.1136L51.2636 37.1348H52.7636V45.731H51.1828V38.9233L51.7944 39.0733L48.529 43.4233H48.3444L45.1597 39.0733L45.679 38.9233V45.731H44.1097Z" fill="#979797"/>
<path d="M12.8842 60.851C12.3576 60.851 11.8742 60.7576 11.4342 60.571C10.9942 60.3776 10.6109 60.111 10.2842 59.771C9.96425 59.4243 9.71425 59.0176 9.53425 58.551C9.35425 58.0843 9.26425 57.571 9.26425 57.011C9.26425 56.451 9.35425 55.9376 9.53425 55.471C9.71425 55.0043 9.96425 54.5976 10.2842 54.251C10.6109 53.9043 10.9942 53.6376 11.4342 53.451C11.8742 53.2576 12.3576 53.161 12.8842 53.161C13.3909 53.161 13.8442 53.251 14.2442 53.431C14.6509 53.611 14.9909 53.8443 15.2642 54.131C15.5442 54.411 15.7442 54.7076 15.8642 55.021L15.1142 55.351C14.9276 54.9176 14.6409 54.571 14.2542 54.311C13.8742 54.0443 13.4176 53.911 12.8842 53.911C12.3376 53.911 11.8509 54.041 11.4242 54.301C10.9976 54.561 10.6642 54.9243 10.4242 55.391C10.1842 55.851 10.0642 56.391 10.0642 57.011C10.0642 57.6243 10.1842 58.1643 10.4242 58.631C10.6642 59.0976 10.9976 59.461 11.4242 59.721C11.8509 59.9743 12.3376 60.101 12.8842 60.101C13.4176 60.101 13.8742 59.971 14.2542 59.711C14.6409 59.451 14.9276 59.1043 15.1142 58.671L15.8642 59.001C15.7442 59.3076 15.5442 59.6043 15.2642 59.891C14.9909 60.171 14.6509 60.401 14.2442 60.581C13.8442 60.761 13.3909 60.851 12.8842 60.851ZM19.5991 60.851C19.0924 60.851 18.6324 60.731 18.2191 60.491C17.8058 60.2443 17.4758 59.911 17.2291 59.491C16.9891 59.0643 16.8691 58.581 16.8691 58.041C16.8691 57.5076 16.9891 57.031 17.2291 56.611C17.4691 56.191 17.7924 55.861 18.1991 55.621C18.6124 55.3743 19.0791 55.251 19.5991 55.251C20.1191 55.251 20.5824 55.371 20.9891 55.611C21.4024 55.851 21.7258 56.181 21.9591 56.601C22.1991 57.021 22.3191 57.501 22.3191 58.041C22.3191 58.5876 22.1958 59.0743 21.9491 59.501C21.7024 59.921 21.3724 60.251 20.9591 60.491C20.5524 60.731 20.0991 60.851 19.5991 60.851ZM19.5991 60.101C19.9591 60.101 20.2824 60.011 20.5691 59.831C20.8624 59.651 21.0924 59.4043 21.2591 59.091C21.4324 58.7776 21.5191 58.4276 21.5191 58.041C21.5191 57.6543 21.4324 57.3076 21.2591 57.001C21.0924 56.6943 20.8624 56.451 20.5691 56.271C20.2824 56.091 19.9591 56.001 19.5991 56.001C19.2391 56.001 18.9124 56.091 18.6191 56.271C18.3324 56.451 18.1024 56.6943 17.9291 57.001C17.7558 57.3076 17.6691 57.6543 17.6691 58.041C17.6691 58.4276 17.7558 58.7776 17.9291 59.091C18.1024 59.4043 18.3324 59.651 18.6191 59.831C18.9124 60.011 19.2391 60.101 19.5991 60.101ZM23.6418 60.731V55.371H24.3918V56.411L24.2218 56.371C24.3552 56.0243 24.5718 55.751 24.8718 55.551C25.1785 55.351 25.5318 55.251 25.9318 55.251C26.3118 55.251 26.6518 55.3376 26.9518 55.511C27.2585 55.6843 27.4985 55.9243 27.6718 56.231C27.8518 56.531 27.9418 56.871 27.9418 57.251V60.731H27.1918V57.541C27.1918 57.2143 27.1318 56.9376 27.0118 56.711C26.8985 56.4843 26.7352 56.311 26.5218 56.191C26.3152 56.0643 26.0752 56.001 25.8018 56.001C25.5285 56.001 25.2852 56.0643 25.0718 56.191C24.8585 56.311 24.6918 56.4876 24.5718 56.721C24.4518 56.9476 24.3918 57.221 24.3918 57.541V60.731H23.6418ZM30.7066 60.731L28.6166 55.371H29.4566L31.2166 60.071H30.9466L32.7166 55.371H33.5666L31.4566 60.731H30.7066ZM36.785 60.851C36.285 60.851 35.8316 60.731 35.425 60.491C35.025 60.2443 34.7083 59.9076 34.475 59.481C34.2416 59.0543 34.125 58.571 34.125 58.031C34.125 57.491 34.2383 57.0143 34.465 56.601C34.6916 56.181 34.9983 55.851 35.385 55.611C35.7783 55.371 36.2183 55.251 36.705 55.251C37.0916 55.251 37.435 55.3243 37.735 55.471C38.0416 55.611 38.3016 55.8043 38.515 56.051C38.7283 56.291 38.8916 56.5643 39.005 56.871C39.1183 57.171 39.175 57.481 39.175 57.801C39.175 57.8676 39.1716 57.9443 39.165 58.031C39.1583 58.111 39.1483 58.1943 39.135 58.281H34.605V57.581H38.705L38.345 57.881C38.405 57.5143 38.3616 57.1876 38.215 56.901C38.075 56.6076 37.8716 56.3776 37.605 56.211C37.3383 56.0376 37.0383 55.951 36.705 55.951C36.3716 55.951 36.0616 56.0376 35.775 56.211C35.495 56.3843 35.275 56.6276 35.115 56.941C34.955 57.2476 34.8916 57.6143 34.925 58.041C34.8916 58.4676 34.9583 58.841 35.125 59.161C35.2983 59.4743 35.5316 59.7176 35.825 59.891C36.125 60.0643 36.445 60.151 36.785 60.151C37.1783 60.151 37.5083 60.0576 37.775 59.871C38.0416 59.6843 38.2583 59.451 38.425 59.171L39.065 59.511C38.9583 59.751 38.795 59.9743 38.575 60.181C38.355 60.381 38.0916 60.5443 37.785 60.671C37.485 60.791 37.1516 60.851 36.785 60.851ZM40.4973 60.731V55.371H41.2473V56.251L41.1473 56.121C41.274 55.8676 41.464 55.6676 41.7173 55.521C41.9773 55.3743 42.2906 55.301 42.6573 55.301H42.9973V56.051H42.5273C42.1406 56.051 41.8306 56.171 41.5973 56.411C41.364 56.651 41.2473 56.991 41.2473 57.431V60.731H40.4973ZM45.7362 60.851C45.2229 60.851 44.7729 60.721 44.3862 60.461C43.9995 60.201 43.7195 59.8476 43.5462 59.401L44.1762 59.101C44.3295 59.4276 44.5429 59.6876 44.8162 59.881C45.0962 60.0743 45.4029 60.171 45.7362 60.171C46.0562 60.171 46.3262 60.0943 46.5462 59.941C46.7662 59.781 46.8762 59.5743 46.8762 59.321C46.8762 59.1343 46.8229 58.9876 46.7162 58.881C46.6095 58.7676 46.4862 58.681 46.3462 58.621C46.2062 58.561 46.0829 58.5176 45.9762 58.491L45.2062 58.271C44.7129 58.131 44.3562 57.9343 44.1362 57.681C43.9162 57.4276 43.8062 57.1343 43.8062 56.801C43.8062 56.4876 43.8862 56.2143 44.0462 55.981C44.2062 55.7476 44.4229 55.5676 44.6962 55.441C44.9695 55.3143 45.2729 55.251 45.6062 55.251C46.0595 55.251 46.4695 55.371 46.8362 55.611C47.2095 55.8443 47.4729 56.171 47.6262 56.591L46.9862 56.891C46.8529 56.591 46.6595 56.3576 46.4062 56.191C46.1595 56.0176 45.8829 55.931 45.5762 55.931C45.2762 55.931 45.0362 56.0076 44.8562 56.161C44.6762 56.3143 44.5862 56.5076 44.5862 56.741C44.5862 56.921 44.6329 57.0643 44.7262 57.171C44.8195 57.2776 44.9262 57.3576 45.0462 57.411C45.1729 57.4643 45.2829 57.5043 45.3762 57.531L46.2662 57.791C46.6995 57.9176 47.0362 58.1143 47.2762 58.381C47.5229 58.6476 47.6462 58.961 47.6462 59.321C47.6462 59.6143 47.5629 59.8776 47.3962 60.111C47.2362 60.3443 47.0129 60.5276 46.7262 60.661C46.4395 60.7876 46.1095 60.851 45.7362 60.851ZM48.9641 60.731V55.371H49.7141V60.731H48.9641ZM48.9641 54.381V53.281H49.7141V54.381H48.9641ZM53.7592 60.851C53.2526 60.851 52.7926 60.731 52.3792 60.491C51.9659 60.2443 51.6359 59.911 51.3892 59.491C51.1492 59.0643 51.0292 58.581 51.0292 58.041C51.0292 57.5076 51.1492 57.031 51.3892 56.611C51.6292 56.191 51.9526 55.861 52.3592 55.621C52.7726 55.3743 53.2392 55.251 53.7592 55.251C54.2792 55.251 54.7426 55.371 55.1492 55.611C55.5626 55.851 55.8859 56.181 56.1192 56.601C56.3592 57.021 56.4792 57.501 56.4792 58.041C56.4792 58.5876 56.3559 59.0743 56.1092 59.501C55.8626 59.921 55.5326 60.251 55.1192 60.491C54.7126 60.731 54.2592 60.851 53.7592 60.851ZM53.7592 60.101C54.1192 60.101 54.4426 60.011 54.7292 59.831C55.0226 59.651 55.2526 59.4043 55.4192 59.091C55.5926 58.7776 55.6792 58.4276 55.6792 58.041C55.6792 57.6543 55.5926 57.3076 55.4192 57.001C55.2526 56.6943 55.0226 56.451 54.7292 56.271C54.4426 56.091 54.1192 56.001 53.7592 56.001C53.3992 56.001 53.0726 56.091 52.7792 56.271C52.4926 56.451 52.2626 56.6943 52.0892 57.001C51.9159 57.3076 51.8292 57.6543 51.8292 58.041C51.8292 58.4276 51.9159 58.7776 52.0892 59.091C52.2626 59.4043 52.4926 59.651 52.7792 59.831C53.0726 60.011 53.3992 60.101 53.7592 60.101ZM57.802 60.731V55.371H58.552V56.411L58.382 56.371C58.5153 56.0243 58.732 55.751 59.032 55.551C59.3386 55.351 59.692 55.251 60.092 55.251C60.472 55.251 60.812 55.3376 61.112 55.511C61.4186 55.6843 61.6586 55.9243 61.832 56.231C62.012 56.531 62.102 56.871 62.102 57.251V60.731H61.352V57.541C61.352 57.2143 61.292 56.9376 61.172 56.711C61.0586 56.4843 60.8953 56.311 60.682 56.191C60.4753 56.0643 60.2353 56.001 59.962 56.001C59.6886 56.001 59.4453 56.0643 59.232 56.191C59.0186 56.311 58.852 56.4876 58.732 56.721C58.612 56.9476 58.552 57.221 58.552 57.541V60.731H57.802ZM65.3944 60.851C64.8811 60.851 64.4311 60.721 64.0444 60.461C63.6577 60.201 63.3777 59.8476 63.2044 59.401L63.8344 59.101C63.9877 59.4276 64.2011 59.6876 64.4744 59.881C64.7544 60.0743 65.0611 60.171 65.3944 60.171C65.7144 60.171 65.9844 60.0943 66.2044 59.941C66.4244 59.781 66.5344 59.5743 66.5344 59.321C66.5344 59.1343 66.4811 58.9876 66.3744 58.881C66.2677 58.7676 66.1444 58.681 66.0044 58.621C65.8644 58.561 65.7411 58.5176 65.6344 58.491L64.8644 58.271C64.3711 58.131 64.0144 57.9343 63.7944 57.681C63.5744 57.4276 63.4644 57.1343 63.4644 56.801C63.4644 56.4876 63.5444 56.2143 63.7044 55.981C63.8644 55.7476 64.0811 55.5676 64.3544 55.441C64.6277 55.3143 64.9311 55.251 65.2644 55.251C65.7177 55.251 66.1277 55.371 66.4944 55.611C66.8677 55.8443 67.1311 56.171 67.2844 56.591L66.6444 56.891C66.5111 56.591 66.3177 56.3576 66.0644 56.191C65.8177 56.0176 65.5411 55.931 65.2344 55.931C64.9344 55.931 64.6944 56.0076 64.5144 56.161C64.3344 56.3143 64.2444 56.5076 64.2444 56.741C64.2444 56.921 64.2911 57.0643 64.3844 57.171C64.4777 57.2776 64.5844 57.3576 64.7044 57.411C64.8311 57.4643 64.9411 57.5043 65.0344 57.531L65.9244 57.791C66.3577 57.9176 66.6944 58.1143 66.9344 58.381C67.1811 58.6476 67.3044 58.961 67.3044 59.321C67.3044 59.6143 67.2211 59.8776 67.0544 60.111C66.8944 60.3443 66.6711 60.5276 66.3844 60.661C66.0977 60.7876 65.7677 60.851 65.3944 60.851ZM67.8723 61.931L71.2523 53.691H72.1223L68.7423 61.931H67.8723ZM25.6535 73.731V68.371H26.4035V69.391L26.2835 69.241C26.4302 68.9276 26.6469 68.6843 26.9335 68.511C27.2269 68.3376 27.5469 68.251 27.8935 68.251C28.3069 68.251 28.6802 68.3676 29.0135 68.601C29.3469 68.8343 29.5835 69.1376 29.7235 69.511L29.5135 69.521C29.6469 69.1076 29.8769 68.7943 30.2035 68.581C30.5369 68.361 30.9035 68.251 31.3035 68.251C31.6635 68.251 31.9935 68.3376 32.2935 68.511C32.6002 68.6843 32.8435 68.9243 33.0235 69.231C33.2102 69.531 33.3035 69.871 33.3035 70.251V73.731H32.5535V70.541C32.5535 70.2143 32.4935 69.9376 32.3735 69.711C32.2602 69.4843 32.1035 69.311 31.9035 69.191C31.7035 69.0643 31.4735 69.001 31.2135 69.001C30.9602 69.001 30.7302 69.0643 30.5235 69.191C30.3169 69.311 30.1535 69.4876 30.0335 69.721C29.9135 69.9476 29.8535 70.221 29.8535 70.541V73.731H29.1035V70.541C29.1035 70.2143 29.0435 69.9376 28.9235 69.711C28.8102 69.4843 28.6535 69.311 28.4535 69.191C28.2535 69.0643 28.0235 69.001 27.7635 69.001C27.5035 69.001 27.2702 69.0643 27.0635 69.191C26.8635 69.311 26.7035 69.4876 26.5835 69.721C26.4635 69.9476 26.4035 70.221 26.4035 70.541V73.731H25.6535ZM37.2456 73.851C36.7389 73.851 36.2789 73.731 35.8656 73.491C35.4522 73.2443 35.1222 72.911 34.8756 72.491C34.6356 72.0643 34.5156 71.581 34.5156 71.041C34.5156 70.5076 34.6356 70.031 34.8756 69.611C35.1156 69.191 35.4389 68.861 35.8456 68.621C36.2589 68.3743 36.7256 68.251 37.2456 68.251C37.7656 68.251 38.2289 68.371 38.6356 68.611C39.0489 68.851 39.3722 69.181 39.6056 69.601C39.8456 70.021 39.9656 70.501 39.9656 71.041C39.9656 71.5876 39.8422 72.0743 39.5956 72.501C39.3489 72.921 39.0189 73.251 38.6056 73.491C38.1989 73.731 37.7456 73.851 37.2456 73.851ZM37.2456 73.101C37.6056 73.101 37.9289 73.011 38.2156 72.831C38.5089 72.651 38.7389 72.4043 38.9056 72.091C39.0789 71.7776 39.1656 71.4276 39.1656 71.041C39.1656 70.6543 39.0789 70.3076 38.9056 70.001C38.7389 69.6943 38.5089 69.451 38.2156 69.271C37.9289 69.091 37.6056 69.001 37.2456 69.001C36.8856 69.001 36.5589 69.091 36.2656 69.271C35.9789 69.451 35.7489 69.6943 35.5756 70.001C35.4022 70.3076 35.3156 70.6543 35.3156 71.041C35.3156 71.4276 35.4022 71.7776 35.5756 72.091C35.7489 72.4043 35.9789 72.651 36.2656 72.831C36.5589 73.011 36.8856 73.101 37.2456 73.101ZM41.2883 73.731V68.371H42.0383V69.411L41.8683 69.371C42.0016 69.0243 42.2183 68.751 42.5183 68.551C42.825 68.351 43.1783 68.251 43.5783 68.251C43.9583 68.251 44.2983 68.3376 44.5983 68.511C44.905 68.6843 45.145 68.9243 45.3183 69.231C45.4983 69.531 45.5883 69.871 45.5883 70.251V73.731H44.8383V70.541C44.8383 70.2143 44.7783 69.9376 44.6583 69.711C44.545 69.4843 44.3816 69.311 44.1683 69.191C43.9616 69.0643 43.7216 69.001 43.4483 69.001C43.175 69.001 42.9316 69.0643 42.7183 69.191C42.505 69.311 42.3383 69.4876 42.2183 69.721C42.0983 69.9476 42.0383 70.221 42.0383 70.541V73.731H41.2883ZM49.0707 73.791C48.5907 73.791 48.2207 73.651 47.9607 73.371C47.7007 73.091 47.5707 72.691 47.5707 72.171V69.121H46.5807V68.371H46.8307C47.0574 68.371 47.2374 68.2976 47.3707 68.151C47.5041 67.9976 47.5707 67.8076 47.5707 67.581V67.131H48.3207V68.371H49.5007V69.121H48.3207V72.171C48.3207 72.351 48.3474 72.511 48.4007 72.651C48.4541 72.7843 48.5441 72.891 48.6707 72.971C48.8041 73.051 48.9807 73.091 49.2007 73.091C49.2541 73.091 49.3174 73.0876 49.3907 73.081C49.4641 73.0743 49.5274 73.0676 49.5807 73.061V73.731C49.5007 73.751 49.4107 73.7643 49.3107 73.771C49.2107 73.7843 49.1307 73.791 49.0707 73.791ZM50.8977 73.731V66.161H51.6477V69.411L51.4777 69.371C51.611 69.0243 51.8277 68.751 52.1277 68.551C52.4344 68.351 52.7877 68.251 53.1877 68.251C53.5677 68.251 53.9077 68.3376 54.2077 68.511C54.5144 68.6843 54.7544 68.9243 54.9277 69.231C55.1077 69.531 55.1977 69.871 55.1977 70.251V73.731H54.4477V70.541C54.4477 70.2143 54.3877 69.9376 54.2677 69.711C54.1477 69.4843 53.981 69.311 53.7677 69.191C53.561 69.0643 53.3244 69.001 53.0577 69.001C52.791 69.001 52.551 69.0643 52.3377 69.191C52.1244 69.311 51.9544 69.4876 51.8277 69.721C51.7077 69.9476 51.6477 70.221 51.6477 70.541V73.731H50.8977Z" fill="#979797"/>
<g clip-path="url(#clip1_21_1228)">
<path d="M72.1025 124.518V292.077H31.8962V122.663L33.6891 122.745H33.695L38.445 122.968L55.722 123.767L67.5912 124.318H67.597L72.1025 124.518Z" fill="#7A7A7A"/>
<path d="M64.0171 104.303V108.447L34.5508 106.222V101.098L41.507 87.2695L64.0171 104.303Z" fill="#797979"/>
<path d="M41.5069 87.2695L34.5507 101.098V106.222L31.8962 106.017L17.6055 109.292V104.303L41.5069 87.2695Z" fill="#ACACAC"/>
<path d="M31.8964 122.663V292.077H8.64111V126.443L10.3525 126.167L11.1791 126.032L14.8697 125.428H14.8813L31.8964 122.663Z" fill="#A7A7A7"/>
<path d="M67.5971 107.602V124.318L33.6892 122.751L33.7009 105.043L34.5507 105.107L64.0171 107.332L67.5971 107.602Z" fill="#7A7A7A"/>
<path d="M67.5971 112.626V129.343L57.2705 128.867L46.7285 128.374L33.6892 127.77L33.7067 110.061L34.5449 110.132L46.7285 111.047L57.2705 111.846L64.0171 112.356L67.5971 112.626Z" fill="#7A7A7A"/>
<path d="M33.7005 105.043L14.4851 108.893V125.434L31.896 122.669L33.6889 122.751L33.7005 105.043Z" fill="#A7A7A7"/>
<g opacity="0.7">
<path d="M46.7283 229.631V232.959L57.2703 233.628V230.3L46.7283 229.631Z" fill="#F9FFD2"/>
<path d="M46.7283 246.289V249.617L57.2703 250.286V246.958L46.7283 246.289Z" fill="#F9FFD2"/>
<path d="M46.7283 240.736V244.064L57.2703 244.733V241.405L46.7283 240.736Z" fill="#F9FFD2"/>
<path d="M46.7283 235.183V238.511L57.2703 239.181V235.852L46.7283 235.183Z" fill="#F9FFD2"/>
<path d="M46.7283 224.078V227.406L57.2703 228.075V224.747L46.7283 224.078Z" fill="#F9FFD2"/>
<path d="M46.7283 212.973V216.301L57.2703 216.97V213.642L46.7283 212.973Z" fill="#F9FFD2"/>
<path d="M46.7283 218.525V221.853L57.2703 222.523V219.195L46.7283 218.525Z" fill="#F9FFD2"/>
<path d="M46.7283 262.947V266.275L57.2703 266.944V263.616L46.7283 262.947Z" fill="#F9FFD2"/>
<path d="M46.7283 285.157V288.479L57.2703 289.154V285.826L46.7283 285.157Z" fill="#F9FFD2"/>
<path d="M46.7283 251.841V255.169L57.2703 255.838V252.51L46.7283 251.841Z" fill="#F9FFD2"/>
<path d="M57.2703 291.373V292.077H46.7283V290.704L55.7219 291.273L57.2703 291.373Z" fill="#F9FFD2"/>
<path d="M46.7283 274.052V277.374L57.2703 278.049V274.721L46.7283 274.052Z" fill="#F9FFD2"/>
<path d="M46.7283 279.604V282.933L57.2703 283.602V280.274L46.7283 279.604Z" fill="#F9FFD2"/>
<path d="M46.7283 268.499V271.827L57.2703 272.496V269.168L46.7283 268.499Z" fill="#F9FFD2"/>
<path d="M46.7283 257.394V260.722L57.2703 261.391V258.063L46.7283 257.394Z" fill="#F9FFD2"/>
<path d="M46.7283 207.42V210.748L57.2703 211.418V208.09L46.7283 207.42Z" fill="#F9FFD2"/>
<path d="M46.7283 174.11V177.433L57.2703 178.102V174.779L46.7283 174.11Z" fill="#F9FFD2"/>
<path d="M46.7283 151.9V155.228L57.2703 155.897V152.569L46.7283 151.9Z" fill="#F9FFD2"/>
<path d="M46.7283 140.794V144.122L57.2703 144.792V141.464L46.7283 140.794Z" fill="#F9FFD2"/>
<path d="M46.7283 135.242V138.57L57.2703 139.239V135.911L46.7283 135.242Z" fill="#F9FFD2"/>
<path d="M46.7283 201.868V205.196L57.2703 205.865V202.543L46.7283 201.868Z" fill="#F9FFD2"/>
<path d="M46.7283 129.689V133.017L57.2703 133.686V130.358L46.7283 129.689Z" fill="#F9FFD2"/>
<path d="M57.2705 117.028V111.846L46.7285 111.047V116.359L57.2705 117.028Z" fill="#F9FFD2"/>
<path d="M46.7283 118.584V121.912L57.2703 122.581V119.253L46.7283 118.584Z" fill="#F9FFD2"/>
<path d="M46.7283 124.137V127.465L57.2703 128.134V124.806L46.7283 124.137Z" fill="#F9FFD2"/>
<path d="M46.7283 146.347V149.675L57.2703 150.344V147.016L46.7283 146.347Z" fill="#F9FFD2"/>
<path d="M46.7283 190.762V194.09L57.2703 194.759V191.437L46.7283 190.762Z" fill="#F9FFD2"/>
<path d="M46.7283 185.216V188.538L57.2703 189.207V185.885L46.7283 185.216Z" fill="#F9FFD2"/>
<path d="M46.7283 196.315V199.643L57.2703 200.312V196.99L46.7283 196.315Z" fill="#F9FFD2"/>
<path d="M46.7283 168.558V171.88L57.2703 172.555V169.227L46.7283 168.558Z" fill="#F9FFD2"/>
<path d="M46.7283 179.663V182.985L57.2703 183.66V180.332L46.7283 179.663Z" fill="#F9FFD2"/>
<path d="M46.7283 163.005V166.327L57.2703 167.002V163.674L46.7283 163.005Z" fill="#F9FFD2"/>
<path d="M46.7283 157.452V160.775L57.2703 161.45V158.122L46.7283 157.452Z" fill="#F9FFD2"/>
</g>
<g opacity="0.7">
<path d="M35.4238 230.998V235.612L43.2066 235.917V231.304L35.4238 230.998Z" fill="#F9FFD2"/>
<path d="M35.4238 285.667V290.281L43.2066 290.586V285.973L35.4238 285.667Z" fill="#F9FFD2"/>
<path d="M35.4238 244.663V249.282L43.2066 249.587V244.968L35.4238 244.663Z" fill="#F9FFD2"/>
<path d="M35.4238 217.328V221.947L43.2066 222.253V217.633L35.4238 217.328Z" fill="#F9FFD2"/>
<path d="M35.4238 224.16V228.78L43.2066 229.085V224.465L35.4238 224.16Z" fill="#F9FFD2"/>
<path d="M35.4238 251.495V256.114L43.2066 256.42V251.8L35.4238 251.495Z" fill="#F9FFD2"/>
<path d="M35.4238 237.831V242.444L43.2066 242.749V238.136L35.4238 237.831Z" fill="#F9FFD2"/>
<path d="M35.4238 278.83V283.449L43.2066 283.754V279.135L35.4238 278.83Z" fill="#F9FFD2"/>
<path d="M35.4238 271.998V276.611L43.2066 276.922V272.303L35.4238 271.998Z" fill="#F9FFD2"/>
<path d="M35.4238 265.165V269.779L43.2066 270.084V265.47L35.4238 265.165Z" fill="#F9FFD2"/>
<path d="M35.4238 210.496V215.11L43.2066 215.415V210.801L35.4238 210.496Z" fill="#F9FFD2"/>
<path d="M35.4238 258.333V262.946L43.2066 263.252V258.638L35.4238 258.333Z" fill="#F9FFD2"/>
<path d="M35.4238 148.994V153.608L43.2066 153.913V149.299L35.4238 148.994Z" fill="#F9FFD2"/>
<path d="M35.4238 142.156V146.776L43.2066 147.081V142.461L35.4238 142.156Z" fill="#F9FFD2"/>
<path d="M35.4238 162.659V167.278L43.2066 167.583V162.964L35.4238 162.659Z" fill="#F9FFD2"/>
<path d="M35.4238 155.826V160.44L43.2066 160.745V156.132L35.4238 155.826Z" fill="#F9FFD2"/>
<path d="M35.4238 203.664V208.277L43.2066 208.582V203.969L35.4238 203.664Z" fill="#F9FFD2"/>
<path d="M35.4238 135.324V139.938L43.2066 140.243V135.629L35.4238 135.324Z" fill="#F9FFD2"/>
<path d="M43.2066 133.41V127.717L35.4238 127.359V133.105L43.2066 133.41Z" fill="#F9FFD2"/>
<path d="M35.4238 196.825V201.445L43.2066 201.75V197.131L35.4238 196.825Z" fill="#F9FFD2"/>
<path d="M35.4238 189.993V194.613L43.2066 194.918V190.298L35.4238 189.993Z" fill="#F9FFD2"/>
<path d="M35.4238 176.329V180.943L43.2066 181.248V176.634L35.4238 176.329Z" fill="#F9FFD2"/>
<path d="M35.4238 183.161V187.775L43.2066 188.08V183.466L35.4238 183.161Z" fill="#F9FFD2"/>
<path d="M35.4238 169.497V174.11L43.2066 174.415V169.796L35.4238 169.497Z" fill="#F9FFD2"/>
</g>
<g opacity="0.7">
<path d="M60.7163 232.354V236.974L68.4991 237.279V232.659L60.7163 232.354Z" fill="#F9FFD2"/>
<path d="M60.7163 287.023V291.643L68.4991 291.948V287.329L60.7163 287.023Z" fill="#F9FFD2"/>
<path d="M60.7163 246.024V250.638L68.4991 250.943V246.33L60.7163 246.024Z" fill="#F9FFD2"/>
<path d="M60.7163 218.69V223.303L68.4991 223.609V218.995L60.7163 218.69Z" fill="#F9FFD2"/>
<path d="M60.7163 225.522V230.141L68.4991 230.441V225.827L60.7163 225.522Z" fill="#F9FFD2"/>
<path d="M60.7163 252.857V257.47L68.4991 257.775V253.162L60.7163 252.857Z" fill="#F9FFD2"/>
<path d="M60.7163 239.192V243.806L68.4991 244.111V239.498L60.7163 239.192Z" fill="#F9FFD2"/>
<path d="M60.7163 280.191V284.805L68.4991 285.11V280.497L60.7163 280.191Z" fill="#F9FFD2"/>
<path d="M60.7163 273.359V277.973L68.4991 278.278V273.665L60.7163 273.359Z" fill="#F9FFD2"/>
<path d="M60.7163 266.521V271.141L68.4991 271.446V266.832L60.7163 266.521Z" fill="#F9FFD2"/>
<path d="M60.7163 211.852V216.471L68.4991 216.776V212.163L60.7163 211.852Z" fill="#F9FFD2"/>
<path d="M60.7163 259.689V264.308L68.4991 264.614V259.994L60.7163 259.689Z" fill="#F9FFD2"/>
<path d="M60.7163 150.35V154.969L68.4991 155.275V150.655L60.7163 150.35Z" fill="#F9FFD2"/>
<path d="M60.7163 143.518V148.132L68.4991 148.437V143.823L60.7163 143.518Z" fill="#F9FFD2"/>
<path d="M60.7163 164.02V168.634L68.4991 168.939V164.325L60.7163 164.02Z" fill="#F9FFD2"/>
<path d="M60.7163 157.188V161.802L68.4991 162.107V157.493L60.7163 157.188Z" fill="#F9FFD2"/>
<path d="M60.7163 205.02V209.639L68.4991 209.944V205.325L60.7163 205.02Z" fill="#F9FFD2"/>
<path d="M60.7163 136.686V141.299L68.4991 141.605V136.991L60.7163 136.686Z" fill="#F9FFD2"/>
<path d="M68.4991 134.772V129.079L60.7163 128.715V134.467L68.4991 134.772Z" fill="#F9FFD2"/>
<path d="M60.7163 198.187V202.801L68.4991 203.106V198.492L60.7163 198.187Z" fill="#F9FFD2"/>
<path d="M60.7163 191.355V195.969L68.4991 196.274V191.66L60.7163 191.355Z" fill="#F9FFD2"/>
<path d="M60.7163 177.685V182.304L68.4991 182.609V177.99L60.7163 177.685Z" fill="#F9FFD2"/>
<path d="M60.7163 184.523V189.136L68.4991 189.442V184.828L60.7163 184.523Z" fill="#F9FFD2"/>
<path d="M60.7163 170.853V175.466L68.4991 175.771V171.158L60.7163 170.853Z" fill="#F9FFD2"/>
</g>
</g>
<defs>
<clipPath id="clip0_21_1228">
<rect width="16" height="16" fill="white" transform="translate(32.3718 6.92334)"/>
</clipPath>
<clipPath id="clip1_21_1228">
<rect width="63.4615" height="204.808" fill="white" transform="translate(8.64111 87.2695)"/>
</clipPath>
</defs>
</svg>
