<svg width="81" height="237" viewBox="0 0 81 237" fill="none" xmlns="http://www.w3.org/2000/svg">
<rect x="26.1763" y="0.500244" width="28" height="28" rx="14" fill="white"/>
<path fill-rule="evenodd" clip-rule="evenodd" d="M43.9071 19.8025C43.4347 20.2667 42.8813 20.6296 42.2463 20.8938C41.6114 21.1559 40.921 21.2873 40.1766 21.2873C39.4316 21.2873 38.7419 21.1559 38.1076 20.8938C37.4719 20.6296 36.9179 20.2667 36.4455 19.8025C35.9731 19.3396 35.6027 18.7921 35.3359 18.1606C35.0778 17.5511 34.9451 16.8919 34.9356 16.1845H36.1918C36.2049 16.402 36.2515 16.6057 36.3325 16.797C36.4294 17.0269 36.5643 17.2255 36.7349 17.3934C36.9062 17.562 37.1082 17.6942 37.3385 17.7883C37.5689 17.8847 37.8197 17.9329 38.0902 17.9329C38.3606 17.9329 38.61 17.8847 38.8411 17.7883C39.0714 17.6942 39.2734 17.562 39.4447 17.3934C39.616 17.2255 39.7509 17.0269 39.8471 16.797C39.912 16.6459 39.9543 16.4853 39.9754 16.3173H40.3778C40.399 16.4853 40.4413 16.6459 40.5062 16.797C40.6038 17.0269 40.7373 17.2255 40.9093 17.3934C41.0799 17.562 41.2818 17.6942 41.5122 17.7883C41.7426 17.8847 41.9934 17.9329 42.2631 17.9329C42.5343 17.9329 42.7844 17.8847 43.0147 17.7883C43.2451 17.6942 43.4471 17.562 43.6184 17.3934C43.7897 17.2255 43.9246 17.0269 44.0215 16.797C44.1025 16.6057 44.1491 16.402 44.163 16.1845H45.4162C45.4089 16.8919 45.2755 17.5511 45.0174 18.1606C44.7498 18.7921 44.3795 19.3396 43.9071 19.8025ZM39.2201 16.0524C39.2201 16.2115 39.191 16.359 39.1341 16.4955C39.0765 16.6305 38.9971 16.7481 38.8943 16.8488C38.7915 16.9495 38.6726 17.0277 38.5363 17.0839C38.3985 17.1408 38.2505 17.1693 38.0902 17.1693C37.929 17.1693 37.7803 17.1408 37.6433 17.0839C37.5069 17.0277 37.3874 16.9495 37.2853 16.8488C37.1825 16.7481 37.103 16.6305 37.0462 16.4955C36.9886 16.359 36.9594 16.2115 36.9594 16.0524C36.9594 15.8947 36.9886 15.7465 37.0462 15.61C37.103 15.4742 37.1825 15.3566 37.2853 15.2559C37.3874 15.1566 37.5069 15.0778 37.6433 15.0216C37.7803 14.9646 37.929 14.9362 38.0902 14.9362C38.2505 14.9362 38.3985 14.9646 38.5363 15.0216C38.6726 15.0778 38.7915 15.1566 38.8943 15.2559C38.9971 15.3566 39.0765 15.4742 39.1341 15.61C39.191 15.7465 39.2201 15.8947 39.2201 16.0524ZM43.3938 16.0524C43.3938 16.2115 43.3654 16.359 43.3071 16.4955C43.2502 16.6305 43.17 16.7481 43.0687 16.8488C42.9666 16.9495 42.8463 17.0277 42.7093 17.0839C42.573 17.1408 42.4242 17.1693 42.2631 17.1693C42.1027 17.1693 41.954 17.1408 41.8177 17.0839C41.6799 17.0277 41.5603 16.9495 41.459 16.8488C41.3569 16.7481 41.2775 16.6305 41.2191 16.4955C41.1616 16.359 41.1331 16.2115 41.1331 16.0524C41.1331 15.8947 41.1616 15.7465 41.2191 15.61C41.2775 15.4742 41.3569 15.3566 41.459 15.2559C41.5603 15.1566 41.6799 15.0778 41.8177 15.0216C41.954 14.9646 42.1027 14.9362 42.2631 14.9362C42.4242 14.9362 42.573 14.9646 42.7093 15.0216C42.8463 15.0778 42.9666 15.1566 43.0687 15.2559C43.17 15.3566 43.2502 15.4742 43.3071 15.61C43.3654 15.7465 43.3938 15.8947 43.3938 16.0524ZM35.4022 13.9214C36.2938 13.6272 37.4763 13.252 37.4763 13.252C40.0775 12.4234 40.426 11.4438 40.426 11.4438C40.426 11.4438 40.9735 12.4234 42.8616 13.0695C42.8616 13.0695 43.9049 13.4133 44.8752 13.7645C44.9241 13.8608 44.9744 13.9572 45.0174 14.0594C45.188 14.4624 45.3039 14.8872 45.3651 15.3318H44.0303L44.0215 15.3085C43.9246 15.0785 43.7897 14.8807 43.6184 14.712C43.4471 14.5434 43.2451 14.4113 43.0147 14.3156C42.7844 14.2207 42.5343 14.1733 42.2631 14.1733C41.9934 14.1733 41.7426 14.2207 41.5122 14.3156C41.2818 14.4113 41.0799 14.5434 40.9093 14.712C40.7373 14.8807 40.6038 15.0785 40.5062 15.3085C40.4755 15.3807 40.45 15.4545 40.4289 15.5297H39.9244C39.904 15.4545 39.8785 15.3807 39.8471 15.3085C39.7509 15.0785 39.616 14.8807 39.4447 14.712C39.2734 14.5434 39.0714 14.4113 38.8411 14.3156C38.61 14.2207 38.3606 14.1733 38.0902 14.1733C37.8197 14.1733 37.5689 14.2207 37.3385 14.3156C37.1082 14.4113 36.9062 14.5434 36.7349 14.712C36.5643 14.8807 36.4294 15.0785 36.3325 15.3085C36.3288 15.3158 36.3266 15.3238 36.323 15.3318H34.9889C35.0501 14.8872 35.1653 14.4624 35.3359 14.0594C35.3563 14.012 35.3811 13.9682 35.4022 13.9214ZM47.5653 11.37C47.1564 10.4071 46.5928 9.57199 45.8704 8.86461C45.1493 8.15576 44.3044 7.60168 43.3355 7.2009C42.3659 6.79939 41.3132 6.59863 40.1766 6.59863C39.0401 6.59863 37.9874 6.79939 37.0178 7.2009C36.0489 7.60168 35.2032 8.15576 34.4822 8.86461C33.7612 9.57199 33.1962 10.4071 32.7887 11.37C32.3797 12.3336 32.1763 13.3776 32.1763 14.5003C32.1763 15.6246 32.3797 16.667 32.7887 17.6307C33.1962 18.5943 33.7612 19.4287 34.4822 20.1368C35.2032 20.8449 36.0489 21.399 37.0178 21.8005C37.9874 22.2013 39.0401 22.402 40.1766 22.402C41.3132 22.402 42.3659 22.2013 43.3355 21.8005C44.3044 21.399 45.1493 20.8449 45.8704 20.1368C46.5928 19.4287 47.1564 18.5943 47.5653 17.6307C47.9721 16.667 48.1763 15.6246 48.1763 14.5003C48.1763 13.3776 47.9721 12.3336 47.5653 11.37Z" fill="#EE6513"/>
<path d="M28.7064 45.4463C28.0833 45.4463 27.541 45.3309 27.0794 45.1002C26.6256 44.8617 26.2717 44.5425 26.0179 44.1425C25.7717 43.7425 25.6487 43.304 25.6487 42.8271C25.6487 42.2656 25.7987 41.7925 26.0987 41.4079C26.3987 41.0156 26.8333 40.7271 27.4025 40.5425L27.3102 40.9232C26.9025 40.7925 26.5794 40.5386 26.341 40.1617C26.1102 39.7848 25.9948 39.3694 25.9948 38.9156C25.9948 38.4617 26.1102 38.0579 26.341 37.704C26.5717 37.3502 26.891 37.0732 27.2987 36.8732C27.7064 36.6732 28.1756 36.5732 28.7064 36.5732C29.2294 36.5732 29.691 36.6732 30.091 36.8732C30.4987 37.0732 30.8179 37.3502 31.0487 37.704C31.2871 38.0579 31.4064 38.4617 31.4064 38.9156C31.4064 39.3771 31.2871 39.7963 31.0487 40.1732C30.8179 40.5425 30.4987 40.7963 30.091 40.9348L30.0102 40.5309C30.5794 40.7309 31.0141 41.0271 31.3141 41.4194C31.6141 41.804 31.7641 42.2771 31.7641 42.8386C31.7641 43.3156 31.6371 43.754 31.3833 44.154C31.1371 44.5463 30.7833 44.8617 30.3217 45.1002C29.8679 45.3309 29.3294 45.4463 28.7064 45.4463ZM28.7064 44.1194C29.0064 44.1194 29.2679 44.0656 29.491 43.9579C29.7141 43.8425 29.8871 43.6848 30.0102 43.4848C30.1333 43.2771 30.1948 43.0425 30.1948 42.7809C30.1948 42.5117 30.1333 42.2809 30.0102 42.0886C29.8871 41.8886 29.7141 41.7348 29.491 41.6271C29.2679 41.5117 29.0064 41.454 28.7064 41.454C28.4064 41.454 28.1448 41.5117 27.9217 41.6271C27.7064 41.7348 27.5371 41.8886 27.4141 42.0886C27.291 42.2809 27.2294 42.5117 27.2294 42.7809C27.2294 43.0425 27.291 43.2771 27.4141 43.4848C27.5371 43.6848 27.7064 43.8425 27.9217 43.9579C28.1448 44.0656 28.4064 44.1194 28.7064 44.1194ZM28.7064 40.1271C28.9294 40.1271 29.1256 40.0771 29.2948 39.9771C29.4641 39.8771 29.5948 39.7463 29.6871 39.5848C29.7871 39.4156 29.8371 39.2232 29.8371 39.0079C29.8371 38.7925 29.7871 38.604 29.6871 38.4425C29.5948 38.2732 29.4641 38.1425 29.2948 38.0502C29.1256 37.9502 28.9294 37.9002 28.7064 37.9002C28.4833 37.9002 28.2833 37.9502 28.1064 38.0502C27.9371 38.1425 27.8025 38.2732 27.7025 38.4425C27.6102 38.604 27.5641 38.7925 27.5641 39.0079C27.5641 39.2232 27.6102 39.4156 27.7025 39.5848C27.8025 39.7463 27.9371 39.8771 28.1064 39.9771C28.2833 40.0771 28.4833 40.1271 28.7064 40.1271ZM33.4352 45.3079L36.3545 41.5463L36.6199 41.8232C36.5045 41.9079 36.3929 41.9771 36.2852 42.0309C36.1775 42.0848 36.0622 42.1232 35.9391 42.1463C35.816 42.1694 35.6852 42.1809 35.5468 42.1809C35.0237 42.1809 34.5583 42.0617 34.1506 41.8232C33.7429 41.5848 33.4199 41.2617 33.1814 40.854C32.9506 40.4386 32.8352 39.9694 32.8352 39.4463C32.8352 38.8925 32.9622 38.4002 33.216 37.9694C33.4775 37.5386 33.8314 37.2002 34.2775 36.954C34.7314 36.7002 35.2468 36.5732 35.8237 36.5732C36.4083 36.5732 36.9237 36.6963 37.3699 36.9425C37.816 37.1886 38.166 37.5271 38.4199 37.9579C38.6814 38.3809 38.8122 38.8694 38.8122 39.4232C38.8122 39.7002 38.7814 39.9771 38.7199 40.254C38.6583 40.5309 38.5468 40.8271 38.3852 41.1425C38.2314 41.4502 38.0083 41.8002 37.716 42.1925L35.316 45.3079H33.4352ZM35.8237 40.8656C36.0929 40.8656 36.3314 40.8079 36.5391 40.6925C36.7545 40.5694 36.9237 40.4002 37.0468 40.1848C37.1699 39.9617 37.2314 39.7117 37.2314 39.4348C37.2314 39.1425 37.166 38.8886 37.0352 38.6732C36.9122 38.4579 36.7468 38.2886 36.5391 38.1656C36.3314 38.0425 36.0929 37.9809 35.8237 37.9809C35.5622 37.9809 35.3237 38.0425 35.1083 38.1656C34.8929 38.2886 34.7199 38.4579 34.5891 38.6732C34.466 38.8886 34.4045 39.1425 34.4045 39.4348C34.4045 39.7117 34.466 39.9617 34.5891 40.1848C34.7199 40.4002 34.8929 40.5694 35.1083 40.6925C35.3237 40.8079 35.5622 40.8656 35.8237 40.8656ZM43.3763 45.4463C42.6917 45.4463 42.0917 45.2617 41.5763 44.8925C41.061 44.5232 40.6571 44.004 40.3648 43.3348C40.0802 42.6656 39.9379 41.8886 39.9379 41.004C39.9379 40.1117 40.0802 39.3348 40.3648 38.6732C40.6494 38.0117 41.0494 37.4963 41.5648 37.1271C42.0802 36.7579 42.6802 36.5732 43.3648 36.5732C44.0648 36.5732 44.6687 36.7579 45.1763 37.1271C45.6917 37.4963 46.0956 38.0156 46.3879 38.6848C46.6802 39.3463 46.8263 40.1194 46.8263 41.004C46.8263 41.8886 46.6802 42.6656 46.3879 43.3348C46.1033 43.9963 45.7033 44.5156 45.1879 44.8925C44.6725 45.2617 44.0687 45.4463 43.3763 45.4463ZM43.3879 44.0156C43.7802 44.0156 44.1148 43.8963 44.3917 43.6579C44.6687 43.4117 44.8802 43.0656 45.0263 42.6194C45.1802 42.1656 45.2571 41.6271 45.2571 41.004C45.2571 40.3809 45.1802 39.8463 45.0263 39.4002C44.8802 38.9463 44.6648 38.6002 44.3802 38.3617C44.1033 38.1232 43.7648 38.004 43.3648 38.004C42.9802 38.004 42.6494 38.1232 42.3725 38.3617C42.0956 38.6002 41.8802 38.9463 41.7263 39.4002C41.5802 39.8463 41.5071 40.3809 41.5071 41.004C41.5071 41.6194 41.5802 42.154 41.7263 42.6079C41.8802 43.054 42.0956 43.4002 42.3725 43.6463C42.6571 43.8925 42.9956 44.0156 43.3879 44.0156ZM48.2918 45.3079V36.7117H49.8611V41.1886L49.4341 41.0386L53.0918 36.7117H55.0649L51.638 40.7732L51.7303 39.6656L55.1687 45.3079H53.3226L51.0149 41.5232L49.8611 42.8963V45.3079H48.2918Z" fill="white"/>
<path d="M12.6887 60.4279C12.162 60.4279 11.6787 60.3345 11.2387 60.1479C10.7987 59.9545 10.4154 59.6879 10.0887 59.3479C9.76869 59.0012 9.51869 58.5945 9.33869 58.1279C9.15869 57.6612 9.06869 57.1479 9.06869 56.5879C9.06869 56.0279 9.15869 55.5145 9.33869 55.0479C9.51869 54.5812 9.76869 54.1745 10.0887 53.8279C10.4154 53.4812 10.7987 53.2145 11.2387 53.0279C11.6787 52.8345 12.162 52.7379 12.6887 52.7379C13.1954 52.7379 13.6487 52.8279 14.0487 53.0079C14.4554 53.1879 14.7954 53.4212 15.0687 53.7079C15.3487 53.9879 15.5487 54.2845 15.6687 54.5979L14.9187 54.9279C14.732 54.4945 14.4454 54.1479 14.0587 53.8879C13.6787 53.6212 13.222 53.4879 12.6887 53.4879C12.142 53.4879 11.6554 53.6179 11.2287 53.8779C10.802 54.1379 10.4687 54.5012 10.2287 54.9679C9.98869 55.4279 9.86869 55.9679 9.86869 56.5879C9.86869 57.2012 9.98869 57.7412 10.2287 58.2079C10.4687 58.6745 10.802 59.0379 11.2287 59.2979C11.6554 59.5512 12.142 59.6779 12.6887 59.6779C13.222 59.6779 13.6787 59.5479 14.0587 59.2879C14.4454 59.0279 14.732 58.6812 14.9187 58.2479L15.6687 58.5779C15.5487 58.8845 15.3487 59.1812 15.0687 59.4679C14.7954 59.7479 14.4554 59.9779 14.0487 60.1579C13.6487 60.3379 13.1954 60.4279 12.6887 60.4279ZM19.4035 60.4279C18.8969 60.4279 18.4369 60.3079 18.0235 60.0679C17.6102 59.8212 17.2802 59.4879 17.0335 59.0679C16.7935 58.6412 16.6735 58.1579 16.6735 57.6179C16.6735 57.0845 16.7935 56.6079 17.0335 56.1879C17.2735 55.7679 17.5969 55.4379 18.0035 55.1979C18.4169 54.9512 18.8835 54.8279 19.4035 54.8279C19.9235 54.8279 20.3869 54.9479 20.7935 55.1879C21.2069 55.4279 21.5302 55.7579 21.7635 56.1779C22.0035 56.5979 22.1235 57.0779 22.1235 57.6179C22.1235 58.1645 22.0002 58.6512 21.7535 59.0779C21.5069 59.4979 21.1769 59.8279 20.7635 60.0679C20.3569 60.3079 19.9035 60.4279 19.4035 60.4279ZM19.4035 59.6779C19.7635 59.6779 20.0869 59.5879 20.3735 59.4079C20.6669 59.2279 20.8969 58.9812 21.0635 58.6679C21.2369 58.3545 21.3235 58.0045 21.3235 57.6179C21.3235 57.2312 21.2369 56.8845 21.0635 56.5779C20.8969 56.2712 20.6669 56.0279 20.3735 55.8479C20.0869 55.6679 19.7635 55.5779 19.4035 55.5779C19.0435 55.5779 18.7169 55.6679 18.4235 55.8479C18.1369 56.0279 17.9069 56.2712 17.7335 56.5779C17.5602 56.8845 17.4735 57.2312 17.4735 57.6179C17.4735 58.0045 17.5602 58.3545 17.7335 58.6679C17.9069 58.9812 18.1369 59.2279 18.4235 59.4079C18.7169 59.5879 19.0435 59.6779 19.4035 59.6779ZM23.4463 60.3079V54.9479H24.1963V55.9879L24.0263 55.9479C24.1596 55.6012 24.3763 55.3279 24.6763 55.1279C24.9829 54.9279 25.3363 54.8279 25.7363 54.8279C26.1163 54.8279 26.4563 54.9145 26.7563 55.0879C27.0629 55.2612 27.3029 55.5012 27.4763 55.8079C27.6563 56.1079 27.7463 56.4479 27.7463 56.8279V60.3079H26.9963V57.1179C26.9963 56.7912 26.9363 56.5145 26.8163 56.2879C26.7029 56.0612 26.5396 55.8879 26.3263 55.7679C26.1196 55.6412 25.8796 55.5779 25.6063 55.5779C25.3329 55.5779 25.0896 55.6412 24.8763 55.7679C24.6629 55.8879 24.4963 56.0645 24.3763 56.2979C24.2563 56.5245 24.1963 56.7979 24.1963 57.1179V60.3079H23.4463ZM30.511 60.3079L28.421 54.9479H29.261L31.021 59.6479H30.751L32.521 54.9479H33.371L31.261 60.3079H30.511ZM36.5894 60.4279C36.0894 60.4279 35.6361 60.3079 35.2294 60.0679C34.8294 59.8212 34.5127 59.4845 34.2794 59.0579C34.0461 58.6312 33.9294 58.1479 33.9294 57.6079C33.9294 57.0679 34.0427 56.5912 34.2694 56.1779C34.4961 55.7579 34.8027 55.4279 35.1894 55.1879C35.5827 54.9479 36.0227 54.8279 36.5094 54.8279C36.8961 54.8279 37.2394 54.9012 37.5394 55.0479C37.8461 55.1879 38.1061 55.3812 38.3194 55.6279C38.5327 55.8679 38.6961 56.1412 38.8094 56.4479C38.9227 56.7479 38.9794 57.0579 38.9794 57.3779C38.9794 57.4445 38.9761 57.5212 38.9694 57.6079C38.9627 57.6879 38.9527 57.7712 38.9394 57.8579H34.4094V57.1579H38.5094L38.1494 57.4579C38.2094 57.0912 38.1661 56.7645 38.0194 56.4779C37.8794 56.1845 37.6761 55.9545 37.4094 55.7879C37.1427 55.6145 36.8427 55.5279 36.5094 55.5279C36.1761 55.5279 35.8661 55.6145 35.5794 55.7879C35.2994 55.9612 35.0794 56.2045 34.9194 56.5179C34.7594 56.8245 34.6961 57.1912 34.7294 57.6179C34.6961 58.0445 34.7627 58.4179 34.9294 58.7379C35.1027 59.0512 35.3361 59.2945 35.6294 59.4679C35.9294 59.6412 36.2494 59.7279 36.5894 59.7279C36.9827 59.7279 37.3127 59.6345 37.5794 59.4479C37.8461 59.2612 38.0627 59.0279 38.2294 58.7479L38.8694 59.0879C38.7627 59.3279 38.5994 59.5512 38.3794 59.7579C38.1594 59.9579 37.8961 60.1212 37.5894 60.2479C37.2894 60.3679 36.9561 60.4279 36.5894 60.4279ZM40.3017 60.3079V54.9479H41.0517V55.8279L40.9517 55.6979C41.0784 55.4445 41.2684 55.2445 41.5217 55.0979C41.7817 54.9512 42.0951 54.8779 42.4617 54.8779H42.8017V55.6279H42.3317C41.9451 55.6279 41.6351 55.7479 41.4017 55.9879C41.1684 56.2279 41.0517 56.5679 41.0517 57.0079V60.3079H40.3017ZM45.5406 60.4279C45.0273 60.4279 44.5773 60.2979 44.1906 60.0379C43.804 59.7779 43.524 59.4245 43.3506 58.9779L43.9806 58.6779C44.134 59.0045 44.3473 59.2645 44.6206 59.4579C44.9006 59.6512 45.2073 59.7479 45.5406 59.7479C45.8606 59.7479 46.1306 59.6712 46.3506 59.5179C46.5706 59.3579 46.6806 59.1512 46.6806 58.8979C46.6806 58.7112 46.6273 58.5645 46.5206 58.4579C46.414 58.3445 46.2906 58.2579 46.1506 58.1979C46.0106 58.1379 45.8873 58.0945 45.7806 58.0679L45.0106 57.8479C44.5173 57.7079 44.1606 57.5112 43.9406 57.2579C43.7206 57.0045 43.6106 56.7112 43.6106 56.3779C43.6106 56.0645 43.6906 55.7912 43.8506 55.5579C44.0106 55.3245 44.2273 55.1445 44.5006 55.0179C44.774 54.8912 45.0773 54.8279 45.4106 54.8279C45.864 54.8279 46.274 54.9479 46.6406 55.1879C47.014 55.4212 47.2773 55.7479 47.4306 56.1679L46.7906 56.4679C46.6573 56.1679 46.464 55.9345 46.2106 55.7679C45.964 55.5945 45.6873 55.5079 45.3806 55.5079C45.0806 55.5079 44.8406 55.5845 44.6606 55.7379C44.4806 55.8912 44.3906 56.0845 44.3906 56.3179C44.3906 56.4979 44.4373 56.6412 44.5306 56.7479C44.624 56.8545 44.7306 56.9345 44.8506 56.9879C44.9773 57.0412 45.0873 57.0812 45.1806 57.1079L46.0706 57.3679C46.504 57.4945 46.8406 57.6912 47.0806 57.9579C47.3273 58.2245 47.4506 58.5379 47.4506 58.8979C47.4506 59.1912 47.3673 59.4545 47.2006 59.6879C47.0406 59.9212 46.8173 60.1045 46.5306 60.2379C46.244 60.3645 45.914 60.4279 45.5406 60.4279ZM48.7685 60.3079V54.9479H49.5185V60.3079H48.7685ZM48.7685 53.9579V52.8579H49.5185V53.9579H48.7685ZM53.5637 60.4279C53.057 60.4279 52.597 60.3079 52.1837 60.0679C51.7704 59.8212 51.4404 59.4879 51.1937 59.0679C50.9537 58.6412 50.8337 58.1579 50.8337 57.6179C50.8337 57.0845 50.9537 56.6079 51.1937 56.1879C51.4337 55.7679 51.757 55.4379 52.1637 55.1979C52.577 54.9512 53.0437 54.8279 53.5637 54.8279C54.0837 54.8279 54.547 54.9479 54.9537 55.1879C55.367 55.4279 55.6904 55.7579 55.9237 56.1779C56.1637 56.5979 56.2837 57.0779 56.2837 57.6179C56.2837 58.1645 56.1604 58.6512 55.9137 59.0779C55.667 59.4979 55.337 59.8279 54.9237 60.0679C54.517 60.3079 54.0637 60.4279 53.5637 60.4279ZM53.5637 59.6779C53.9237 59.6779 54.247 59.5879 54.5337 59.4079C54.827 59.2279 55.057 58.9812 55.2237 58.6679C55.397 58.3545 55.4837 58.0045 55.4837 57.6179C55.4837 57.2312 55.397 56.8845 55.2237 56.5779C55.057 56.2712 54.827 56.0279 54.5337 55.8479C54.247 55.6679 53.9237 55.5779 53.5637 55.5779C53.2037 55.5779 52.877 55.6679 52.5837 55.8479C52.297 56.0279 52.067 56.2712 51.8937 56.5779C51.7204 56.8845 51.6337 57.2312 51.6337 57.6179C51.6337 58.0045 51.7204 58.3545 51.8937 58.6679C52.067 58.9812 52.297 59.2279 52.5837 59.4079C52.877 59.5879 53.2037 59.6779 53.5637 59.6779ZM57.6064 60.3079V54.9479H58.3564V55.9879L58.1864 55.9479C58.3198 55.6012 58.5364 55.3279 58.8364 55.1279C59.1431 54.9279 59.4964 54.8279 59.8964 54.8279C60.2764 54.8279 60.6164 54.9145 60.9164 55.0879C61.2231 55.2612 61.4631 55.5012 61.6364 55.8079C61.8164 56.1079 61.9064 56.4479 61.9064 56.8279V60.3079H61.1564V57.1179C61.1564 56.7912 61.0964 56.5145 60.9764 56.2879C60.8631 56.0612 60.6998 55.8879 60.4864 55.7679C60.2798 55.6412 60.0398 55.5779 59.7664 55.5779C59.4931 55.5779 59.2498 55.6412 59.0364 55.7679C58.8231 55.8879 58.6564 56.0645 58.5364 56.2979C58.4164 56.5245 58.3564 56.7979 58.3564 57.1179V60.3079H57.6064ZM65.1988 60.4279C64.6855 60.4279 64.2355 60.2979 63.8488 60.0379C63.4622 59.7779 63.1822 59.4245 63.0088 58.9779L63.6388 58.6779C63.7922 59.0045 64.0055 59.2645 64.2788 59.4579C64.5588 59.6512 64.8655 59.7479 65.1988 59.7479C65.5188 59.7479 65.7888 59.6712 66.0088 59.5179C66.2288 59.3579 66.3388 59.1512 66.3388 58.8979C66.3388 58.7112 66.2855 58.5645 66.1788 58.4579C66.0722 58.3445 65.9488 58.2579 65.8088 58.1979C65.6688 58.1379 65.5455 58.0945 65.4388 58.0679L64.6688 57.8479C64.1755 57.7079 63.8188 57.5112 63.5988 57.2579C63.3788 57.0045 63.2688 56.7112 63.2688 56.3779C63.2688 56.0645 63.3488 55.7912 63.5088 55.5579C63.6688 55.3245 63.8855 55.1445 64.1588 55.0179C64.4322 54.8912 64.7355 54.8279 65.0688 54.8279C65.5222 54.8279 65.9322 54.9479 66.2988 55.1879C66.6722 55.4212 66.9355 55.7479 67.0888 56.1679L66.4488 56.4679C66.3155 56.1679 66.1222 55.9345 65.8688 55.7679C65.6222 55.5945 65.3455 55.5079 65.0388 55.5079C64.7388 55.5079 64.4988 55.5845 64.3188 55.7379C64.1388 55.8912 64.0488 56.0845 64.0488 56.3179C64.0488 56.4979 64.0955 56.6412 64.1888 56.7479C64.2822 56.8545 64.3888 56.9345 64.5088 56.9879C64.6355 57.0412 64.7455 57.0812 64.8388 57.1079L65.7288 57.3679C66.1622 57.4945 66.4988 57.6912 66.7388 57.9579C66.9855 58.2245 67.1088 58.5379 67.1088 58.8979C67.1088 59.1912 67.0255 59.4545 66.8588 59.6879C66.6988 59.9212 66.4755 60.1045 66.1888 60.2379C65.9022 60.3645 65.5722 60.4279 65.1988 60.4279ZM67.6767 61.5079L71.0567 53.2679H71.9267L68.5467 61.5079H67.6767ZM25.458 73.3079V67.9479H26.208V68.9679L26.088 68.8179C26.2347 68.5045 26.4513 68.2612 26.738 68.0879C27.0313 67.9145 27.3513 67.8279 27.698 67.8279C28.1113 67.8279 28.4847 67.9445 28.818 68.1779C29.1513 68.4112 29.388 68.7145 29.528 69.0879L29.318 69.0979C29.4513 68.6845 29.6813 68.3712 30.008 68.1579C30.3413 67.9379 30.708 67.8279 31.108 67.8279C31.468 67.8279 31.798 67.9145 32.098 68.0879C32.4047 68.2612 32.648 68.5012 32.828 68.8079C33.0147 69.1079 33.108 69.4479 33.108 69.8279V73.3079H32.358V70.1179C32.358 69.7912 32.298 69.5145 32.178 69.2879C32.0647 69.0612 31.908 68.8879 31.708 68.7679C31.508 68.6412 31.278 68.5779 31.018 68.5779C30.7647 68.5779 30.5347 68.6412 30.328 68.7679C30.1213 68.8879 29.958 69.0645 29.838 69.2979C29.718 69.5245 29.658 69.7979 29.658 70.1179V73.3079H28.908V70.1179C28.908 69.7912 28.848 69.5145 28.728 69.2879C28.6147 69.0612 28.458 68.8879 28.258 68.7679C28.058 68.6412 27.828 68.5779 27.568 68.5779C27.308 68.5779 27.0747 68.6412 26.868 68.7679C26.668 68.8879 26.508 69.0645 26.388 69.2979C26.268 69.5245 26.208 69.7979 26.208 70.1179V73.3079H25.458ZM37.05 73.4279C36.5434 73.4279 36.0834 73.3079 35.67 73.0679C35.2567 72.8212 34.9267 72.4879 34.68 72.0679C34.44 71.6412 34.32 71.1579 34.32 70.6179C34.32 70.0845 34.44 69.6079 34.68 69.1879C34.92 68.7679 35.2434 68.4379 35.65 68.1979C36.0634 67.9512 36.53 67.8279 37.05 67.8279C37.57 67.8279 38.0334 67.9479 38.44 68.1879C38.8534 68.4279 39.1767 68.7579 39.41 69.1779C39.65 69.5979 39.77 70.0779 39.77 70.6179C39.77 71.1645 39.6467 71.6512 39.4 72.0779C39.1534 72.4979 38.8234 72.8279 38.41 73.0679C38.0034 73.3079 37.55 73.4279 37.05 73.4279ZM37.05 72.6779C37.41 72.6779 37.7334 72.5879 38.02 72.4079C38.3134 72.2279 38.5434 71.9812 38.71 71.6679C38.8834 71.3545 38.97 71.0045 38.97 70.6179C38.97 70.2312 38.8834 69.8845 38.71 69.5779C38.5434 69.2712 38.3134 69.0279 38.02 68.8479C37.7334 68.6679 37.41 68.5779 37.05 68.5779C36.69 68.5779 36.3634 68.6679 36.07 68.8479C35.7834 69.0279 35.5534 69.2712 35.38 69.5779C35.2067 69.8845 35.12 70.2312 35.12 70.6179C35.12 71.0045 35.2067 71.3545 35.38 71.6679C35.5534 71.9812 35.7834 72.2279 36.07 72.4079C36.3634 72.5879 36.69 72.6779 37.05 72.6779ZM41.0928 73.3079V67.9479H41.8428V68.9879L41.6728 68.9479C41.8061 68.6012 42.0228 68.3279 42.3228 68.1279C42.6294 67.9279 42.9828 67.8279 43.3828 67.8279C43.7628 67.8279 44.1028 67.9145 44.4028 68.0879C44.7094 68.2612 44.9494 68.5012 45.1228 68.8079C45.3028 69.1079 45.3928 69.4479 45.3928 69.8279V73.3079H44.6428V70.1179C44.6428 69.7912 44.5828 69.5145 44.4628 69.2879C44.3494 69.0612 44.1861 68.8879 43.9728 68.7679C43.7661 68.6412 43.5261 68.5779 43.2528 68.5779C42.9794 68.5779 42.7361 68.6412 42.5228 68.7679C42.3094 68.8879 42.1428 69.0645 42.0228 69.2979C41.9028 69.5245 41.8428 69.7979 41.8428 70.1179V73.3079H41.0928ZM48.8752 73.3679C48.3952 73.3679 48.0252 73.2279 47.7652 72.9479C47.5052 72.6679 47.3752 72.2679 47.3752 71.7479V68.6979H46.3852V67.9479H46.6352C46.8618 67.9479 47.0418 67.8745 47.1752 67.7279C47.3085 67.5745 47.3752 67.3845 47.3752 67.1579V66.7079H48.1252V67.9479H49.3052V68.6979H48.1252V71.7479C48.1252 71.9279 48.1518 72.0879 48.2052 72.2279C48.2585 72.3612 48.3485 72.4679 48.4752 72.5479C48.6085 72.6279 48.7852 72.6679 49.0052 72.6679C49.0585 72.6679 49.1218 72.6645 49.1952 72.6579C49.2685 72.6512 49.3318 72.6445 49.3852 72.6379V73.3079C49.3052 73.3279 49.2152 73.3412 49.1152 73.3479C49.0152 73.3612 48.9352 73.3679 48.8752 73.3679ZM50.7021 73.3079V65.7379H51.4521V68.9879L51.2821 68.9479C51.4155 68.6012 51.6321 68.3279 51.9321 68.1279C52.2388 67.9279 52.5921 67.8279 52.9921 67.8279C53.3721 67.8279 53.7121 67.9145 54.0121 68.0879C54.3188 68.2612 54.5588 68.5012 54.7321 68.8079C54.9121 69.1079 55.0021 69.4479 55.0021 69.8279V73.3079H54.2521V70.1179C54.2521 69.7912 54.1921 69.5145 54.0721 69.2879C53.9521 69.0612 53.7855 68.8879 53.5721 68.7679C53.3655 68.6412 53.1288 68.5779 52.8621 68.5779C52.5955 68.5779 52.3555 68.6412 52.1421 68.7679C51.9288 68.8879 51.7588 69.0645 51.6321 69.2979C51.5121 69.5245 51.4521 69.7979 51.4521 70.1179V73.3079H50.7021Z" fill="white"/>
<g clip-path="url(#clip0_21_3246)">
<path d="M71.6596 100.228V236.846H42.4067V98.7966L42.6318 98.8099L63.4246 99.8285L71.6596 100.228Z" fill="#FFC700"/>
<path d="M71.6663 106.872V236.847H42.4067V105.441L42.6318 105.454L47.3186 105.681L50.3373 105.827L53.2367 105.974L54.7262 106.047L59.3402 106.273L60.8296 106.346L63.418 106.473L63.7357 106.486L66.7544 106.633L71.6596 106.872H71.6663Z" fill="#FFC700"/>
<path d="M42.407 98.7966V236.846H8.68579V112.997L13.1542 112.691V100.228L14.7959 100.148L17.1459 100.035L22.3491 99.7819L25.3147 99.6355L28.671 99.469L31.6366 99.3226L33.6292 99.2294L34.3243 99.1961L34.9929 99.1628L37.9585 99.0163L41.1956 98.8565L42.407 98.7966Z" fill="#FFF500"/>
<path d="M63.4246 95.8207V99.8285L42.4067 98.7966L43.8697 94.2296L42.0029 86.8464L54.0774 88.0581L63.4246 95.8207Z" fill="#EF8F00"/>
<path d="M46.2993 96.3201L46.9481 94.3095L45.8359 89.9089L52.7669 90.608L60.4392 96.9792V97.0125L46.2993 96.3201Z" fill="#FFC700"/>
<path d="M43.8699 94.2296L42.4069 98.7966L17.1458 100.035V95.368L27.0953 87.8783L42.0031 86.8464L43.8699 94.2296Z" fill="#F7BD79"/>
<g opacity="0.7">
<path d="M50.3377 112.485V236.847H47.3191V112.338L50.3377 112.485Z" fill="#F9FFD2"/>
<path d="M66.7547 113.29V236.847H63.7361V113.144L66.7547 113.29Z" fill="#F9FFD2"/>
<path d="M60.83 105.015V236.847H53.2371V104.642L60.83 105.015Z" fill="#F9FFD2"/>
</g>
</g>
<defs>
<clipPath id="clip0_21_3246">
<rect width="62.9808" height="150" fill="white" transform="translate(8.68579 86.8464)"/>
</clipPath>
</defs>
</svg>
