<svg width="81" height="238" viewBox="0 0 81 238" fill="none" xmlns="http://www.w3.org/2000/svg">
<rect x="26.1763" y="0.96167" width="28" height="28" rx="14" fill="#1E1E1E"/>
<path fill-rule="evenodd" clip-rule="evenodd" d="M43.9071 20.2638C43.4347 20.728 42.8813 21.0909 42.2463 21.3551C41.6114 21.6172 40.921 21.7486 40.1766 21.7486C39.4316 21.7486 38.7419 21.6172 38.1076 21.3551C37.4719 21.0909 36.9179 20.728 36.4455 20.2638C35.9731 19.8009 35.6027 19.2534 35.3359 18.6219C35.0778 18.0124 34.9451 17.3532 34.9356 16.6458H36.1918C36.2049 16.8633 36.2515 17.067 36.3325 17.2583C36.4294 17.4882 36.5643 17.6868 36.7349 17.8547C36.9062 18.0233 37.1082 18.1555 37.3385 18.2496C37.5689 18.346 37.8197 18.3942 38.0902 18.3942C38.3606 18.3942 38.61 18.346 38.8411 18.2496C39.0714 18.1555 39.2734 18.0233 39.4447 17.8547C39.616 17.6868 39.7509 17.4882 39.8471 17.2583C39.912 17.1072 39.9543 16.9466 39.9754 16.7787H40.3778C40.399 16.9466 40.4413 17.1072 40.5062 17.2583C40.6038 17.4882 40.7373 17.6868 40.9093 17.8547C41.0799 18.0233 41.2818 18.1555 41.5122 18.2496C41.7426 18.346 41.9934 18.3942 42.2631 18.3942C42.5343 18.3942 42.7844 18.346 43.0147 18.2496C43.2451 18.1555 43.4471 18.0233 43.6184 17.8547C43.7897 17.6868 43.9246 17.4882 44.0215 17.2583C44.1025 17.067 44.1491 16.8633 44.163 16.6458H45.4162C45.4089 17.3532 45.2755 18.0124 45.0174 18.6219C44.7498 19.2534 44.3795 19.8009 43.9071 20.2638ZM39.2201 16.5137C39.2201 16.6728 39.191 16.8203 39.1341 16.9568C39.0765 17.0918 38.9971 17.2094 38.8943 17.3101C38.7915 17.4108 38.6726 17.489 38.5363 17.5452C38.3985 17.6021 38.2505 17.6306 38.0902 17.6306C37.929 17.6306 37.7803 17.6021 37.6433 17.5452C37.5069 17.489 37.3874 17.4108 37.2853 17.3101C37.1825 17.2094 37.103 17.0918 37.0462 16.9568C36.9886 16.8203 36.9594 16.6728 36.9594 16.5137C36.9594 16.356 36.9886 16.2078 37.0462 16.0713C37.103 15.9355 37.1825 15.818 37.2853 15.7172C37.3874 15.6179 37.5069 15.5391 37.6433 15.4829C37.7803 15.4259 37.929 15.3975 38.0902 15.3975C38.2505 15.3975 38.3985 15.4259 38.5363 15.4829C38.6726 15.5391 38.7915 15.6179 38.8943 15.7172C38.9971 15.818 39.0765 15.9355 39.1341 16.0713C39.191 16.2078 39.2201 16.356 39.2201 16.5137ZM43.3938 16.5137C43.3938 16.6728 43.3654 16.8203 43.3071 16.9568C43.2502 17.0918 43.17 17.2094 43.0687 17.3101C42.9666 17.4108 42.8463 17.489 42.7093 17.5452C42.573 17.6021 42.4242 17.6306 42.2631 17.6306C42.1027 17.6306 41.954 17.6021 41.8177 17.5452C41.6799 17.489 41.5603 17.4108 41.459 17.3101C41.3569 17.2094 41.2775 17.0918 41.2191 16.9568C41.1616 16.8203 41.1331 16.6728 41.1331 16.5137C41.1331 16.356 41.1616 16.2078 41.2191 16.0713C41.2775 15.9355 41.3569 15.818 41.459 15.7172C41.5603 15.6179 41.6799 15.5391 41.8177 15.4829C41.954 15.4259 42.1027 15.3975 42.2631 15.3975C42.4242 15.3975 42.573 15.4259 42.7093 15.4829C42.8463 15.5391 42.9666 15.6179 43.0687 15.7172C43.17 15.818 43.2502 15.9355 43.3071 16.0713C43.3654 16.2078 43.3938 16.356 43.3938 16.5137ZM35.4022 14.3827C36.2938 14.0885 37.4763 13.7133 37.4763 13.7133C40.0775 12.8847 40.426 11.9051 40.426 11.9051C40.426 11.9051 40.9735 12.8847 42.8616 13.5308C42.8616 13.5308 43.9049 13.8746 44.8752 14.2258C44.9241 14.3221 44.9744 14.4185 45.0174 14.5207C45.188 14.9237 45.3039 15.3485 45.3651 15.7931H44.0303L44.0215 15.7698C43.9246 15.5398 43.7897 15.342 43.6184 15.1733C43.4471 15.0047 43.2451 14.8726 43.0147 14.7769C42.7844 14.682 42.5343 14.6346 42.2631 14.6346C41.9934 14.6346 41.7426 14.682 41.5122 14.7769C41.2818 14.8726 41.0799 15.0047 40.9093 15.1733C40.7373 15.342 40.6038 15.5398 40.5062 15.7698C40.4755 15.842 40.45 15.9158 40.4289 15.991H39.9244C39.904 15.9158 39.8785 15.842 39.8471 15.7698C39.7509 15.5398 39.616 15.342 39.4447 15.1733C39.2734 15.0047 39.0714 14.8726 38.8411 14.7769C38.61 14.682 38.3606 14.6346 38.0902 14.6346C37.8197 14.6346 37.5689 14.682 37.3385 14.7769C37.1082 14.8726 36.9062 15.0047 36.7349 15.1733C36.5643 15.342 36.4294 15.5398 36.3325 15.7698C36.3288 15.7771 36.3266 15.7851 36.323 15.7931H34.9889C35.0501 15.3485 35.1653 14.9237 35.3359 14.5207C35.3563 14.4733 35.3811 14.4295 35.4022 14.3827ZM47.5653 11.8313C47.1564 10.8684 46.5928 10.0333 45.8704 9.32591C45.1493 8.61706 44.3044 8.06298 43.3355 7.6622C42.3659 7.26069 41.3132 7.05994 40.1766 7.05994C39.0401 7.05994 37.9874 7.26069 37.0178 7.6622C36.0489 8.06298 35.2032 8.61706 34.4822 9.32591C33.7612 10.0333 33.1962 10.8684 32.7887 11.8313C32.3797 12.795 32.1763 13.8389 32.1763 14.9616C32.1763 16.0859 32.3797 17.1283 32.7887 18.092C33.1962 19.0556 33.7612 19.89 34.4822 20.5981C35.2032 21.3062 36.0489 21.8603 37.0178 22.2618C37.9874 22.6626 39.0401 22.8633 40.1766 22.8633C41.3132 22.8633 42.3659 22.6626 43.3355 22.2618C44.3044 21.8603 45.1493 21.3062 45.8704 20.5981C46.5928 19.89 47.1564 19.0556 47.5653 18.092C47.9721 17.1283 48.1763 16.0859 48.1763 14.9616C48.1763 13.8389 47.9721 12.795 47.5653 11.8313Z" fill="#979797"/>
<path d="M28.7064 45.9077C28.0833 45.9077 27.541 45.7924 27.0794 45.5616C26.6256 45.3231 26.2717 45.0039 26.0179 44.6039C25.7717 44.2039 25.6487 43.7654 25.6487 43.2885C25.6487 42.727 25.7987 42.2539 26.0987 41.8693C26.3987 41.477 26.8333 41.1885 27.4025 41.0039L27.3102 41.3847C26.9025 41.2539 26.5794 41.0001 26.341 40.6231C26.1102 40.2462 25.9948 39.8308 25.9948 39.377C25.9948 38.9231 26.1102 38.5193 26.341 38.1654C26.5717 37.8116 26.891 37.5347 27.2987 37.3347C27.7064 37.1347 28.1756 37.0347 28.7064 37.0347C29.2294 37.0347 29.691 37.1347 30.091 37.3347C30.4987 37.5347 30.8179 37.8116 31.0487 38.1654C31.2871 38.5193 31.4064 38.9231 31.4064 39.377C31.4064 39.8385 31.2871 40.2577 31.0487 40.6347C30.8179 41.0039 30.4987 41.2577 30.091 41.3962L30.0102 40.9924C30.5794 41.1924 31.0141 41.4885 31.3141 41.8808C31.6141 42.2654 31.7641 42.7385 31.7641 43.3001C31.7641 43.777 31.6371 44.2154 31.3833 44.6154C31.1371 45.0077 30.7833 45.3231 30.3217 45.5616C29.8679 45.7924 29.3294 45.9077 28.7064 45.9077ZM28.7064 44.5808C29.0064 44.5808 29.2679 44.527 29.491 44.4193C29.7141 44.3039 29.8871 44.1462 30.0102 43.9462C30.1333 43.7385 30.1948 43.5039 30.1948 43.2424C30.1948 42.9731 30.1333 42.7424 30.0102 42.5501C29.8871 42.3501 29.7141 42.1962 29.491 42.0885C29.2679 41.9731 29.0064 41.9154 28.7064 41.9154C28.4064 41.9154 28.1448 41.9731 27.9217 42.0885C27.7064 42.1962 27.5371 42.3501 27.4141 42.5501C27.291 42.7424 27.2294 42.9731 27.2294 43.2424C27.2294 43.5039 27.291 43.7385 27.4141 43.9462C27.5371 44.1462 27.7064 44.3039 27.9217 44.4193C28.1448 44.527 28.4064 44.5808 28.7064 44.5808ZM28.7064 40.5885C28.9294 40.5885 29.1256 40.5385 29.2948 40.4385C29.4641 40.3385 29.5948 40.2077 29.6871 40.0462C29.7871 39.877 29.8371 39.6847 29.8371 39.4693C29.8371 39.2539 29.7871 39.0654 29.6871 38.9039C29.5948 38.7347 29.4641 38.6039 29.2948 38.5116C29.1256 38.4116 28.9294 38.3616 28.7064 38.3616C28.4833 38.3616 28.2833 38.4116 28.1064 38.5116C27.9371 38.6039 27.8025 38.7347 27.7025 38.9039C27.6102 39.0654 27.5641 39.2539 27.5641 39.4693C27.5641 39.6847 27.6102 39.877 27.7025 40.0462C27.8025 40.2077 27.9371 40.3385 28.1064 40.4385C28.2833 40.5385 28.4833 40.5885 28.7064 40.5885ZM33.4352 45.7693L36.3545 42.0077L36.6199 42.2847C36.5045 42.3693 36.3929 42.4385 36.2852 42.4924C36.1775 42.5462 36.0622 42.5847 35.9391 42.6077C35.816 42.6308 35.6852 42.6424 35.5468 42.6424C35.0237 42.6424 34.5583 42.5231 34.1506 42.2847C33.7429 42.0462 33.4199 41.7231 33.1814 41.3154C32.9506 40.9001 32.8352 40.4308 32.8352 39.9077C32.8352 39.3539 32.9622 38.8616 33.216 38.4308C33.4775 38.0001 33.8314 37.6616 34.2775 37.4154C34.7314 37.1616 35.2468 37.0347 35.8237 37.0347C36.4083 37.0347 36.9237 37.1577 37.3699 37.4039C37.816 37.6501 38.166 37.9885 38.4199 38.4193C38.6814 38.8424 38.8122 39.3308 38.8122 39.8847C38.8122 40.1616 38.7814 40.4385 38.7199 40.7154C38.6583 40.9924 38.5468 41.2885 38.3852 41.6039C38.2314 41.9116 38.0083 42.2616 37.716 42.6539L35.316 45.7693H33.4352ZM35.8237 41.327C36.0929 41.327 36.3314 41.2693 36.5391 41.1539C36.7545 41.0308 36.9237 40.8616 37.0468 40.6462C37.1699 40.4231 37.2314 40.1731 37.2314 39.8962C37.2314 39.6039 37.166 39.3501 37.0352 39.1347C36.9122 38.9193 36.7468 38.7501 36.5391 38.627C36.3314 38.5039 36.0929 38.4424 35.8237 38.4424C35.5622 38.4424 35.3237 38.5039 35.1083 38.627C34.8929 38.7501 34.7199 38.9193 34.5891 39.1347C34.466 39.3501 34.4045 39.6039 34.4045 39.8962C34.4045 40.1731 34.466 40.4231 34.5891 40.6462C34.7199 40.8616 34.8929 41.0308 35.1083 41.1539C35.3237 41.2693 35.5622 41.327 35.8237 41.327ZM43.3763 45.9077C42.6917 45.9077 42.0917 45.7231 41.5763 45.3539C41.061 44.9847 40.6571 44.4654 40.3648 43.7962C40.0802 43.127 39.9379 42.3501 39.9379 41.4654C39.9379 40.5731 40.0802 39.7962 40.3648 39.1347C40.6494 38.4731 41.0494 37.9577 41.5648 37.5885C42.0802 37.2193 42.6802 37.0347 43.3648 37.0347C44.0648 37.0347 44.6687 37.2193 45.1763 37.5885C45.6917 37.9577 46.0956 38.477 46.3879 39.1462C46.6802 39.8077 46.8263 40.5808 46.8263 41.4654C46.8263 42.3501 46.6802 43.127 46.3879 43.7962C46.1033 44.4577 45.7033 44.977 45.1879 45.3539C44.6725 45.7231 44.0687 45.9077 43.3763 45.9077ZM43.3879 44.477C43.7802 44.477 44.1148 44.3577 44.3917 44.1193C44.6687 43.8731 44.8802 43.527 45.0263 43.0808C45.1802 42.627 45.2571 42.0885 45.2571 41.4654C45.2571 40.8424 45.1802 40.3077 45.0263 39.8616C44.8802 39.4077 44.6648 39.0616 44.3802 38.8231C44.1033 38.5847 43.7648 38.4654 43.3648 38.4654C42.9802 38.4654 42.6494 38.5847 42.3725 38.8231C42.0956 39.0616 41.8802 39.4077 41.7263 39.8616C41.5802 40.3077 41.5071 40.8424 41.5071 41.4654C41.5071 42.0808 41.5802 42.6154 41.7263 43.0693C41.8802 43.5154 42.0956 43.8616 42.3725 44.1077C42.6571 44.3539 42.9956 44.477 43.3879 44.477ZM48.2918 45.7693V37.1731H49.8611V41.6501L49.4341 41.5001L53.0918 37.1731H55.0649L51.638 41.2347L51.7303 40.127L55.1687 45.7693H53.3226L51.0149 41.9847L49.8611 43.3577V45.7693H48.2918Z" fill="#979797"/>
<path d="M12.6887 60.8893C12.162 60.8893 11.6787 60.796 11.2387 60.6093C10.7987 60.416 10.4154 60.1493 10.0887 59.8093C9.76869 59.4626 9.51869 59.056 9.33869 58.5893C9.15869 58.1226 9.06869 57.6093 9.06869 57.0493C9.06869 56.4893 9.15869 55.976 9.33869 55.5093C9.51869 55.0426 9.76869 54.636 10.0887 54.2893C10.4154 53.9426 10.7987 53.676 11.2387 53.4893C11.6787 53.296 12.162 53.1993 12.6887 53.1993C13.1954 53.1993 13.6487 53.2893 14.0487 53.4693C14.4554 53.6493 14.7954 53.8826 15.0687 54.1693C15.3487 54.4493 15.5487 54.746 15.6687 55.0593L14.9187 55.3893C14.732 54.956 14.4454 54.6093 14.0587 54.3493C13.6787 54.0826 13.222 53.9493 12.6887 53.9493C12.142 53.9493 11.6554 54.0793 11.2287 54.3393C10.802 54.5993 10.4687 54.9626 10.2287 55.4293C9.98869 55.8893 9.86869 56.4293 9.86869 57.0493C9.86869 57.6626 9.98869 58.2026 10.2287 58.6693C10.4687 59.136 10.802 59.4993 11.2287 59.7593C11.6554 60.0126 12.142 60.1393 12.6887 60.1393C13.222 60.1393 13.6787 60.0093 14.0587 59.7493C14.4454 59.4893 14.732 59.1426 14.9187 58.7093L15.6687 59.0393C15.5487 59.346 15.3487 59.6426 15.0687 59.9293C14.7954 60.2093 14.4554 60.4393 14.0487 60.6193C13.6487 60.7993 13.1954 60.8893 12.6887 60.8893ZM19.4035 60.8893C18.8969 60.8893 18.4369 60.7693 18.0235 60.5293C17.6102 60.2826 17.2802 59.9493 17.0335 59.5293C16.7935 59.1026 16.6735 58.6193 16.6735 58.0793C16.6735 57.546 16.7935 57.0693 17.0335 56.6493C17.2735 56.2293 17.5969 55.8993 18.0035 55.6593C18.4169 55.4126 18.8835 55.2893 19.4035 55.2893C19.9235 55.2893 20.3869 55.4093 20.7935 55.6493C21.2069 55.8893 21.5302 56.2193 21.7635 56.6393C22.0035 57.0593 22.1235 57.5393 22.1235 58.0793C22.1235 58.626 22.0002 59.1126 21.7535 59.5393C21.5069 59.9593 21.1769 60.2893 20.7635 60.5293C20.3569 60.7693 19.9035 60.8893 19.4035 60.8893ZM19.4035 60.1393C19.7635 60.1393 20.0869 60.0493 20.3735 59.8693C20.6669 59.6893 20.8969 59.4426 21.0635 59.1293C21.2369 58.816 21.3235 58.466 21.3235 58.0793C21.3235 57.6926 21.2369 57.346 21.0635 57.0393C20.8969 56.7326 20.6669 56.4893 20.3735 56.3093C20.0869 56.1293 19.7635 56.0393 19.4035 56.0393C19.0435 56.0393 18.7169 56.1293 18.4235 56.3093C18.1369 56.4893 17.9069 56.7326 17.7335 57.0393C17.5602 57.346 17.4735 57.6926 17.4735 58.0793C17.4735 58.466 17.5602 58.816 17.7335 59.1293C17.9069 59.4426 18.1369 59.6893 18.4235 59.8693C18.7169 60.0493 19.0435 60.1393 19.4035 60.1393ZM23.4463 60.7693V55.4093H24.1963V56.4493L24.0263 56.4093C24.1596 56.0626 24.3763 55.7893 24.6763 55.5893C24.9829 55.3893 25.3363 55.2893 25.7363 55.2893C26.1163 55.2893 26.4563 55.376 26.7563 55.5493C27.0629 55.7226 27.3029 55.9626 27.4763 56.2693C27.6563 56.5693 27.7463 56.9093 27.7463 57.2893V60.7693H26.9963V57.5793C26.9963 57.2526 26.9363 56.976 26.8163 56.7493C26.7029 56.5226 26.5396 56.3493 26.3263 56.2293C26.1196 56.1026 25.8796 56.0393 25.6063 56.0393C25.3329 56.0393 25.0896 56.1026 24.8763 56.2293C24.6629 56.3493 24.4963 56.526 24.3763 56.7593C24.2563 56.986 24.1963 57.2593 24.1963 57.5793V60.7693H23.4463ZM30.511 60.7693L28.421 55.4093H29.261L31.021 60.1093H30.751L32.521 55.4093H33.371L31.261 60.7693H30.511ZM36.5894 60.8893C36.0894 60.8893 35.6361 60.7693 35.2294 60.5293C34.8294 60.2826 34.5127 59.946 34.2794 59.5193C34.0461 59.0926 33.9294 58.6093 33.9294 58.0693C33.9294 57.5293 34.0427 57.0526 34.2694 56.6393C34.4961 56.2193 34.8027 55.8893 35.1894 55.6493C35.5827 55.4093 36.0227 55.2893 36.5094 55.2893C36.8961 55.2893 37.2394 55.3626 37.5394 55.5093C37.8461 55.6493 38.1061 55.8426 38.3194 56.0893C38.5327 56.3293 38.6961 56.6026 38.8094 56.9093C38.9227 57.2093 38.9794 57.5193 38.9794 57.8393C38.9794 57.906 38.9761 57.9826 38.9694 58.0693C38.9627 58.1493 38.9527 58.2326 38.9394 58.3193H34.4094V57.6193H38.5094L38.1494 57.9193C38.2094 57.5526 38.1661 57.226 38.0194 56.9393C37.8794 56.646 37.6761 56.416 37.4094 56.2493C37.1427 56.076 36.8427 55.9893 36.5094 55.9893C36.1761 55.9893 35.8661 56.076 35.5794 56.2493C35.2994 56.4226 35.0794 56.666 34.9194 56.9793C34.7594 57.286 34.6961 57.6526 34.7294 58.0793C34.6961 58.506 34.7627 58.8793 34.9294 59.1993C35.1027 59.5126 35.3361 59.756 35.6294 59.9293C35.9294 60.1026 36.2494 60.1893 36.5894 60.1893C36.9827 60.1893 37.3127 60.096 37.5794 59.9093C37.8461 59.7226 38.0627 59.4893 38.2294 59.2093L38.8694 59.5493C38.7627 59.7893 38.5994 60.0126 38.3794 60.2193C38.1594 60.4193 37.8961 60.5826 37.5894 60.7093C37.2894 60.8293 36.9561 60.8893 36.5894 60.8893ZM40.3017 60.7693V55.4093H41.0517V56.2893L40.9517 56.1593C41.0784 55.906 41.2684 55.706 41.5217 55.5593C41.7817 55.4126 42.0951 55.3393 42.4617 55.3393H42.8017V56.0893H42.3317C41.9451 56.0893 41.6351 56.2093 41.4017 56.4493C41.1684 56.6893 41.0517 57.0293 41.0517 57.4693V60.7693H40.3017ZM45.5406 60.8893C45.0273 60.8893 44.5773 60.7593 44.1906 60.4993C43.804 60.2393 43.524 59.886 43.3506 59.4393L43.9806 59.1393C44.134 59.466 44.3473 59.726 44.6206 59.9193C44.9006 60.1126 45.2073 60.2093 45.5406 60.2093C45.8606 60.2093 46.1306 60.1326 46.3506 59.9793C46.5706 59.8193 46.6806 59.6126 46.6806 59.3593C46.6806 59.1726 46.6273 59.026 46.5206 58.9193C46.414 58.806 46.2906 58.7193 46.1506 58.6593C46.0106 58.5993 45.8873 58.556 45.7806 58.5293L45.0106 58.3093C44.5173 58.1693 44.1606 57.9726 43.9406 57.7193C43.7206 57.466 43.6106 57.1726 43.6106 56.8393C43.6106 56.526 43.6906 56.2526 43.8506 56.0193C44.0106 55.786 44.2273 55.606 44.5006 55.4793C44.774 55.3526 45.0773 55.2893 45.4106 55.2893C45.864 55.2893 46.274 55.4093 46.6406 55.6493C47.014 55.8826 47.2773 56.2093 47.4306 56.6293L46.7906 56.9293C46.6573 56.6293 46.464 56.396 46.2106 56.2293C45.964 56.056 45.6873 55.9693 45.3806 55.9693C45.0806 55.9693 44.8406 56.046 44.6606 56.1993C44.4806 56.3526 44.3906 56.546 44.3906 56.7793C44.3906 56.9593 44.4373 57.1026 44.5306 57.2093C44.624 57.316 44.7306 57.396 44.8506 57.4493C44.9773 57.5026 45.0873 57.5426 45.1806 57.5693L46.0706 57.8293C46.504 57.956 46.8406 58.1526 47.0806 58.4193C47.3273 58.686 47.4506 58.9993 47.4506 59.3593C47.4506 59.6526 47.3673 59.916 47.2006 60.1493C47.0406 60.3826 46.8173 60.566 46.5306 60.6993C46.244 60.826 45.914 60.8893 45.5406 60.8893ZM48.7685 60.7693V55.4093H49.5185V60.7693H48.7685ZM48.7685 54.4193V53.3193H49.5185V54.4193H48.7685ZM53.5637 60.8893C53.057 60.8893 52.597 60.7693 52.1837 60.5293C51.7704 60.2826 51.4404 59.9493 51.1937 59.5293C50.9537 59.1026 50.8337 58.6193 50.8337 58.0793C50.8337 57.546 50.9537 57.0693 51.1937 56.6493C51.4337 56.2293 51.757 55.8993 52.1637 55.6593C52.577 55.4126 53.0437 55.2893 53.5637 55.2893C54.0837 55.2893 54.547 55.4093 54.9537 55.6493C55.367 55.8893 55.6904 56.2193 55.9237 56.6393C56.1637 57.0593 56.2837 57.5393 56.2837 58.0793C56.2837 58.626 56.1604 59.1126 55.9137 59.5393C55.667 59.9593 55.337 60.2893 54.9237 60.5293C54.517 60.7693 54.0637 60.8893 53.5637 60.8893ZM53.5637 60.1393C53.9237 60.1393 54.247 60.0493 54.5337 59.8693C54.827 59.6893 55.057 59.4426 55.2237 59.1293C55.397 58.816 55.4837 58.466 55.4837 58.0793C55.4837 57.6926 55.397 57.346 55.2237 57.0393C55.057 56.7326 54.827 56.4893 54.5337 56.3093C54.247 56.1293 53.9237 56.0393 53.5637 56.0393C53.2037 56.0393 52.877 56.1293 52.5837 56.3093C52.297 56.4893 52.067 56.7326 51.8937 57.0393C51.7204 57.346 51.6337 57.6926 51.6337 58.0793C51.6337 58.466 51.7204 58.816 51.8937 59.1293C52.067 59.4426 52.297 59.6893 52.5837 59.8693C52.877 60.0493 53.2037 60.1393 53.5637 60.1393ZM57.6064 60.7693V55.4093H58.3564V56.4493L58.1864 56.4093C58.3198 56.0626 58.5364 55.7893 58.8364 55.5893C59.1431 55.3893 59.4964 55.2893 59.8964 55.2893C60.2764 55.2893 60.6164 55.376 60.9164 55.5493C61.2231 55.7226 61.4631 55.9626 61.6364 56.2693C61.8164 56.5693 61.9064 56.9093 61.9064 57.2893V60.7693H61.1564V57.5793C61.1564 57.2526 61.0964 56.976 60.9764 56.7493C60.8631 56.5226 60.6998 56.3493 60.4864 56.2293C60.2798 56.1026 60.0398 56.0393 59.7664 56.0393C59.4931 56.0393 59.2498 56.1026 59.0364 56.2293C58.8231 56.3493 58.6564 56.526 58.5364 56.7593C58.4164 56.986 58.3564 57.2593 58.3564 57.5793V60.7693H57.6064ZM65.1988 60.8893C64.6855 60.8893 64.2355 60.7593 63.8488 60.4993C63.4622 60.2393 63.1822 59.886 63.0088 59.4393L63.6388 59.1393C63.7922 59.466 64.0055 59.726 64.2788 59.9193C64.5588 60.1126 64.8655 60.2093 65.1988 60.2093C65.5188 60.2093 65.7888 60.1326 66.0088 59.9793C66.2288 59.8193 66.3388 59.6126 66.3388 59.3593C66.3388 59.1726 66.2855 59.026 66.1788 58.9193C66.0722 58.806 65.9488 58.7193 65.8088 58.6593C65.6688 58.5993 65.5455 58.556 65.4388 58.5293L64.6688 58.3093C64.1755 58.1693 63.8188 57.9726 63.5988 57.7193C63.3788 57.466 63.2688 57.1726 63.2688 56.8393C63.2688 56.526 63.3488 56.2526 63.5088 56.0193C63.6688 55.786 63.8855 55.606 64.1588 55.4793C64.4322 55.3526 64.7355 55.2893 65.0688 55.2893C65.5222 55.2893 65.9322 55.4093 66.2988 55.6493C66.6722 55.8826 66.9355 56.2093 67.0888 56.6293L66.4488 56.9293C66.3155 56.6293 66.1222 56.396 65.8688 56.2293C65.6222 56.056 65.3455 55.9693 65.0388 55.9693C64.7388 55.9693 64.4988 56.046 64.3188 56.1993C64.1388 56.3526 64.0488 56.546 64.0488 56.7793C64.0488 56.9593 64.0955 57.1026 64.1888 57.2093C64.2822 57.316 64.3888 57.396 64.5088 57.4493C64.6355 57.5026 64.7455 57.5426 64.8388 57.5693L65.7288 57.8293C66.1622 57.956 66.4988 58.1526 66.7388 58.4193C66.9855 58.686 67.1088 58.9993 67.1088 59.3593C67.1088 59.6526 67.0255 59.916 66.8588 60.1493C66.6988 60.3826 66.4755 60.566 66.1888 60.6993C65.9022 60.826 65.5722 60.8893 65.1988 60.8893ZM67.6767 61.9693L71.0567 53.7293H71.9267L68.5467 61.9693H67.6767ZM25.458 73.7693V68.4093H26.208V69.4293L26.088 69.2793C26.2347 68.966 26.4513 68.7226 26.738 68.5493C27.0313 68.376 27.3513 68.2893 27.698 68.2893C28.1113 68.2893 28.4847 68.406 28.818 68.6393C29.1513 68.8726 29.388 69.176 29.528 69.5493L29.318 69.5593C29.4513 69.146 29.6813 68.8326 30.008 68.6193C30.3413 68.3993 30.708 68.2893 31.108 68.2893C31.468 68.2893 31.798 68.376 32.098 68.5493C32.4047 68.7226 32.648 68.9626 32.828 69.2693C33.0147 69.5693 33.108 69.9093 33.108 70.2893V73.7693H32.358V70.5793C32.358 70.2526 32.298 69.976 32.178 69.7493C32.0647 69.5226 31.908 69.3493 31.708 69.2293C31.508 69.1026 31.278 69.0393 31.018 69.0393C30.7647 69.0393 30.5347 69.1026 30.328 69.2293C30.1213 69.3493 29.958 69.526 29.838 69.7593C29.718 69.986 29.658 70.2593 29.658 70.5793V73.7693H28.908V70.5793C28.908 70.2526 28.848 69.976 28.728 69.7493C28.6147 69.5226 28.458 69.3493 28.258 69.2293C28.058 69.1026 27.828 69.0393 27.568 69.0393C27.308 69.0393 27.0747 69.1026 26.868 69.2293C26.668 69.3493 26.508 69.526 26.388 69.7593C26.268 69.986 26.208 70.2593 26.208 70.5793V73.7693H25.458ZM37.05 73.8893C36.5434 73.8893 36.0834 73.7693 35.67 73.5293C35.2567 73.2826 34.9267 72.9493 34.68 72.5293C34.44 72.1026 34.32 71.6193 34.32 71.0793C34.32 70.546 34.44 70.0693 34.68 69.6493C34.92 69.2293 35.2434 68.8993 35.65 68.6593C36.0634 68.4126 36.53 68.2893 37.05 68.2893C37.57 68.2893 38.0334 68.4093 38.44 68.6493C38.8534 68.8893 39.1767 69.2193 39.41 69.6393C39.65 70.0593 39.77 70.5393 39.77 71.0793C39.77 71.626 39.6467 72.1126 39.4 72.5393C39.1534 72.9593 38.8234 73.2893 38.41 73.5293C38.0034 73.7693 37.55 73.8893 37.05 73.8893ZM37.05 73.1393C37.41 73.1393 37.7334 73.0493 38.02 72.8693C38.3134 72.6893 38.5434 72.4426 38.71 72.1293C38.8834 71.816 38.97 71.466 38.97 71.0793C38.97 70.6926 38.8834 70.346 38.71 70.0393C38.5434 69.7326 38.3134 69.4893 38.02 69.3093C37.7334 69.1293 37.41 69.0393 37.05 69.0393C36.69 69.0393 36.3634 69.1293 36.07 69.3093C35.7834 69.4893 35.5534 69.7326 35.38 70.0393C35.2067 70.346 35.12 70.6926 35.12 71.0793C35.12 71.466 35.2067 71.816 35.38 72.1293C35.5534 72.4426 35.7834 72.6893 36.07 72.8693C36.3634 73.0493 36.69 73.1393 37.05 73.1393ZM41.0928 73.7693V68.4093H41.8428V69.4493L41.6728 69.4093C41.8061 69.0626 42.0228 68.7893 42.3228 68.5893C42.6294 68.3893 42.9828 68.2893 43.3828 68.2893C43.7628 68.2893 44.1028 68.376 44.4028 68.5493C44.7094 68.7226 44.9494 68.9626 45.1228 69.2693C45.3028 69.5693 45.3928 69.9093 45.3928 70.2893V73.7693H44.6428V70.5793C44.6428 70.2526 44.5828 69.976 44.4628 69.7493C44.3494 69.5226 44.1861 69.3493 43.9728 69.2293C43.7661 69.1026 43.5261 69.0393 43.2528 69.0393C42.9794 69.0393 42.7361 69.1026 42.5228 69.2293C42.3094 69.3493 42.1428 69.526 42.0228 69.7593C41.9028 69.986 41.8428 70.2593 41.8428 70.5793V73.7693H41.0928ZM48.8752 73.8293C48.3952 73.8293 48.0252 73.6893 47.7652 73.4093C47.5052 73.1293 47.3752 72.7293 47.3752 72.2093V69.1593H46.3852V68.4093H46.6352C46.8618 68.4093 47.0418 68.336 47.1752 68.1893C47.3085 68.036 47.3752 67.846 47.3752 67.6193V67.1693H48.1252V68.4093H49.3052V69.1593H48.1252V72.2093C48.1252 72.3893 48.1518 72.5493 48.2052 72.6893C48.2585 72.8226 48.3485 72.9293 48.4752 73.0093C48.6085 73.0893 48.7852 73.1293 49.0052 73.1293C49.0585 73.1293 49.1218 73.126 49.1952 73.1193C49.2685 73.1126 49.3318 73.106 49.3852 73.0993V73.7693C49.3052 73.7893 49.2152 73.8026 49.1152 73.8093C49.0152 73.8226 48.9352 73.8293 48.8752 73.8293ZM50.7021 73.7693V66.1993H51.4521V69.4493L51.2821 69.4093C51.4155 69.0626 51.6321 68.7893 51.9321 68.5893C52.2388 68.3893 52.5921 68.2893 52.9921 68.2893C53.3721 68.2893 53.7121 68.376 54.0121 68.5493C54.3188 68.7226 54.5588 68.9626 54.7321 69.2693C54.9121 69.5693 55.0021 69.9093 55.0021 70.2893V73.7693H54.2521V70.5793C54.2521 70.2526 54.1921 69.976 54.0721 69.7493C53.9521 69.5226 53.7855 69.3493 53.5721 69.2293C53.3655 69.1026 53.1288 69.0393 52.8621 69.0393C52.5955 69.0393 52.3555 69.1026 52.1421 69.2293C51.9288 69.3493 51.7588 69.526 51.6321 69.7593C51.5121 69.986 51.4521 70.2593 51.4521 70.5793V73.7693H50.7021Z" fill="#979797"/>
<g clip-path="url(#clip0_21_998)">
<path d="M71.6596 100.689V237.308H42.4067V99.2581L42.6318 99.2714L63.4246 100.29L71.6596 100.689Z" fill="#7A7A7A"/>
<path d="M71.6663 107.333V237.308H42.4067V105.902L42.6318 105.915L47.3186 106.142L50.3373 106.288L53.2367 106.435L54.7262 106.508L59.3402 106.734L60.8296 106.808L63.418 106.934L63.7357 106.947L66.7544 107.094L71.6596 107.333H71.6663Z" fill="#7A7A7A"/>
<path d="M42.407 99.2581V237.308H8.68579V113.458L13.1542 113.152V100.689L14.7959 100.61L17.1459 100.496L22.3491 100.243L25.3147 100.097L28.671 99.9305L31.6366 99.784L33.6292 99.6908L34.3243 99.6575L34.9929 99.6242L37.9585 99.4778L41.1956 99.318L42.407 99.2581Z" fill="#A7A7A7"/>
<path d="M63.4246 96.2822V100.29L42.4067 99.2581L43.8697 94.691L42.0029 87.3079L54.0774 88.5195L63.4246 96.2822Z" fill="#797979"/>
<path d="M46.2993 96.7815L46.9481 94.771L45.8359 90.3704L52.7669 91.0694L60.4392 97.4406V97.4739L46.2993 96.7815Z" fill="#7A7A7A"/>
<path d="M43.8699 94.691L42.4069 99.2581L17.1458 100.496V95.8295L27.0953 88.3398L42.0031 87.3079L43.8699 94.691Z" fill="#ACACAC"/>
<g opacity="0.7">
<path d="M50.3377 112.946V237.308H47.3191V112.799L50.3377 112.946Z" fill="#F9FFD2"/>
<path d="M66.7547 113.751V237.308H63.7361V113.605L66.7547 113.751Z" fill="#F9FFD2"/>
<path d="M60.83 105.476V237.308H53.2371V105.103L60.83 105.476Z" fill="#F9FFD2"/>
</g>
</g>
<defs>
<clipPath id="clip0_21_998">
<rect width="62.9808" height="150" fill="white" transform="translate(8.68579 87.3079)"/>
</clipPath>
</defs>
</svg>
