<svg width="81" height="207" viewBox="0 0 81 207" fill="none" xmlns="http://www.w3.org/2000/svg">
<rect x="26.3557" y="0.71167" width="28" height="28" rx="14" fill="white"/>
<path d="M36.6496 10.6272C35.5144 10.62 35.3564 11.7268 35.3514 12.5605C35.3471 13.3941 35.4915 14.5181 36.626 14.5246C37.7604 14.531 37.9192 13.4099 37.9242 12.5748C37.9292 11.7411 37.784 10.6336 36.6496 10.6272ZM36.6138 16.708C33.6626 16.6908 32.3422 14.7267 32.3558 12.5433C32.3687 10.3591 33.7105 8.42654 36.6617 8.44446C39.6129 8.46095 40.9333 10.4093 40.9204 12.5934C40.9068 14.7762 39.565 16.7252 36.6138 16.708Z" fill="#054164"/>
<path d="M44.0846 10.6267C42.9502 10.6195 42.7922 11.7263 42.7879 12.5607C42.7821 13.3943 42.9273 14.5176 44.0625 14.5241C45.1962 14.5312 45.355 13.4094 45.36 12.575C45.3643 11.7413 45.2191 10.6331 44.0846 10.6267ZM44.0489 16.7082C41.0984 16.6903 39.778 14.7262 39.7916 12.5428C39.8038 10.3593 41.1463 8.42603 44.0968 8.44323C47.0473 8.46043 48.3677 10.4088 48.3555 12.5922C48.3426 14.7771 47.0001 16.7247 44.0489 16.7082Z" fill="#054164"/>
<path d="M33.4796 16.709C35.6068 17.6616 37.8141 18.0846 40.2196 18.0982C42.7466 18.1132 44.6628 17.6351 47.0883 16.709L47.074 19.3326C44.9031 20.4114 42.5485 20.9934 40.2024 20.9798C37.6453 20.9648 35.8028 20.4386 33.4639 19.3326L33.4796 16.709Z" fill="#054164"/>
<path d="M24.9233 48.5193L29.2633 39.6993H24.3493V38.0893H31.2653V39.6993L27.0233 48.5193H24.9233ZM34.1576 48.5193V39.7133H32.1416V38.0893H36.0616V48.5193H34.1576ZM42.3381 48.6873C41.5074 48.6873 40.7794 48.4633 40.1541 48.0153C39.5287 47.5673 39.0387 46.9373 38.6841 46.1253C38.3387 45.3133 38.1661 44.3706 38.1661 43.2973C38.1661 42.2146 38.3387 41.272 38.6841 40.4693C39.0294 39.6666 39.5147 39.0413 40.1401 38.5933C40.7654 38.1453 41.4934 37.9213 42.3241 37.9213C43.1734 37.9213 43.9061 38.1453 44.5221 38.5933C45.1474 39.0413 45.6374 39.6713 45.9921 40.4833C46.3467 41.286 46.5241 42.224 46.5241 43.2973C46.5241 44.3706 46.3467 45.3133 45.9921 46.1253C45.6467 46.928 45.1614 47.558 44.5361 48.0153C43.9107 48.4633 43.1781 48.6873 42.3381 48.6873ZM42.3521 46.9513C42.8281 46.9513 43.2341 46.8066 43.5701 46.5173C43.9061 46.2186 44.1627 45.7986 44.3401 45.2573C44.5267 44.7066 44.6201 44.0533 44.6201 43.2973C44.6201 42.5413 44.5267 41.8926 44.3401 41.3513C44.1627 40.8006 43.9014 40.3806 43.5561 40.0913C43.2201 39.802 42.8094 39.6573 42.3241 39.6573C41.8574 39.6573 41.4561 39.802 41.1201 40.0913C40.7841 40.3806 40.5227 40.8006 40.3361 41.3513C40.1587 41.8926 40.0701 42.5413 40.0701 43.2973C40.0701 44.044 40.1587 44.6926 40.3361 45.2433C40.5227 45.7846 40.7841 46.2046 41.1201 46.5033C41.4654 46.802 41.8761 46.9513 42.3521 46.9513ZM48.3022 48.5193V38.0893H50.2062V43.5213L49.6882 43.3393L54.1262 38.0893H56.5202L52.3622 43.0173L52.4742 41.6733L56.6462 48.5193H54.4062L51.6062 43.9273L50.2062 45.5933V48.5193H48.3022Z" fill="white"/>
<path d="M12.8681 62.6393C12.3415 62.6393 11.8581 62.546 11.4181 62.3593C10.9781 62.166 10.5948 61.8993 10.2681 61.5593C9.94813 61.2126 9.69813 60.806 9.51813 60.3393C9.33813 59.8726 9.24813 59.3593 9.24813 58.7993C9.24813 58.2393 9.33813 57.726 9.51813 57.2593C9.69813 56.7926 9.94813 56.386 10.2681 56.0393C10.5948 55.6926 10.9781 55.426 11.4181 55.2393C11.8581 55.046 12.3415 54.9493 12.8681 54.9493C13.3748 54.9493 13.8281 55.0393 14.2281 55.2193C14.6348 55.3993 14.9748 55.6326 15.2481 55.9193C15.5281 56.1993 15.7281 56.496 15.8481 56.8093L15.0981 57.1393C14.9115 56.706 14.6248 56.3593 14.2381 56.0993C13.8581 55.8326 13.4015 55.6993 12.8681 55.6993C12.3215 55.6993 11.8348 55.8293 11.4081 56.0893C10.9815 56.3493 10.6481 56.7126 10.4081 57.1793C10.1681 57.6393 10.0481 58.1793 10.0481 58.7993C10.0481 59.4126 10.1681 59.9526 10.4081 60.4193C10.6481 60.886 10.9815 61.2493 11.4081 61.5093C11.8348 61.7626 12.3215 61.8893 12.8681 61.8893C13.4015 61.8893 13.8581 61.7593 14.2381 61.4993C14.6248 61.2393 14.9115 60.8926 15.0981 60.4593L15.8481 60.7893C15.7281 61.096 15.5281 61.3926 15.2481 61.6793C14.9748 61.9593 14.6348 62.1893 14.2281 62.3693C13.8281 62.5493 13.3748 62.6393 12.8681 62.6393ZM19.583 62.6393C19.0763 62.6393 18.6163 62.5193 18.203 62.2793C17.7896 62.0326 17.4596 61.6993 17.213 61.2793C16.973 60.8526 16.853 60.3693 16.853 59.8293C16.853 59.296 16.973 58.8193 17.213 58.3993C17.453 57.9793 17.7763 57.6493 18.183 57.4093C18.5963 57.1626 19.063 57.0393 19.583 57.0393C20.103 57.0393 20.5663 57.1593 20.973 57.3993C21.3863 57.6393 21.7096 57.9693 21.943 58.3893C22.183 58.8093 22.303 59.2893 22.303 59.8293C22.303 60.376 22.1796 60.8626 21.933 61.2893C21.6863 61.7093 21.3563 62.0393 20.943 62.2793C20.5363 62.5193 20.083 62.6393 19.583 62.6393ZM19.583 61.8893C19.943 61.8893 20.2663 61.7993 20.553 61.6193C20.8463 61.4393 21.0763 61.1926 21.243 60.8793C21.4163 60.566 21.503 60.216 21.503 59.8293C21.503 59.4426 21.4163 59.096 21.243 58.7893C21.0763 58.4826 20.8463 58.2393 20.553 58.0593C20.2663 57.8793 19.943 57.7893 19.583 57.7893C19.223 57.7893 18.8963 57.8793 18.603 58.0593C18.3163 58.2393 18.0863 58.4826 17.913 58.7893C17.7396 59.096 17.653 59.4426 17.653 59.8293C17.653 60.216 17.7396 60.566 17.913 60.8793C18.0863 61.1926 18.3163 61.4393 18.603 61.6193C18.8963 61.7993 19.223 61.8893 19.583 61.8893ZM23.6257 62.5193V57.1593H24.3757V58.1993L24.2057 58.1593C24.339 57.8126 24.5557 57.5393 24.8557 57.3393C25.1624 57.1393 25.5157 57.0393 25.9157 57.0393C26.2957 57.0393 26.6357 57.126 26.9357 57.2993C27.2424 57.4726 27.4824 57.7126 27.6557 58.0193C27.8357 58.3193 27.9257 58.6593 27.9257 59.0393V62.5193H27.1757V59.3293C27.1757 59.0026 27.1157 58.726 26.9957 58.4993C26.8824 58.2726 26.719 58.0993 26.5057 57.9793C26.299 57.8526 26.059 57.7893 25.7857 57.7893C25.5124 57.7893 25.269 57.8526 25.0557 57.9793C24.8424 58.0993 24.6757 58.276 24.5557 58.5093C24.4357 58.736 24.3757 59.0093 24.3757 59.3293V62.5193H23.6257ZM30.6905 62.5193L28.6005 57.1593H29.4405L31.2005 61.8593H30.9305L32.7005 57.1593H33.5505L31.4405 62.5193H30.6905ZM36.7688 62.6393C36.2688 62.6393 35.8155 62.5193 35.4088 62.2793C35.0088 62.0326 34.6922 61.696 34.4588 61.2693C34.2255 60.8426 34.1088 60.3593 34.1088 59.8193C34.1088 59.2793 34.2222 58.8026 34.4488 58.3893C34.6755 57.9693 34.9822 57.6393 35.3688 57.3993C35.7622 57.1593 36.2022 57.0393 36.6888 57.0393C37.0755 57.0393 37.4188 57.1126 37.7188 57.2593C38.0255 57.3993 38.2855 57.5926 38.4988 57.8393C38.7122 58.0793 38.8755 58.3526 38.9888 58.6593C39.1022 58.9593 39.1588 59.2693 39.1588 59.5893C39.1588 59.656 39.1555 59.7326 39.1488 59.8193C39.1422 59.8993 39.1322 59.9826 39.1188 60.0693H34.5888V59.3693H38.6888L38.3288 59.6693C38.3888 59.3026 38.3455 58.976 38.1988 58.6893C38.0588 58.396 37.8555 58.166 37.5888 57.9993C37.3222 57.826 37.0222 57.7393 36.6888 57.7393C36.3555 57.7393 36.0455 57.826 35.7588 57.9993C35.4788 58.1726 35.2588 58.416 35.0988 58.7293C34.9388 59.036 34.8755 59.4026 34.9088 59.8293C34.8755 60.256 34.9422 60.6293 35.1088 60.9493C35.2822 61.2626 35.5155 61.506 35.8088 61.6793C36.1088 61.8526 36.4288 61.9393 36.7688 61.9393C37.1622 61.9393 37.4922 61.846 37.7588 61.6593C38.0255 61.4726 38.2422 61.2393 38.4088 60.9593L39.0488 61.2993C38.9422 61.5393 38.7788 61.7626 38.5588 61.9693C38.3388 62.1693 38.0755 62.3326 37.7688 62.4593C37.4688 62.5793 37.1355 62.6393 36.7688 62.6393ZM40.4812 62.5193V57.1593H41.2312V58.0393L41.1312 57.9093C41.2578 57.656 41.4478 57.456 41.7012 57.3093C41.9612 57.1626 42.2745 57.0893 42.6412 57.0893H42.9812V57.8393H42.5112C42.1245 57.8393 41.8145 57.9593 41.5812 58.1993C41.3478 58.4393 41.2312 58.7793 41.2312 59.2193V62.5193H40.4812ZM45.7201 62.6393C45.2068 62.6393 44.7568 62.5093 44.3701 62.2493C43.9834 61.9893 43.7034 61.636 43.5301 61.1893L44.1601 60.8893C44.3134 61.216 44.5268 61.476 44.8001 61.6693C45.0801 61.8626 45.3868 61.9593 45.7201 61.9593C46.0401 61.9593 46.3101 61.8826 46.5301 61.7293C46.7501 61.5693 46.8601 61.3626 46.8601 61.1093C46.8601 60.9226 46.8068 60.776 46.7001 60.6693C46.5934 60.556 46.4701 60.4693 46.3301 60.4093C46.1901 60.3493 46.0668 60.306 45.9601 60.2793L45.1901 60.0593C44.6968 59.9193 44.3401 59.7226 44.1201 59.4693C43.9001 59.216 43.7901 58.9226 43.7901 58.5893C43.7901 58.276 43.8701 58.0026 44.0301 57.7693C44.1901 57.536 44.4068 57.356 44.6801 57.2293C44.9534 57.1026 45.2568 57.0393 45.5901 57.0393C46.0434 57.0393 46.4534 57.1593 46.8201 57.3993C47.1934 57.6326 47.4568 57.9593 47.6101 58.3793L46.9701 58.6793C46.8368 58.3793 46.6434 58.146 46.3901 57.9793C46.1434 57.806 45.8668 57.7193 45.5601 57.7193C45.2601 57.7193 45.0201 57.796 44.8401 57.9493C44.6601 58.1026 44.5701 58.296 44.5701 58.5293C44.5701 58.7093 44.6168 58.8526 44.7101 58.9593C44.8034 59.066 44.9101 59.146 45.0301 59.1993C45.1568 59.2526 45.2668 59.2926 45.3601 59.3193L46.2501 59.5793C46.6834 59.706 47.0201 59.9026 47.2601 60.1693C47.5068 60.436 47.6301 60.7493 47.6301 61.1093C47.6301 61.4026 47.5468 61.666 47.3801 61.8993C47.2201 62.1326 46.9968 62.316 46.7101 62.4493C46.4234 62.576 46.0934 62.6393 45.7201 62.6393ZM48.948 62.5193V57.1593H49.698V62.5193H48.948ZM48.948 56.1693V55.0693H49.698V56.1693H48.948ZM53.7431 62.6393C53.2365 62.6393 52.7765 62.5193 52.3631 62.2793C51.9498 62.0326 51.6198 61.6993 51.3731 61.2793C51.1331 60.8526 51.0131 60.3693 51.0131 59.8293C51.0131 59.296 51.1331 58.8193 51.3731 58.3993C51.6131 57.9793 51.9365 57.6493 52.3431 57.4093C52.7565 57.1626 53.2231 57.0393 53.7431 57.0393C54.2631 57.0393 54.7265 57.1593 55.1331 57.3993C55.5465 57.6393 55.8698 57.9693 56.1031 58.3893C56.3431 58.8093 56.4631 59.2893 56.4631 59.8293C56.4631 60.376 56.3398 60.8626 56.0931 61.2893C55.8465 61.7093 55.5165 62.0393 55.1031 62.2793C54.6965 62.5193 54.2431 62.6393 53.7431 62.6393ZM53.7431 61.8893C54.1031 61.8893 54.4265 61.7993 54.7131 61.6193C55.0065 61.4393 55.2365 61.1926 55.4031 60.8793C55.5765 60.566 55.6631 60.216 55.6631 59.8293C55.6631 59.4426 55.5765 59.096 55.4031 58.7893C55.2365 58.4826 55.0065 58.2393 54.7131 58.0593C54.4265 57.8793 54.1031 57.7893 53.7431 57.7893C53.3831 57.7893 53.0565 57.8793 52.7631 58.0593C52.4765 58.2393 52.2465 58.4826 52.0731 58.7893C51.8998 59.096 51.8131 59.4426 51.8131 59.8293C51.8131 60.216 51.8998 60.566 52.0731 60.8793C52.2465 61.1926 52.4765 61.4393 52.7631 61.6193C53.0565 61.7993 53.3831 61.8893 53.7431 61.8893ZM57.7859 62.5193V57.1593H58.5359V58.1993L58.3659 58.1593C58.4992 57.8126 58.7159 57.5393 59.0159 57.3393C59.3225 57.1393 59.6759 57.0393 60.0759 57.0393C60.4559 57.0393 60.7959 57.126 61.0959 57.2993C61.4025 57.4726 61.6425 57.7126 61.8159 58.0193C61.9959 58.3193 62.0859 58.6593 62.0859 59.0393V62.5193H61.3359V59.3293C61.3359 59.0026 61.2759 58.726 61.1559 58.4993C61.0425 58.2726 60.8792 58.0993 60.6659 57.9793C60.4592 57.8526 60.2192 57.7893 59.9459 57.7893C59.6725 57.7893 59.4292 57.8526 59.2159 57.9793C59.0025 58.0993 58.8359 58.276 58.7159 58.5093C58.5959 58.736 58.5359 59.0093 58.5359 59.3293V62.5193H57.7859ZM65.3783 62.6393C64.865 62.6393 64.415 62.5093 64.0283 62.2493C63.6416 61.9893 63.3616 61.636 63.1883 61.1893L63.8183 60.8893C63.9716 61.216 64.185 61.476 64.4583 61.6693C64.7383 61.8626 65.045 61.9593 65.3783 61.9593C65.6983 61.9593 65.9683 61.8826 66.1883 61.7293C66.4083 61.5693 66.5183 61.3626 66.5183 61.1093C66.5183 60.9226 66.465 60.776 66.3583 60.6693C66.2516 60.556 66.1283 60.4693 65.9883 60.4093C65.8483 60.3493 65.725 60.306 65.6183 60.2793L64.8483 60.0593C64.355 59.9193 63.9983 59.7226 63.7783 59.4693C63.5583 59.216 63.4483 58.9226 63.4483 58.5893C63.4483 58.276 63.5283 58.0026 63.6883 57.7693C63.8483 57.536 64.065 57.356 64.3383 57.2293C64.6116 57.1026 64.915 57.0393 65.2483 57.0393C65.7016 57.0393 66.1116 57.1593 66.4783 57.3993C66.8516 57.6326 67.115 57.9593 67.2683 58.3793L66.6283 58.6793C66.495 58.3793 66.3016 58.146 66.0483 57.9793C65.8016 57.806 65.525 57.7193 65.2183 57.7193C64.9183 57.7193 64.6783 57.796 64.4983 57.9493C64.3183 58.1026 64.2283 58.296 64.2283 58.5293C64.2283 58.7093 64.275 58.8526 64.3683 58.9593C64.4616 59.066 64.5683 59.146 64.6883 59.1993C64.815 59.2526 64.925 59.2926 65.0183 59.3193L65.9083 59.5793C66.3416 59.706 66.6783 59.9026 66.9183 60.1693C67.165 60.436 67.2883 60.7493 67.2883 61.1093C67.2883 61.4026 67.205 61.666 67.0383 61.8993C66.8783 62.1326 66.655 62.316 66.3683 62.4493C66.0816 62.576 65.7516 62.6393 65.3783 62.6393ZM67.8562 63.7193L71.2362 55.4793H72.1062L68.7262 63.7193H67.8562ZM25.6374 75.5193V70.1593H26.3874V71.1793L26.2674 71.0293C26.4141 70.716 26.6308 70.4726 26.9174 70.2993C27.2108 70.126 27.5308 70.0393 27.8774 70.0393C28.2908 70.0393 28.6641 70.156 28.9974 70.3893C29.3308 70.6226 29.5674 70.926 29.7074 71.2993L29.4974 71.3093C29.6308 70.896 29.8608 70.5826 30.1874 70.3693C30.5208 70.1493 30.8874 70.0393 31.2874 70.0393C31.6474 70.0393 31.9774 70.126 32.2774 70.2993C32.5841 70.4726 32.8274 70.7126 33.0074 71.0193C33.1941 71.3193 33.2874 71.6593 33.2874 72.0393V75.5193H32.5374V72.3293C32.5374 72.0026 32.4774 71.726 32.3574 71.4993C32.2441 71.2726 32.0874 71.0993 31.8874 70.9793C31.6874 70.8526 31.4574 70.7893 31.1974 70.7893C30.9441 70.7893 30.7141 70.8526 30.5074 70.9793C30.3008 71.0993 30.1374 71.276 30.0174 71.5093C29.8974 71.736 29.8374 72.0093 29.8374 72.3293V75.5193H29.0874V72.3293C29.0874 72.0026 29.0274 71.726 28.9074 71.4993C28.7941 71.2726 28.6374 71.0993 28.4374 70.9793C28.2374 70.8526 28.0074 70.7893 27.7474 70.7893C27.4874 70.7893 27.2541 70.8526 27.0474 70.9793C26.8474 71.0993 26.6874 71.276 26.5674 71.5093C26.4474 71.736 26.3874 72.0093 26.3874 72.3293V75.5193H25.6374ZM37.2295 75.6393C36.7228 75.6393 36.2628 75.5193 35.8495 75.2793C35.4361 75.0326 35.1061 74.6993 34.8595 74.2793C34.6195 73.8526 34.4995 73.3693 34.4995 72.8293C34.4995 72.296 34.6195 71.8193 34.8595 71.3993C35.0995 70.9793 35.4228 70.6493 35.8295 70.4093C36.2428 70.1626 36.7095 70.0393 37.2295 70.0393C37.7495 70.0393 38.2128 70.1593 38.6195 70.3993C39.0328 70.6393 39.3561 70.9693 39.5895 71.3893C39.8295 71.8093 39.9495 72.2893 39.9495 72.8293C39.9495 73.376 39.8261 73.8626 39.5795 74.2893C39.3328 74.7093 39.0028 75.0393 38.5895 75.2793C38.1828 75.5193 37.7295 75.6393 37.2295 75.6393ZM37.2295 74.8893C37.5895 74.8893 37.9128 74.7993 38.1995 74.6193C38.4928 74.4393 38.7228 74.1926 38.8895 73.8793C39.0628 73.566 39.1495 73.216 39.1495 72.8293C39.1495 72.4426 39.0628 72.096 38.8895 71.7893C38.7228 71.4826 38.4928 71.2393 38.1995 71.0593C37.9128 70.8793 37.5895 70.7893 37.2295 70.7893C36.8695 70.7893 36.5428 70.8793 36.2495 71.0593C35.9628 71.2393 35.7328 71.4826 35.5595 71.7893C35.3861 72.096 35.2995 72.4426 35.2995 72.8293C35.2995 73.216 35.3861 73.566 35.5595 73.8793C35.7328 74.1926 35.9628 74.4393 36.2495 74.6193C36.5428 74.7993 36.8695 74.8893 37.2295 74.8893ZM41.2722 75.5193V70.1593H42.0222V71.1993L41.8522 71.1593C41.9855 70.8126 42.2022 70.5393 42.5022 70.3393C42.8089 70.1393 43.1622 70.0393 43.5622 70.0393C43.9422 70.0393 44.2822 70.126 44.5822 70.2993C44.8889 70.4726 45.1289 70.7126 45.3022 71.0193C45.4822 71.3193 45.5722 71.6593 45.5722 72.0393V75.5193H44.8222V72.3293C44.8222 72.0026 44.7622 71.726 44.6422 71.4993C44.5289 71.2726 44.3655 71.0993 44.1522 70.9793C43.9455 70.8526 43.7055 70.7893 43.4322 70.7893C43.1589 70.7893 42.9155 70.8526 42.7022 70.9793C42.4889 71.0993 42.3222 71.276 42.2022 71.5093C42.0822 71.736 42.0222 72.0093 42.0222 72.3293V75.5193H41.2722ZM49.0546 75.5793C48.5746 75.5793 48.2046 75.4393 47.9446 75.1593C47.6846 74.8793 47.5546 74.4793 47.5546 73.9593V70.9093H46.5646V70.1593H46.8146C47.0413 70.1593 47.2213 70.086 47.3546 69.9393C47.488 69.786 47.5546 69.596 47.5546 69.3693V68.9193H48.3046V70.1593H49.4846V70.9093H48.3046V73.9593C48.3046 74.1393 48.3313 74.2993 48.3846 74.4393C48.438 74.5726 48.528 74.6793 48.6546 74.7593C48.788 74.8393 48.9646 74.8793 49.1846 74.8793C49.238 74.8793 49.3013 74.876 49.3746 74.8693C49.448 74.8626 49.5113 74.856 49.5646 74.8493V75.5193C49.4846 75.5393 49.3946 75.5526 49.2946 75.5593C49.1946 75.5726 49.1146 75.5793 49.0546 75.5793ZM50.8816 75.5193V67.9493H51.6316V71.1993L51.4616 71.1593C51.5949 70.8126 51.8116 70.5393 52.1116 70.3393C52.4182 70.1393 52.7716 70.0393 53.1716 70.0393C53.5516 70.0393 53.8916 70.126 54.1916 70.2993C54.4982 70.4726 54.7382 70.7126 54.9116 71.0193C55.0916 71.3193 55.1816 71.6593 55.1816 72.0393V75.5193H54.4316V72.3293C54.4316 72.0026 54.3716 71.726 54.2516 71.4993C54.1316 71.2726 53.9649 71.0993 53.7516 70.9793C53.5449 70.8526 53.3082 70.7893 53.0416 70.7893C52.7749 70.7893 52.5349 70.8526 52.3216 70.9793C52.1082 71.0993 51.9382 71.276 51.8116 71.5093C51.6916 71.736 51.6316 72.0093 51.6316 72.3293V75.5193H50.8816Z" fill="white"/>
<g clip-path="url(#clip0_21_3267)">
<path d="M40.3533 112.453V206.846H18V114.236L21.8978 113.924L26.4627 113.563L31.4039 113.166L40.3533 112.453Z" fill="#FFC700"/>
<path d="M21.8977 100.841V113.925L40.3532 112.453V98.2593L28.0679 99.977L21.8977 100.841Z" fill="#FFC700"/>
<path opacity="0.6" d="M37.3585 109.158V102.232L24.8977 103.97V110.152L37.3585 109.158Z" fill="#F9FFD2"/>
<path d="M62.7115 113.643V206.846H40.3533V112.453L49.9096 112.96L50.0601 112.97L52.2222 113.081L54.5348 113.206L57.1483 113.342L58.8188 113.432L59.4659 113.467L62.0795 113.608L62.7115 113.643Z" fill="#FFF500"/>
<g opacity="0.6">
<path d="M37.7195 115.471V117.681L20.6335 118.811V116.602L37.7195 115.471Z" fill="#F9FFD2"/>
<path d="M37.7195 119.088V121.247L20.6335 122.372V120.213L37.7195 119.088Z" fill="#F9FFD2"/>
<path d="M37.7195 122.704V124.813L20.6335 125.943V123.834L37.7195 122.704Z" fill="#F9FFD2"/>
<path d="M37.7195 126.32V128.379L20.6335 129.504V127.45L37.7195 126.32Z" fill="#F9FFD2"/>
<path d="M37.7195 129.936V131.945L20.6335 133.07V131.061L37.7195 129.936Z" fill="#F9FFD2"/>
<path d="M37.7195 133.548V135.511L20.6335 136.631V134.678L37.7195 133.548Z" fill="#F9FFD2"/>
<path d="M37.7195 137.169V139.077L20.6335 140.202V138.294L37.7195 137.169Z" fill="#F9FFD2"/>
<path d="M37.7195 140.78V142.638L20.6335 143.768V141.91L37.7195 140.78Z" fill="#F9FFD2"/>
<path d="M37.7195 144.396V146.204L20.6335 147.329V145.521L37.7195 144.396Z" fill="#F9FFD2"/>
<path d="M37.7195 148.012V149.77L20.6335 150.9V149.138L37.7195 148.012Z" fill="#F9FFD2"/>
<path d="M37.7195 151.629V153.336L20.6335 154.461V152.759L37.7195 151.629Z" fill="#F9FFD2"/>
<path d="M37.7195 155.245V156.897L20.6335 158.027V156.37L37.7195 155.245Z" fill="#F9FFD2"/>
<path d="M37.7195 158.856V160.468L20.6335 161.598V159.986L37.7195 158.856Z" fill="#F9FFD2"/>
<path d="M37.7195 162.477V164.034L20.6335 165.159V163.597L37.7195 162.477Z" fill="#F9FFD2"/>
<path d="M37.7195 166.094V167.595L20.6335 168.725V167.219L37.7195 166.094Z" fill="#F9FFD2"/>
<path d="M37.7195 169.705V171.166L20.6335 172.291V170.835L37.7195 169.705Z" fill="#F9FFD2"/>
<path d="M37.7195 173.321V174.727L20.6335 175.857V174.446L37.7195 173.321Z" fill="#F9FFD2"/>
<path d="M37.7195 176.937V178.293L20.6335 179.418V178.067L37.7195 176.937Z" fill="#F9FFD2"/>
<path d="M37.7195 180.553V181.859L20.6335 182.989V181.679L37.7195 180.553Z" fill="#F9FFD2"/>
<path d="M37.7195 184.17V185.425L20.6335 186.555V185.295L37.7195 184.17Z" fill="#F9FFD2"/>
<path d="M37.7195 187.781V188.991L20.6335 190.116V188.911L37.7195 187.781Z" fill="#F9FFD2"/>
<path d="M37.7195 191.402V192.557L20.6335 193.682V192.527L37.7195 191.402Z" fill="#F9FFD2"/>
<path d="M37.7195 195.013V196.123L20.6335 197.248V196.143L37.7195 195.013Z" fill="#F9FFD2"/>
<path d="M37.7195 198.63V199.684L20.6335 200.814V199.755L37.7195 198.63Z" fill="#F9FFD2"/>
<path d="M37.7195 202.241V203.25L20.6335 204.375V203.371L37.7195 202.241Z" fill="#F9FFD2"/>
</g>
<path d="M40.3533 98.2593V112.453L58.8188 113.432V100.243L52.5783 99.5752L40.3533 98.2593Z" fill="#FFF500"/>
<path d="M28.0679 99.9768L40.3531 98.4249L52.5782 99.6052C51.3943 93.5781 46.3729 89.0579 40.3531 89.0579C34.218 89.0579 29.1163 93.769 28.0679 99.9768Z" fill="#EF8F00"/>
<path d="M36.9822 89.5601C39.1205 90.2348 41.047 91.4544 42.5728 93.0991C44.0986 94.7438 45.1713 96.7574 45.6857 98.9422L52.5783 99.6052C51.3944 93.5781 46.373 89.0579 40.3582 89.0579C39.2146 89.0622 38.0776 89.2313 36.9822 89.5601Z" fill="#F7BD79"/>
</g>
<defs>
<clipPath id="clip0_21_3267">
<rect width="44.7115" height="117.788" fill="white" transform="translate(18 89.0579)"/>
</clipPath>
</defs>
</svg>
