<svg width="81" height="205" viewBox="0 0 81 205" fill="none" xmlns="http://www.w3.org/2000/svg">
<rect x="26.3557" y="0.173096" width="28" height="28" rx="14" fill="#1E1E1E"/>
<path d="M36.6496 10.0884C35.5144 10.0812 35.3564 11.188 35.3514 12.0217C35.3471 12.8553 35.4915 13.9793 36.626 13.9858C37.7604 13.9922 37.9192 12.8711 37.9242 12.036C37.9292 11.2023 37.784 10.0948 36.6496 10.0884ZM36.6138 16.1692C33.6626 16.152 32.3422 14.1879 32.3558 12.0044C32.3687 9.82028 33.7105 7.88772 36.6617 7.90564C39.6129 7.92213 40.9333 9.87046 40.9204 12.0546C40.9068 14.2374 39.565 16.1864 36.6138 16.1692Z" fill="#979797"/>
<path d="M44.0846 10.0881C42.9502 10.0809 42.7922 11.1877 42.7879 12.0221C42.7821 12.8558 42.9273 13.979 44.0625 13.9855C45.1962 13.9927 45.355 12.8708 45.36 12.0364C45.3643 11.2028 45.2191 10.0946 44.0846 10.0881ZM44.0489 16.1696C41.0984 16.1517 39.778 14.1876 39.7916 12.0042C39.8038 9.82073 41.1463 7.88745 44.0968 7.90465C47.0473 7.92186 48.3677 9.87019 48.3555 12.0536C48.3426 14.2385 47.0001 16.1861 44.0489 16.1696Z" fill="#979797"/>
<path d="M33.4796 16.1704C35.6068 17.1231 37.8141 17.546 40.2196 17.5596C42.7466 17.5747 44.6628 17.0965 47.0883 16.1704L47.074 18.794C44.9031 19.8728 42.5485 20.4549 40.2024 20.4413C37.6453 20.4262 35.8028 19.9001 33.4639 18.794L33.4796 16.1704Z" fill="#979797"/>
<path d="M27.6367 44.9807L31.2136 37.7115H27.1636V36.3846H32.8636V37.7115L29.3674 44.9807H27.6367ZM35.2474 44.9807V37.723H33.5858V36.3846H36.8166V44.9807H35.2474ZM41.9895 45.1192C41.3049 45.1192 40.7049 44.9346 40.1895 44.5653C39.6741 44.1961 39.2703 43.6769 38.978 43.0076C38.6934 42.3384 38.5511 41.5615 38.5511 40.6769C38.5511 39.7846 38.6934 39.0076 38.978 38.3461C39.2626 37.6846 39.6626 37.1692 40.178 36.7999C40.6934 36.4307 41.2934 36.2461 41.978 36.2461C42.678 36.2461 43.2818 36.4307 43.7895 36.7999C44.3049 37.1692 44.7088 37.6884 45.0011 38.3576C45.2934 39.0192 45.4395 39.7923 45.4395 40.6769C45.4395 41.5615 45.2934 42.3384 45.0011 43.0076C44.7165 43.6692 44.3165 44.1884 43.8011 44.5653C43.2857 44.9346 42.6818 45.1192 41.9895 45.1192ZM42.0011 43.6884C42.3934 43.6884 42.728 43.5692 43.0049 43.3307C43.2818 43.0846 43.4934 42.7384 43.6395 42.2923C43.7934 41.8384 43.8703 41.2999 43.8703 40.6769C43.8703 40.0538 43.7934 39.5192 43.6395 39.073C43.4934 38.6192 43.278 38.273 42.9934 38.0346C42.7165 37.7961 42.378 37.6769 41.978 37.6769C41.5934 37.6769 41.2626 37.7961 40.9857 38.0346C40.7088 38.273 40.4934 38.6192 40.3395 39.073C40.1934 39.5192 40.1203 40.0538 40.1203 40.6769C40.1203 41.2923 40.1934 41.8269 40.3395 42.2807C40.4934 42.7269 40.7088 43.073 40.9857 43.3192C41.2703 43.5653 41.6088 43.6884 42.0011 43.6884ZM46.905 44.9807V36.3846H48.4742V40.8615L48.0473 40.7115L51.705 36.3846H53.6781L50.2512 40.4461L50.3435 39.3384L53.7819 44.9807H51.9358L49.6281 41.1961L48.4742 42.5692V44.9807H46.905Z" fill="#979797"/>
<path d="M12.8681 60.1007C12.3415 60.1007 11.8581 60.0074 11.4181 59.8207C10.9781 59.6274 10.5948 59.3607 10.2681 59.0207C9.94813 58.674 9.69813 58.2674 9.51813 57.8007C9.33813 57.334 9.24813 56.8207 9.24813 56.2607C9.24813 55.7007 9.33813 55.1874 9.51813 54.7207C9.69813 54.254 9.94813 53.8474 10.2681 53.5007C10.5948 53.154 10.9781 52.8874 11.4181 52.7007C11.8581 52.5074 12.3415 52.4107 12.8681 52.4107C13.3748 52.4107 13.8281 52.5007 14.2281 52.6807C14.6348 52.8607 14.9748 53.094 15.2481 53.3807C15.5281 53.6607 15.7281 53.9574 15.8481 54.2707L15.0981 54.6007C14.9115 54.1674 14.6248 53.8207 14.2381 53.5607C13.8581 53.294 13.4015 53.1607 12.8681 53.1607C12.3215 53.1607 11.8348 53.2907 11.4081 53.5507C10.9815 53.8107 10.6481 54.174 10.4081 54.6407C10.1681 55.1007 10.0481 55.6407 10.0481 56.2607C10.0481 56.874 10.1681 57.414 10.4081 57.8807C10.6481 58.3474 10.9815 58.7107 11.4081 58.9707C11.8348 59.224 12.3215 59.3507 12.8681 59.3507C13.4015 59.3507 13.8581 59.2207 14.2381 58.9607C14.6248 58.7007 14.9115 58.354 15.0981 57.9207L15.8481 58.2507C15.7281 58.5574 15.5281 58.854 15.2481 59.1407C14.9748 59.4207 14.6348 59.6507 14.2281 59.8307C13.8281 60.0107 13.3748 60.1007 12.8681 60.1007ZM19.583 60.1007C19.0763 60.1007 18.6163 59.9807 18.203 59.7407C17.7896 59.494 17.4596 59.1607 17.213 58.7407C16.973 58.314 16.853 57.8307 16.853 57.2907C16.853 56.7574 16.973 56.2807 17.213 55.8607C17.453 55.4407 17.7763 55.1107 18.183 54.8707C18.5963 54.624 19.063 54.5007 19.583 54.5007C20.103 54.5007 20.5663 54.6207 20.973 54.8607C21.3863 55.1007 21.7096 55.4307 21.943 55.8507C22.183 56.2707 22.303 56.7507 22.303 57.2907C22.303 57.8374 22.1796 58.324 21.933 58.7507C21.6863 59.1707 21.3563 59.5007 20.943 59.7407C20.5363 59.9807 20.083 60.1007 19.583 60.1007ZM19.583 59.3507C19.943 59.3507 20.2663 59.2607 20.553 59.0807C20.8463 58.9007 21.0763 58.654 21.243 58.3407C21.4163 58.0274 21.503 57.6774 21.503 57.2907C21.503 56.904 21.4163 56.5574 21.243 56.2507C21.0763 55.944 20.8463 55.7007 20.553 55.5207C20.2663 55.3407 19.943 55.2507 19.583 55.2507C19.223 55.2507 18.8963 55.3407 18.603 55.5207C18.3163 55.7007 18.0863 55.944 17.913 56.2507C17.7396 56.5574 17.653 56.904 17.653 57.2907C17.653 57.6774 17.7396 58.0274 17.913 58.3407C18.0863 58.654 18.3163 58.9007 18.603 59.0807C18.8963 59.2607 19.223 59.3507 19.583 59.3507ZM23.6257 59.9807V54.6207H24.3757V55.6607L24.2057 55.6207C24.339 55.274 24.5557 55.0007 24.8557 54.8007C25.1624 54.6007 25.5157 54.5007 25.9157 54.5007C26.2957 54.5007 26.6357 54.5874 26.9357 54.7607C27.2424 54.934 27.4824 55.174 27.6557 55.4807C27.8357 55.7807 27.9257 56.1207 27.9257 56.5007V59.9807H27.1757V56.7907C27.1757 56.464 27.1157 56.1874 26.9957 55.9607C26.8824 55.734 26.719 55.5607 26.5057 55.4407C26.299 55.314 26.059 55.2507 25.7857 55.2507C25.5124 55.2507 25.269 55.314 25.0557 55.4407C24.8424 55.5607 24.6757 55.7374 24.5557 55.9707C24.4357 56.1974 24.3757 56.4707 24.3757 56.7907V59.9807H23.6257ZM30.6905 59.9807L28.6005 54.6207H29.4405L31.2005 59.3207H30.9305L32.7005 54.6207H33.5505L31.4405 59.9807H30.6905ZM36.7688 60.1007C36.2688 60.1007 35.8155 59.9807 35.4088 59.7407C35.0088 59.494 34.6922 59.1574 34.4588 58.7307C34.2255 58.304 34.1088 57.8207 34.1088 57.2807C34.1088 56.7407 34.2222 56.264 34.4488 55.8507C34.6755 55.4307 34.9822 55.1007 35.3688 54.8607C35.7622 54.6207 36.2022 54.5007 36.6888 54.5007C37.0755 54.5007 37.4188 54.574 37.7188 54.7207C38.0255 54.8607 38.2855 55.054 38.4988 55.3007C38.7122 55.5407 38.8755 55.814 38.9888 56.1207C39.1022 56.4207 39.1588 56.7307 39.1588 57.0507C39.1588 57.1174 39.1555 57.194 39.1488 57.2807C39.1422 57.3607 39.1322 57.444 39.1188 57.5307H34.5888V56.8307H38.6888L38.3288 57.1307C38.3888 56.764 38.3455 56.4374 38.1988 56.1507C38.0588 55.8574 37.8555 55.6274 37.5888 55.4607C37.3222 55.2874 37.0222 55.2007 36.6888 55.2007C36.3555 55.2007 36.0455 55.2874 35.7588 55.4607C35.4788 55.634 35.2588 55.8774 35.0988 56.1907C34.9388 56.4974 34.8755 56.864 34.9088 57.2907C34.8755 57.7174 34.9422 58.0907 35.1088 58.4107C35.2822 58.724 35.5155 58.9674 35.8088 59.1407C36.1088 59.314 36.4288 59.4007 36.7688 59.4007C37.1622 59.4007 37.4922 59.3074 37.7588 59.1207C38.0255 58.934 38.2422 58.7007 38.4088 58.4207L39.0488 58.7607C38.9422 59.0007 38.7788 59.224 38.5588 59.4307C38.3388 59.6307 38.0755 59.794 37.7688 59.9207C37.4688 60.0407 37.1355 60.1007 36.7688 60.1007ZM40.4812 59.9807V54.6207H41.2312V55.5007L41.1312 55.3707C41.2578 55.1174 41.4478 54.9174 41.7012 54.7707C41.9612 54.624 42.2745 54.5507 42.6412 54.5507H42.9812V55.3007H42.5112C42.1245 55.3007 41.8145 55.4207 41.5812 55.6607C41.3478 55.9007 41.2312 56.2407 41.2312 56.6807V59.9807H40.4812ZM45.7201 60.1007C45.2068 60.1007 44.7568 59.9707 44.3701 59.7107C43.9834 59.4507 43.7034 59.0974 43.5301 58.6507L44.1601 58.3507C44.3134 58.6774 44.5268 58.9374 44.8001 59.1307C45.0801 59.324 45.3868 59.4207 45.7201 59.4207C46.0401 59.4207 46.3101 59.344 46.5301 59.1907C46.7501 59.0307 46.8601 58.824 46.8601 58.5707C46.8601 58.384 46.8068 58.2374 46.7001 58.1307C46.5934 58.0174 46.4701 57.9307 46.3301 57.8707C46.1901 57.8107 46.0668 57.7674 45.9601 57.7407L45.1901 57.5207C44.6968 57.3807 44.3401 57.184 44.1201 56.9307C43.9001 56.6774 43.7901 56.384 43.7901 56.0507C43.7901 55.7374 43.8701 55.464 44.0301 55.2307C44.1901 54.9974 44.4068 54.8174 44.6801 54.6907C44.9534 54.564 45.2568 54.5007 45.5901 54.5007C46.0434 54.5007 46.4534 54.6207 46.8201 54.8607C47.1934 55.094 47.4568 55.4207 47.6101 55.8407L46.9701 56.1407C46.8368 55.8407 46.6434 55.6074 46.3901 55.4407C46.1434 55.2674 45.8668 55.1807 45.5601 55.1807C45.2601 55.1807 45.0201 55.2574 44.8401 55.4107C44.6601 55.564 44.5701 55.7574 44.5701 55.9907C44.5701 56.1707 44.6168 56.314 44.7101 56.4207C44.8034 56.5274 44.9101 56.6074 45.0301 56.6607C45.1568 56.714 45.2668 56.754 45.3601 56.7807L46.2501 57.0407C46.6834 57.1674 47.0201 57.364 47.2601 57.6307C47.5068 57.8974 47.6301 58.2107 47.6301 58.5707C47.6301 58.864 47.5468 59.1274 47.3801 59.3607C47.2201 59.594 46.9968 59.7774 46.7101 59.9107C46.4234 60.0374 46.0934 60.1007 45.7201 60.1007ZM48.948 59.9807V54.6207H49.698V59.9807H48.948ZM48.948 53.6307V52.5307H49.698V53.6307H48.948ZM53.7431 60.1007C53.2365 60.1007 52.7765 59.9807 52.3631 59.7407C51.9498 59.494 51.6198 59.1607 51.3731 58.7407C51.1331 58.314 51.0131 57.8307 51.0131 57.2907C51.0131 56.7574 51.1331 56.2807 51.3731 55.8607C51.6131 55.4407 51.9365 55.1107 52.3431 54.8707C52.7565 54.624 53.2231 54.5007 53.7431 54.5007C54.2631 54.5007 54.7265 54.6207 55.1331 54.8607C55.5465 55.1007 55.8698 55.4307 56.1031 55.8507C56.3431 56.2707 56.4631 56.7507 56.4631 57.2907C56.4631 57.8374 56.3398 58.324 56.0931 58.7507C55.8465 59.1707 55.5165 59.5007 55.1031 59.7407C54.6965 59.9807 54.2431 60.1007 53.7431 60.1007ZM53.7431 59.3507C54.1031 59.3507 54.4265 59.2607 54.7131 59.0807C55.0065 58.9007 55.2365 58.654 55.4031 58.3407C55.5765 58.0274 55.6631 57.6774 55.6631 57.2907C55.6631 56.904 55.5765 56.5574 55.4031 56.2507C55.2365 55.944 55.0065 55.7007 54.7131 55.5207C54.4265 55.3407 54.1031 55.2507 53.7431 55.2507C53.3831 55.2507 53.0565 55.3407 52.7631 55.5207C52.4765 55.7007 52.2465 55.944 52.0731 56.2507C51.8998 56.5574 51.8131 56.904 51.8131 57.2907C51.8131 57.6774 51.8998 58.0274 52.0731 58.3407C52.2465 58.654 52.4765 58.9007 52.7631 59.0807C53.0565 59.2607 53.3831 59.3507 53.7431 59.3507ZM57.7859 59.9807V54.6207H58.5359V55.6607L58.3659 55.6207C58.4992 55.274 58.7159 55.0007 59.0159 54.8007C59.3225 54.6007 59.6759 54.5007 60.0759 54.5007C60.4559 54.5007 60.7959 54.5874 61.0959 54.7607C61.4025 54.934 61.6425 55.174 61.8159 55.4807C61.9959 55.7807 62.0859 56.1207 62.0859 56.5007V59.9807H61.3359V56.7907C61.3359 56.464 61.2759 56.1874 61.1559 55.9607C61.0425 55.734 60.8792 55.5607 60.6659 55.4407C60.4592 55.314 60.2192 55.2507 59.9459 55.2507C59.6725 55.2507 59.4292 55.314 59.2159 55.4407C59.0025 55.5607 58.8359 55.7374 58.7159 55.9707C58.5959 56.1974 58.5359 56.4707 58.5359 56.7907V59.9807H57.7859ZM65.3783 60.1007C64.865 60.1007 64.415 59.9707 64.0283 59.7107C63.6416 59.4507 63.3616 59.0974 63.1883 58.6507L63.8183 58.3507C63.9716 58.6774 64.185 58.9374 64.4583 59.1307C64.7383 59.324 65.045 59.4207 65.3783 59.4207C65.6983 59.4207 65.9683 59.344 66.1883 59.1907C66.4083 59.0307 66.5183 58.824 66.5183 58.5707C66.5183 58.384 66.465 58.2374 66.3583 58.1307C66.2516 58.0174 66.1283 57.9307 65.9883 57.8707C65.8483 57.8107 65.725 57.7674 65.6183 57.7407L64.8483 57.5207C64.355 57.3807 63.9983 57.184 63.7783 56.9307C63.5583 56.6774 63.4483 56.384 63.4483 56.0507C63.4483 55.7374 63.5283 55.464 63.6883 55.2307C63.8483 54.9974 64.065 54.8174 64.3383 54.6907C64.6116 54.564 64.915 54.5007 65.2483 54.5007C65.7016 54.5007 66.1116 54.6207 66.4783 54.8607C66.8516 55.094 67.115 55.4207 67.2683 55.8407L66.6283 56.1407C66.495 55.8407 66.3016 55.6074 66.0483 55.4407C65.8016 55.2674 65.525 55.1807 65.2183 55.1807C64.9183 55.1807 64.6783 55.2574 64.4983 55.4107C64.3183 55.564 64.2283 55.7574 64.2283 55.9907C64.2283 56.1707 64.275 56.314 64.3683 56.4207C64.4616 56.5274 64.5683 56.6074 64.6883 56.6607C64.815 56.714 64.925 56.754 65.0183 56.7807L65.9083 57.0407C66.3416 57.1674 66.6783 57.364 66.9183 57.6307C67.165 57.8974 67.2883 58.2107 67.2883 58.5707C67.2883 58.864 67.205 59.1274 67.0383 59.3607C66.8783 59.594 66.655 59.7774 66.3683 59.9107C66.0816 60.0374 65.7516 60.1007 65.3783 60.1007ZM67.8562 61.1807L71.2362 52.9407H72.1062L68.7262 61.1807H67.8562ZM25.6374 72.9807V67.6207H26.3874V68.6407L26.2674 68.4907C26.4141 68.1774 26.6308 67.934 26.9174 67.7607C27.2108 67.5874 27.5308 67.5007 27.8774 67.5007C28.2908 67.5007 28.6641 67.6174 28.9974 67.8507C29.3308 68.084 29.5674 68.3874 29.7074 68.7607L29.4974 68.7707C29.6308 68.3574 29.8608 68.044 30.1874 67.8307C30.5208 67.6107 30.8874 67.5007 31.2874 67.5007C31.6474 67.5007 31.9774 67.5874 32.2774 67.7607C32.5841 67.934 32.8274 68.174 33.0074 68.4807C33.1941 68.7807 33.2874 69.1207 33.2874 69.5007V72.9807H32.5374V69.7907C32.5374 69.464 32.4774 69.1874 32.3574 68.9607C32.2441 68.734 32.0874 68.5607 31.8874 68.4407C31.6874 68.314 31.4574 68.2507 31.1974 68.2507C30.9441 68.2507 30.7141 68.314 30.5074 68.4407C30.3008 68.5607 30.1374 68.7374 30.0174 68.9707C29.8974 69.1974 29.8374 69.4707 29.8374 69.7907V72.9807H29.0874V69.7907C29.0874 69.464 29.0274 69.1874 28.9074 68.9607C28.7941 68.734 28.6374 68.5607 28.4374 68.4407C28.2374 68.314 28.0074 68.2507 27.7474 68.2507C27.4874 68.2507 27.2541 68.314 27.0474 68.4407C26.8474 68.5607 26.6874 68.7374 26.5674 68.9707C26.4474 69.1974 26.3874 69.4707 26.3874 69.7907V72.9807H25.6374ZM37.2295 73.1007C36.7228 73.1007 36.2628 72.9807 35.8495 72.7407C35.4361 72.494 35.1061 72.1607 34.8595 71.7407C34.6195 71.314 34.4995 70.8307 34.4995 70.2907C34.4995 69.7574 34.6195 69.2807 34.8595 68.8607C35.0995 68.4407 35.4228 68.1107 35.8295 67.8707C36.2428 67.624 36.7095 67.5007 37.2295 67.5007C37.7495 67.5007 38.2128 67.6207 38.6195 67.8607C39.0328 68.1007 39.3561 68.4307 39.5895 68.8507C39.8295 69.2707 39.9495 69.7507 39.9495 70.2907C39.9495 70.8374 39.8261 71.324 39.5795 71.7507C39.3328 72.1707 39.0028 72.5007 38.5895 72.7407C38.1828 72.9807 37.7295 73.1007 37.2295 73.1007ZM37.2295 72.3507C37.5895 72.3507 37.9128 72.2607 38.1995 72.0807C38.4928 71.9007 38.7228 71.654 38.8895 71.3407C39.0628 71.0274 39.1495 70.6774 39.1495 70.2907C39.1495 69.904 39.0628 69.5574 38.8895 69.2507C38.7228 68.944 38.4928 68.7007 38.1995 68.5207C37.9128 68.3407 37.5895 68.2507 37.2295 68.2507C36.8695 68.2507 36.5428 68.3407 36.2495 68.5207C35.9628 68.7007 35.7328 68.944 35.5595 69.2507C35.3861 69.5574 35.2995 69.904 35.2995 70.2907C35.2995 70.6774 35.3861 71.0274 35.5595 71.3407C35.7328 71.654 35.9628 71.9007 36.2495 72.0807C36.5428 72.2607 36.8695 72.3507 37.2295 72.3507ZM41.2722 72.9807V67.6207H42.0222V68.6607L41.8522 68.6207C41.9855 68.274 42.2022 68.0007 42.5022 67.8007C42.8089 67.6007 43.1622 67.5007 43.5622 67.5007C43.9422 67.5007 44.2822 67.5874 44.5822 67.7607C44.8889 67.934 45.1289 68.174 45.3022 68.4807C45.4822 68.7807 45.5722 69.1207 45.5722 69.5007V72.9807H44.8222V69.7907C44.8222 69.464 44.7622 69.1874 44.6422 68.9607C44.5289 68.734 44.3655 68.5607 44.1522 68.4407C43.9455 68.314 43.7055 68.2507 43.4322 68.2507C43.1589 68.2507 42.9155 68.314 42.7022 68.4407C42.4889 68.5607 42.3222 68.7374 42.2022 68.9707C42.0822 69.1974 42.0222 69.4707 42.0222 69.7907V72.9807H41.2722ZM49.0546 73.0407C48.5746 73.0407 48.2046 72.9007 47.9446 72.6207C47.6846 72.3407 47.5546 71.9407 47.5546 71.4207V68.3707H46.5646V67.6207H46.8146C47.0413 67.6207 47.2213 67.5474 47.3546 67.4007C47.488 67.2474 47.5546 67.0574 47.5546 66.8307V66.3807H48.3046V67.6207H49.4846V68.3707H48.3046V71.4207C48.3046 71.6007 48.3313 71.7607 48.3846 71.9007C48.438 72.034 48.528 72.1407 48.6546 72.2207C48.788 72.3007 48.9646 72.3407 49.1846 72.3407C49.238 72.3407 49.3013 72.3374 49.3746 72.3307C49.448 72.324 49.5113 72.3174 49.5646 72.3107V72.9807C49.4846 73.0007 49.3946 73.014 49.2946 73.0207C49.1946 73.034 49.1146 73.0407 49.0546 73.0407ZM50.8816 72.9807V65.4107H51.6316V68.6607L51.4616 68.6207C51.5949 68.274 51.8116 68.0007 52.1116 67.8007C52.4182 67.6007 52.7716 67.5007 53.1716 67.5007C53.5516 67.5007 53.8916 67.5874 54.1916 67.7607C54.4982 67.934 54.7382 68.174 54.9116 68.4807C55.0916 68.7807 55.1816 69.1207 55.1816 69.5007V72.9807H54.4316V69.7907C54.4316 69.464 54.3716 69.1874 54.2516 68.9607C54.1316 68.734 53.9649 68.5607 53.7516 68.4407C53.5449 68.314 53.3082 68.2507 53.0416 68.2507C52.7749 68.2507 52.5349 68.314 52.3216 68.4407C52.1082 68.5607 51.9382 68.7374 51.8116 68.9707C51.6916 69.1974 51.6316 69.4707 51.6316 69.7907V72.9807H50.8816Z" fill="#979797"/>
<g clip-path="url(#clip0_21_952)">
<path d="M40.3533 109.914V204.308H18V111.697L21.8978 111.386L26.4627 111.024L31.4039 110.627L40.3533 109.914Z" fill="#7A7A7A"/>
<path d="M21.8977 98.302V111.386L40.3532 109.914V95.7205L28.0679 97.4382L21.8977 98.302Z" fill="#7A7A7A"/>
<path opacity="0.6" d="M37.3585 106.619V99.6931L24.8977 101.431V107.614L37.3585 106.619Z" fill="#F9FFD2"/>
<path d="M62.7115 111.104V204.308H40.3533V109.914L49.9096 110.421L50.0601 110.431L52.2222 110.542L54.5348 110.667L57.1483 110.803L58.8188 110.893L59.4659 110.929L62.0795 111.069L62.7115 111.104Z" fill="#A7A7A7"/>
<g opacity="0.6">
<path d="M37.7195 112.933V115.143L20.6335 116.273V114.063L37.7195 112.933Z" fill="#F9FFD2"/>
<path d="M37.7195 116.549V118.709L20.6335 119.834V117.674L37.7195 116.549Z" fill="#F9FFD2"/>
<path d="M37.7195 120.165V122.275L20.6335 123.405V121.295L37.7195 120.165Z" fill="#F9FFD2"/>
<path d="M37.7195 123.781V125.84L20.6335 126.966V124.911L37.7195 123.781Z" fill="#F9FFD2"/>
<path d="M37.7195 127.398V129.407L20.6335 130.532V128.523L37.7195 127.398Z" fill="#F9FFD2"/>
<path d="M37.7195 131.009V132.973L20.6335 134.093V132.139L37.7195 131.009Z" fill="#F9FFD2"/>
<path d="M37.7195 134.63V136.538L20.6335 137.663V135.755L37.7195 134.63Z" fill="#F9FFD2"/>
<path d="M37.7195 138.241V140.1L20.6335 141.23V139.371L37.7195 138.241Z" fill="#F9FFD2"/>
<path d="M37.7195 141.857V143.666L20.6335 144.791V142.982L37.7195 141.857Z" fill="#F9FFD2"/>
<path d="M37.7195 145.474V147.232L20.6335 148.362V146.599L37.7195 145.474Z" fill="#F9FFD2"/>
<path d="M37.7195 149.09V150.798L20.6335 151.923V150.22L37.7195 149.09Z" fill="#F9FFD2"/>
<path d="M37.7195 152.706V154.358L20.6335 155.489V153.831L37.7195 152.706Z" fill="#F9FFD2"/>
<path d="M37.7195 156.317V157.929L20.6335 159.059V157.447L37.7195 156.317Z" fill="#F9FFD2"/>
<path d="M37.7195 159.938V161.495L20.6335 162.621V161.059L37.7195 159.938Z" fill="#F9FFD2"/>
<path d="M37.7195 163.555V165.056L20.6335 166.186V164.68L37.7195 163.555Z" fill="#F9FFD2"/>
<path d="M37.7195 167.166V168.628L20.6335 169.753V168.296L37.7195 167.166Z" fill="#F9FFD2"/>
<path d="M37.7195 170.782V172.189L20.6335 173.319V171.907L37.7195 170.782Z" fill="#F9FFD2"/>
<path d="M37.7195 174.398V175.755L20.6335 176.88V175.529L37.7195 174.398Z" fill="#F9FFD2"/>
<path d="M37.7195 178.015V179.321L20.6335 180.451V179.14L37.7195 178.015Z" fill="#F9FFD2"/>
<path d="M37.7195 181.631V182.886L20.6335 184.017V182.756L37.7195 181.631Z" fill="#F9FFD2"/>
<path d="M37.7195 185.242V186.453L20.6335 187.578V186.372L37.7195 185.242Z" fill="#F9FFD2"/>
<path d="M37.7195 188.863V190.018L20.6335 191.144V189.988L37.7195 188.863Z" fill="#F9FFD2"/>
<path d="M37.7195 192.474V193.584L20.6335 194.709V193.604L37.7195 192.474Z" fill="#F9FFD2"/>
<path d="M37.7195 196.091V197.145L20.6335 198.275V197.216L37.7195 196.091Z" fill="#F9FFD2"/>
<path d="M37.7195 199.702V200.711L20.6335 201.836V200.832L37.7195 199.702Z" fill="#F9FFD2"/>
</g>
<path d="M40.3533 95.7205V109.914L58.8188 110.894V97.7044L52.5783 97.0364L40.3533 95.7205Z" fill="#A7A7A7"/>
<path d="M28.0679 97.4383L40.3531 95.8863L52.5782 97.0666C51.3943 91.0396 46.3729 86.5193 40.3531 86.5193C34.218 86.5193 29.1163 91.2304 28.0679 97.4383Z" fill="#797979"/>
<path d="M36.9822 87.0215C39.1205 87.6963 41.047 88.9158 42.5728 90.5605C44.0986 92.2053 45.1713 94.2188 45.6857 96.4036L52.5783 97.0666C51.3944 91.0396 46.373 86.5193 40.3582 86.5193C39.2146 86.5236 38.0776 86.6928 36.9822 87.0215Z" fill="#ACACAC"/>
</g>
<defs>
<clipPath id="clip0_21_952">
<rect width="44.7115" height="117.788" fill="white" transform="translate(18 86.5193)"/>
</clipPath>
</defs>
</svg>
