<svg width="81" height="343" viewBox="0 0 81 343" fill="none" xmlns="http://www.w3.org/2000/svg">
<rect x="26.5383" y="0.423096" width="28" height="28" rx="14" fill="#1E1E1E"/>
<g clip-path="url(#clip0_21_918)">
<path d="M47.5485 10.4353C46.6354 10.4353 45.7929 10.1328 45.1164 9.62249C44.3404 9.03749 43.7829 8.17937 43.586 7.1903C43.5373 6.94593 43.511 6.69374 43.5085 6.4353H40.9001V13.5628L40.897 17.4669C40.897 18.5106 40.2173 19.3956 39.2751 19.7069C39.0017 19.7972 38.7064 19.84 38.3989 19.8231C38.0064 19.8015 37.6385 19.6831 37.3189 19.4919C36.6385 19.085 36.1773 18.3469 36.1648 17.5025C36.1451 16.1828 37.212 15.1069 38.5307 15.1069C38.791 15.1069 39.041 15.1494 39.2751 15.2266V13.2784V12.5781C39.0282 12.5416 38.777 12.5225 38.5229 12.5225C37.0795 12.5225 35.7295 13.1225 34.7645 14.2034C34.0351 15.0203 33.5976 16.0625 33.5301 17.1553C33.4417 18.5909 33.967 19.9556 34.9857 20.9625C35.1354 21.1103 35.2926 21.2475 35.457 21.3741C36.3304 22.0462 37.3982 22.4106 38.5229 22.4106C38.777 22.4106 39.0282 22.3919 39.2751 22.3553C40.3257 22.1997 41.2951 21.7187 42.0601 20.9625C43.0001 20.0334 43.5195 18.8 43.5251 17.4872L43.5117 11.6572C43.9601 12.0031 44.4504 12.2894 44.9767 12.5116C45.7951 12.8569 46.6629 13.0319 47.556 13.0316V11.1375V10.4347C47.5567 10.4353 47.5492 10.4353 47.5485 10.4353Z" fill="#979797"/>
</g>
<path d="M26.8263 45.2308V44.0424L29.1571 41.6078C29.6186 41.1231 29.9725 40.7385 30.2186 40.4539C30.4725 40.1616 30.6494 39.9116 30.7494 39.7039C30.8494 39.4962 30.8994 39.2847 30.8994 39.0693C30.8994 38.7078 30.784 38.4231 30.5532 38.2155C30.3302 38.0078 30.0417 37.9039 29.6879 37.9039C29.3186 37.9039 28.9994 38.0116 28.7302 38.227C28.4609 38.4347 28.2648 38.7424 28.1417 39.1501L26.7686 38.7231C26.8609 38.2693 27.0494 37.877 27.334 37.5462C27.6186 37.2078 27.9648 36.9501 28.3725 36.7731C28.7879 36.5885 29.2263 36.4962 29.6879 36.4962C30.2417 36.4962 30.7263 36.5962 31.1417 36.7962C31.5648 36.9962 31.8917 37.277 32.1225 37.6385C32.3609 38.0001 32.4802 38.4231 32.4802 38.9078C32.4802 39.2155 32.4225 39.5193 32.3071 39.8193C32.1917 40.1193 32.0186 40.427 31.7879 40.7424C31.5571 41.0501 31.2571 41.3962 30.8879 41.7808L28.8686 43.9039H32.5955V45.2308H26.8263ZM34.5995 45.2308V43.6155H36.1226V45.2308H34.5995ZM38.6257 45.2308L41.5449 41.4693L41.8103 41.7462C41.6949 41.8308 41.5833 41.9001 41.4757 41.9539C41.368 42.0078 41.2526 42.0462 41.1295 42.0693C41.0064 42.0924 40.8757 42.1039 40.7372 42.1039C40.2141 42.1039 39.7487 41.9847 39.341 41.7462C38.9333 41.5078 38.6103 41.1847 38.3718 40.777C38.141 40.3616 38.0257 39.8924 38.0257 39.3693C38.0257 38.8155 38.1526 38.3231 38.4064 37.8924C38.668 37.4616 39.0218 37.1231 39.468 36.877C39.9218 36.6231 40.4372 36.4962 41.0141 36.4962C41.5987 36.4962 42.1141 36.6193 42.5603 36.8655C43.0064 37.1116 43.3564 37.4501 43.6103 37.8808C43.8718 38.3039 44.0026 38.7924 44.0026 39.3462C44.0026 39.6231 43.9718 39.9001 43.9103 40.177C43.8487 40.4539 43.7372 40.7501 43.5756 41.0655C43.4218 41.3731 43.1987 41.7231 42.9064 42.1155L40.5064 45.2308H38.6257ZM41.0141 40.7885C41.2833 40.7885 41.5218 40.7308 41.7295 40.6155C41.9449 40.4924 42.1141 40.3231 42.2372 40.1078C42.3603 39.8847 42.4218 39.6347 42.4218 39.3578C42.4218 39.0655 42.3564 38.8116 42.2256 38.5962C42.1026 38.3808 41.9372 38.2116 41.7295 38.0885C41.5218 37.9655 41.2833 37.9039 41.0141 37.9039C40.7526 37.9039 40.5141 37.9655 40.2987 38.0885C40.0833 38.2116 39.9103 38.3808 39.7795 38.5962C39.6564 38.8116 39.5949 39.0655 39.5949 39.3578C39.5949 39.6347 39.6564 39.8847 39.7795 40.1078C39.9103 40.3231 40.0833 40.4924 40.2987 40.6155C40.5141 40.7308 40.7526 40.7885 41.0141 40.7885ZM45.3129 45.2308V36.6347H46.8129L50.0321 41.0078H49.3168L52.4668 36.6347H53.9668V45.2308H52.386V38.4231L52.9975 38.5731L49.7321 42.9231H49.5475L46.3629 38.5731L46.8821 38.4231V45.2308H45.3129Z" fill="#979797"/>
<path d="M13.0508 60.3508C12.5241 60.3508 12.0408 60.2575 11.6008 60.0708C11.1608 59.8775 10.7774 59.6108 10.4508 59.2708C10.1308 58.9242 9.88075 58.5175 9.70075 58.0508C9.52075 57.5842 9.43075 57.0708 9.43075 56.5108C9.43075 55.9508 9.52075 55.4375 9.70075 54.9708C9.88075 54.5042 10.1308 54.0975 10.4508 53.7508C10.7774 53.4042 11.1608 53.1375 11.6008 52.9508C12.0408 52.7575 12.5241 52.6608 13.0508 52.6608C13.5574 52.6608 14.0108 52.7508 14.4108 52.9308C14.8174 53.1108 15.1574 53.3442 15.4308 53.6308C15.7108 53.9108 15.9108 54.2075 16.0308 54.5208L15.2808 54.8508C15.0941 54.4175 14.8074 54.0708 14.4208 53.8108C14.0408 53.5442 13.5841 53.4108 13.0508 53.4108C12.5041 53.4108 12.0174 53.5408 11.5908 53.8008C11.1641 54.0608 10.8308 54.4242 10.5908 54.8908C10.3508 55.3508 10.2308 55.8908 10.2308 56.5108C10.2308 57.1242 10.3508 57.6642 10.5908 58.1308C10.8308 58.5975 11.1641 58.9608 11.5908 59.2208C12.0174 59.4742 12.5041 59.6008 13.0508 59.6008C13.5841 59.6008 14.0408 59.4708 14.4208 59.2108C14.8074 58.9508 15.0941 58.6042 15.2808 58.1708L16.0308 58.5008C15.9108 58.8075 15.7108 59.1042 15.4308 59.3908C15.1574 59.6708 14.8174 59.9008 14.4108 60.0808C14.0108 60.2608 13.5574 60.3508 13.0508 60.3508ZM19.7656 60.3508C19.2589 60.3508 18.7989 60.2308 18.3856 59.9908C17.9723 59.7442 17.6423 59.4108 17.3956 58.9908C17.1556 58.5642 17.0356 58.0808 17.0356 57.5408C17.0356 57.0075 17.1556 56.5308 17.3956 56.1108C17.6356 55.6908 17.9589 55.3608 18.3656 55.1208C18.7789 54.8742 19.2456 54.7508 19.7656 54.7508C20.2856 54.7508 20.7489 54.8708 21.1556 55.1108C21.5689 55.3508 21.8923 55.6808 22.1256 56.1008C22.3656 56.5208 22.4856 57.0008 22.4856 57.5408C22.4856 58.0875 22.3623 58.5742 22.1156 59.0008C21.8689 59.4208 21.5389 59.7508 21.1256 59.9908C20.7189 60.2308 20.2656 60.3508 19.7656 60.3508ZM19.7656 59.6008C20.1256 59.6008 20.4489 59.5108 20.7356 59.3308C21.0289 59.1508 21.2589 58.9042 21.4256 58.5908C21.5989 58.2775 21.6856 57.9275 21.6856 57.5408C21.6856 57.1542 21.5989 56.8075 21.4256 56.5008C21.2589 56.1942 21.0289 55.9508 20.7356 55.7708C20.4489 55.5908 20.1256 55.5008 19.7656 55.5008C19.4056 55.5008 19.0789 55.5908 18.7856 55.7708C18.4989 55.9508 18.2689 56.1942 18.0956 56.5008C17.9223 56.8075 17.8356 57.1542 17.8356 57.5408C17.8356 57.9275 17.9223 58.2775 18.0956 58.5908C18.2689 58.9042 18.4989 59.1508 18.7856 59.3308C19.0789 59.5108 19.4056 59.6008 19.7656 59.6008ZM23.8083 60.2308V54.8708H24.5583V55.9108L24.3883 55.8708C24.5217 55.5242 24.7383 55.2508 25.0383 55.0508C25.345 54.8508 25.6983 54.7508 26.0983 54.7508C26.4783 54.7508 26.8183 54.8375 27.1183 55.0108C27.425 55.1842 27.665 55.4242 27.8383 55.7308C28.0183 56.0308 28.1083 56.3708 28.1083 56.7508V60.2308H27.3583V57.0408C27.3583 56.7142 27.2983 56.4375 27.1783 56.2108C27.065 55.9842 26.9017 55.8108 26.6883 55.6908C26.4817 55.5642 26.2417 55.5008 25.9683 55.5008C25.695 55.5008 25.4517 55.5642 25.2383 55.6908C25.025 55.8108 24.8583 55.9875 24.7383 56.2208C24.6183 56.4475 24.5583 56.7208 24.5583 57.0408V60.2308H23.8083ZM30.8731 60.2308L28.7831 54.8708H29.6231L31.3831 59.5708H31.1131L32.8831 54.8708H33.7331L31.6231 60.2308H30.8731ZM36.9515 60.3508C36.4515 60.3508 35.9981 60.2308 35.5915 59.9908C35.1915 59.7442 34.8748 59.4075 34.6415 58.9808C34.4081 58.5542 34.2915 58.0708 34.2915 57.5308C34.2915 56.9908 34.4048 56.5142 34.6315 56.1008C34.8581 55.6808 35.1648 55.3508 35.5515 55.1108C35.9448 54.8708 36.3848 54.7508 36.8715 54.7508C37.2581 54.7508 37.6015 54.8242 37.9015 54.9708C38.2081 55.1108 38.4681 55.3042 38.6815 55.5508C38.8948 55.7908 39.0581 56.0642 39.1715 56.3708C39.2848 56.6708 39.3415 56.9808 39.3415 57.3008C39.3415 57.3675 39.3381 57.4442 39.3315 57.5308C39.3248 57.6108 39.3148 57.6942 39.3015 57.7808H34.7715V57.0808H38.8715L38.5115 57.3808C38.5715 57.0142 38.5281 56.6875 38.3815 56.4008C38.2415 56.1075 38.0381 55.8775 37.7715 55.7108C37.5048 55.5375 37.2048 55.4508 36.8715 55.4508C36.5381 55.4508 36.2281 55.5375 35.9415 55.7108C35.6615 55.8842 35.4415 56.1275 35.2815 56.4408C35.1215 56.7475 35.0581 57.1142 35.0915 57.5408C35.0581 57.9675 35.1248 58.3408 35.2915 58.6608C35.4648 58.9742 35.6981 59.2175 35.9915 59.3908C36.2915 59.5642 36.6115 59.6508 36.9515 59.6508C37.3448 59.6508 37.6748 59.5575 37.9415 59.3708C38.2081 59.1842 38.4248 58.9508 38.5915 58.6708L39.2315 59.0108C39.1248 59.2508 38.9615 59.4742 38.7415 59.6808C38.5215 59.8808 38.2581 60.0442 37.9515 60.1708C37.6515 60.2908 37.3181 60.3508 36.9515 60.3508ZM40.6638 60.2308V54.8708H41.4138V55.7508L41.3138 55.6208C41.4405 55.3675 41.6305 55.1675 41.8838 55.0208C42.1438 54.8742 42.4571 54.8008 42.8238 54.8008H43.1638V55.5508H42.6938C42.3071 55.5508 41.9971 55.6708 41.7638 55.9108C41.5305 56.1508 41.4138 56.4908 41.4138 56.9308V60.2308H40.6638ZM45.9027 60.3508C45.3894 60.3508 44.9394 60.2208 44.5527 59.9608C44.166 59.7008 43.886 59.3475 43.7127 58.9008L44.3427 58.6008C44.496 58.9275 44.7094 59.1875 44.9827 59.3808C45.2627 59.5742 45.5694 59.6708 45.9027 59.6708C46.2227 59.6708 46.4927 59.5942 46.7127 59.4408C46.9327 59.2808 47.0427 59.0742 47.0427 58.8208C47.0427 58.6342 46.9894 58.4875 46.8827 58.3808C46.776 58.2675 46.6527 58.1808 46.5127 58.1208C46.3727 58.0608 46.2494 58.0175 46.1427 57.9908L45.3727 57.7708C44.8794 57.6308 44.5227 57.4342 44.3027 57.1808C44.0827 56.9275 43.9727 56.6342 43.9727 56.3008C43.9727 55.9875 44.0527 55.7142 44.2127 55.4808C44.3727 55.2475 44.5894 55.0675 44.8627 54.9408C45.136 54.8142 45.4394 54.7508 45.7727 54.7508C46.226 54.7508 46.636 54.8708 47.0027 55.1108C47.376 55.3442 47.6394 55.6708 47.7927 56.0908L47.1527 56.3908C47.0194 56.0908 46.826 55.8575 46.5727 55.6908C46.326 55.5175 46.0494 55.4308 45.7427 55.4308C45.4427 55.4308 45.2027 55.5075 45.0227 55.6608C44.8427 55.8142 44.7527 56.0075 44.7527 56.2408C44.7527 56.4208 44.7994 56.5642 44.8927 56.6708C44.986 56.7775 45.0927 56.8575 45.2127 56.9108C45.3394 56.9642 45.4494 57.0042 45.5427 57.0308L46.4327 57.2908C46.866 57.4175 47.2027 57.6142 47.4427 57.8808C47.6894 58.1475 47.8127 58.4608 47.8127 58.8208C47.8127 59.1142 47.7294 59.3775 47.5627 59.6108C47.4027 59.8442 47.1794 60.0275 46.8927 60.1608C46.606 60.2875 46.276 60.3508 45.9027 60.3508ZM49.1306 60.2308V54.8708H49.8806V60.2308H49.1306ZM49.1306 53.8808V52.7808H49.8806V53.8808H49.1306ZM53.9258 60.3508C53.4191 60.3508 52.9591 60.2308 52.5458 59.9908C52.1324 59.7442 51.8024 59.4108 51.5558 58.9908C51.3158 58.5642 51.1958 58.0808 51.1958 57.5408C51.1958 57.0075 51.3158 56.5308 51.5558 56.1108C51.7958 55.6908 52.1191 55.3608 52.5258 55.1208C52.9391 54.8742 53.4058 54.7508 53.9258 54.7508C54.4458 54.7508 54.9091 54.8708 55.3158 55.1108C55.7291 55.3508 56.0524 55.6808 56.2858 56.1008C56.5258 56.5208 56.6458 57.0008 56.6458 57.5408C56.6458 58.0875 56.5224 58.5742 56.2758 59.0008C56.0291 59.4208 55.6991 59.7508 55.2858 59.9908C54.8791 60.2308 54.4258 60.3508 53.9258 60.3508ZM53.9258 59.6008C54.2858 59.6008 54.6091 59.5108 54.8958 59.3308C55.1891 59.1508 55.4191 58.9042 55.5858 58.5908C55.7591 58.2775 55.8458 57.9275 55.8458 57.5408C55.8458 57.1542 55.7591 56.8075 55.5858 56.5008C55.4191 56.1942 55.1891 55.9508 54.8958 55.7708C54.6091 55.5908 54.2858 55.5008 53.9258 55.5008C53.5658 55.5008 53.2391 55.5908 52.9458 55.7708C52.6591 55.9508 52.4291 56.1942 52.2558 56.5008C52.0824 56.8075 51.9958 57.1542 51.9958 57.5408C51.9958 57.9275 52.0824 58.2775 52.2558 58.5908C52.4291 58.9042 52.6591 59.1508 52.9458 59.3308C53.2391 59.5108 53.5658 59.6008 53.9258 59.6008ZM57.9685 60.2308V54.8708H58.7185V55.9108L58.5485 55.8708C58.6818 55.5242 58.8985 55.2508 59.1985 55.0508C59.5052 54.8508 59.8585 54.7508 60.2585 54.7508C60.6385 54.7508 60.9785 54.8375 61.2785 55.0108C61.5852 55.1842 61.8252 55.4242 61.9985 55.7308C62.1785 56.0308 62.2685 56.3708 62.2685 56.7508V60.2308H61.5185V57.0408C61.5185 56.7142 61.4585 56.4375 61.3385 56.2108C61.2252 55.9842 61.0618 55.8108 60.8485 55.6908C60.6418 55.5642 60.4018 55.5008 60.1285 55.5008C59.8552 55.5008 59.6118 55.5642 59.3985 55.6908C59.1852 55.8108 59.0185 55.9875 58.8985 56.2208C58.7785 56.4475 58.7185 56.7208 58.7185 57.0408V60.2308H57.9685ZM65.5609 60.3508C65.0476 60.3508 64.5976 60.2208 64.2109 59.9608C63.8242 59.7008 63.5442 59.3475 63.3709 58.9008L64.0009 58.6008C64.1542 58.9275 64.3676 59.1875 64.6409 59.3808C64.9209 59.5742 65.2276 59.6708 65.5609 59.6708C65.8809 59.6708 66.1509 59.5942 66.3709 59.4408C66.5909 59.2808 66.7009 59.0742 66.7009 58.8208C66.7009 58.6342 66.6476 58.4875 66.5409 58.3808C66.4342 58.2675 66.3109 58.1808 66.1709 58.1208C66.0309 58.0608 65.9076 58.0175 65.8009 57.9908L65.0309 57.7708C64.5376 57.6308 64.1809 57.4342 63.9609 57.1808C63.7409 56.9275 63.6309 56.6342 63.6309 56.3008C63.6309 55.9875 63.7109 55.7142 63.8709 55.4808C64.0309 55.2475 64.2476 55.0675 64.5209 54.9408C64.7942 54.8142 65.0976 54.7508 65.4309 54.7508C65.8842 54.7508 66.2942 54.8708 66.6609 55.1108C67.0342 55.3442 67.2976 55.6708 67.4509 56.0908L66.8109 56.3908C66.6776 56.0908 66.4842 55.8575 66.2309 55.6908C65.9842 55.5175 65.7076 55.4308 65.4009 55.4308C65.1009 55.4308 64.8609 55.5075 64.6809 55.6608C64.5009 55.8142 64.4109 56.0075 64.4109 56.2408C64.4109 56.4208 64.4576 56.5642 64.5509 56.6708C64.6442 56.7775 64.7509 56.8575 64.8709 56.9108C64.9976 56.9642 65.1076 57.0042 65.2009 57.0308L66.0909 57.2908C66.5242 57.4175 66.8609 57.6142 67.1009 57.8808C67.3476 58.1475 67.4709 58.4608 67.4709 58.8208C67.4709 59.1142 67.3876 59.3775 67.2209 59.6108C67.0609 59.8442 66.8376 60.0275 66.5509 60.1608C66.2642 60.2875 65.9342 60.3508 65.5609 60.3508ZM68.0388 61.4308L71.4188 53.1908H72.2888L68.9088 61.4308H68.0388ZM25.82 73.2308V67.8708H26.57V68.8908L26.45 68.7408C26.5967 68.4275 26.8134 68.1842 27.1 68.0108C27.3934 67.8375 27.7134 67.7508 28.06 67.7508C28.4734 67.7508 28.8467 67.8675 29.18 68.1008C29.5134 68.3342 29.75 68.6375 29.89 69.0108L29.68 69.0208C29.8134 68.6075 30.0434 68.2942 30.37 68.0808C30.7034 67.8608 31.07 67.7508 31.47 67.7508C31.83 67.7508 32.16 67.8375 32.46 68.0108C32.7667 68.1842 33.01 68.4242 33.19 68.7308C33.3767 69.0308 33.47 69.3708 33.47 69.7508V73.2308H32.72V70.0408C32.72 69.7142 32.66 69.4375 32.54 69.2108C32.4267 68.9842 32.27 68.8108 32.07 68.6908C31.87 68.5642 31.64 68.5008 31.38 68.5008C31.1267 68.5008 30.8967 68.5642 30.69 68.6908C30.4834 68.8108 30.32 68.9875 30.2 69.2208C30.08 69.4475 30.02 69.7208 30.02 70.0408V73.2308H29.27V70.0408C29.27 69.7142 29.21 69.4375 29.09 69.2108C28.9767 68.9842 28.82 68.8108 28.62 68.6908C28.42 68.5642 28.19 68.5008 27.93 68.5008C27.67 68.5008 27.4367 68.5642 27.23 68.6908C27.03 68.8108 26.87 68.9875 26.75 69.2208C26.63 69.4475 26.57 69.7208 26.57 70.0408V73.2308H25.82ZM37.4121 73.3508C36.9054 73.3508 36.4454 73.2308 36.0321 72.9908C35.6187 72.7442 35.2887 72.4108 35.0421 71.9908C34.8021 71.5642 34.6821 71.0808 34.6821 70.5408C34.6821 70.0075 34.8021 69.5308 35.0421 69.1108C35.2821 68.6908 35.6054 68.3608 36.0121 68.1208C36.4254 67.8742 36.8921 67.7508 37.4121 67.7508C37.9321 67.7508 38.3954 67.8708 38.8021 68.1108C39.2154 68.3508 39.5387 68.6808 39.7721 69.1008C40.0121 69.5208 40.1321 70.0008 40.1321 70.5408C40.1321 71.0875 40.0087 71.5742 39.7621 72.0008C39.5154 72.4208 39.1854 72.7508 38.7721 72.9908C38.3654 73.2308 37.9121 73.3508 37.4121 73.3508ZM37.4121 72.6008C37.7721 72.6008 38.0954 72.5108 38.3821 72.3308C38.6754 72.1508 38.9054 71.9042 39.0721 71.5908C39.2454 71.2775 39.3321 70.9275 39.3321 70.5408C39.3321 70.1542 39.2454 69.8075 39.0721 69.5008C38.9054 69.1942 38.6754 68.9508 38.3821 68.7708C38.0954 68.5908 37.7721 68.5008 37.4121 68.5008C37.0521 68.5008 36.7254 68.5908 36.4321 68.7708C36.1454 68.9508 35.9154 69.1942 35.7421 69.5008C35.5687 69.8075 35.4821 70.1542 35.4821 70.5408C35.4821 70.9275 35.5687 71.2775 35.7421 71.5908C35.9154 71.9042 36.1454 72.1508 36.4321 72.3308C36.7254 72.5108 37.0521 72.6008 37.4121 72.6008ZM41.4548 73.2308V67.8708H42.2048V68.9108L42.0348 68.8708C42.1681 68.5242 42.3848 68.2508 42.6848 68.0508C42.9915 67.8508 43.3448 67.7508 43.7448 67.7508C44.1248 67.7508 44.4648 67.8375 44.7648 68.0108C45.0715 68.1842 45.3115 68.4242 45.4848 68.7308C45.6648 69.0308 45.7548 69.3708 45.7548 69.7508V73.2308H45.0048V70.0408C45.0048 69.7142 44.9448 69.4375 44.8248 69.2108C44.7115 68.9842 44.5481 68.8108 44.3348 68.6908C44.1281 68.5642 43.8881 68.5008 43.6148 68.5008C43.3415 68.5008 43.0981 68.5642 42.8848 68.6908C42.6715 68.8108 42.5048 68.9875 42.3848 69.2208C42.2648 69.4475 42.2048 69.7208 42.2048 70.0408V73.2308H41.4548ZM49.2372 73.2908C48.7572 73.2908 48.3872 73.1508 48.1272 72.8708C47.8672 72.5908 47.7372 72.1908 47.7372 71.6708V68.6208H46.7472V67.8708H46.9972C47.2239 67.8708 47.4039 67.7975 47.5372 67.6508C47.6706 67.4975 47.7372 67.3075 47.7372 67.0808V66.6308H48.4872V67.8708H49.6672V68.6208H48.4872V71.6708C48.4872 71.8508 48.5139 72.0108 48.5672 72.1508C48.6206 72.2842 48.7106 72.3908 48.8372 72.4708C48.9706 72.5508 49.1472 72.5908 49.3672 72.5908C49.4206 72.5908 49.4839 72.5875 49.5572 72.5808C49.6306 72.5742 49.6939 72.5675 49.7472 72.5608V73.2308C49.6672 73.2508 49.5772 73.2642 49.4772 73.2708C49.3772 73.2842 49.2972 73.2908 49.2372 73.2908ZM51.0642 73.2308V65.6608H51.8142V68.9108L51.6442 68.8708C51.7775 68.5242 51.9942 68.2508 52.2942 68.0508C52.6009 67.8508 52.9542 67.7508 53.3542 67.7508C53.7342 67.7508 54.0742 67.8375 54.3742 68.0108C54.6809 68.1842 54.9209 68.4242 55.0942 68.7308C55.2742 69.0308 55.3642 69.3708 55.3642 69.7508V73.2308H54.6142V70.0408C54.6142 69.7142 54.5542 69.4375 54.4342 69.2108C54.3142 68.9842 54.1475 68.8108 53.9342 68.6908C53.7275 68.5642 53.4909 68.5008 53.2242 68.5008C52.9575 68.5008 52.7175 68.5642 52.5042 68.6908C52.2909 68.8108 52.1209 68.9875 51.9942 69.2208C51.8742 69.4475 51.8142 69.7208 51.8142 70.0408V73.2308H51.0642Z" fill="#979797"/>
<g clip-path="url(#clip1_21_918)">
<path d="M69.1671 97.4741V342.539H2.0769V102.712L4.04717 101.915L4.24972 101.842L4.40623 101.778C4.74689 101.65 5.32692 101.439 6.15553 101.174L6.77239 100.981L7.43528 100.771L8.07055 100.588L8.62296 100.423L9.25823 100.249L9.90271 100.075C10.8909 99.8122 11.9957 99.5375 13.2172 99.2506L13.8248 99.1132C14.9204 98.8751 16.0989 98.6279 17.3602 98.3898C18.6216 98.1517 20.1959 97.877 21.7611 97.6389L23.2526 97.4283H23.4275L24.7717 97.2543L25.3057 97.181L26.5302 97.0345L27.856 96.8422L30.0657 96.6225C33.8957 96.2653 38.1401 96.0272 42.7619 95.9631H45.1649C46.4538 95.9631 47.7428 95.9631 49.0502 96.0089L51.0204 96.0639L52.9907 96.1371L55.4305 96.2562H56.0289L58.2938 96.4027L60.9638 96.6133C62.7499 96.7659 64.536 96.943 66.3222 97.1444L68.7159 97.41H69.1118L69.1671 97.4741Z" fill="#7A7A7A"/>
<path d="M78.9998 112.464V342.538H69.1577V88.2893L70.0324 88.9212L71.6988 90.1299V99.1131C71.6998 103.073 73.1871 106.891 75.8695 109.818C76.7923 110.832 77.8447 111.722 78.9998 112.464Z" fill="#A7A7A7"/>
<path opacity="0.6" d="M17.3605 97.4741V342.539H6.15576V99.5894C9.08353 98.9026 12.8307 98.1243 17.3605 97.4741Z" fill="#F9FFD2"/>
<path opacity="0.6" d="M26.521 96.4667V342.538H23.2065V96.7505L26.521 96.4667Z" fill="#F9FFD2"/>
<path d="M69.1671 88.2985V97.4557L66.405 97.1444C59.3748 96.3463 52.3052 95.9397 45.2293 95.9265C19.2292 95.9265 4.71926 101.659 4.08399 101.906L2.0769 102.712V93.5548L4.04717 92.7581C4.65482 92.5017 19.1924 86.7693 45.1925 86.7693C52.2684 86.7825 59.338 87.1891 66.3682 87.9872L69.1671 88.2985Z" fill="#797979"/>
<path d="M69.9865 135.916L69.6827 138.663L69.1671 138.608L66.8378 138.352C59.7028 137.553 52.529 137.146 45.349 137.134C19.0543 137.134 4.47068 142.784 3.86303 143.022L2.0769 143.727V140.742L2.83186 140.449C3.45793 140.201 18.5203 134.387 45.349 134.387C52.627 134.399 59.8988 134.806 67.1324 135.605L69.1579 135.833L69.9865 135.916Z" fill="#A7A7A7"/>
<path d="M69.9865 171.409L69.6827 174.156L69.1671 174.101L66.8378 173.845C59.7021 173.057 52.5285 172.657 45.349 172.645C19.0543 172.645 4.47068 178.286 3.86303 178.524L2.0769 179.257V176.244L2.83186 175.942C3.45793 175.695 18.4835 169.871 45.349 169.871C52.6273 169.882 59.8994 170.292 67.1324 171.098L69.1579 171.318L69.9865 171.409Z" fill="#A7A7A7"/>
<path d="M69.9865 206.902L69.6827 209.649L69.1671 209.595L66.8378 209.329C59.7018 208.547 52.5282 208.152 45.349 208.148C19.1095 208.148 4.47068 213.779 3.86303 214.017L2.0769 214.723V211.737L2.83186 211.435C3.46714 211.188 18.5755 205.364 45.349 205.364C52.6273 205.375 59.8994 205.785 67.1324 206.591L69.1579 206.811L69.9865 206.902Z" fill="#A7A7A7"/>
<path d="M69.9865 242.441L69.6827 245.189L69.1671 245.134L66.8378 244.877C59.7032 244.072 52.5293 243.66 45.349 243.641C19.0543 243.641 4.47068 249.273 3.86303 249.52L2.0769 250.216V247.231L2.83186 246.938C3.45793 246.69 18.4835 240.866 45.349 240.866C52.627 240.879 59.8988 241.286 67.1324 242.084L69.1579 242.313L69.9865 242.441Z" fill="#A7A7A7"/>
<path d="M69.9865 277.898L69.6827 280.645L69.1671 280.59L66.8378 280.334C59.7021 279.545 52.5285 279.145 45.349 279.134C19.1003 279.134 4.47068 284.775 3.86303 285.013L2.0769 285.709V282.733L2.83186 282.431C3.46714 282.184 18.5755 276.323 45.349 276.323C52.6273 276.334 59.8994 276.743 67.1324 277.55L69.1579 277.77L69.9865 277.898Z" fill="#A7A7A7"/>
<path d="M69.9865 313.391L69.6827 316.138L69.1671 316.083L66.8378 315.818C59.7018 315.036 52.5282 314.641 45.349 314.637C19.0543 314.637 4.47068 320.268 3.86303 320.506L2.0769 321.193V318.208L2.83186 317.906C3.45793 317.658 18.4835 311.834 45.349 311.834C52.6273 311.846 59.8994 312.255 67.1324 313.062L69.1579 313.281L69.9865 313.391Z" fill="#A7A7A7"/>
</g>
<defs>
<clipPath id="clip0_21_918">
<rect width="16" height="16" fill="white" transform="translate(32.5383 6.4231)"/>
</clipPath>
<clipPath id="clip1_21_918">
<rect width="76.9231" height="255.769" fill="white" transform="translate(2.0769 86.7693)"/>
</clipPath>
</defs>
</svg>
