<svg width="81" height="343" viewBox="0 0 81 343" fill="none" xmlns="http://www.w3.org/2000/svg">
<rect x="26.5385" y="0.653839" width="28" height="28" rx="14" fill="white"/>
<g clip-path="url(#clip0_112_511)">
<path d="M38.2292 14.9479C36.9605 14.9479 35.9355 15.9729 35.9542 17.2291C35.9667 18.0354 36.4105 18.7354 37.0636 19.126C36.8417 18.7854 36.7105 18.3823 36.7042 17.9479C36.6855 16.6916 37.7105 15.6666 38.9792 15.6666C39.2292 15.6666 39.4699 15.7073 39.6949 15.7791V13.2635C39.4605 13.2291 39.2199 13.2104 38.9792 13.2104C38.9667 13.2104 38.9574 13.2104 38.9449 13.2104V15.0604C38.7199 14.9885 38.4792 14.9479 38.2292 14.9479Z" fill="#F00044"/>
<path d="M43.7135 7.40405H43.6948H43.0448C43.2323 8.34468 43.7604 9.16343 44.4979 9.71968C44.0135 9.07905 43.7198 8.27905 43.7135 7.40405Z" fill="#F00044"/>
<path d="M47.5386 11.2321C47.2917 11.2321 47.0542 11.2071 46.8198 11.1634V12.9665C45.9699 12.9665 45.1448 12.8009 44.3698 12.4696C43.8698 12.2571 43.4042 11.9852 42.9761 11.6571L42.9886 17.2165C42.9823 18.4665 42.4886 19.6384 41.5948 20.5227C40.8667 21.2415 39.9448 21.7009 38.9448 21.8477C38.7105 21.8821 38.4698 21.9009 38.2292 21.9009C37.1605 21.9009 36.1417 21.554 35.3136 20.9134C35.4073 21.0259 35.5073 21.1352 35.6167 21.2415C36.5167 22.129 37.7105 22.6196 38.9823 22.6196C39.223 22.6196 39.4636 22.6009 39.698 22.5665C40.698 22.4196 41.6198 21.9602 42.348 21.2415C43.2417 20.3571 43.7355 19.1852 43.7417 17.9352L43.6948 12.3759C44.1199 12.704 44.5855 12.979 45.0886 13.1884C45.8667 13.5165 46.6917 13.6852 47.5386 13.6852" fill="#F00044"/>
<path d="M35.6074 14.5946C36.498 13.7103 37.6824 13.2196 38.9449 13.2103V12.5446C38.7105 12.5103 38.4699 12.4915 38.2292 12.4915C36.9542 12.4915 35.7574 12.9821 34.8574 13.8759C33.973 14.754 33.4667 15.954 33.4699 17.2009C33.4699 18.4571 33.9667 19.6353 34.8636 20.5259C35.0074 20.6665 35.1542 20.7978 35.3105 20.9165C34.6042 20.0759 34.2199 19.0259 34.2167 17.9196C34.2199 16.6728 34.723 15.4728 35.6074 14.5946Z" fill="#08FFF9"/>
<path d="M46.8197 11.1634V10.4946H46.8135C45.9447 10.4946 45.1447 10.2071 44.501 9.71964C45.0604 10.4571 45.8791 10.9821 46.8197 11.1634Z" fill="#08FFF9"/>
<path d="M38.8511 20.1602C39.148 20.1758 39.4323 20.1352 39.6948 20.0508C40.6011 19.7539 41.2542 18.9102 41.2542 17.9164L41.2573 14.1977V7.40393H43.0448C42.998 7.16956 42.973 6.93206 42.9698 6.68518H40.5073V13.4758L40.5042 17.1946C40.5042 18.1883 39.8511 19.0321 38.9448 19.3289C38.6823 19.4164 38.398 19.4571 38.1011 19.4383C37.723 19.4164 37.3698 19.3039 37.0636 19.1227C37.448 19.7164 38.1042 20.1196 38.8511 20.1602Z" fill="#08FFF9"/>
<path d="M38.9449 21.8477C39.9449 21.7009 40.8667 21.2415 41.5949 20.5227C42.4886 19.6384 42.9824 18.4665 42.9886 17.2165L42.9761 11.6571C43.4011 11.9852 43.8667 12.2602 44.3699 12.4696C45.148 12.7977 45.973 12.9665 46.8199 12.9665V11.1634C45.8792 10.9821 45.0605 10.4571 44.5011 9.71962C43.7636 9.16337 43.2324 8.34462 43.048 7.40399H41.2574V14.1946L41.2542 17.9134C41.2542 18.9071 40.6011 19.7509 39.6949 20.0477C39.4324 20.1352 39.148 20.1759 38.8511 20.1571C38.1011 20.1165 37.448 19.7134 37.0636 19.1227C36.4105 18.7352 35.9667 18.0321 35.9542 17.2259C35.9355 15.9696 36.9605 14.9446 38.2292 14.9446C38.4792 14.9446 38.7199 14.9852 38.9449 15.0571V13.2071C37.6824 13.2165 36.498 13.7071 35.6074 14.5915C34.723 15.4696 34.2167 16.6696 34.2199 17.9134C34.2199 19.0196 34.6042 20.0696 35.3136 20.9102C36.1449 21.5509 37.1605 21.8977 38.2292 21.8977C38.4699 21.9009 38.7105 21.8821 38.9449 21.8477Z" fill="black"/>
</g>
<path d="M26.8264 45.4615V44.2731L29.1572 41.8385C29.6187 41.3539 29.9726 40.9692 30.2187 40.6846C30.4726 40.3923 30.6495 40.1423 30.7495 39.9346C30.8495 39.7269 30.8995 39.5154 30.8995 39.3C30.8995 38.9385 30.7841 38.6539 30.5534 38.4462C30.3303 38.2385 30.0418 38.1346 29.688 38.1346C29.3187 38.1346 28.9995 38.2423 28.7303 38.4577C28.461 38.6654 28.2649 38.9731 28.1418 39.3808L26.7687 38.9539C26.861 38.5 27.0495 38.1077 27.3341 37.7769C27.6187 37.4385 27.9649 37.1808 28.3726 37.0039C28.788 36.8192 29.2264 36.7269 29.688 36.7269C30.2418 36.7269 30.7264 36.8269 31.1418 37.0269C31.5649 37.2269 31.8918 37.5077 32.1226 37.8692C32.361 38.2308 32.4803 38.6539 32.4803 39.1385C32.4803 39.4462 32.4226 39.75 32.3072 40.05C32.1918 40.35 32.0187 40.6577 31.788 40.9731C31.5572 41.2808 31.2572 41.6269 30.888 42.0115L28.8687 44.1346H32.5957V45.4615H26.8264ZM34.5997 45.4615V43.8462H36.1227V45.4615H34.5997ZM38.6258 45.4615L41.545 41.7L41.8104 41.9769C41.695 42.0615 41.5835 42.1308 41.4758 42.1846C41.3681 42.2385 41.2527 42.2769 41.1296 42.3C41.0065 42.3231 40.8758 42.3346 40.7373 42.3346C40.2142 42.3346 39.7488 42.2154 39.3412 41.9769C38.9335 41.7385 38.6104 41.4154 38.3719 41.0077C38.1412 40.5923 38.0258 40.1231 38.0258 39.6C38.0258 39.0462 38.1527 38.5539 38.4065 38.1231C38.6681 37.6923 39.0219 37.3539 39.4681 37.1077C39.9219 36.8539 40.4373 36.7269 41.0142 36.7269C41.5988 36.7269 42.1142 36.85 42.5604 37.0962C43.0065 37.3423 43.3565 37.6808 43.6104 38.1115C43.8719 38.5346 44.0027 39.0231 44.0027 39.5769C44.0027 39.8539 43.9719 40.1308 43.9104 40.4077C43.8488 40.6846 43.7373 40.9808 43.5758 41.2962C43.4219 41.6039 43.1988 41.9539 42.9065 42.3462L40.5065 45.4615H38.6258ZM41.0142 41.0192C41.2835 41.0192 41.5219 40.9615 41.7296 40.8462C41.945 40.7231 42.1142 40.5539 42.2373 40.3385C42.3604 40.1154 42.4219 39.8654 42.4219 39.5885C42.4219 39.2962 42.3565 39.0423 42.2258 38.8269C42.1027 38.6115 41.9373 38.4423 41.7296 38.3192C41.5219 38.1962 41.2835 38.1346 41.0142 38.1346C40.7527 38.1346 40.5142 38.1962 40.2988 38.3192C40.0835 38.4423 39.9104 38.6115 39.7796 38.8269C39.6565 39.0423 39.595 39.2962 39.595 39.5885C39.595 39.8654 39.6565 40.1154 39.7796 40.3385C39.9104 40.5539 40.0835 40.7231 40.2988 40.8462C40.5142 40.9615 40.7527 41.0192 41.0142 41.0192ZM45.313 45.4615V36.8654H46.813L50.0323 41.2385H49.3169L52.4669 36.8654H53.9669V45.4615H52.3861V38.6539L52.9976 38.8039L49.7323 43.1539H49.5476L46.363 38.8039L46.8823 38.6539V45.4615H45.313Z" fill="white"/>
<path d="M13.0509 60.5815C12.5242 60.5815 12.0409 60.4882 11.6009 60.3015C11.1609 60.1082 10.7775 59.8415 10.4509 59.5015C10.1309 59.1549 9.88087 58.7482 9.70087 58.2815C9.52087 57.8149 9.43087 57.3015 9.43087 56.7415C9.43087 56.1815 9.52087 55.6682 9.70087 55.2015C9.88087 54.7349 10.1309 54.3282 10.4509 53.9815C10.7775 53.6349 11.1609 53.3682 11.6009 53.1815C12.0409 52.9882 12.5242 52.8915 13.0509 52.8915C13.5575 52.8915 14.0109 52.9815 14.4109 53.1615C14.8175 53.3415 15.1575 53.5749 15.4309 53.8615C15.7109 54.1415 15.9109 54.4382 16.0309 54.7515L15.2809 55.0815C15.0942 54.6482 14.8075 54.3015 14.4209 54.0415C14.0409 53.7749 13.5842 53.6415 13.0509 53.6415C12.5042 53.6415 12.0175 53.7715 11.5909 54.0315C11.1642 54.2915 10.8309 54.6549 10.5909 55.1215C10.3509 55.5815 10.2309 56.1215 10.2309 56.7415C10.2309 57.3549 10.3509 57.8949 10.5909 58.3615C10.8309 58.8282 11.1642 59.1915 11.5909 59.4515C12.0175 59.7049 12.5042 59.8315 13.0509 59.8315C13.5842 59.8315 14.0409 59.7015 14.4209 59.4415C14.8075 59.1815 15.0942 58.8349 15.2809 58.4015L16.0309 58.7315C15.9109 59.0382 15.7109 59.3349 15.4309 59.6215C15.1575 59.9015 14.8175 60.1315 14.4109 60.3115C14.0109 60.4915 13.5575 60.5815 13.0509 60.5815ZM19.7657 60.5815C19.2591 60.5815 18.7991 60.4615 18.3857 60.2215C17.9724 59.9749 17.6424 59.6415 17.3957 59.2215C17.1557 58.7949 17.0357 58.3115 17.0357 57.7715C17.0357 57.2382 17.1557 56.7615 17.3957 56.3415C17.6357 55.9215 17.9591 55.5915 18.3657 55.3515C18.7791 55.1049 19.2457 54.9815 19.7657 54.9815C20.2857 54.9815 20.7491 55.1015 21.1557 55.3415C21.5691 55.5815 21.8924 55.9115 22.1257 56.3315C22.3657 56.7515 22.4857 57.2315 22.4857 57.7715C22.4857 58.3182 22.3624 58.8049 22.1157 59.2315C21.8691 59.6515 21.5391 59.9815 21.1257 60.2215C20.7191 60.4615 20.2657 60.5815 19.7657 60.5815ZM19.7657 59.8315C20.1257 59.8315 20.4491 59.7415 20.7357 59.5615C21.0291 59.3815 21.2591 59.1349 21.4257 58.8215C21.5991 58.5082 21.6857 58.1582 21.6857 57.7715C21.6857 57.3849 21.5991 57.0382 21.4257 56.7315C21.2591 56.4249 21.0291 56.1815 20.7357 56.0015C20.4491 55.8215 20.1257 55.7315 19.7657 55.7315C19.4057 55.7315 19.0791 55.8215 18.7857 56.0015C18.4991 56.1815 18.2691 56.4249 18.0957 56.7315C17.9224 57.0382 17.8357 57.3849 17.8357 57.7715C17.8357 58.1582 17.9224 58.5082 18.0957 58.8215C18.2691 59.1349 18.4991 59.3815 18.7857 59.5615C19.0791 59.7415 19.4057 59.8315 19.7657 59.8315ZM23.8085 60.4615V55.1015H24.5585V56.1415L24.3885 56.1015C24.5218 55.7549 24.7385 55.4815 25.0385 55.2815C25.3451 55.0815 25.6985 54.9815 26.0985 54.9815C26.4785 54.9815 26.8185 55.0682 27.1185 55.2415C27.4251 55.4149 27.6651 55.6549 27.8385 55.9615C28.0185 56.2615 28.1085 56.6015 28.1085 56.9815V60.4615H27.3585V57.2715C27.3585 56.9449 27.2985 56.6682 27.1785 56.4415C27.0651 56.2149 26.9018 56.0415 26.6885 55.9215C26.4818 55.7949 26.2418 55.7315 25.9685 55.7315C25.6951 55.7315 25.4518 55.7949 25.2385 55.9215C25.0251 56.0415 24.8585 56.2182 24.7385 56.4515C24.6185 56.6782 24.5585 56.9515 24.5585 57.2715V60.4615H23.8085ZM30.8732 60.4615L28.7832 55.1015H29.6232L31.3832 59.8015H31.1132L32.8832 55.1015H33.7332L31.6232 60.4615H30.8732ZM36.9516 60.5815C36.4516 60.5815 35.9982 60.4615 35.5916 60.2215C35.1916 59.9749 34.8749 59.6382 34.6416 59.2115C34.4082 58.7849 34.2916 58.3015 34.2916 57.7615C34.2916 57.2215 34.4049 56.7449 34.6316 56.3315C34.8582 55.9115 35.1649 55.5815 35.5516 55.3415C35.9449 55.1015 36.3849 54.9815 36.8716 54.9815C37.2582 54.9815 37.6016 55.0549 37.9016 55.2015C38.2082 55.3415 38.4682 55.5349 38.6816 55.7815C38.8949 56.0215 39.0582 56.2949 39.1716 56.6015C39.2849 56.9015 39.3416 57.2115 39.3416 57.5315C39.3416 57.5982 39.3382 57.6749 39.3316 57.7615C39.3249 57.8415 39.3149 57.9249 39.3016 58.0115H34.7716V57.3115H38.8716L38.5116 57.6115C38.5716 57.2449 38.5282 56.9182 38.3816 56.6315C38.2416 56.3382 38.0382 56.1082 37.7716 55.9415C37.5049 55.7682 37.2049 55.6815 36.8716 55.6815C36.5382 55.6815 36.2282 55.7682 35.9416 55.9415C35.6616 56.1149 35.4416 56.3582 35.2816 56.6715C35.1216 56.9782 35.0582 57.3449 35.0916 57.7715C35.0582 58.1982 35.1249 58.5715 35.2916 58.8915C35.4649 59.2049 35.6982 59.4482 35.9916 59.6215C36.2916 59.7949 36.6116 59.8815 36.9516 59.8815C37.3449 59.8815 37.6749 59.7882 37.9416 59.6015C38.2082 59.4149 38.4249 59.1815 38.5916 58.9015L39.2316 59.2415C39.1249 59.4815 38.9616 59.7049 38.7416 59.9115C38.5216 60.1115 38.2582 60.2749 37.9516 60.4015C37.6516 60.5215 37.3182 60.5815 36.9516 60.5815ZM40.6639 60.4615V55.1015H41.4139V55.9815L41.3139 55.8515C41.4406 55.5982 41.6306 55.3982 41.8839 55.2515C42.1439 55.1049 42.4573 55.0315 42.8239 55.0315H43.1639V55.7815H42.6939C42.3073 55.7815 41.9973 55.9015 41.7639 56.1415C41.5306 56.3815 41.4139 56.7215 41.4139 57.1615V60.4615H40.6639ZM45.9028 60.5815C45.3895 60.5815 44.9395 60.4515 44.5528 60.1915C44.1662 59.9315 43.8862 59.5782 43.7128 59.1315L44.3428 58.8315C44.4962 59.1582 44.7095 59.4182 44.9828 59.6115C45.2628 59.8049 45.5695 59.9015 45.9028 59.9015C46.2228 59.9015 46.4928 59.8249 46.7128 59.6715C46.9328 59.5115 47.0428 59.3049 47.0428 59.0515C47.0428 58.8649 46.9895 58.7182 46.8828 58.6115C46.7762 58.4982 46.6528 58.4115 46.5128 58.3515C46.3728 58.2915 46.2495 58.2482 46.1428 58.2215L45.3728 58.0015C44.8795 57.8615 44.5228 57.6649 44.3028 57.4115C44.0828 57.1582 43.9728 56.8649 43.9728 56.5315C43.9728 56.2182 44.0528 55.9449 44.2128 55.7115C44.3728 55.4782 44.5895 55.2982 44.8628 55.1715C45.1362 55.0449 45.4395 54.9815 45.7728 54.9815C46.2262 54.9815 46.6362 55.1015 47.0028 55.3415C47.3762 55.5749 47.6395 55.9015 47.7928 56.3215L47.1528 56.6215C47.0195 56.3215 46.8262 56.0882 46.5728 55.9215C46.3262 55.7482 46.0495 55.6615 45.7428 55.6615C45.4428 55.6615 45.2028 55.7382 45.0228 55.8915C44.8428 56.0449 44.7528 56.2382 44.7528 56.4715C44.7528 56.6515 44.7995 56.7949 44.8928 56.9015C44.9862 57.0082 45.0928 57.0882 45.2128 57.1415C45.3395 57.1949 45.4495 57.2349 45.5428 57.2615L46.4328 57.5215C46.8662 57.6482 47.2028 57.8449 47.4428 58.1115C47.6895 58.3782 47.8128 58.6915 47.8128 59.0515C47.8128 59.3449 47.7295 59.6082 47.5628 59.8415C47.4028 60.0749 47.1795 60.2582 46.8928 60.3915C46.6062 60.5182 46.2762 60.5815 45.9028 60.5815ZM49.1307 60.4615V55.1015H49.8807V60.4615H49.1307ZM49.1307 54.1115V53.0115H49.8807V54.1115H49.1307ZM53.9259 60.5815C53.4192 60.5815 52.9592 60.4615 52.5459 60.2215C52.1325 59.9749 51.8025 59.6415 51.5559 59.2215C51.3159 58.7949 51.1959 58.3115 51.1959 57.7715C51.1959 57.2382 51.3159 56.7615 51.5559 56.3415C51.7959 55.9215 52.1192 55.5915 52.5259 55.3515C52.9392 55.1049 53.4059 54.9815 53.9259 54.9815C54.4459 54.9815 54.9092 55.1015 55.3159 55.3415C55.7292 55.5815 56.0525 55.9115 56.2859 56.3315C56.5259 56.7515 56.6459 57.2315 56.6459 57.7715C56.6459 58.3182 56.5225 58.8049 56.2759 59.2315C56.0292 59.6515 55.6992 59.9815 55.2859 60.2215C54.8792 60.4615 54.4259 60.5815 53.9259 60.5815ZM53.9259 59.8315C54.2859 59.8315 54.6092 59.7415 54.8959 59.5615C55.1892 59.3815 55.4192 59.1349 55.5859 58.8215C55.7592 58.5082 55.8459 58.1582 55.8459 57.7715C55.8459 57.3849 55.7592 57.0382 55.5859 56.7315C55.4192 56.4249 55.1892 56.1815 54.8959 56.0015C54.6092 55.8215 54.2859 55.7315 53.9259 55.7315C53.5659 55.7315 53.2392 55.8215 52.9459 56.0015C52.6592 56.1815 52.4292 56.4249 52.2559 56.7315C52.0825 57.0382 51.9959 57.3849 51.9959 57.7715C51.9959 58.1582 52.0825 58.5082 52.2559 58.8215C52.4292 59.1349 52.6592 59.3815 52.9459 59.5615C53.2392 59.7415 53.5659 59.8315 53.9259 59.8315ZM57.9686 60.4615V55.1015H58.7186V56.1415L58.5486 56.1015C58.6819 55.7549 58.8986 55.4815 59.1986 55.2815C59.5053 55.0815 59.8586 54.9815 60.2586 54.9815C60.6386 54.9815 60.9786 55.0682 61.2786 55.2415C61.5853 55.4149 61.8253 55.6549 61.9986 55.9615C62.1786 56.2615 62.2686 56.6015 62.2686 56.9815V60.4615H61.5186V57.2715C61.5186 56.9449 61.4586 56.6682 61.3386 56.4415C61.2253 56.2149 61.0619 56.0415 60.8486 55.9215C60.6419 55.7949 60.4019 55.7315 60.1286 55.7315C59.8553 55.7315 59.6119 55.7949 59.3986 55.9215C59.1853 56.0415 59.0186 56.2182 58.8986 56.4515C58.7786 56.6782 58.7186 56.9515 58.7186 57.2715V60.4615H57.9686ZM65.561 60.5815C65.0477 60.5815 64.5977 60.4515 64.211 60.1915C63.8244 59.9315 63.5444 59.5782 63.371 59.1315L64.001 58.8315C64.1544 59.1582 64.3677 59.4182 64.641 59.6115C64.921 59.8049 65.2277 59.9015 65.561 59.9015C65.881 59.9015 66.151 59.8249 66.371 59.6715C66.591 59.5115 66.701 59.3049 66.701 59.0515C66.701 58.8649 66.6477 58.7182 66.541 58.6115C66.4344 58.4982 66.311 58.4115 66.171 58.3515C66.031 58.2915 65.9077 58.2482 65.801 58.2215L65.031 58.0015C64.5377 57.8615 64.181 57.6649 63.961 57.4115C63.741 57.1582 63.631 56.8649 63.631 56.5315C63.631 56.2182 63.711 55.9449 63.871 55.7115C64.031 55.4782 64.2477 55.2982 64.521 55.1715C64.7944 55.0449 65.0977 54.9815 65.431 54.9815C65.8844 54.9815 66.2944 55.1015 66.661 55.3415C67.0344 55.5749 67.2977 55.9015 67.451 56.3215L66.811 56.6215C66.6777 56.3215 66.4844 56.0882 66.231 55.9215C65.9844 55.7482 65.7077 55.6615 65.401 55.6615C65.101 55.6615 64.861 55.7382 64.681 55.8915C64.501 56.0449 64.411 56.2382 64.411 56.4715C64.411 56.6515 64.4577 56.7949 64.551 56.9015C64.6444 57.0082 64.751 57.0882 64.871 57.1415C64.9977 57.1949 65.1077 57.2349 65.201 57.2615L66.091 57.5215C66.5244 57.6482 66.861 57.8449 67.101 58.1115C67.3477 58.3782 67.471 58.6915 67.471 59.0515C67.471 59.3449 67.3877 59.6082 67.221 59.8415C67.061 60.0749 66.8377 60.2582 66.551 60.3915C66.2644 60.5182 65.9344 60.5815 65.561 60.5815ZM68.0389 61.6615L71.4189 53.4215H72.2889L68.9089 61.6615H68.0389ZM25.8202 73.4615V68.1015H26.5702V69.1215L26.4502 68.9715C26.5968 68.6582 26.8135 68.4149 27.1002 68.2415C27.3935 68.0682 27.7135 67.9815 28.0602 67.9815C28.4735 67.9815 28.8468 68.0982 29.1802 68.3315C29.5135 68.5649 29.7502 68.8682 29.8902 69.2415L29.6802 69.2515C29.8135 68.8382 30.0435 68.5249 30.3702 68.3115C30.7035 68.0915 31.0702 67.9815 31.4702 67.9815C31.8302 67.9815 32.1602 68.0682 32.4602 68.2415C32.7668 68.4149 33.0102 68.6549 33.1902 68.9615C33.3768 69.2615 33.4702 69.6015 33.4702 69.9815V73.4615H32.7202V70.2715C32.7202 69.9449 32.6602 69.6682 32.5402 69.4415C32.4268 69.2149 32.2702 69.0415 32.0702 68.9215C31.8702 68.7949 31.6402 68.7315 31.3802 68.7315C31.1268 68.7315 30.8968 68.7949 30.6902 68.9215C30.4835 69.0415 30.3202 69.2182 30.2002 69.4515C30.0802 69.6782 30.0202 69.9515 30.0202 70.2715V73.4615H29.2702V70.2715C29.2702 69.9449 29.2102 69.6682 29.0902 69.4415C28.9768 69.2149 28.8202 69.0415 28.6202 68.9215C28.4202 68.7949 28.1902 68.7315 27.9302 68.7315C27.6702 68.7315 27.4368 68.7949 27.2302 68.9215C27.0302 69.0415 26.8702 69.2182 26.7502 69.4515C26.6302 69.6782 26.5702 69.9515 26.5702 70.2715V73.4615H25.8202ZM37.4122 73.5815C36.9055 73.5815 36.4455 73.4615 36.0322 73.2215C35.6189 72.9749 35.2889 72.6415 35.0422 72.2215C34.8022 71.7949 34.6822 71.3115 34.6822 70.7715C34.6822 70.2382 34.8022 69.7615 35.0422 69.3415C35.2822 68.9215 35.6055 68.5915 36.0122 68.3515C36.4255 68.1049 36.8922 67.9815 37.4122 67.9815C37.9322 67.9815 38.3955 68.1015 38.8022 68.3415C39.2155 68.5815 39.5389 68.9115 39.7722 69.3315C40.0122 69.7515 40.1322 70.2315 40.1322 70.7715C40.1322 71.3182 40.0089 71.8049 39.7622 72.2315C39.5155 72.6515 39.1855 72.9815 38.7722 73.2215C38.3655 73.4615 37.9122 73.5815 37.4122 73.5815ZM37.4122 72.8315C37.7722 72.8315 38.0955 72.7415 38.3822 72.5615C38.6755 72.3815 38.9055 72.1349 39.0722 71.8215C39.2455 71.5082 39.3322 71.1582 39.3322 70.7715C39.3322 70.3849 39.2455 70.0382 39.0722 69.7315C38.9055 69.4249 38.6755 69.1815 38.3822 69.0015C38.0955 68.8215 37.7722 68.7315 37.4122 68.7315C37.0522 68.7315 36.7255 68.8215 36.4322 69.0015C36.1455 69.1815 35.9155 69.4249 35.7422 69.7315C35.5689 70.0382 35.4822 70.3849 35.4822 70.7715C35.4822 71.1582 35.5689 71.5082 35.7422 71.8215C35.9155 72.1349 36.1455 72.3815 36.4322 72.5615C36.7255 72.7415 37.0522 72.8315 37.4122 72.8315ZM41.4549 73.4615V68.1015H42.2049V69.1415L42.0349 69.1015C42.1683 68.7549 42.3849 68.4815 42.6849 68.2815C42.9916 68.0815 43.3449 67.9815 43.7449 67.9815C44.1249 67.9815 44.4649 68.0682 44.7649 68.2415C45.0716 68.4149 45.3116 68.6549 45.4849 68.9615C45.6649 69.2615 45.7549 69.6015 45.7549 69.9815V73.4615H45.0049V70.2715C45.0049 69.9449 44.9449 69.6682 44.8249 69.4415C44.7116 69.2149 44.5483 69.0415 44.3349 68.9215C44.1283 68.7949 43.8883 68.7315 43.6149 68.7315C43.3416 68.7315 43.0983 68.7949 42.8849 68.9215C42.6716 69.0415 42.5049 69.2182 42.3849 69.4515C42.2649 69.6782 42.2049 69.9515 42.2049 70.2715V73.4615H41.4549ZM49.2374 73.5215C48.7574 73.5215 48.3874 73.3815 48.1274 73.1015C47.8674 72.8215 47.7374 72.4215 47.7374 71.9015V68.8515H46.7474V68.1015H46.9974C47.224 68.1015 47.404 68.0282 47.5374 67.8815C47.6707 67.7282 47.7374 67.5382 47.7374 67.3115V66.8615H48.4874V68.1015H49.6674V68.8515H48.4874V71.9015C48.4874 72.0815 48.514 72.2415 48.5674 72.3815C48.6207 72.5149 48.7107 72.6215 48.8374 72.7015C48.9707 72.7815 49.1474 72.8215 49.3674 72.8215C49.4207 72.8215 49.484 72.8182 49.5574 72.8115C49.6307 72.8049 49.694 72.7982 49.7474 72.7915V73.4615C49.6674 73.4815 49.5774 73.4949 49.4774 73.5015C49.3774 73.5149 49.2974 73.5215 49.2374 73.5215ZM51.0643 73.4615V65.8915H51.8143V69.1415L51.6443 69.1015C51.7776 68.7549 51.9943 68.4815 52.2943 68.2815C52.601 68.0815 52.9543 67.9815 53.3543 67.9815C53.7343 67.9815 54.0743 68.0682 54.3743 68.2415C54.681 68.4149 54.921 68.6549 55.0943 68.9615C55.2743 69.2615 55.3643 69.6015 55.3643 69.9815V73.4615H54.6143V70.2715C54.6143 69.9449 54.5543 69.6682 54.4343 69.4415C54.3143 69.2149 54.1476 69.0415 53.9343 68.9215C53.7276 68.7949 53.491 68.7315 53.2243 68.7315C52.9576 68.7315 52.7176 68.7949 52.5043 68.9215C52.291 69.0415 52.121 69.2182 51.9943 69.4515C51.8743 69.6782 51.8143 69.9515 51.8143 70.2715V73.4615H51.0643Z" fill="white"/>
<g clip-path="url(#clip1_112_511)">
<path d="M69.167 97.7048V342.769H2.07678V102.943L4.04704 102.146L4.24959 102.073L4.40611 102.009C4.74676 101.88 5.32679 101.67 6.15541 101.404L6.77227 101.212L7.43516 101.001L8.07043 100.818L8.62284 100.653L9.25811 100.479L9.90259 100.305C10.8908 100.043 11.9956 99.7682 13.217 99.4813L13.8247 99.3439C14.9203 99.1058 16.0988 98.8586 17.3601 98.6205C18.6215 98.3824 20.1958 98.1077 21.761 97.8696L23.2525 97.659H23.4274L24.7716 97.485L25.3056 97.4118L26.5301 97.2652L27.8559 97.0729L30.0655 96.8532C33.8956 96.496 38.1399 96.2579 42.7618 96.1938H45.1647C46.4537 96.1938 47.7427 96.1938 49.05 96.2396L51.0203 96.2946L52.9906 96.3678L55.4304 96.4869H56.0288L58.2937 96.6334L60.9637 96.844C62.7498 96.9966 64.5359 97.1737 66.322 97.3751L68.7158 97.6407H69.1117L69.167 97.7048Z" fill="#FFC700"/>
<path d="M78.9999 112.695V342.769H69.1578V88.52L70.0325 89.1519L71.6989 90.3606V99.3438C71.7 103.304 73.1873 107.122 75.8696 110.049C76.7924 111.063 77.8448 111.953 78.9999 112.695Z" fill="#FFF500"/>
<path opacity="0.6" d="M17.3604 97.7047V342.769H6.15564V99.82C9.08341 99.1332 12.8306 98.3548 17.3604 97.7047Z" fill="#F9FFD2"/>
<path opacity="0.6" d="M26.521 96.6974V342.769H23.2065V96.9813L26.521 96.6974Z" fill="#F9FFD2"/>
<path d="M69.1671 88.5292V97.6864L66.405 97.3751C59.3748 96.577 52.3052 96.1704 45.2293 96.1572C19.2292 96.1572 4.71926 101.89 4.08399 102.137L2.0769 102.943V93.7855L4.04717 92.9888C4.65482 92.7324 19.1924 87 45.1925 87C52.2684 87.0132 59.338 87.4198 66.3682 88.2179L69.1671 88.5292Z" fill="#EF8F00"/>
<path d="M69.9864 136.146L69.6825 138.894L69.167 138.839L66.8376 138.582C59.7027 137.783 52.5289 137.377 45.3489 137.364C19.0542 137.364 4.47056 143.014 3.86291 143.252L2.07678 143.958V140.972L2.83174 140.679C3.45781 140.432 18.5202 134.617 45.3489 134.617C52.6268 134.63 59.8987 135.036 67.1323 135.835L69.1578 136.064L69.9864 136.146Z" fill="#FFF500"/>
<path d="M69.9864 171.64L69.6825 174.387L69.167 174.332L66.8376 174.076C59.702 173.288 52.5284 172.887 45.3489 172.876C19.0542 172.876 4.47056 178.517 3.86291 178.755L2.07678 179.488V176.475L2.83174 176.173C3.45781 175.926 18.4834 170.102 45.3489 170.102C52.6271 170.113 59.8993 170.522 67.1323 171.329L69.1578 171.548L69.9864 171.64Z" fill="#FFF500"/>
<path d="M69.9864 207.133L69.6825 209.88L69.167 209.825L66.8376 209.56C59.7017 208.777 52.5281 208.383 45.3489 208.378C19.1094 208.378 4.47056 214.01 3.86291 214.248L2.07678 214.953V211.968L2.83174 211.666C3.46701 211.419 18.5754 205.595 45.3489 205.595C52.6271 205.606 59.8993 206.016 67.1323 206.822L69.1578 207.041L69.9864 207.133Z" fill="#FFF500"/>
<path d="M69.9864 242.672L69.6825 245.419L69.167 245.364L66.8376 245.108C59.703 244.303 52.5292 243.89 45.3489 243.872C19.0542 243.872 4.47056 249.503 3.86291 249.751L2.07678 250.447V247.461L2.83174 247.168C3.45781 246.921 18.4834 241.097 45.3489 241.097C52.6268 241.11 59.8987 241.516 67.1323 242.315L69.1578 242.544L69.9864 242.672Z" fill="#FFF500"/>
<path d="M69.9864 278.129L69.6825 280.876L69.167 280.821L66.8376 280.565C59.702 279.776 52.5284 279.376 45.3489 279.365C19.1002 279.365 4.47056 285.006 3.86291 285.244L2.07678 285.94V282.964L2.83174 282.662C3.46701 282.414 18.5754 276.554 45.3489 276.554C52.6272 276.564 59.8993 276.974 67.1323 277.781L69.1578 278.001L69.9864 278.129Z" fill="#FFF500"/>
<path d="M69.9864 313.622L69.6825 316.369L69.167 316.314L66.8376 316.049C59.7017 315.266 52.5281 314.872 45.3489 314.867C19.0542 314.867 4.47056 320.499 3.86291 320.737L2.07678 321.424V318.439L2.83174 318.136C3.45781 317.889 18.4834 312.065 45.3489 312.065C52.6271 312.076 59.8993 312.486 67.1323 313.292L69.1578 313.512L69.9864 313.622Z" fill="#FFF500"/>
</g>
<defs>
<clipPath id="clip0_112_511">
<rect width="16" height="16" fill="white" transform="translate(32.5385 6.65384)"/>
</clipPath>
<clipPath id="clip1_112_511">
<rect width="76.9231" height="255.769" fill="white" transform="translate(2.0769 87)"/>
</clipPath>
</defs>
</svg>
