<svg width="134" height="566" viewBox="0 0 134 566" fill="none" xmlns="http://www.w3.org/2000/svg">
<rect x="42.3333" width="50" height="50" rx="25" fill="white"/>
<g clip-path="url(#clip0_14_2051)">
<path d="M81.3333 25C81.3333 31.988 76.2134 37.7799 69.5208 38.8299V29.0469H72.7829L73.4036 25H69.5208V22.3739C69.5208 21.2665 70.0633 20.1875 71.8023 20.1875H73.5676V16.7422C73.5676 16.7422 71.9653 16.4687 70.4335 16.4687C67.2359 16.4687 65.1458 18.4069 65.1458 21.9156V25H61.5911V29.0469H65.1458V38.8299C58.4531 37.7799 53.3333 31.988 53.3333 25C53.3333 17.2683 59.6015 11 67.3333 11C75.065 11 81.3333 17.2683 81.3333 25Z" fill="#1877F2"/>
<path d="M72.7829 29.0469L73.4036 25H69.5208V22.3739C69.5208 21.2667 70.0631 20.1875 71.8023 20.1875H73.5676V16.7422C73.5676 16.7422 71.9655 16.4688 70.4338 16.4688C67.2359 16.4688 65.1458 18.4069 65.1458 21.9156V25H61.5911V29.0469H65.1458V38.8299C65.8585 38.9417 66.5891 39 67.3333 39C68.0774 39 68.808 38.9417 69.5208 38.8299V29.0469H72.7829Z" fill="white"/>
</g>
<path d="M44.0165 86V70.904H40.5605V68.12H47.2805V86H44.0165ZM52.4962 86V82.64H55.6642V86H52.4962ZM65.7425 86.288C64.7985 86.288 63.8945 86.112 63.0305 85.76C62.1825 85.408 61.4465 84.912 60.8225 84.272C60.2145 83.616 59.7985 82.84 59.5745 81.944L62.4065 80.936C62.6785 81.752 63.1185 82.36 63.7265 82.76C64.3345 83.144 65.0065 83.336 65.7425 83.336C66.3505 83.336 66.8865 83.208 67.3505 82.952C67.8305 82.68 68.1985 82.312 68.4545 81.848C68.7105 81.368 68.8385 80.816 68.8385 80.192C68.8385 79.568 68.7025 79.024 68.4305 78.56C68.1745 78.096 67.8145 77.736 67.3505 77.48C66.8865 77.208 66.3505 77.072 65.7425 77.072C65.1185 77.072 64.5505 77.208 64.0385 77.48C63.5425 77.752 63.1825 78.144 62.9585 78.656L60.2945 78.056L61.7105 68.12H71.4545V70.88H63.0065L64.2305 69.464L63.2225 76.952L62.2865 76.184C62.7345 75.528 63.2785 75.048 63.9185 74.744C64.5745 74.44 65.3665 74.288 66.2945 74.288C67.4785 74.288 68.5025 74.544 69.3665 75.056C70.2465 75.568 70.9265 76.264 71.4065 77.144C71.8865 78.024 72.1265 79.04 72.1265 80.192C72.1265 81.344 71.8465 82.384 71.2865 83.312C70.7265 84.24 69.9665 84.968 69.0065 85.496C68.0465 86.024 66.9585 86.288 65.7425 86.288ZM75.1081 86V68.12H78.2281L84.9241 77.216H83.4361L89.9881 68.12H93.1081V86H89.8201V71.84L91.0921 72.152L84.3001 81.2H83.9161L77.2921 72.152L78.3721 71.84V86H75.1081Z" fill="white"/>
<path d="M7.16705 110.168C6.42972 110.168 5.75305 110.037 5.13705 109.776C4.52105 109.505 3.98438 109.132 3.52705 108.656C3.07905 108.171 2.72905 107.601 2.47705 106.948C2.22505 106.295 2.09905 105.576 2.09905 104.792C2.09905 104.008 2.22505 103.289 2.47705 102.636C2.72905 101.983 3.07905 101.413 3.52705 100.928C3.98438 100.443 4.52105 100.069 5.13705 99.808C5.75305 99.5373 6.42972 99.402 7.16705 99.402C7.87638 99.402 8.51105 99.528 9.07105 99.78C9.64038 100.032 10.1164 100.359 10.499 100.76C10.891 101.152 11.171 101.567 11.339 102.006L10.289 102.468C10.0277 101.861 9.62638 101.376 9.08505 101.012C8.55305 100.639 7.91372 100.452 7.16705 100.452C6.40172 100.452 5.72038 100.634 5.12305 100.998C4.52572 101.362 4.05905 101.871 3.72305 102.524C3.38705 103.168 3.21905 103.924 3.21905 104.792C3.21905 105.651 3.38705 106.407 3.72305 107.06C4.05905 107.713 4.52572 108.222 5.12305 108.586C5.72038 108.941 6.40172 109.118 7.16705 109.118C7.91372 109.118 8.55305 108.936 9.08505 108.572C9.62638 108.208 10.0277 107.723 10.289 107.116L11.339 107.578C11.171 108.007 10.891 108.423 10.499 108.824C10.1164 109.216 9.64038 109.538 9.07105 109.79C8.51105 110.042 7.87638 110.168 7.16705 110.168ZM16.5678 110.168C15.8585 110.168 15.2145 110 14.6358 109.664C14.0572 109.319 13.5952 108.852 13.2498 108.264C12.9138 107.667 12.7458 106.99 12.7458 106.234C12.7458 105.487 12.9138 104.82 13.2498 104.232C13.5858 103.644 14.0385 103.182 14.6078 102.846C15.1865 102.501 15.8398 102.328 16.5678 102.328C17.2958 102.328 17.9445 102.496 18.5138 102.832C19.0925 103.168 19.5452 103.63 19.8718 104.218C20.2078 104.806 20.3758 105.478 20.3758 106.234C20.3758 106.999 20.2032 107.681 19.8578 108.278C19.5125 108.866 19.0505 109.328 18.4718 109.664C17.9025 110 17.2678 110.168 16.5678 110.168ZM16.5678 109.118C17.0718 109.118 17.5245 108.992 17.9258 108.74C18.3365 108.488 18.6585 108.143 18.8918 107.704C19.1345 107.265 19.2558 106.775 19.2558 106.234C19.2558 105.693 19.1345 105.207 18.8918 104.778C18.6585 104.349 18.3365 104.008 17.9258 103.756C17.5245 103.504 17.0718 103.378 16.5678 103.378C16.0638 103.378 15.6065 103.504 15.1958 103.756C14.7945 104.008 14.4725 104.349 14.2298 104.778C13.9872 105.207 13.8658 105.693 13.8658 106.234C13.8658 106.775 13.9872 107.265 14.2298 107.704C14.4725 108.143 14.7945 108.488 15.1958 108.74C15.6065 108.992 16.0638 109.118 16.5678 109.118ZM22.2277 110V102.496H23.2777V103.952L23.0397 103.896C23.2263 103.411 23.5297 103.028 23.9497 102.748C24.379 102.468 24.8737 102.328 25.4337 102.328C25.9657 102.328 26.4417 102.449 26.8617 102.692C27.291 102.935 27.627 103.271 27.8697 103.7C28.1217 104.12 28.2477 104.596 28.2477 105.128V110H27.1977V105.534C27.1977 105.077 27.1137 104.689 26.9457 104.372C26.787 104.055 26.5583 103.812 26.2597 103.644C25.9703 103.467 25.6343 103.378 25.2517 103.378C24.869 103.378 24.5283 103.467 24.2297 103.644C23.931 103.812 23.6977 104.059 23.5297 104.386C23.3617 104.703 23.2777 105.086 23.2777 105.534V110H22.2277ZM32.1183 110L29.1923 102.496H30.3683L32.8323 109.076H32.4543L34.9323 102.496H36.1223L33.1683 110H32.1183ZM40.628 110.168C39.928 110.168 39.2934 110 38.724 109.664C38.164 109.319 37.7207 108.847 37.394 108.25C37.0674 107.653 36.904 106.976 36.904 106.22C36.904 105.464 37.0627 104.797 37.38 104.218C37.6974 103.63 38.1267 103.168 38.668 102.832C39.2187 102.496 39.8347 102.328 40.516 102.328C41.0574 102.328 41.538 102.431 41.958 102.636C42.3874 102.832 42.7514 103.103 43.05 103.448C43.3487 103.784 43.5774 104.167 43.736 104.596C43.8947 105.016 43.974 105.45 43.974 105.898C43.974 105.991 43.9694 106.099 43.96 106.22C43.9507 106.332 43.9367 106.449 43.918 106.57H37.576V105.59H43.316L42.812 106.01C42.896 105.497 42.8354 105.039 42.63 104.638C42.434 104.227 42.1494 103.905 41.776 103.672C41.4027 103.429 40.9827 103.308 40.516 103.308C40.0494 103.308 39.6154 103.429 39.214 103.672C38.822 103.915 38.514 104.255 38.29 104.694C38.066 105.123 37.9774 105.637 38.024 106.234C37.9774 106.831 38.0707 107.354 38.304 107.802C38.5467 108.241 38.8734 108.581 39.284 108.824C39.704 109.067 40.152 109.188 40.628 109.188C41.1787 109.188 41.6407 109.057 42.014 108.796C42.3874 108.535 42.6907 108.208 42.924 107.816L43.82 108.292C43.6707 108.628 43.442 108.941 43.134 109.23C42.826 109.51 42.4574 109.739 42.028 109.916C41.608 110.084 41.1414 110.168 40.628 110.168ZM45.8253 110V102.496H46.8753V103.728L46.7353 103.546C46.9126 103.191 47.1786 102.911 47.5333 102.706C47.8973 102.501 48.336 102.398 48.8493 102.398H49.3253V103.448H48.6673C48.126 103.448 47.692 103.616 47.3653 103.952C47.0386 104.288 46.8753 104.764 46.8753 105.38V110H45.8253ZM53.1598 110.168C52.4411 110.168 51.8111 109.986 51.2698 109.622C50.7284 109.258 50.3364 108.763 50.0938 108.138L50.9758 107.718C51.1905 108.175 51.4891 108.539 51.8718 108.81C52.2638 109.081 52.6931 109.216 53.1598 109.216C53.6078 109.216 53.9858 109.109 54.2938 108.894C54.6018 108.67 54.7558 108.381 54.7558 108.026C54.7558 107.765 54.6811 107.559 54.5318 107.41C54.3825 107.251 54.2098 107.13 54.0138 107.046C53.8178 106.962 53.6451 106.901 53.4958 106.864L52.4178 106.556C51.7271 106.36 51.2278 106.085 50.9198 105.73C50.6118 105.375 50.4578 104.965 50.4578 104.498C50.4578 104.059 50.5698 103.677 50.7938 103.35C51.0178 103.023 51.3211 102.771 51.7038 102.594C52.0864 102.417 52.5111 102.328 52.9778 102.328C53.6125 102.328 54.1865 102.496 54.6998 102.832C55.2225 103.159 55.5911 103.616 55.8058 104.204L54.9098 104.624C54.7231 104.204 54.4525 103.877 54.0978 103.644C53.7525 103.401 53.3651 103.28 52.9358 103.28C52.5158 103.28 52.1798 103.387 51.9278 103.602C51.6758 103.817 51.5498 104.087 51.5498 104.414C51.5498 104.666 51.6151 104.867 51.7458 105.016C51.8765 105.165 52.0258 105.277 52.1938 105.352C52.3711 105.427 52.5251 105.483 52.6558 105.52L53.9018 105.884C54.5085 106.061 54.9798 106.337 55.3158 106.71C55.6611 107.083 55.8338 107.522 55.8338 108.026C55.8338 108.437 55.7171 108.805 55.4838 109.132C55.2598 109.459 54.9471 109.715 54.5458 109.902C54.1445 110.079 53.6824 110.168 53.1598 110.168ZM57.6788 110V102.496H58.7288V110H57.6788ZM57.6788 101.11V99.57H58.7288V101.11H57.6788ZM64.392 110.168C63.6827 110.168 63.0387 110 62.46 109.664C61.8814 109.319 61.4194 108.852 61.074 108.264C60.738 107.667 60.57 106.99 60.57 106.234C60.57 105.487 60.738 104.82 61.074 104.232C61.41 103.644 61.8627 103.182 62.432 102.846C63.0107 102.501 63.664 102.328 64.392 102.328C65.12 102.328 65.7687 102.496 66.338 102.832C66.9167 103.168 67.3694 103.63 67.696 104.218C68.032 104.806 68.2 105.478 68.2 106.234C68.2 106.999 68.0274 107.681 67.682 108.278C67.3367 108.866 66.8747 109.328 66.296 109.664C65.7267 110 65.092 110.168 64.392 110.168ZM64.392 109.118C64.896 109.118 65.3487 108.992 65.75 108.74C66.1607 108.488 66.4827 108.143 66.716 107.704C66.9587 107.265 67.08 106.775 67.08 106.234C67.08 105.693 66.9587 105.207 66.716 104.778C66.4827 104.349 66.1607 104.008 65.75 103.756C65.3487 103.504 64.896 103.378 64.392 103.378C63.888 103.378 63.4307 103.504 63.02 103.756C62.6187 104.008 62.2967 104.349 62.054 104.778C61.8114 105.207 61.69 105.693 61.69 106.234C61.69 106.775 61.8114 107.265 62.054 107.704C62.2967 108.143 62.6187 108.488 63.02 108.74C63.4307 108.992 63.888 109.118 64.392 109.118ZM70.0519 110V102.496H71.1019V103.952L70.8639 103.896C71.0505 103.411 71.3539 103.028 71.7739 102.748C72.2032 102.468 72.6979 102.328 73.2579 102.328C73.7899 102.328 74.2659 102.449 74.6859 102.692C75.1152 102.935 75.4512 103.271 75.6939 103.7C75.9459 104.12 76.0719 104.596 76.0719 105.128V110H75.0219V105.534C75.0219 105.077 74.9379 104.689 74.7699 104.372C74.6112 104.055 74.3825 103.812 74.0839 103.644C73.7945 103.467 73.4585 103.378 73.0759 103.378C72.6932 103.378 72.3525 103.467 72.0539 103.644C71.7552 103.812 71.5219 104.059 71.3539 104.386C71.1859 104.703 71.1019 105.086 71.1019 105.534V110H70.0519ZM80.6813 110.168C79.9626 110.168 79.3326 109.986 78.7913 109.622C78.2499 109.258 77.8579 108.763 77.6153 108.138L78.4973 107.718C78.7119 108.175 79.0106 108.539 79.3933 108.81C79.7853 109.081 80.2146 109.216 80.6813 109.216C81.1293 109.216 81.5073 109.109 81.8153 108.894C82.1233 108.67 82.2773 108.381 82.2773 108.026C82.2773 107.765 82.2026 107.559 82.0533 107.41C81.9039 107.251 81.7313 107.13 81.5353 107.046C81.3393 106.962 81.1666 106.901 81.0173 106.864L79.9393 106.556C79.2486 106.36 78.7493 106.085 78.4413 105.73C78.1333 105.375 77.9793 104.965 77.9793 104.498C77.9793 104.059 78.0913 103.677 78.3153 103.35C78.5393 103.023 78.8426 102.771 79.2253 102.594C79.6079 102.417 80.0326 102.328 80.4993 102.328C81.1339 102.328 81.7079 102.496 82.2213 102.832C82.7439 103.159 83.1126 103.616 83.3273 104.204L82.4313 104.624C82.2446 104.204 81.9739 103.877 81.6193 103.644C81.2739 103.401 80.8866 103.28 80.4573 103.28C80.0373 103.28 79.7013 103.387 79.4493 103.602C79.1973 103.817 79.0713 104.087 79.0713 104.414C79.0713 104.666 79.1366 104.867 79.2673 105.016C79.3979 105.165 79.5473 105.277 79.7153 105.352C79.8926 105.427 80.0466 105.483 80.1773 105.52L81.4233 105.884C82.0299 106.061 82.5013 106.337 82.8373 106.71C83.1826 107.083 83.3553 107.522 83.3553 108.026C83.3553 108.437 83.2386 108.805 83.0053 109.132C82.7813 109.459 82.4686 109.715 82.0673 109.902C81.6659 110.079 81.2039 110.168 80.6813 110.168ZM84.1503 111.68L88.8823 100.144H90.1003L85.3683 111.68H84.1503ZM91.2023 110V102.496H92.2523V103.924L92.0843 103.714C92.2896 103.275 92.5929 102.935 92.9943 102.692C93.4049 102.449 93.8529 102.328 94.3383 102.328C94.9169 102.328 95.4396 102.491 95.9063 102.818C96.3729 103.145 96.7043 103.569 96.9003 104.092L96.6063 104.106C96.7929 103.527 97.1149 103.089 97.5723 102.79C98.0389 102.482 98.5523 102.328 99.1123 102.328C99.6163 102.328 100.078 102.449 100.498 102.692C100.928 102.935 101.268 103.271 101.52 103.7C101.782 104.12 101.912 104.596 101.912 105.128V110H100.862V105.534C100.862 105.077 100.778 104.689 100.61 104.372C100.452 104.055 100.232 103.812 99.9523 103.644C99.6723 103.467 99.3503 103.378 98.9863 103.378C98.6316 103.378 98.3096 103.467 98.0203 103.644C97.7309 103.812 97.5023 104.059 97.3343 104.386C97.1663 104.703 97.0823 105.086 97.0823 105.534V110H96.0323V105.534C96.0323 105.077 95.9483 104.689 95.7803 104.372C95.6216 104.055 95.4023 103.812 95.1223 103.644C94.8423 103.467 94.5203 103.378 94.1563 103.378C93.7923 103.378 93.4656 103.467 93.1763 103.644C92.8963 103.812 92.6723 104.059 92.5043 104.386C92.3363 104.703 92.2523 105.086 92.2523 105.534V110H91.2023ZM107.431 110.168C106.722 110.168 106.078 110 105.499 109.664C104.92 109.319 104.458 108.852 104.113 108.264C103.777 107.667 103.609 106.99 103.609 106.234C103.609 105.487 103.777 104.82 104.113 104.232C104.449 103.644 104.902 103.182 105.471 102.846C106.05 102.501 106.703 102.328 107.431 102.328C108.159 102.328 108.808 102.496 109.377 102.832C109.956 103.168 110.408 103.63 110.735 104.218C111.071 104.806 111.239 105.478 111.239 106.234C111.239 106.999 111.066 107.681 110.721 108.278C110.376 108.866 109.914 109.328 109.335 109.664C108.766 110 108.131 110.168 107.431 110.168ZM107.431 109.118C107.935 109.118 108.388 108.992 108.789 108.74C109.2 108.488 109.522 108.143 109.755 107.704C109.998 107.265 110.119 106.775 110.119 106.234C110.119 105.693 109.998 105.207 109.755 104.778C109.522 104.349 109.2 104.008 108.789 103.756C108.388 103.504 107.935 103.378 107.431 103.378C106.927 103.378 106.47 103.504 106.059 103.756C105.658 104.008 105.336 104.349 105.093 104.778C104.85 105.207 104.729 105.693 104.729 106.234C104.729 106.775 104.85 107.265 105.093 107.704C105.336 108.143 105.658 108.488 106.059 108.74C106.47 108.992 106.927 109.118 107.431 109.118ZM113.091 110V102.496H114.141V103.952L113.903 103.896C114.09 103.411 114.393 103.028 114.813 102.748C115.242 102.468 115.737 102.328 116.297 102.328C116.829 102.328 117.305 102.449 117.725 102.692C118.154 102.935 118.49 103.271 118.733 103.7C118.985 104.12 119.111 104.596 119.111 105.128V110H118.061V105.534C118.061 105.077 117.977 104.689 117.809 104.372C117.65 104.055 117.422 103.812 117.123 103.644C116.834 103.467 116.498 103.378 116.115 103.378C115.732 103.378 115.392 103.467 115.093 103.644C114.794 103.812 114.561 104.059 114.393 104.386C114.225 104.703 114.141 105.086 114.141 105.534V110H113.091ZM123.986 110.084C123.314 110.084 122.796 109.888 122.432 109.496C122.068 109.104 121.886 108.544 121.886 107.816V103.546H120.5V102.496H120.85C121.168 102.496 121.42 102.393 121.606 102.188C121.793 101.973 121.886 101.707 121.886 101.39V100.76H122.936V102.496H124.588V103.546H122.936V107.816C122.936 108.068 122.974 108.292 123.048 108.488C123.123 108.675 123.249 108.824 123.426 108.936C123.613 109.048 123.86 109.104 124.168 109.104C124.243 109.104 124.332 109.099 124.434 109.09C124.537 109.081 124.626 109.071 124.7 109.062V110C124.588 110.028 124.462 110.047 124.322 110.056C124.182 110.075 124.07 110.084 123.986 110.084ZM126.544 110V99.402H127.594V103.952L127.356 103.896C127.543 103.411 127.846 103.028 128.266 102.748C128.695 102.468 129.19 102.328 129.75 102.328C130.282 102.328 130.758 102.449 131.178 102.692C131.607 102.935 131.943 103.271 132.186 103.7C132.438 104.12 132.564 104.596 132.564 105.128V110H131.514V105.534C131.514 105.077 131.43 104.689 131.262 104.372C131.094 104.055 130.861 103.812 130.562 103.644C130.273 103.467 129.941 103.378 129.568 103.378C129.195 103.378 128.859 103.467 128.56 103.644C128.261 103.812 128.023 104.059 127.846 104.386C127.678 104.703 127.594 105.086 127.594 105.534V110H126.544Z" fill="white"/>
<g clip-path="url(#clip1_14_2051)">
<path d="M133.333 217.477V566H49.7042V213.619L53.4334 213.79H53.4456L63.3256 214.254L99.2617 215.914L123.95 217.062H123.962L133.333 217.477Z" fill="#FFC700"/>
<path d="M116.515 175.43V184.049L55.2253 179.422V168.764L69.6942 140L116.515 175.43Z" fill="#EF8F00"/>
<path d="M69.6943 140L55.2254 168.764V179.422L49.7042 178.995L19.9794 185.807V175.43L69.6943 140Z" fill="#F7BD79"/>
<path d="M49.7042 213.619V566H1.33325V221.481L4.89297 220.907L6.61228 220.626L14.2887 219.369H14.3129L49.7042 213.619Z" fill="#FFF500"/>
<path d="M123.962 182.291V217.062L53.4335 213.802L53.4577 176.968L55.2254 177.102L116.515 181.729L123.962 182.291Z" fill="#FFC700"/>
<path d="M123.962 192.742V227.512L102.482 226.523L80.5551 225.498L53.4335 224.24L53.4698 187.406L55.2133 187.553L80.5551 189.458L102.482 191.118L116.515 192.18L123.962 192.742Z" fill="#FFC700"/>
<path d="M53.4576 176.968L13.4895 184.977V219.381L49.7041 213.631L53.4334 213.802L53.4576 176.968Z" fill="#FFF500"/>
<g opacity="0.7">
<path d="M80.5551 436.111V443.033L102.482 444.425V437.503L80.5551 436.111Z" fill="#F9FFD2"/>
<path d="M80.5551 470.76V477.682L102.482 479.074V472.152L80.5551 470.76Z" fill="#F9FFD2"/>
<path d="M80.5551 459.21V466.133L102.482 467.524V460.602L80.5551 459.21Z" fill="#F9FFD2"/>
<path d="M80.5551 447.661V454.583L102.482 455.975V449.052L80.5551 447.661Z" fill="#F9FFD2"/>
<path d="M80.5551 424.562V431.484L102.482 432.876V425.954L80.5551 424.562Z" fill="#F9FFD2"/>
<path d="M80.5551 401.463V408.385L102.482 409.777V402.855L80.5551 401.463Z" fill="#F9FFD2"/>
<path d="M80.5551 413.012V419.935L102.482 421.326V414.404L80.5551 413.012Z" fill="#F9FFD2"/>
<path d="M80.5551 505.408V512.33L102.482 513.722V506.8L80.5551 505.408Z" fill="#F9FFD2"/>
<path d="M80.5551 551.606V558.516L102.482 559.92V552.998L80.5551 551.606Z" fill="#F9FFD2"/>
<path d="M80.5551 482.309V489.231L102.482 490.623V483.701L80.5551 482.309Z" fill="#F9FFD2"/>
<path d="M102.482 564.535V566H80.5551V563.143L99.2617 564.328L102.482 564.535Z" fill="#F9FFD2"/>
<path d="M80.5551 528.507V535.417L102.482 536.821V529.899L80.5551 528.507Z" fill="#F9FFD2"/>
<path d="M80.5551 540.056V546.979L102.482 548.371V541.448L80.5551 540.056Z" fill="#F9FFD2"/>
<path d="M80.5551 516.958V523.88L102.482 525.272V518.349L80.5551 516.958Z" fill="#F9FFD2"/>
<path d="M80.5551 493.859V500.781L102.482 502.173V495.25L80.5551 493.859Z" fill="#F9FFD2"/>
<path d="M80.5551 389.913V396.836L102.482 398.227V391.305L80.5551 389.913Z" fill="#F9FFD2"/>
<path d="M80.5551 320.629V327.539L102.482 328.931V322.02L80.5551 320.629Z" fill="#F9FFD2"/>
<path d="M80.5551 274.431V281.353L102.482 282.745V275.822L80.5551 274.431Z" fill="#F9FFD2"/>
<path d="M80.5551 251.332V258.254L102.482 259.646V252.724L80.5551 251.332Z" fill="#F9FFD2"/>
<path d="M80.5551 239.782V246.705L102.482 248.096V241.174L80.5551 239.782Z" fill="#F9FFD2"/>
<path d="M80.5551 378.364V385.286L102.482 386.678V379.768L80.5551 378.364Z" fill="#F9FFD2"/>
<path d="M80.5551 228.233V235.155L102.482 236.547V229.624L80.5551 228.233Z" fill="#F9FFD2"/>
<path d="M102.482 201.898V191.118L80.5551 189.458V200.507L102.482 201.898Z" fill="#F9FFD2"/>
<path d="M80.5551 205.134V212.056L102.482 213.448V206.526L80.5551 205.134Z" fill="#F9FFD2"/>
<path d="M80.5551 216.683V223.606L102.482 224.998V218.075L80.5551 216.683Z" fill="#F9FFD2"/>
<path d="M80.5551 262.881V269.803L102.482 271.195V264.273L80.5551 262.881Z" fill="#F9FFD2"/>
<path d="M80.5551 355.265V362.187L102.482 363.579V356.669L80.5551 355.265Z" fill="#F9FFD2"/>
<path d="M80.5551 343.728V350.638L102.482 352.029V345.119L80.5551 343.728Z" fill="#F9FFD2"/>
<path d="M80.5551 366.814V373.737L102.482 375.128V368.218L80.5551 366.814Z" fill="#F9FFD2"/>
<path d="M80.5551 309.079V315.989L102.482 317.393V310.471L80.5551 309.079Z" fill="#F9FFD2"/>
<path d="M80.5551 332.178V339.088L102.482 340.492V333.57L80.5551 332.178Z" fill="#F9FFD2"/>
<path d="M80.5551 297.53V304.44L102.482 305.844V298.921L80.5551 297.53Z" fill="#F9FFD2"/>
<path d="M80.5551 285.98V292.89L102.482 294.294V287.372L80.5551 285.98Z" fill="#F9FFD2"/>
</g>
<g opacity="0.7">
<path d="M57.0415 438.956V448.552L73.2297 449.187V439.59L57.0415 438.956Z" fill="#F9FFD2"/>
<path d="M57.0415 552.668V562.264L73.2297 562.899V553.303L57.0415 552.668Z" fill="#F9FFD2"/>
<path d="M57.0415 467.378V476.986L73.2297 477.621V468.013L57.0415 467.378Z" fill="#F9FFD2"/>
<path d="M57.0415 410.521V420.13L73.2297 420.765V411.156L57.0415 410.521Z" fill="#F9FFD2"/>
<path d="M57.0415 424.732V434.341L73.2297 434.976V425.367L57.0415 424.732Z" fill="#F9FFD2"/>
<path d="M57.0415 481.589V491.197L73.2297 491.832V482.223L57.0415 481.589Z" fill="#F9FFD2"/>
<path d="M57.0415 453.167V462.763L73.2297 463.398V453.802L57.0415 453.167Z" fill="#F9FFD2"/>
<path d="M57.0415 538.445V548.053L73.2297 548.688V539.08L57.0415 538.445Z" fill="#F9FFD2"/>
<path d="M57.0415 524.234V533.83L73.2297 534.477V524.869L57.0415 524.234Z" fill="#F9FFD2"/>
<path d="M57.0415 510.023V519.619L73.2297 520.254V510.658L57.0415 510.023Z" fill="#F9FFD2"/>
<path d="M57.0415 396.311V405.907L73.2297 406.541V396.945L57.0415 396.311Z" fill="#F9FFD2"/>
<path d="M57.0415 495.812V505.408L73.2297 506.043V496.447L57.0415 495.812Z" fill="#F9FFD2"/>
<path d="M57.0415 268.387V277.983L73.2297 278.618V269.022L57.0415 268.387Z" fill="#F9FFD2"/>
<path d="M57.0415 254.164V263.772L73.2297 264.407V254.799L57.0415 254.164Z" fill="#F9FFD2"/>
<path d="M57.0415 296.809V306.417L73.2297 307.052V297.444L57.0415 296.809Z" fill="#F9FFD2"/>
<path d="M57.0415 282.598V292.194L73.2297 292.829V283.233L57.0415 282.598Z" fill="#F9FFD2"/>
<path d="M57.0415 382.1V391.696L73.2297 392.331V382.734L57.0415 382.1Z" fill="#F9FFD2"/>
<path d="M57.0415 239.953V249.549L73.2297 250.184V240.588L57.0415 239.953Z" fill="#F9FFD2"/>
<path d="M73.2297 235.973V224.13L57.0415 223.386V235.338L73.2297 235.973Z" fill="#F9FFD2"/>
<path d="M57.0415 367.876V377.485L73.2297 378.119V368.511L57.0415 367.876Z" fill="#F9FFD2"/>
<path d="M57.0415 353.665V363.274L73.2297 363.908V354.3L57.0415 353.665Z" fill="#F9FFD2"/>
<path d="M57.0415 325.243V334.839L73.2297 335.474V325.878L57.0415 325.243Z" fill="#F9FFD2"/>
<path d="M57.0415 339.454V349.05L73.2297 349.685V340.089L57.0415 339.454Z" fill="#F9FFD2"/>
<path d="M57.0415 311.032V320.629L73.2297 321.263V311.655L57.0415 311.032Z" fill="#F9FFD2"/>
</g>
<g opacity="0.7">
<path d="M109.65 441.776V451.384L125.838 452.019V442.411L109.65 441.776Z" fill="#F9FFD2"/>
<path d="M109.65 555.488V565.097L125.838 565.731V556.123L109.65 555.488Z" fill="#F9FFD2"/>
<path d="M109.65 470.21V479.806L125.838 480.441V470.845L109.65 470.21Z" fill="#F9FFD2"/>
<path d="M109.65 413.354V422.95L125.838 423.585V413.989L109.65 413.354Z" fill="#F9FFD2"/>
<path d="M109.65 427.565V437.173L125.838 437.796V428.2L109.65 427.565Z" fill="#F9FFD2"/>
<path d="M109.65 484.421V494.017L125.838 494.652V485.056L109.65 484.421Z" fill="#F9FFD2"/>
<path d="M109.65 455.999V465.595L125.838 466.23V456.634L109.65 455.999Z" fill="#F9FFD2"/>
<path d="M109.65 541.277V550.873L125.838 551.508V541.912L109.65 541.277Z" fill="#F9FFD2"/>
<path d="M109.65 527.066V536.662L125.838 537.297V527.701L109.65 527.066Z" fill="#F9FFD2"/>
<path d="M109.65 512.843V522.452L125.838 523.086V513.49L109.65 512.843Z" fill="#F9FFD2"/>
<path d="M109.65 399.131V408.739L125.838 409.374V399.778L109.65 399.131Z" fill="#F9FFD2"/>
<path d="M109.65 498.632V508.24L125.838 508.875V499.267L109.65 498.632Z" fill="#F9FFD2"/>
<path d="M109.65 271.208V280.816L125.838 281.451V271.842L109.65 271.208Z" fill="#F9FFD2"/>
<path d="M109.65 256.997V266.593L125.838 267.228V257.631L109.65 256.997Z" fill="#F9FFD2"/>
<path d="M109.65 299.642V309.238L125.838 309.873V300.276L109.65 299.642Z" fill="#F9FFD2"/>
<path d="M109.65 285.431V295.027L125.838 295.662V286.066L109.65 285.431Z" fill="#F9FFD2"/>
<path d="M109.65 384.92V394.528L125.838 395.163V385.555L109.65 384.92Z" fill="#F9FFD2"/>
<path d="M109.65 242.786V252.382L125.838 253.017V243.42L109.65 242.786Z" fill="#F9FFD2"/>
<path d="M125.838 238.805V226.963L109.65 226.206V238.171L125.838 238.805Z" fill="#F9FFD2"/>
<path d="M109.65 370.709V380.305L125.838 380.94V371.344L109.65 370.709Z" fill="#F9FFD2"/>
<path d="M109.65 356.498V366.094L125.838 366.729V357.133L109.65 356.498Z" fill="#F9FFD2"/>
<path d="M109.65 328.064V337.672L125.838 338.307V328.699L109.65 328.064Z" fill="#F9FFD2"/>
<path d="M109.65 342.287V351.883L125.838 352.518V342.922L109.65 342.287Z" fill="#F9FFD2"/>
<path d="M109.65 313.853V323.449L125.838 324.084V314.488L109.65 313.853Z" fill="#F9FFD2"/>
</g>
</g>
<defs>
<clipPath id="clip0_14_2051">
<rect width="28" height="28" fill="white" transform="translate(53.3333 11)"/>
</clipPath>
<clipPath id="clip1_14_2051">
<rect width="132" height="426" fill="white" transform="translate(1.33325 140)"/>
</clipPath>
</defs>
</svg>
