<svg width="134" height="452" viewBox="0 0 134 452" fill="none" xmlns="http://www.w3.org/2000/svg">
<rect x="42.1666" width="50" height="50" rx="25" fill="white"/>
<path fill-rule="evenodd" clip-rule="evenodd" d="M73.6955 34.2787C72.8688 35.0912 71.9005 35.7261 70.7893 36.1886C69.678 36.6472 68.4699 36.8772 67.1673 36.8772C65.8634 36.8772 64.6565 36.6472 63.5465 36.1886C62.434 35.7261 61.4644 35.0912 60.6377 34.2787C59.811 33.4687 59.1629 32.5106 58.6959 31.4055C58.2443 30.3388 58.0121 29.1852 57.9955 27.9472H60.1937C60.2167 28.3279 60.2984 28.6844 60.44 29.0191C60.6096 29.4215 60.8457 29.769 61.1442 30.0628C61.444 30.3579 61.7974 30.5892 62.2006 30.754C62.6037 30.9226 63.0426 31.0069 63.5159 31.0069C63.9892 31.0069 64.4256 30.9226 64.83 30.754C65.2331 30.5892 65.5865 30.3579 65.8864 30.0628C66.1862 29.769 66.4222 29.4215 66.5906 29.0191C66.7041 28.7546 66.7781 28.4736 66.8151 28.1798H67.5194C67.5564 28.4736 67.6304 28.7546 67.7439 29.0191C67.9149 29.4215 68.1484 29.769 68.4494 30.0628C68.748 30.3579 69.1014 30.5892 69.5045 30.754C69.9077 30.9226 70.3466 31.0069 70.8186 31.0069C71.2932 31.0069 71.7308 30.9226 72.134 30.754C72.5371 30.5892 72.8905 30.3579 73.1903 30.0628C73.4901 29.769 73.7262 29.4215 73.8958 29.0191C74.0374 28.6844 74.1191 28.3279 74.1433 27.9472H76.3364C76.3237 29.1852 76.0902 30.3388 75.6386 31.4055C75.1704 32.5106 74.5223 33.4687 73.6955 34.2787ZM65.4934 27.716C65.4934 27.9945 65.4424 28.2526 65.3429 28.4915C65.2421 28.7278 65.103 28.9335 64.9231 29.1098C64.7432 29.2861 64.5353 29.4228 64.2967 29.5212C64.0556 29.6208 63.7966 29.6706 63.5159 29.6706C63.234 29.6706 62.9737 29.6208 62.7339 29.5212C62.4953 29.4228 62.286 29.2861 62.1074 29.1098C61.9275 28.9335 61.7885 28.7278 61.689 28.4915C61.5882 28.2526 61.5372 27.9945 61.5372 27.716C61.5372 27.4401 61.5882 27.1807 61.689 26.9418C61.7885 26.7042 61.9275 26.4985 62.1074 26.3222C62.286 26.1485 62.4953 26.0105 62.7339 25.9121C62.9737 25.8125 63.234 25.7627 63.5159 25.7627C63.7966 25.7627 64.0556 25.8125 64.2967 25.9121C64.5353 26.0105 64.7432 26.1485 64.9231 26.3222C65.103 26.4985 65.2421 26.7042 65.3429 26.9418C65.4424 27.1807 65.4934 27.4401 65.4934 27.716ZM72.7974 27.716C72.7974 27.9945 72.7476 28.2526 72.6455 28.4915C72.546 28.7278 72.4057 28.9335 72.2284 29.1098C72.0498 29.2861 71.8392 29.4228 71.5994 29.5212C71.3608 29.6208 71.1006 29.6706 70.8186 29.6706C70.5379 29.6706 70.2777 29.6208 70.0391 29.5212C69.798 29.4228 69.5887 29.2861 69.4114 29.1098C69.2328 28.9335 69.0937 28.7278 68.9917 28.4915C68.8909 28.2526 68.8411 27.9945 68.8411 27.716C68.8411 27.4401 68.8909 27.1807 68.9917 26.9418C69.0937 26.7042 69.2328 26.4985 69.4114 26.3222C69.5887 26.1485 69.798 26.0105 70.0391 25.9121C70.2777 25.8125 70.5379 25.7627 70.8186 25.7627C71.1006 25.7627 71.3608 25.8125 71.5994 25.9121C71.8392 26.0105 72.0498 26.1485 72.2284 26.3222C72.4057 26.4985 72.546 26.7042 72.6455 26.9418C72.7476 27.1807 72.7974 27.4401 72.7974 27.716ZM58.812 23.9869C60.3723 23.4721 62.4417 22.8154 62.4417 22.8154C66.9938 21.3654 67.6036 19.651 67.6036 19.651C67.6036 19.651 68.5617 21.3654 71.866 22.496C71.866 22.496 73.6917 23.0977 75.3898 23.7122C75.4753 23.8809 75.5633 24.0495 75.6386 24.2284C75.9371 24.9335 76.14 25.6771 76.2471 26.4551H73.9111L73.8958 26.4142C73.7262 26.0118 73.4901 25.6656 73.1903 25.3705C72.8905 25.0754 72.5371 24.8441 72.134 24.6768C71.7308 24.5107 71.2932 24.4276 70.8186 24.4276C70.3466 24.4276 69.9077 24.5107 69.5045 24.6768C69.1014 24.8441 68.748 25.0754 68.4494 25.3705C68.1484 25.6656 67.9149 26.0118 67.7439 26.4142C67.6903 26.5407 67.6457 26.6697 67.6087 26.8013H66.7258C66.6901 26.6697 66.6455 26.5407 66.5906 26.4142C66.4222 26.0118 66.1862 25.6656 65.8864 25.3705C65.5865 25.0754 65.2331 24.8441 64.83 24.6768C64.4256 24.5107 63.9892 24.4276 63.5159 24.4276C63.0426 24.4276 62.6037 24.5107 62.2006 24.6768C61.7974 24.8441 61.444 25.0754 61.1442 25.3705C60.8457 25.6656 60.6096 26.0118 60.44 26.4142C60.4336 26.427 60.4298 26.441 60.4234 26.4551H58.0887C58.1958 25.6771 58.3974 24.9335 58.6959 24.2284C58.7317 24.1453 58.775 24.0687 58.812 23.9869ZM80.0975 19.5219C79.3818 17.8369 78.3956 16.3754 77.1313 15.1374C75.8695 13.897 74.3908 12.9273 72.6953 12.226C70.9985 11.5233 69.1562 11.172 67.1673 11.172C65.1783 11.172 63.336 11.5233 61.6392 12.226C59.9437 12.9273 58.4638 13.897 57.202 15.1374C55.9402 16.3754 54.9515 17.8369 54.2383 19.5219C53.5226 21.2083 53.1666 23.0351 53.1666 25C53.1666 26.9674 53.5226 28.7917 54.2383 30.478C54.9515 32.1644 55.9402 33.6246 57.202 34.8638C58.4638 36.103 59.9437 37.0726 61.6392 37.7753C63.336 38.4766 65.1783 38.828 67.1673 38.828C69.1562 38.828 70.9985 38.4766 72.6953 37.7753C74.3908 37.0726 75.8695 36.103 77.1313 34.8638C78.3956 33.6246 79.3818 32.1644 80.0975 30.478C80.8094 28.7917 81.1666 26.9674 81.1666 25C81.1666 23.0351 80.8094 21.2083 80.0975 19.5219Z" fill="#EE6513"/>
<path d="M43.3092 86.288C42.0132 86.288 40.8852 86.048 39.9252 85.568C38.9812 85.072 38.2452 84.408 37.7172 83.576C37.2052 82.744 36.9492 81.832 36.9492 80.84C36.9492 79.672 37.2612 78.688 37.8852 77.888C38.5092 77.072 39.4132 76.472 40.5972 76.088L40.4052 76.88C39.5572 76.608 38.8852 76.08 38.3892 75.296C37.9092 74.512 37.6692 73.648 37.6692 72.704C37.6692 71.76 37.9092 70.92 38.3892 70.184C38.8692 69.448 39.5332 68.872 40.3812 68.456C41.2292 68.04 42.2052 67.832 43.3092 67.832C44.3972 67.832 45.3572 68.04 46.1892 68.456C47.0372 68.872 47.7012 69.448 48.1812 70.184C48.6772 70.92 48.9252 71.76 48.9252 72.704C48.9252 73.664 48.6772 74.536 48.1812 75.32C47.7012 76.088 47.0372 76.616 46.1892 76.904L46.0212 76.064C47.2052 76.48 48.1092 77.096 48.7332 77.912C49.3572 78.712 49.6692 79.696 49.6692 80.864C49.6692 81.856 49.4052 82.768 48.8772 83.6C48.3652 84.416 47.6292 85.072 46.6692 85.568C45.7252 86.048 44.6052 86.288 43.3092 86.288ZM43.3092 83.528C43.9332 83.528 44.4772 83.416 44.9412 83.192C45.4052 82.952 45.7652 82.624 46.0212 82.208C46.2772 81.776 46.4052 81.288 46.4052 80.744C46.4052 80.184 46.2772 79.704 46.0212 79.304C45.7652 78.888 45.4052 78.568 44.9412 78.344C44.4772 78.104 43.9332 77.984 43.3092 77.984C42.6852 77.984 42.1412 78.104 41.6772 78.344C41.2292 78.568 40.8772 78.888 40.6212 79.304C40.3652 79.704 40.2372 80.184 40.2372 80.744C40.2372 81.288 40.3652 81.776 40.6212 82.208C40.8772 82.624 41.2292 82.952 41.6772 83.192C42.1412 83.416 42.6852 83.528 43.3092 83.528ZM43.3092 75.224C43.7732 75.224 44.1812 75.12 44.5332 74.912C44.8852 74.704 45.1572 74.432 45.3492 74.096C45.5572 73.744 45.6612 73.344 45.6612 72.896C45.6612 72.448 45.5572 72.056 45.3492 71.72C45.1572 71.368 44.8852 71.096 44.5332 70.904C44.1812 70.696 43.7732 70.592 43.3092 70.592C42.8452 70.592 42.4292 70.696 42.0612 70.904C41.7092 71.096 41.4292 71.368 41.2212 71.72C41.0292 72.056 40.9332 72.448 40.9332 72.896C40.9332 73.344 41.0292 73.744 41.2212 74.096C41.4292 74.432 41.7092 74.704 42.0612 74.912C42.4292 75.12 42.8452 75.224 43.3092 75.224ZM53.1453 86L59.2173 78.176L59.7693 78.752C59.5293 78.928 59.2973 79.072 59.0733 79.184C58.8493 79.296 58.6093 79.376 58.3533 79.424C58.0973 79.472 57.8253 79.496 57.5373 79.496C56.4493 79.496 55.4813 79.248 54.6333 78.752C53.7853 78.256 53.1133 77.584 52.6173 76.736C52.1373 75.872 51.8973 74.896 51.8973 73.808C51.8973 72.656 52.1613 71.632 52.6893 70.736C53.2333 69.84 53.9693 69.136 54.8973 68.624C55.8413 68.096 56.9133 67.832 58.1133 67.832C59.3293 67.832 60.4013 68.088 61.3293 68.6C62.2573 69.112 62.9853 69.816 63.5133 70.712C64.0573 71.592 64.3293 72.608 64.3293 73.76C64.3293 74.336 64.2653 74.912 64.1373 75.488C64.0093 76.064 63.7773 76.68 63.4413 77.336C63.1213 77.976 62.6573 78.704 62.0493 79.52L57.0573 86H53.1453ZM58.1133 76.76C58.6733 76.76 59.1693 76.64 59.6013 76.4C60.0493 76.144 60.4013 75.792 60.6573 75.344C60.9133 74.88 61.0413 74.36 61.0413 73.784C61.0413 73.176 60.9053 72.648 60.6333 72.2C60.3773 71.752 60.0333 71.4 59.6013 71.144C59.1693 70.888 58.6733 70.76 58.1133 70.76C57.5693 70.76 57.0733 70.888 56.6253 71.144C56.1773 71.4 55.8173 71.752 55.5453 72.2C55.2893 72.648 55.1613 73.176 55.1613 73.784C55.1613 74.36 55.2893 74.88 55.5453 75.344C55.8173 75.792 56.1773 76.144 56.6253 76.4C57.0733 76.64 57.5693 76.76 58.1133 76.76ZM73.8228 86.288C72.3988 86.288 71.1508 85.904 70.0788 85.136C69.0068 84.368 68.1668 83.288 67.5588 81.896C66.9668 80.504 66.6708 78.888 66.6708 77.048C66.6708 75.192 66.9668 73.576 67.5588 72.2C68.1508 70.824 68.9828 69.752 70.0548 68.984C71.1268 68.216 72.3748 67.832 73.7988 67.832C75.2548 67.832 76.5108 68.216 77.5668 68.984C78.6388 69.752 79.4788 70.832 80.0868 72.224C80.6948 73.6 80.9988 75.208 80.9988 77.048C80.9988 78.888 80.6948 80.504 80.0868 81.896C79.4948 83.272 78.6628 84.352 77.5908 85.136C76.5188 85.904 75.2628 86.288 73.8228 86.288ZM73.8468 83.312C74.6628 83.312 75.3588 83.064 75.9348 82.568C76.5108 82.056 76.9508 81.336 77.2548 80.408C77.5748 79.464 77.7348 78.344 77.7348 77.048C77.7348 75.752 77.5748 74.64 77.2548 73.712C76.9508 72.768 76.5028 72.048 75.9108 71.552C75.3348 71.056 74.6308 70.808 73.7988 70.808C72.9988 70.808 72.3108 71.056 71.7348 71.552C71.1588 72.048 70.7108 72.768 70.3908 73.712C70.0868 74.64 69.9348 75.752 69.9348 77.048C69.9348 78.328 70.0868 79.44 70.3908 80.384C70.7108 81.312 71.1588 82.032 71.7348 82.544C72.3268 83.056 73.0308 83.312 73.8468 83.312ZM84.047 86V68.12H87.311V77.432L86.423 77.12L94.031 68.12H98.135L91.007 76.568L91.199 74.264L98.351 86H94.511L89.711 78.128L87.311 80.984V86H84.047Z" fill="white"/>
<path d="M7.00042 110.168C6.26309 110.168 5.58642 110.037 4.97042 109.776C4.35442 109.505 3.81776 109.132 3.36042 108.656C2.91242 108.171 2.56242 107.601 2.31042 106.948C2.05842 106.295 1.93242 105.576 1.93242 104.792C1.93242 104.008 2.05842 103.289 2.31042 102.636C2.56242 101.983 2.91242 101.413 3.36042 100.928C3.81776 100.443 4.35442 100.069 4.97042 99.808C5.58642 99.5373 6.26309 99.402 7.00042 99.402C7.70976 99.402 8.34442 99.528 8.90442 99.78C9.47376 100.032 9.94976 100.359 10.3324 100.76C10.7244 101.152 11.0044 101.567 11.1724 102.006L10.1224 102.468C9.86109 101.861 9.45976 101.376 8.91842 101.012C8.38642 100.639 7.74709 100.452 7.00042 100.452C6.23509 100.452 5.55376 100.634 4.95642 100.998C4.35909 101.362 3.89242 101.871 3.55642 102.524C3.22042 103.168 3.05242 103.924 3.05242 104.792C3.05242 105.651 3.22042 106.407 3.55642 107.06C3.89242 107.713 4.35909 108.222 4.95642 108.586C5.55376 108.941 6.23509 109.118 7.00042 109.118C7.74709 109.118 8.38642 108.936 8.91842 108.572C9.45976 108.208 9.86109 107.723 10.1224 107.116L11.1724 107.578C11.0044 108.007 10.7244 108.423 10.3324 108.824C9.94976 109.216 9.47376 109.538 8.90442 109.79C8.34442 110.042 7.70976 110.168 7.00042 110.168ZM16.4012 110.168C15.6919 110.168 15.0479 110 14.4692 109.664C13.8905 109.319 13.4285 108.852 13.0832 108.264C12.7472 107.667 12.5792 106.99 12.5792 106.234C12.5792 105.487 12.7472 104.82 13.0832 104.232C13.4192 103.644 13.8719 103.182 14.4412 102.846C15.0199 102.501 15.6732 102.328 16.4012 102.328C17.1292 102.328 17.7779 102.496 18.3472 102.832C18.9259 103.168 19.3785 103.63 19.7052 104.218C20.0412 104.806 20.2092 105.478 20.2092 106.234C20.2092 106.999 20.0365 107.681 19.6912 108.278C19.3459 108.866 18.8839 109.328 18.3052 109.664C17.7359 110 17.1012 110.168 16.4012 110.168ZM16.4012 109.118C16.9052 109.118 17.3579 108.992 17.7592 108.74C18.1699 108.488 18.4919 108.143 18.7252 107.704C18.9679 107.265 19.0892 106.775 19.0892 106.234C19.0892 105.693 18.9679 105.207 18.7252 104.778C18.4919 104.349 18.1699 104.008 17.7592 103.756C17.3579 103.504 16.9052 103.378 16.4012 103.378C15.8972 103.378 15.4399 103.504 15.0292 103.756C14.6279 104.008 14.3059 104.349 14.0632 104.778C13.8205 105.207 13.6992 105.693 13.6992 106.234C13.6992 106.775 13.8205 107.265 14.0632 107.704C14.3059 108.143 14.6279 108.488 15.0292 108.74C15.4399 108.992 15.8972 109.118 16.4012 109.118ZM22.061 110V102.496H23.111V103.952L22.873 103.896C23.0597 103.411 23.363 103.028 23.783 102.748C24.2124 102.468 24.707 102.328 25.267 102.328C25.799 102.328 26.275 102.449 26.695 102.692C27.1244 102.935 27.4604 103.271 27.703 103.7C27.955 104.12 28.081 104.596 28.081 105.128V110H27.031V105.534C27.031 105.077 26.947 104.689 26.779 104.372C26.6204 104.055 26.3917 103.812 26.093 103.644C25.8037 103.467 25.4677 103.378 25.085 103.378C24.7024 103.378 24.3617 103.467 24.063 103.644C23.7644 103.812 23.531 104.059 23.363 104.386C23.195 104.703 23.111 105.086 23.111 105.534V110H22.061ZM31.9517 110L29.0257 102.496H30.2017L32.6657 109.076H32.2877L34.7657 102.496H35.9557L33.0017 110H31.9517ZM40.4614 110.168C39.7614 110.168 39.1267 110 38.5574 109.664C37.9974 109.319 37.5541 108.847 37.2274 108.25C36.9007 107.653 36.7374 106.976 36.7374 106.22C36.7374 105.464 36.8961 104.797 37.2134 104.218C37.5307 103.63 37.9601 103.168 38.5014 102.832C39.0521 102.496 39.6681 102.328 40.3494 102.328C40.8907 102.328 41.3714 102.431 41.7914 102.636C42.2207 102.832 42.5847 103.103 42.8834 103.448C43.1821 103.784 43.4107 104.167 43.5694 104.596C43.7281 105.016 43.8074 105.45 43.8074 105.898C43.8074 105.991 43.8027 106.099 43.7934 106.22C43.7841 106.332 43.7701 106.449 43.7514 106.57H37.4094V105.59H43.1494L42.6454 106.01C42.7294 105.497 42.6687 105.039 42.4634 104.638C42.2674 104.227 41.9827 103.905 41.6094 103.672C41.2361 103.429 40.8161 103.308 40.3494 103.308C39.8827 103.308 39.4487 103.429 39.0474 103.672C38.6554 103.915 38.3474 104.255 38.1234 104.694C37.8994 105.123 37.8107 105.637 37.8574 106.234C37.8107 106.831 37.9041 107.354 38.1374 107.802C38.3801 108.241 38.7067 108.581 39.1174 108.824C39.5374 109.067 39.9854 109.188 40.4614 109.188C41.0121 109.188 41.4741 109.057 41.8474 108.796C42.2207 108.535 42.5241 108.208 42.7574 107.816L43.6534 108.292C43.5041 108.628 43.2754 108.941 42.9674 109.23C42.6594 109.51 42.2907 109.739 41.8614 109.916C41.4414 110.084 40.9747 110.168 40.4614 110.168ZM45.6587 110V102.496H46.7087V103.728L46.5687 103.546C46.746 103.191 47.012 102.911 47.3667 102.706C47.7307 102.501 48.1694 102.398 48.6827 102.398H49.1587V103.448H48.5007C47.9594 103.448 47.5254 103.616 47.1987 103.952C46.872 104.288 46.7087 104.764 46.7087 105.38V110H45.6587ZM52.9932 110.168C52.2745 110.168 51.6445 109.986 51.1032 109.622C50.5618 109.258 50.1698 108.763 49.9272 108.138L50.8092 107.718C51.0238 108.175 51.3225 108.539 51.7052 108.81C52.0972 109.081 52.5265 109.216 52.9932 109.216C53.4412 109.216 53.8192 109.109 54.1272 108.894C54.4352 108.67 54.5892 108.381 54.5892 108.026C54.5892 107.765 54.5145 107.559 54.3652 107.41C54.2158 107.251 54.0432 107.13 53.8472 107.046C53.6512 106.962 53.4785 106.901 53.3292 106.864L52.2512 106.556C51.5605 106.36 51.0612 106.085 50.7532 105.73C50.4452 105.375 50.2912 104.965 50.2912 104.498C50.2912 104.059 50.4032 103.677 50.6272 103.35C50.8512 103.023 51.1545 102.771 51.5372 102.594C51.9198 102.417 52.3445 102.328 52.8112 102.328C53.4458 102.328 54.0198 102.496 54.5332 102.832C55.0558 103.159 55.4245 103.616 55.6392 104.204L54.7432 104.624C54.5565 104.204 54.2858 103.877 53.9312 103.644C53.5858 103.401 53.1985 103.28 52.7692 103.28C52.3492 103.28 52.0132 103.387 51.7612 103.602C51.5092 103.817 51.3832 104.087 51.3832 104.414C51.3832 104.666 51.4485 104.867 51.5792 105.016C51.7098 105.165 51.8592 105.277 52.0272 105.352C52.2045 105.427 52.3585 105.483 52.4892 105.52L53.7352 105.884C54.3418 106.061 54.8132 106.337 55.1492 106.71C55.4945 107.083 55.6672 107.522 55.6672 108.026C55.6672 108.437 55.5505 108.805 55.3172 109.132C55.0932 109.459 54.7805 109.715 54.3792 109.902C53.9778 110.079 53.5158 110.168 52.9932 110.168ZM57.5122 110V102.496H58.5622V110H57.5122ZM57.5122 101.11V99.57H58.5622V101.11H57.5122ZM64.2254 110.168C63.5161 110.168 62.8721 110 62.2934 109.664C61.7148 109.319 61.2528 108.852 60.9074 108.264C60.5714 107.667 60.4034 106.99 60.4034 106.234C60.4034 105.487 60.5714 104.82 60.9074 104.232C61.2434 103.644 61.6961 103.182 62.2654 102.846C62.8441 102.501 63.4974 102.328 64.2254 102.328C64.9534 102.328 65.6021 102.496 66.1714 102.832C66.7501 103.168 67.2028 103.63 67.5294 104.218C67.8654 104.806 68.0334 105.478 68.0334 106.234C68.0334 106.999 67.8608 107.681 67.5154 108.278C67.1701 108.866 66.7081 109.328 66.1294 109.664C65.5601 110 64.9254 110.168 64.2254 110.168ZM64.2254 109.118C64.7294 109.118 65.1821 108.992 65.5834 108.74C65.9941 108.488 66.3161 108.143 66.5494 107.704C66.7921 107.265 66.9134 106.775 66.9134 106.234C66.9134 105.693 66.7921 105.207 66.5494 104.778C66.3161 104.349 65.9941 104.008 65.5834 103.756C65.1821 103.504 64.7294 103.378 64.2254 103.378C63.7214 103.378 63.2641 103.504 62.8534 103.756C62.4521 104.008 62.1301 104.349 61.8874 104.778C61.6448 105.207 61.5234 105.693 61.5234 106.234C61.5234 106.775 61.6448 107.265 61.8874 107.704C62.1301 108.143 62.4521 108.488 62.8534 108.74C63.2641 108.992 63.7214 109.118 64.2254 109.118ZM69.8853 110V102.496H70.9353V103.952L70.6973 103.896C70.8839 103.411 71.1873 103.028 71.6073 102.748C72.0366 102.468 72.5313 102.328 73.0913 102.328C73.6233 102.328 74.0993 102.449 74.5193 102.692C74.9486 102.935 75.2846 103.271 75.5273 103.7C75.7793 104.12 75.9053 104.596 75.9053 105.128V110H74.8553V105.534C74.8553 105.077 74.7713 104.689 74.6033 104.372C74.4446 104.055 74.2159 103.812 73.9173 103.644C73.6279 103.467 73.2919 103.378 72.9093 103.378C72.5266 103.378 72.1859 103.467 71.8873 103.644C71.5886 103.812 71.3553 104.059 71.1873 104.386C71.0193 104.703 70.9353 105.086 70.9353 105.534V110H69.8853ZM80.5146 110.168C79.796 110.168 79.166 109.986 78.6246 109.622C78.0833 109.258 77.6913 108.763 77.4486 108.138L78.3306 107.718C78.5453 108.175 78.844 108.539 79.2266 108.81C79.6186 109.081 80.048 109.216 80.5146 109.216C80.9626 109.216 81.3406 109.109 81.6486 108.894C81.9566 108.67 82.1106 108.381 82.1106 108.026C82.1106 107.765 82.036 107.559 81.8866 107.41C81.7373 107.251 81.5646 107.13 81.3686 107.046C81.1726 106.962 81 106.901 80.8506 106.864L79.7726 106.556C79.082 106.36 78.5826 106.085 78.2746 105.73C77.9666 105.375 77.8126 104.965 77.8126 104.498C77.8126 104.059 77.9246 103.677 78.1486 103.35C78.3726 103.023 78.676 102.771 79.0586 102.594C79.4413 102.417 79.866 102.328 80.3326 102.328C80.9673 102.328 81.5413 102.496 82.0546 102.832C82.5773 103.159 82.946 103.616 83.1606 104.204L82.2646 104.624C82.078 104.204 81.8073 103.877 81.4526 103.644C81.1073 103.401 80.72 103.28 80.2906 103.28C79.8706 103.28 79.5346 103.387 79.2826 103.602C79.0306 103.817 78.9046 104.087 78.9046 104.414C78.9046 104.666 78.97 104.867 79.1006 105.016C79.2313 105.165 79.3806 105.277 79.5486 105.352C79.726 105.427 79.88 105.483 80.0106 105.52L81.2566 105.884C81.8633 106.061 82.3346 106.337 82.6706 106.71C83.016 107.083 83.1886 107.522 83.1886 108.026C83.1886 108.437 83.072 108.805 82.8386 109.132C82.6146 109.459 82.302 109.715 81.9006 109.902C81.4993 110.079 81.0373 110.168 80.5146 110.168ZM83.9837 111.68L88.7157 100.144H89.9337L85.2017 111.68H83.9837ZM91.0356 110V102.496H92.0856V103.924L91.9176 103.714C92.123 103.275 92.4263 102.935 92.8276 102.692C93.2383 102.449 93.6863 102.328 94.1716 102.328C94.7503 102.328 95.273 102.491 95.7396 102.818C96.2063 103.145 96.5376 103.569 96.7336 104.092L96.4396 104.106C96.6263 103.527 96.9483 103.089 97.4056 102.79C97.8723 102.482 98.3856 102.328 98.9456 102.328C99.4496 102.328 99.9116 102.449 100.332 102.692C100.761 102.935 101.102 103.271 101.354 103.7C101.615 104.12 101.746 104.596 101.746 105.128V110H100.696V105.534C100.696 105.077 100.612 104.689 100.444 104.372C100.285 104.055 100.066 103.812 99.7856 103.644C99.5056 103.467 99.1836 103.378 98.8196 103.378C98.465 103.378 98.143 103.467 97.8536 103.644C97.5643 103.812 97.3356 104.059 97.1676 104.386C96.9996 104.703 96.9156 105.086 96.9156 105.534V110H95.8656V105.534C95.8656 105.077 95.7816 104.689 95.6136 104.372C95.455 104.055 95.2356 103.812 94.9556 103.644C94.6756 103.467 94.3536 103.378 93.9896 103.378C93.6256 103.378 93.299 103.467 93.0096 103.644C92.7296 103.812 92.5056 104.059 92.3376 104.386C92.1696 104.703 92.0856 105.086 92.0856 105.534V110H91.0356ZM107.264 110.168C106.555 110.168 105.911 110 105.332 109.664C104.754 109.319 104.292 108.852 103.946 108.264C103.61 107.667 103.442 106.99 103.442 106.234C103.442 105.487 103.61 104.82 103.946 104.232C104.282 103.644 104.735 103.182 105.304 102.846C105.883 102.501 106.536 102.328 107.264 102.328C107.992 102.328 108.641 102.496 109.21 102.832C109.789 103.168 110.242 103.63 110.568 104.218C110.904 104.806 111.072 105.478 111.072 106.234C111.072 106.999 110.9 107.681 110.554 108.278C110.209 108.866 109.747 109.328 109.168 109.664C108.599 110 107.964 110.168 107.264 110.168ZM107.264 109.118C107.768 109.118 108.221 108.992 108.622 108.74C109.033 108.488 109.355 108.143 109.588 107.704C109.831 107.265 109.952 106.775 109.952 106.234C109.952 105.693 109.831 105.207 109.588 104.778C109.355 104.349 109.033 104.008 108.622 103.756C108.221 103.504 107.768 103.378 107.264 103.378C106.76 103.378 106.303 103.504 105.892 103.756C105.491 104.008 105.169 104.349 104.926 104.778C104.684 105.207 104.562 105.693 104.562 106.234C104.562 106.775 104.684 107.265 104.926 107.704C105.169 108.143 105.491 108.488 105.892 108.74C106.303 108.992 106.76 109.118 107.264 109.118ZM112.924 110V102.496H113.974V103.952L113.736 103.896C113.923 103.411 114.226 103.028 114.646 102.748C115.076 102.468 115.57 102.328 116.13 102.328C116.662 102.328 117.138 102.449 117.558 102.692C117.988 102.935 118.324 103.271 118.566 103.7C118.818 104.12 118.944 104.596 118.944 105.128V110H117.894V105.534C117.894 105.077 117.81 104.689 117.642 104.372C117.484 104.055 117.255 103.812 116.956 103.644C116.667 103.467 116.331 103.378 115.948 103.378C115.566 103.378 115.225 103.467 114.926 103.644C114.628 103.812 114.394 104.059 114.226 104.386C114.058 104.703 113.974 105.086 113.974 105.534V110H112.924ZM123.82 110.084C123.148 110.084 122.63 109.888 122.266 109.496C121.902 109.104 121.72 108.544 121.72 107.816V103.546H120.334V102.496H120.684C121.001 102.496 121.253 102.393 121.44 102.188C121.626 101.973 121.72 101.707 121.72 101.39V100.76H122.77V102.496H124.422V103.546H122.77V107.816C122.77 108.068 122.807 108.292 122.882 108.488C122.956 108.675 123.082 108.824 123.26 108.936C123.446 109.048 123.694 109.104 124.002 109.104C124.076 109.104 124.165 109.099 124.268 109.09C124.37 109.081 124.459 109.071 124.534 109.062V110C124.422 110.028 124.296 110.047 124.156 110.056C124.016 110.075 123.904 110.084 123.82 110.084ZM126.377 110V99.402H127.427V103.952L127.189 103.896C127.376 103.411 127.679 103.028 128.099 102.748C128.529 102.468 129.023 102.328 129.583 102.328C130.115 102.328 130.591 102.449 131.011 102.692C131.441 102.935 131.777 103.271 132.019 103.7C132.271 104.12 132.397 104.596 132.397 105.128V110H131.347V105.534C131.347 105.077 131.263 104.689 131.095 104.372C130.927 104.055 130.694 103.812 130.395 103.644C130.106 103.467 129.775 103.378 129.401 103.378C129.028 103.378 128.692 103.467 128.393 103.644C128.095 103.812 127.857 104.059 127.679 104.386C127.511 104.703 127.427 105.086 127.427 105.534V110H126.377Z" fill="white"/>
<g clip-path="url(#clip0_14_1825)">
<path d="M132.653 167.834V452H71.8069V164.856L72.275 164.884L115.524 167.003L132.653 167.834Z" fill="#FFC700"/>
<path d="M132.667 181.654V452H71.8069V178.676L72.275 178.704L82.0236 179.175L88.3024 179.479L94.3333 179.784L97.4313 179.936L107.028 180.407L110.127 180.56L115.51 180.823L116.171 180.85L122.45 181.155L132.653 181.654H132.667Z" fill="#FFC700"/>
<path d="M71.8068 164.856V452H1.66663V194.393L10.9608 193.756V167.834L14.3756 167.668L19.2636 167.432L30.0862 166.906L36.2548 166.601L43.2358 166.255L49.4044 165.95L53.5489 165.757L54.9947 165.687L56.3854 165.618L62.554 165.313L69.2871 164.981L71.8068 164.856Z" fill="#FFF500"/>
<path d="M115.524 158.667V167.003L71.8068 164.856L74.8498 155.357L70.9669 140L96.0819 142.52L115.524 158.667Z" fill="#EF8F00"/>
<path d="M79.9031 159.705L81.2524 155.523L78.9392 146.37L93.3555 147.824L109.314 161.076V161.145L79.9031 159.705Z" fill="#FFC700"/>
<path d="M74.8499 155.357L71.8069 164.856L19.2637 167.432V157.725L39.9588 142.146L70.967 140L74.8499 155.357Z" fill="#F7BD79"/>
<g opacity="0.7">
<path d="M88.3023 193.327V452H82.0236V193.022L88.3023 193.327Z" fill="#F9FFD2"/>
<path d="M122.45 195.003V452H116.171V194.698L122.45 195.003Z" fill="#F9FFD2"/>
<path d="M110.126 177.79V452H94.3333V177.015L110.126 177.79Z" fill="#F9FFD2"/>
</g>
</g>
<defs>
<clipPath id="clip0_14_1825">
<rect width="131" height="312" fill="white" transform="translate(1.66663 140)"/>
</clipPath>
</defs>
</svg>
