<svg width="133" height="385" viewBox="0 0 133 385" fill="none" xmlns="http://www.w3.org/2000/svg">
<rect x="41.5" width="50" height="50" rx="25" fill="white"/>
<path d="M60.0142 17.8526C58.0278 17.84 57.7511 19.7769 57.7424 21.2358C57.7349 22.6947 57.9877 24.6617 59.9729 24.673C61.9582 24.6843 62.236 22.7223 62.2448 21.2609C62.2536 19.802 61.9995 17.8639 60.0142 17.8526ZM59.9517 28.494C54.7871 28.4639 52.4764 25.0268 52.5002 21.2057C52.5227 17.3834 54.8709 14.0014 60.0355 14.0328C65.2001 14.0617 67.5108 17.4712 67.4882 21.2935C67.4645 25.1133 65.1162 28.5241 59.9517 28.494Z" fill="#054164"/>
<path d="M73.0258 17.8514C71.0406 17.8388 70.7639 19.7757 70.7564 21.2359C70.7464 22.6948 71.0005 24.6605 72.987 24.6718C74.971 24.6843 75.2489 22.7211 75.2576 21.261C75.2651 19.802 75.011 17.8627 73.0258 17.8514ZM72.9632 28.4941C67.7999 28.4627 65.4892 25.0256 65.513 21.2045C65.5343 17.3835 67.8838 14.0002 73.0471 14.0304C78.2104 14.0605 80.5211 17.47 80.4998 21.2911C80.4773 25.1146 78.1278 28.5229 72.9632 28.4941Z" fill="#054164"/>
<path d="M54.4666 28.4954C58.1892 30.1625 62.052 30.9026 66.2616 30.9265C70.6839 30.9528 74.0372 30.1161 78.2818 28.4954L78.2568 33.0866C74.4578 34.9746 70.3371 35.9932 66.2315 35.9693C61.7566 35.943 58.5322 35.0222 54.4391 33.0866L54.4666 28.4954Z" fill="#054164"/>
<path d="M40.0444 86L47.4844 70.88H39.0604V68.12H50.9164V70.88L43.6444 86H40.0444ZM55.8747 86V70.904H52.4187V68.12H59.1387V86H55.8747ZM69.8983 86.288C68.4743 86.288 67.2263 85.904 66.1543 85.136C65.0823 84.368 64.2423 83.288 63.6343 81.896C63.0423 80.504 62.7463 78.888 62.7463 77.048C62.7463 75.192 63.0423 73.576 63.6343 72.2C64.2263 70.824 65.0583 69.752 66.1303 68.984C67.2023 68.216 68.4503 67.832 69.8743 67.832C71.3303 67.832 72.5863 68.216 73.6423 68.984C74.7143 69.752 75.5543 70.832 76.1623 72.224C76.7703 73.6 77.0743 75.208 77.0743 77.048C77.0743 78.888 76.7703 80.504 76.1623 81.896C75.5703 83.272 74.7383 84.352 73.6663 85.136C72.5943 85.904 71.3383 86.288 69.8983 86.288ZM69.9223 83.312C70.7383 83.312 71.4343 83.064 72.0103 82.568C72.5863 82.056 73.0263 81.336 73.3303 80.408C73.6503 79.464 73.8103 78.344 73.8103 77.048C73.8103 75.752 73.6503 74.64 73.3303 73.712C73.0263 72.768 72.5783 72.048 71.9863 71.552C71.4103 71.056 70.7063 70.808 69.8743 70.808C69.0743 70.808 68.3863 71.056 67.8103 71.552C67.2343 72.048 66.7863 72.768 66.4663 73.712C66.1623 74.64 66.0103 75.752 66.0103 77.048C66.0103 78.328 66.1623 79.44 66.4663 80.384C66.7863 81.312 67.2343 82.032 67.8103 82.544C68.4023 83.056 69.1063 83.312 69.9223 83.312ZM80.1225 86V68.12H83.3865V77.432L82.4985 77.12L90.1065 68.12H94.2105L87.0825 76.568L87.2745 74.264L94.4265 86H90.5865L85.7865 78.128L83.3865 80.984V86H80.1225Z" fill="white"/>
<path d="M6.3338 110.168C5.59646 110.168 4.9198 110.037 4.3038 109.776C3.6878 109.505 3.15113 109.132 2.6938 108.656C2.2458 108.171 1.8958 107.601 1.6438 106.948C1.3918 106.295 1.2658 105.576 1.2658 104.792C1.2658 104.008 1.3918 103.289 1.6438 102.636C1.8958 101.983 2.2458 101.413 2.6938 100.928C3.15113 100.443 3.6878 100.069 4.3038 99.808C4.9198 99.5373 5.59646 99.402 6.3338 99.402C7.04313 99.402 7.6778 99.528 8.2378 99.78C8.80713 100.032 9.28313 100.359 9.6658 100.76C10.0578 101.152 10.3378 101.567 10.5058 102.006L9.4558 102.468C9.19446 101.861 8.79313 101.376 8.2518 101.012C7.7198 100.639 7.08046 100.452 6.3338 100.452C5.56846 100.452 4.88713 100.634 4.2898 100.998C3.69246 101.362 3.2258 101.871 2.8898 102.524C2.5538 103.168 2.3858 103.924 2.3858 104.792C2.3858 105.651 2.5538 106.407 2.8898 107.06C3.2258 107.713 3.69246 108.222 4.2898 108.586C4.88713 108.941 5.56846 109.118 6.3338 109.118C7.08046 109.118 7.7198 108.936 8.2518 108.572C8.79313 108.208 9.19446 107.723 9.4558 107.116L10.5058 107.578C10.3378 108.007 10.0578 108.423 9.6658 108.824C9.28313 109.216 8.80713 109.538 8.2378 109.79C7.6778 110.042 7.04313 110.168 6.3338 110.168ZM15.7346 110.168C15.0252 110.168 14.3812 110 13.8026 109.664C13.2239 109.319 12.7619 108.852 12.4166 108.264C12.0806 107.667 11.9126 106.99 11.9126 106.234C11.9126 105.487 12.0806 104.82 12.4166 104.232C12.7526 103.644 13.2052 103.182 13.7746 102.846C14.3532 102.501 15.0066 102.328 15.7346 102.328C16.4626 102.328 17.1112 102.496 17.6806 102.832C18.2592 103.168 18.7119 103.63 19.0386 104.218C19.3746 104.806 19.5426 105.478 19.5426 106.234C19.5426 106.999 19.3699 107.681 19.0246 108.278C18.6792 108.866 18.2172 109.328 17.6386 109.664C17.0692 110 16.4346 110.168 15.7346 110.168ZM15.7346 109.118C16.2386 109.118 16.6912 108.992 17.0926 108.74C17.5032 108.488 17.8252 108.143 18.0586 107.704C18.3012 107.265 18.4226 106.775 18.4226 106.234C18.4226 105.693 18.3012 105.207 18.0586 104.778C17.8252 104.349 17.5032 104.008 17.0926 103.756C16.6912 103.504 16.2386 103.378 15.7346 103.378C15.2306 103.378 14.7732 103.504 14.3626 103.756C13.9612 104.008 13.6392 104.349 13.3966 104.778C13.1539 105.207 13.0326 105.693 13.0326 106.234C13.0326 106.775 13.1539 107.265 13.3966 107.704C13.6392 108.143 13.9612 108.488 14.3626 108.74C14.7732 108.992 15.2306 109.118 15.7346 109.118ZM21.3944 110V102.496H22.4444V103.952L22.2064 103.896C22.3931 103.411 22.6964 103.028 23.1164 102.748C23.5457 102.468 24.0404 102.328 24.6004 102.328C25.1324 102.328 25.6084 102.449 26.0284 102.692C26.4577 102.935 26.7937 103.271 27.0364 103.7C27.2884 104.12 27.4144 104.596 27.4144 105.128V110H26.3644V105.534C26.3644 105.077 26.2804 104.689 26.1124 104.372C25.9537 104.055 25.7251 103.812 25.4264 103.644C25.1371 103.467 24.8011 103.378 24.4184 103.378C24.0357 103.378 23.6951 103.467 23.3964 103.644C23.0977 103.812 22.8644 104.059 22.6964 104.386C22.5284 104.703 22.4444 105.086 22.4444 105.534V110H21.3944ZM31.2851 110L28.3591 102.496H29.5351L31.9991 109.076H31.6211L34.0991 102.496H35.2891L32.3351 110H31.2851ZM39.7948 110.168C39.0948 110.168 38.4601 110 37.8908 109.664C37.3308 109.319 36.8874 108.847 36.5608 108.25C36.2341 107.653 36.0708 106.976 36.0708 106.22C36.0708 105.464 36.2294 104.797 36.5468 104.218C36.8641 103.63 37.2934 103.168 37.8348 102.832C38.3854 102.496 39.0014 102.328 39.6828 102.328C40.2241 102.328 40.7048 102.431 41.1248 102.636C41.5541 102.832 41.9181 103.103 42.2168 103.448C42.5154 103.784 42.7441 104.167 42.9028 104.596C43.0614 105.016 43.1408 105.45 43.1408 105.898C43.1408 105.991 43.1361 106.099 43.1268 106.22C43.1174 106.332 43.1034 106.449 43.0848 106.57H36.7428V105.59H42.4828L41.9788 106.01C42.0628 105.497 42.0021 105.039 41.7968 104.638C41.6008 104.227 41.3161 103.905 40.9428 103.672C40.5694 103.429 40.1494 103.308 39.6828 103.308C39.2161 103.308 38.7821 103.429 38.3808 103.672C37.9888 103.915 37.6808 104.255 37.4568 104.694C37.2328 105.123 37.1441 105.637 37.1908 106.234C37.1441 106.831 37.2374 107.354 37.4708 107.802C37.7134 108.241 38.0401 108.581 38.4508 108.824C38.8708 109.067 39.3188 109.188 39.7948 109.188C40.3454 109.188 40.8074 109.057 41.1808 108.796C41.5541 108.535 41.8574 108.208 42.0908 107.816L42.9868 108.292C42.8374 108.628 42.6088 108.941 42.3008 109.23C41.9928 109.51 41.6241 109.739 41.1948 109.916C40.7748 110.084 40.3081 110.168 39.7948 110.168ZM44.9921 110V102.496H46.0421V103.728L45.9021 103.546C46.0794 103.191 46.3454 102.911 46.7001 102.706C47.0641 102.501 47.5027 102.398 48.0161 102.398H48.4921V103.448H47.8341C47.2927 103.448 46.8587 103.616 46.5321 103.952C46.2054 104.288 46.0421 104.764 46.0421 105.38V110H44.9921ZM52.3265 110.168C51.6079 110.168 50.9779 109.986 50.4365 109.622C49.8952 109.258 49.5032 108.763 49.2605 108.138L50.1425 107.718C50.3572 108.175 50.6559 108.539 51.0385 108.81C51.4305 109.081 51.8599 109.216 52.3265 109.216C52.7745 109.216 53.1525 109.109 53.4605 108.894C53.7685 108.67 53.9225 108.381 53.9225 108.026C53.9225 107.765 53.8479 107.559 53.6985 107.41C53.5492 107.251 53.3765 107.13 53.1805 107.046C52.9845 106.962 52.8119 106.901 52.6625 106.864L51.5845 106.556C50.8939 106.36 50.3945 106.085 50.0865 105.73C49.7785 105.375 49.6245 104.965 49.6245 104.498C49.6245 104.059 49.7365 103.677 49.9605 103.35C50.1845 103.023 50.4879 102.771 50.8705 102.594C51.2532 102.417 51.6779 102.328 52.1445 102.328C52.7792 102.328 53.3532 102.496 53.8665 102.832C54.3892 103.159 54.7579 103.616 54.9725 104.204L54.0765 104.624C53.8899 104.204 53.6192 103.877 53.2645 103.644C52.9192 103.401 52.5319 103.28 52.1025 103.28C51.6825 103.28 51.3465 103.387 51.0945 103.602C50.8425 103.817 50.7165 104.087 50.7165 104.414C50.7165 104.666 50.7819 104.867 50.9125 105.016C51.0432 105.165 51.1925 105.277 51.3605 105.352C51.5379 105.427 51.6919 105.483 51.8225 105.52L53.0685 105.884C53.6752 106.061 54.1465 106.337 54.4825 106.71C54.8279 107.083 55.0005 107.522 55.0005 108.026C55.0005 108.437 54.8839 108.805 54.6505 109.132C54.4265 109.459 54.1139 109.715 53.7125 109.902C53.3112 110.079 52.8492 110.168 52.3265 110.168ZM56.8456 110V102.496H57.8956V110H56.8456ZM56.8456 101.11V99.57H57.8956V101.11H56.8456ZM63.5588 110.168C62.8495 110.168 62.2055 110 61.6268 109.664C61.0481 109.319 60.5861 108.852 60.2408 108.264C59.9048 107.667 59.7368 106.99 59.7368 106.234C59.7368 105.487 59.9048 104.82 60.2408 104.232C60.5768 103.644 61.0295 103.182 61.5988 102.846C62.1775 102.501 62.8308 102.328 63.5588 102.328C64.2868 102.328 64.9355 102.496 65.5048 102.832C66.0835 103.168 66.5361 103.63 66.8628 104.218C67.1988 104.806 67.3668 105.478 67.3668 106.234C67.3668 106.999 67.1941 107.681 66.8488 108.278C66.5035 108.866 66.0415 109.328 65.4628 109.664C64.8935 110 64.2588 110.168 63.5588 110.168ZM63.5588 109.118C64.0628 109.118 64.5155 108.992 64.9168 108.74C65.3275 108.488 65.6495 108.143 65.8828 107.704C66.1255 107.265 66.2468 106.775 66.2468 106.234C66.2468 105.693 66.1255 105.207 65.8828 104.778C65.6495 104.349 65.3275 104.008 64.9168 103.756C64.5155 103.504 64.0628 103.378 63.5588 103.378C63.0548 103.378 62.5975 103.504 62.1868 103.756C61.7855 104.008 61.4635 104.349 61.2208 104.778C60.9781 105.207 60.8568 105.693 60.8568 106.234C60.8568 106.775 60.9781 107.265 61.2208 107.704C61.4635 108.143 61.7855 108.488 62.1868 108.74C62.5975 108.992 63.0548 109.118 63.5588 109.118ZM69.2186 110V102.496H70.2686V103.952L70.0306 103.896C70.2173 103.411 70.5206 103.028 70.9406 102.748C71.37 102.468 71.8646 102.328 72.4246 102.328C72.9566 102.328 73.4326 102.449 73.8526 102.692C74.282 102.935 74.618 103.271 74.8606 103.7C75.1126 104.12 75.2386 104.596 75.2386 105.128V110H74.1886V105.534C74.1886 105.077 74.1046 104.689 73.9366 104.372C73.778 104.055 73.5493 103.812 73.2506 103.644C72.9613 103.467 72.6253 103.378 72.2426 103.378C71.86 103.378 71.5193 103.467 71.2206 103.644C70.922 103.812 70.6886 104.059 70.5206 104.386C70.3526 104.703 70.2686 105.086 70.2686 105.534V110H69.2186ZM79.848 110.168C79.1293 110.168 78.4993 109.986 77.958 109.622C77.4167 109.258 77.0247 108.763 76.782 108.138L77.664 107.718C77.8787 108.175 78.1773 108.539 78.56 108.81C78.952 109.081 79.3813 109.216 79.848 109.216C80.296 109.216 80.674 109.109 80.982 108.894C81.29 108.67 81.444 108.381 81.444 108.026C81.444 107.765 81.3693 107.559 81.22 107.41C81.0707 107.251 80.898 107.13 80.702 107.046C80.506 106.962 80.3333 106.901 80.184 106.864L79.106 106.556C78.4153 106.36 77.916 106.085 77.608 105.73C77.3 105.375 77.146 104.965 77.146 104.498C77.146 104.059 77.258 103.677 77.482 103.35C77.706 103.023 78.0093 102.771 78.392 102.594C78.7747 102.417 79.1993 102.328 79.666 102.328C80.3007 102.328 80.8747 102.496 81.388 102.832C81.9107 103.159 82.2793 103.616 82.494 104.204L81.598 104.624C81.4113 104.204 81.1407 103.877 80.786 103.644C80.4407 103.401 80.0533 103.28 79.624 103.28C79.204 103.28 78.868 103.387 78.616 103.602C78.364 103.817 78.238 104.087 78.238 104.414C78.238 104.666 78.3033 104.867 78.434 105.016C78.5647 105.165 78.714 105.277 78.882 105.352C79.0593 105.427 79.2133 105.483 79.344 105.52L80.59 105.884C81.1967 106.061 81.668 106.337 82.004 106.71C82.3493 107.083 82.522 107.522 82.522 108.026C82.522 108.437 82.4053 108.805 82.172 109.132C81.948 109.459 81.6353 109.715 81.234 109.902C80.8327 110.079 80.3707 110.168 79.848 110.168ZM83.3171 111.68L88.0491 100.144H89.2671L84.5351 111.68H83.3171ZM90.369 110V102.496H91.419V103.924L91.251 103.714C91.4563 103.275 91.7597 102.935 92.161 102.692C92.5717 102.449 93.0197 102.328 93.505 102.328C94.0837 102.328 94.6063 102.491 95.073 102.818C95.5397 103.145 95.871 103.569 96.067 104.092L95.773 104.106C95.9597 103.527 96.2817 103.089 96.739 102.79C97.2057 102.482 97.719 102.328 98.279 102.328C98.783 102.328 99.245 102.449 99.665 102.692C100.094 102.935 100.435 103.271 100.687 103.7C100.948 104.12 101.079 104.596 101.079 105.128V110H100.029V105.534C100.029 105.077 99.945 104.689 99.777 104.372C99.6183 104.055 99.399 103.812 99.119 103.644C98.839 103.467 98.517 103.378 98.153 103.378C97.7983 103.378 97.4763 103.467 97.187 103.644C96.8977 103.812 96.669 104.059 96.501 104.386C96.333 104.703 96.249 105.086 96.249 105.534V110H95.199V105.534C95.199 105.077 95.115 104.689 94.947 104.372C94.7883 104.055 94.569 103.812 94.289 103.644C94.009 103.467 93.687 103.378 93.323 103.378C92.959 103.378 92.6323 103.467 92.343 103.644C92.063 103.812 91.839 104.059 91.671 104.386C91.503 104.703 91.419 105.086 91.419 105.534V110H90.369ZM106.598 110.168C105.889 110.168 105.245 110 104.666 109.664C104.087 109.319 103.625 108.852 103.28 108.264C102.944 107.667 102.776 106.99 102.776 106.234C102.776 105.487 102.944 104.82 103.28 104.232C103.616 103.644 104.069 103.182 104.638 102.846C105.217 102.501 105.87 102.328 106.598 102.328C107.326 102.328 107.975 102.496 108.544 102.832C109.123 103.168 109.575 103.63 109.902 104.218C110.238 104.806 110.406 105.478 110.406 106.234C110.406 106.999 110.233 107.681 109.888 108.278C109.543 108.866 109.081 109.328 108.502 109.664C107.933 110 107.298 110.168 106.598 110.168ZM106.598 109.118C107.102 109.118 107.555 108.992 107.956 108.74C108.367 108.488 108.689 108.143 108.922 107.704C109.165 107.265 109.286 106.775 109.286 106.234C109.286 105.693 109.165 105.207 108.922 104.778C108.689 104.349 108.367 104.008 107.956 103.756C107.555 103.504 107.102 103.378 106.598 103.378C106.094 103.378 105.637 103.504 105.226 103.756C104.825 104.008 104.503 104.349 104.26 104.778C104.017 105.207 103.896 105.693 103.896 106.234C103.896 106.775 104.017 107.265 104.26 107.704C104.503 108.143 104.825 108.488 105.226 108.74C105.637 108.992 106.094 109.118 106.598 109.118ZM112.258 110V102.496H113.308V103.952L113.07 103.896C113.256 103.411 113.56 103.028 113.98 102.748C114.409 102.468 114.904 102.328 115.464 102.328C115.996 102.328 116.472 102.449 116.892 102.692C117.321 102.935 117.657 103.271 117.9 103.7C118.152 104.12 118.278 104.596 118.278 105.128V110H117.228V105.534C117.228 105.077 117.144 104.689 116.976 104.372C116.817 104.055 116.588 103.812 116.29 103.644C116 103.467 115.664 103.378 115.282 103.378C114.899 103.378 114.558 103.467 114.26 103.644C113.961 103.812 113.728 104.059 113.56 104.386C113.392 104.703 113.308 105.086 113.308 105.534V110H112.258ZM123.153 110.084C122.481 110.084 121.963 109.888 121.599 109.496C121.235 109.104 121.053 108.544 121.053 107.816V103.546H119.667V102.496H120.017C120.334 102.496 120.586 102.393 120.773 102.188C120.96 101.973 121.053 101.707 121.053 101.39V100.76H122.103V102.496H123.755V103.546H122.103V107.816C122.103 108.068 122.14 108.292 122.215 108.488C122.29 108.675 122.416 108.824 122.593 108.936C122.78 109.048 123.027 109.104 123.335 109.104C123.41 109.104 123.498 109.099 123.601 109.09C123.704 109.081 123.792 109.071 123.867 109.062V110C123.755 110.028 123.629 110.047 123.489 110.056C123.349 110.075 123.237 110.084 123.153 110.084ZM125.711 110V99.402H126.761V103.952L126.523 103.896C126.709 103.411 127.013 103.028 127.433 102.748C127.862 102.468 128.357 102.328 128.917 102.328C129.449 102.328 129.925 102.449 130.345 102.692C130.774 102.935 131.11 103.271 131.353 103.7C131.605 104.12 131.731 104.596 131.731 105.128V110H130.681V105.534C130.681 105.077 130.597 104.689 130.429 104.372C130.261 104.055 130.027 103.812 129.729 103.644C129.439 103.467 129.108 103.378 128.735 103.378C128.361 103.378 128.025 103.467 127.727 103.644C127.428 103.812 127.19 104.059 127.013 104.386C126.845 104.703 126.761 105.086 126.761 105.534V110H125.711Z" fill="white"/>
<g clip-path="url(#clip0_14_1574)">
<path d="M66.4948 188.661V385H20V192.37L28.1074 191.722L37.6025 190.97L47.8802 190.145L66.4948 188.661Z" fill="#FFC700"/>
<path d="M28.1074 164.508V191.722L66.4948 188.662V159.139L40.9415 162.712L28.1074 164.508Z" fill="#FFC700"/>
<path opacity="0.6" d="M60.2656 181.808V167.402L34.347 171.017V183.877L60.2656 181.808Z" fill="#F9FFD2"/>
<path d="M113 191.137V385H66.4948V188.661L86.3719 189.717L86.6849 189.738L91.1821 189.967L95.9922 190.229L101.428 190.511L104.903 190.699L106.249 190.772L111.685 191.064L113 191.137Z" fill="#FFF500"/>
<g opacity="0.6">
<path d="M61.0168 194.94V199.537L25.4779 201.887V197.291L61.0168 194.94Z" fill="#F9FFD2"/>
<path d="M61.0168 202.462V206.954L25.4779 209.294V204.802L61.0168 202.462Z" fill="#F9FFD2"/>
<path d="M61.0168 209.984V214.371L25.4779 216.722V212.334L61.0168 209.984Z" fill="#F9FFD2"/>
<path d="M61.0168 217.505V221.788L25.4779 224.129V219.856L61.0168 217.505Z" fill="#F9FFD2"/>
<path d="M61.0168 225.027V229.206L25.4779 231.546V227.367L61.0168 225.027Z" fill="#F9FFD2"/>
<path d="M61.0168 232.538V236.623L25.4779 238.953V234.889L61.0168 232.538Z" fill="#F9FFD2"/>
<path d="M61.0168 240.071V244.04L25.4779 246.38V242.411L61.0168 240.071Z" fill="#F9FFD2"/>
<path d="M61.0168 247.582V251.447L25.4779 253.798V249.932L61.0168 247.582Z" fill="#F9FFD2"/>
<path d="M61.0168 255.104V258.865L25.4779 261.205V257.444L61.0168 255.104Z" fill="#F9FFD2"/>
<path d="M61.0168 262.625V266.282L25.4779 268.632V264.965L61.0168 262.625Z" fill="#F9FFD2"/>
<path d="M61.0168 270.147V273.699L25.4779 276.039V272.498L61.0168 270.147Z" fill="#F9FFD2"/>
<path d="M61.0168 277.669V281.106L25.4779 283.456V280.009L61.0168 277.669Z" fill="#F9FFD2"/>
<path d="M61.0168 285.18V288.534L25.4779 290.884V287.531L61.0168 285.18Z" fill="#F9FFD2"/>
<path d="M61.0168 292.712V295.951L25.4779 298.291V295.042L61.0168 292.712Z" fill="#F9FFD2"/>
<path d="M61.0168 300.234V303.358L25.4779 305.708V302.574L61.0168 300.234Z" fill="#F9FFD2"/>
<path d="M61.0168 307.745V310.785L25.4779 313.125V310.096L61.0168 307.745Z" fill="#F9FFD2"/>
<path d="M61.0168 315.267V318.192L25.4779 320.543V317.607L61.0168 315.267Z" fill="#F9FFD2"/>
<path d="M61.0168 322.789V325.609L25.4779 327.95V325.139L61.0168 322.789Z" fill="#F9FFD2"/>
<path d="M61.0168 330.311V333.027L25.4779 335.377V332.651L61.0168 330.311Z" fill="#F9FFD2"/>
<path d="M61.0168 337.832V340.444L25.4779 342.795V340.173L61.0168 337.832Z" fill="#F9FFD2"/>
<path d="M61.0168 345.344V347.861L25.4779 350.201V347.694L61.0168 345.344Z" fill="#F9FFD2"/>
<path d="M61.0168 352.876V355.279L25.4779 357.619V355.216L61.0168 352.876Z" fill="#F9FFD2"/>
<path d="M61.0168 360.387V362.696L25.4779 365.036V362.738L61.0168 360.387Z" fill="#F9FFD2"/>
<path d="M61.0168 367.909V370.103L25.4779 372.453V370.249L61.0168 367.909Z" fill="#F9FFD2"/>
<path d="M61.0168 375.42V377.52L25.4779 379.86V377.771L61.0168 375.42Z" fill="#F9FFD2"/>
</g>
<path d="M66.4948 159.139V188.662L104.903 190.699V163.265L91.9229 161.876L66.4948 159.139Z" fill="#FFF500"/>
<path d="M40.9414 162.711L66.4948 159.483L91.9229 161.938C89.4604 149.402 79.0158 140 66.4948 140C53.7337 140 43.1222 149.799 40.9414 162.711Z" fill="#EF8F00"/>
<path d="M59.483 141.045C63.9308 142.448 67.9379 144.985 71.1115 148.406C74.2852 151.827 76.5164 156.015 77.5864 160.559L91.923 161.938C89.4605 149.402 79.0158 140 66.5052 140C64.1266 140.009 61.7616 140.361 59.483 141.045Z" fill="#F7BD79"/>
</g>
<defs>
<clipPath id="clip0_14_1574">
<rect width="93" height="245" fill="white" transform="translate(20 140)"/>
</clipPath>
</defs>
</svg>
