<svg width="160" height="672" viewBox="0 0 160 672" fill="none" xmlns="http://www.w3.org/2000/svg">
<rect x="55" width="50" height="50" rx="25" fill="white"/>
<path d="M75.9585 25.5141C73.7382 25.5141 71.9444 27.3078 71.9772 29.5063C71.9991 30.9172 72.7757 32.1422 73.9187 32.8258C73.5304 32.2297 73.3007 31.5242 73.2897 30.7641C73.2569 28.5656 75.0507 26.7719 77.271 26.7719C77.7085 26.7719 78.1296 26.843 78.5233 26.9688V22.5664C78.1132 22.5063 77.6921 22.4734 77.271 22.4734C77.2491 22.4734 77.2327 22.4734 77.2108 22.4734V25.7109C76.8171 25.5852 76.396 25.5141 75.9585 25.5141Z" fill="#F00044"/>
<path d="M85.5562 12.3125H85.5234H84.3859C84.714 13.9586 85.6382 15.3914 86.9288 16.3648C86.0812 15.2437 85.5671 13.8437 85.5562 12.3125Z" fill="#F00044"/>
<path d="M92.25 19.0117C91.8179 19.0117 91.4023 18.968 90.9921 18.8914V22.0469C89.5046 22.0469 88.0609 21.757 86.7046 21.1773C85.8296 20.8055 85.0148 20.3297 84.2656 19.7555L84.2875 29.4844C84.2765 31.6719 83.4125 33.7227 81.8484 35.2703C80.5742 36.5281 78.9609 37.332 77.2109 37.5891C76.8007 37.6492 76.3796 37.682 75.9585 37.682C74.0882 37.682 72.3054 37.075 70.8562 35.9539C71.0203 36.1508 71.1953 36.3422 71.3867 36.5281C72.9617 38.0813 75.0507 38.9398 77.2765 38.9398C77.6976 38.9398 78.1187 38.907 78.5289 38.8469C80.2789 38.5898 81.8921 37.7859 83.1664 36.5281C84.7304 34.9805 85.5945 32.9297 85.6054 30.7422L85.5234 21.0133C86.2671 21.5875 87.082 22.0688 87.9625 22.4352C89.3242 23.0094 90.7679 23.3047 92.25 23.3047" fill="#F00044"/>
<path d="M71.3703 24.8961C72.9289 23.3484 75.0015 22.4898 77.2109 22.4734V21.3086C76.8008 21.2484 76.3797 21.2156 75.9586 21.2156C73.7273 21.2156 71.6328 22.0742 70.0578 23.6383C68.5101 25.175 67.6242 27.275 67.6297 29.457C67.6297 31.6555 68.4992 33.7172 70.0687 35.2758C70.3203 35.5219 70.5773 35.7516 70.8508 35.9594C69.6148 34.4883 68.9422 32.6508 68.9367 30.7148C68.9422 28.5328 69.8226 26.4328 71.3703 24.8961Z" fill="#08FFF9"/>
<path d="M90.9921 18.8914V17.7211H90.9812C89.4609 17.7211 88.0609 17.218 86.9343 16.3648C87.9132 17.6555 89.346 18.5742 90.9921 18.8914Z" fill="#08FFF9"/>
<path d="M77.0468 34.6359C77.5664 34.6633 78.064 34.5922 78.5234 34.4445C80.1093 33.925 81.2523 32.4484 81.2523 30.7094L81.2578 24.2016V12.3125H84.3859C84.3039 11.9023 84.2601 11.4867 84.2546 11.0547H79.9453V22.9383L79.9398 29.4461C79.9398 31.1852 78.7968 32.6617 77.2109 33.1812C76.7515 33.3344 76.2539 33.4055 75.7343 33.3727C75.0726 33.3344 74.4546 33.1375 73.9187 32.8203C74.5914 33.8594 75.7398 34.5648 77.0468 34.6359Z" fill="#08FFF9"/>
<path d="M77.2109 37.5891C78.9609 37.332 80.5742 36.5281 81.8484 35.2703C83.4125 33.7227 84.2765 31.6719 84.2875 29.4844L84.2656 19.7555C85.0094 20.3297 85.8242 20.8109 86.7047 21.1773C88.0664 21.7516 89.5101 22.0469 90.9922 22.0469V18.8914C89.3461 18.5742 87.9133 17.6555 86.9344 16.3648C85.6437 15.3914 84.714 13.9586 84.3914 12.3125H81.2578V24.1961L81.2523 30.7039C81.2523 32.443 80.1094 33.9195 78.5234 34.4391C78.064 34.5922 77.5664 34.6633 77.0469 34.6305C75.7344 34.5594 74.5914 33.8539 73.9187 32.8203C72.7758 32.1422 71.9992 30.9117 71.9773 29.5008C71.9445 27.3023 73.7383 25.5086 75.9586 25.5086C76.3961 25.5086 76.8172 25.5797 77.2109 25.7055V22.468C75.0015 22.4844 72.9289 23.343 71.3703 24.8906C69.8226 26.4273 68.9367 28.5273 68.9422 30.7039C68.9422 32.6398 69.6148 34.4773 70.8562 35.9484C72.3109 37.0695 74.0883 37.6766 75.9586 37.6766C76.3797 37.682 76.8008 37.6492 77.2109 37.5891Z" fill="black"/>
<path d="M51.479 86V83.528L56.327 78.464C57.287 77.456 58.023 76.656 58.535 76.064C59.063 75.456 59.431 74.936 59.639 74.504C59.847 74.072 59.951 73.632 59.951 73.184C59.951 72.432 59.711 71.84 59.231 71.408C58.767 70.976 58.167 70.76 57.431 70.76C56.663 70.76 55.999 70.984 55.439 71.432C54.879 71.864 54.471 72.504 54.215 73.352L51.359 72.464C51.551 71.52 51.943 70.704 52.535 70.016C53.127 69.312 53.847 68.776 54.695 68.408C55.559 68.024 56.471 67.832 57.431 67.832C58.583 67.832 59.591 68.04 60.455 68.456C61.335 68.872 62.015 69.456 62.495 70.208C62.991 70.96 63.239 71.84 63.239 72.848C63.239 73.488 63.119 74.12 62.879 74.744C62.639 75.368 62.279 76.008 61.799 76.664C61.319 77.304 60.695 78.024 59.927 78.824L55.727 83.24H63.479V86H51.479ZM67.6473 86V82.64H70.8153V86H67.6473ZM76.0216 86L82.0936 78.176L82.6456 78.752C82.4056 78.928 82.1736 79.072 81.9496 79.184C81.7256 79.296 81.4856 79.376 81.2296 79.424C80.9736 79.472 80.7016 79.496 80.4136 79.496C79.3256 79.496 78.3576 79.248 77.5096 78.752C76.6616 78.256 75.9896 77.584 75.4936 76.736C75.0136 75.872 74.7736 74.896 74.7736 73.808C74.7736 72.656 75.0376 71.632 75.5656 70.736C76.1096 69.84 76.8456 69.136 77.7736 68.624C78.7176 68.096 79.7896 67.832 80.9896 67.832C82.2056 67.832 83.2776 68.088 84.2056 68.6C85.1336 69.112 85.8616 69.816 86.3896 70.712C86.9336 71.592 87.2056 72.608 87.2056 73.76C87.2056 74.336 87.1416 74.912 87.0136 75.488C86.8856 76.064 86.6536 76.68 86.3176 77.336C85.9976 77.976 85.5336 78.704 84.9256 79.52L79.9336 86H76.0216ZM80.9896 76.76C81.5496 76.76 82.0456 76.64 82.4776 76.4C82.9256 76.144 83.2776 75.792 83.5336 75.344C83.7896 74.88 83.9176 74.36 83.9176 73.784C83.9176 73.176 83.7816 72.648 83.5096 72.2C83.2536 71.752 82.9096 71.4 82.4776 71.144C82.0456 70.888 81.5496 70.76 80.9896 70.76C80.4456 70.76 79.9496 70.888 79.5016 71.144C79.0536 71.4 78.6936 71.752 78.4216 72.2C78.1656 72.648 78.0376 73.176 78.0376 73.784C78.0376 74.36 78.1656 74.88 78.4216 75.344C78.6936 75.792 79.0536 76.144 79.5016 76.4C79.9496 76.64 80.4456 76.76 80.9896 76.76ZM89.9311 86V68.12H93.0511L99.7471 77.216H98.2591L104.811 68.12H107.931V86H104.643V71.84L105.915 72.152L99.1231 81.2H98.7391L92.1151 72.152L93.1951 71.84V86H89.9311Z" fill="white"/>
<path d="M19.8338 110.168C19.0965 110.168 18.4198 110.037 17.8038 109.776C17.1878 109.505 16.6511 109.132 16.1938 108.656C15.7458 108.171 15.3958 107.601 15.1438 106.948C14.8918 106.295 14.7658 105.576 14.7658 104.792C14.7658 104.008 14.8918 103.289 15.1438 102.636C15.3958 101.983 15.7458 101.413 16.1938 100.928C16.6511 100.443 17.1878 100.069 17.8038 99.808C18.4198 99.5373 19.0965 99.402 19.8338 99.402C20.5431 99.402 21.1778 99.528 21.7378 99.78C22.3071 100.032 22.7831 100.359 23.1658 100.76C23.5578 101.152 23.8378 101.567 24.0058 102.006L22.9558 102.468C22.6945 101.861 22.2931 101.376 21.7518 101.012C21.2198 100.639 20.5805 100.452 19.8338 100.452C19.0685 100.452 18.3871 100.634 17.7898 100.998C17.1925 101.362 16.7258 101.871 16.3898 102.524C16.0538 103.168 15.8858 103.924 15.8858 104.792C15.8858 105.651 16.0538 106.407 16.3898 107.06C16.7258 107.713 17.1925 108.222 17.7898 108.586C18.3871 108.941 19.0685 109.118 19.8338 109.118C20.5805 109.118 21.2198 108.936 21.7518 108.572C22.2931 108.208 22.6945 107.723 22.9558 107.116L24.0058 107.578C23.8378 108.007 23.5578 108.423 23.1658 108.824C22.7831 109.216 22.3071 109.538 21.7378 109.79C21.1778 110.042 20.5431 110.168 19.8338 110.168ZM29.2346 110.168C28.5252 110.168 27.8812 110 27.3026 109.664C26.7239 109.319 26.2619 108.852 25.9166 108.264C25.5806 107.667 25.4126 106.99 25.4126 106.234C25.4126 105.487 25.5806 104.82 25.9166 104.232C26.2526 103.644 26.7052 103.182 27.2746 102.846C27.8532 102.501 28.5066 102.328 29.2346 102.328C29.9626 102.328 30.6112 102.496 31.1806 102.832C31.7592 103.168 32.2119 103.63 32.5386 104.218C32.8746 104.806 33.0426 105.478 33.0426 106.234C33.0426 106.999 32.8699 107.681 32.5246 108.278C32.1792 108.866 31.7172 109.328 31.1386 109.664C30.5692 110 29.9346 110.168 29.2346 110.168ZM29.2346 109.118C29.7386 109.118 30.1912 108.992 30.5926 108.74C31.0032 108.488 31.3252 108.143 31.5586 107.704C31.8012 107.265 31.9226 106.775 31.9226 106.234C31.9226 105.693 31.8012 105.207 31.5586 104.778C31.3252 104.349 31.0032 104.008 30.5926 103.756C30.1912 103.504 29.7386 103.378 29.2346 103.378C28.7306 103.378 28.2732 103.504 27.8626 103.756C27.4612 104.008 27.1392 104.349 26.8966 104.778C26.6539 105.207 26.5326 105.693 26.5326 106.234C26.5326 106.775 26.6539 107.265 26.8966 107.704C27.1392 108.143 27.4612 108.488 27.8626 108.74C28.2732 108.992 28.7306 109.118 29.2346 109.118ZM34.8944 110V102.496H35.9444V103.952L35.7064 103.896C35.8931 103.411 36.1964 103.028 36.6164 102.748C37.0457 102.468 37.5404 102.328 38.1004 102.328C38.6324 102.328 39.1084 102.449 39.5284 102.692C39.9577 102.935 40.2937 103.271 40.5364 103.7C40.7884 104.12 40.9144 104.596 40.9144 105.128V110H39.8644V105.534C39.8644 105.077 39.7804 104.689 39.6124 104.372C39.4537 104.055 39.2251 103.812 38.9264 103.644C38.6371 103.467 38.3011 103.378 37.9184 103.378C37.5357 103.378 37.1951 103.467 36.8964 103.644C36.5977 103.812 36.3644 104.059 36.1964 104.386C36.0284 104.703 35.9444 105.086 35.9444 105.534V110H34.8944ZM44.7851 110L41.8591 102.496H43.0351L45.4991 109.076H45.1211L47.5991 102.496H48.7891L45.8351 110H44.7851ZM53.2948 110.168C52.5948 110.168 51.9601 110 51.3908 109.664C50.8308 109.319 50.3874 108.847 50.0608 108.25C49.7341 107.653 49.5708 106.976 49.5708 106.22C49.5708 105.464 49.7294 104.797 50.0468 104.218C50.3641 103.63 50.7934 103.168 51.3348 102.832C51.8854 102.496 52.5014 102.328 53.1828 102.328C53.7241 102.328 54.2048 102.431 54.6248 102.636C55.0541 102.832 55.4181 103.103 55.7168 103.448C56.0154 103.784 56.2441 104.167 56.4028 104.596C56.5614 105.016 56.6408 105.45 56.6408 105.898C56.6408 105.991 56.6361 106.099 56.6268 106.22C56.6174 106.332 56.6034 106.449 56.5848 106.57H50.2428V105.59H55.9828L55.4788 106.01C55.5628 105.497 55.5021 105.039 55.2968 104.638C55.1008 104.227 54.8161 103.905 54.4428 103.672C54.0694 103.429 53.6494 103.308 53.1828 103.308C52.7161 103.308 52.2821 103.429 51.8808 103.672C51.4888 103.915 51.1808 104.255 50.9568 104.694C50.7328 105.123 50.6441 105.637 50.6908 106.234C50.6441 106.831 50.7374 107.354 50.9708 107.802C51.2134 108.241 51.5401 108.581 51.9508 108.824C52.3708 109.067 52.8188 109.188 53.2948 109.188C53.8454 109.188 54.3074 109.057 54.6808 108.796C55.0541 108.535 55.3574 108.208 55.5908 107.816L56.4868 108.292C56.3374 108.628 56.1088 108.941 55.8008 109.23C55.4928 109.51 55.1241 109.739 54.6948 109.916C54.2748 110.084 53.8081 110.168 53.2948 110.168ZM58.4921 110V102.496H59.5421V103.728L59.4021 103.546C59.5794 103.191 59.8454 102.911 60.2001 102.706C60.5641 102.501 61.0027 102.398 61.5161 102.398H61.9921V103.448H61.3341C60.7927 103.448 60.3587 103.616 60.0321 103.952C59.7054 104.288 59.5421 104.764 59.5421 105.38V110H58.4921ZM65.8265 110.168C65.1079 110.168 64.4779 109.986 63.9365 109.622C63.3952 109.258 63.0032 108.763 62.7605 108.138L63.6425 107.718C63.8572 108.175 64.1559 108.539 64.5385 108.81C64.9305 109.081 65.3599 109.216 65.8265 109.216C66.2745 109.216 66.6525 109.109 66.9605 108.894C67.2685 108.67 67.4225 108.381 67.4225 108.026C67.4225 107.765 67.3479 107.559 67.1985 107.41C67.0492 107.251 66.8765 107.13 66.6805 107.046C66.4845 106.962 66.3119 106.901 66.1625 106.864L65.0845 106.556C64.3939 106.36 63.8945 106.085 63.5865 105.73C63.2785 105.375 63.1245 104.965 63.1245 104.498C63.1245 104.059 63.2365 103.677 63.4605 103.35C63.6845 103.023 63.9879 102.771 64.3705 102.594C64.7532 102.417 65.1779 102.328 65.6445 102.328C66.2792 102.328 66.8532 102.496 67.3665 102.832C67.8892 103.159 68.2579 103.616 68.4725 104.204L67.5765 104.624C67.3899 104.204 67.1192 103.877 66.7645 103.644C66.4192 103.401 66.0319 103.28 65.6025 103.28C65.1825 103.28 64.8465 103.387 64.5945 103.602C64.3425 103.817 64.2165 104.087 64.2165 104.414C64.2165 104.666 64.2819 104.867 64.4125 105.016C64.5432 105.165 64.6925 105.277 64.8605 105.352C65.0379 105.427 65.1919 105.483 65.3225 105.52L66.5685 105.884C67.1752 106.061 67.6465 106.337 67.9825 106.71C68.3279 107.083 68.5005 107.522 68.5005 108.026C68.5005 108.437 68.3839 108.805 68.1505 109.132C67.9265 109.459 67.6139 109.715 67.2125 109.902C66.8112 110.079 66.3492 110.168 65.8265 110.168ZM70.3456 110V102.496H71.3956V110H70.3456ZM70.3456 101.11V99.57H71.3956V101.11H70.3456ZM77.0588 110.168C76.3495 110.168 75.7055 110 75.1268 109.664C74.5481 109.319 74.0861 108.852 73.7408 108.264C73.4048 107.667 73.2368 106.99 73.2368 106.234C73.2368 105.487 73.4048 104.82 73.7408 104.232C74.0768 103.644 74.5295 103.182 75.0988 102.846C75.6775 102.501 76.3308 102.328 77.0588 102.328C77.7868 102.328 78.4355 102.496 79.0048 102.832C79.5835 103.168 80.0361 103.63 80.3628 104.218C80.6988 104.806 80.8668 105.478 80.8668 106.234C80.8668 106.999 80.6941 107.681 80.3488 108.278C80.0035 108.866 79.5415 109.328 78.9628 109.664C78.3935 110 77.7588 110.168 77.0588 110.168ZM77.0588 109.118C77.5628 109.118 78.0155 108.992 78.4168 108.74C78.8275 108.488 79.1495 108.143 79.3828 107.704C79.6255 107.265 79.7468 106.775 79.7468 106.234C79.7468 105.693 79.6255 105.207 79.3828 104.778C79.1495 104.349 78.8275 104.008 78.4168 103.756C78.0155 103.504 77.5628 103.378 77.0588 103.378C76.5548 103.378 76.0975 103.504 75.6868 103.756C75.2855 104.008 74.9635 104.349 74.7208 104.778C74.4781 105.207 74.3568 105.693 74.3568 106.234C74.3568 106.775 74.4781 107.265 74.7208 107.704C74.9635 108.143 75.2855 108.488 75.6868 108.74C76.0975 108.992 76.5548 109.118 77.0588 109.118ZM82.7186 110V102.496H83.7686V103.952L83.5306 103.896C83.7173 103.411 84.0206 103.028 84.4406 102.748C84.87 102.468 85.3646 102.328 85.9246 102.328C86.4566 102.328 86.9326 102.449 87.3526 102.692C87.782 102.935 88.118 103.271 88.3606 103.7C88.6126 104.12 88.7386 104.596 88.7386 105.128V110H87.6886V105.534C87.6886 105.077 87.6046 104.689 87.4366 104.372C87.278 104.055 87.0493 103.812 86.7506 103.644C86.4613 103.467 86.1253 103.378 85.7426 103.378C85.36 103.378 85.0193 103.467 84.7206 103.644C84.422 103.812 84.1886 104.059 84.0206 104.386C83.8526 104.703 83.7686 105.086 83.7686 105.534V110H82.7186ZM93.348 110.168C92.6293 110.168 91.9993 109.986 91.458 109.622C90.9167 109.258 90.5247 108.763 90.282 108.138L91.164 107.718C91.3787 108.175 91.6773 108.539 92.06 108.81C92.452 109.081 92.8813 109.216 93.348 109.216C93.796 109.216 94.174 109.109 94.482 108.894C94.79 108.67 94.944 108.381 94.944 108.026C94.944 107.765 94.8693 107.559 94.72 107.41C94.5707 107.251 94.398 107.13 94.202 107.046C94.006 106.962 93.8333 106.901 93.684 106.864L92.606 106.556C91.9153 106.36 91.416 106.085 91.108 105.73C90.8 105.375 90.646 104.965 90.646 104.498C90.646 104.059 90.758 103.677 90.982 103.35C91.206 103.023 91.5093 102.771 91.892 102.594C92.2747 102.417 92.6993 102.328 93.166 102.328C93.8007 102.328 94.3747 102.496 94.888 102.832C95.4107 103.159 95.7793 103.616 95.994 104.204L95.098 104.624C94.9113 104.204 94.6407 103.877 94.286 103.644C93.9407 103.401 93.5533 103.28 93.124 103.28C92.704 103.28 92.368 103.387 92.116 103.602C91.864 103.817 91.738 104.087 91.738 104.414C91.738 104.666 91.8033 104.867 91.934 105.016C92.0647 105.165 92.214 105.277 92.382 105.352C92.5593 105.427 92.7133 105.483 92.844 105.52L94.09 105.884C94.6967 106.061 95.168 106.337 95.504 106.71C95.8493 107.083 96.022 107.522 96.022 108.026C96.022 108.437 95.9053 108.805 95.672 109.132C95.448 109.459 95.1353 109.715 94.734 109.902C94.3327 110.079 93.8707 110.168 93.348 110.168ZM96.8171 111.68L101.549 100.144H102.767L98.0351 111.68H96.8171ZM103.869 110V102.496H104.919V103.924L104.751 103.714C104.956 103.275 105.26 102.935 105.661 102.692C106.072 102.449 106.52 102.328 107.005 102.328C107.584 102.328 108.106 102.491 108.573 102.818C109.04 103.145 109.371 103.569 109.567 104.092L109.273 104.106C109.46 103.527 109.782 103.089 110.239 102.79C110.706 102.482 111.219 102.328 111.779 102.328C112.283 102.328 112.745 102.449 113.165 102.692C113.594 102.935 113.935 103.271 114.187 103.7C114.448 104.12 114.579 104.596 114.579 105.128V110H113.529V105.534C113.529 105.077 113.445 104.689 113.277 104.372C113.118 104.055 112.899 103.812 112.619 103.644C112.339 103.467 112.017 103.378 111.653 103.378C111.298 103.378 110.976 103.467 110.687 103.644C110.398 103.812 110.169 104.059 110.001 104.386C109.833 104.703 109.749 105.086 109.749 105.534V110H108.699V105.534C108.699 105.077 108.615 104.689 108.447 104.372C108.288 104.055 108.069 103.812 107.789 103.644C107.509 103.467 107.187 103.378 106.823 103.378C106.459 103.378 106.132 103.467 105.843 103.644C105.563 103.812 105.339 104.059 105.171 104.386C105.003 104.703 104.919 105.086 104.919 105.534V110H103.869ZM120.098 110.168C119.389 110.168 118.745 110 118.166 109.664C117.587 109.319 117.125 108.852 116.78 108.264C116.444 107.667 116.276 106.99 116.276 106.234C116.276 105.487 116.444 104.82 116.78 104.232C117.116 103.644 117.569 103.182 118.138 102.846C118.717 102.501 119.37 102.328 120.098 102.328C120.826 102.328 121.475 102.496 122.044 102.832C122.623 103.168 123.075 103.63 123.402 104.218C123.738 104.806 123.906 105.478 123.906 106.234C123.906 106.999 123.733 107.681 123.388 108.278C123.043 108.866 122.581 109.328 122.002 109.664C121.433 110 120.798 110.168 120.098 110.168ZM120.098 109.118C120.602 109.118 121.055 108.992 121.456 108.74C121.867 108.488 122.189 108.143 122.422 107.704C122.665 107.265 122.786 106.775 122.786 106.234C122.786 105.693 122.665 105.207 122.422 104.778C122.189 104.349 121.867 104.008 121.456 103.756C121.055 103.504 120.602 103.378 120.098 103.378C119.594 103.378 119.137 103.504 118.726 103.756C118.325 104.008 118.003 104.349 117.76 104.778C117.517 105.207 117.396 105.693 117.396 106.234C117.396 106.775 117.517 107.265 117.76 107.704C118.003 108.143 118.325 108.488 118.726 108.74C119.137 108.992 119.594 109.118 120.098 109.118ZM125.758 110V102.496H126.808V103.952L126.57 103.896C126.756 103.411 127.06 103.028 127.48 102.748C127.909 102.468 128.404 102.328 128.964 102.328C129.496 102.328 129.972 102.449 130.392 102.692C130.821 102.935 131.157 103.271 131.4 103.7C131.652 104.12 131.778 104.596 131.778 105.128V110H130.728V105.534C130.728 105.077 130.644 104.689 130.476 104.372C130.317 104.055 130.088 103.812 129.79 103.644C129.5 103.467 129.164 103.378 128.782 103.378C128.399 103.378 128.058 103.467 127.76 103.644C127.461 103.812 127.228 104.059 127.06 104.386C126.892 104.703 126.808 105.086 126.808 105.534V110H125.758ZM136.653 110.084C135.981 110.084 135.463 109.888 135.099 109.496C134.735 109.104 134.553 108.544 134.553 107.816V103.546H133.167V102.496H133.517C133.834 102.496 134.086 102.393 134.273 102.188C134.46 101.973 134.553 101.707 134.553 101.39V100.76H135.603V102.496H137.255V103.546H135.603V107.816C135.603 108.068 135.64 108.292 135.715 108.488C135.79 108.675 135.916 108.824 136.093 108.936C136.28 109.048 136.527 109.104 136.835 109.104C136.91 109.104 136.998 109.099 137.101 109.09C137.204 109.081 137.292 109.071 137.367 109.062V110C137.255 110.028 137.129 110.047 136.989 110.056C136.849 110.075 136.737 110.084 136.653 110.084ZM139.211 110V99.402H140.261V103.952L140.023 103.896C140.209 103.411 140.513 103.028 140.933 102.748C141.362 102.468 141.857 102.328 142.417 102.328C142.949 102.328 143.425 102.449 143.845 102.692C144.274 102.935 144.61 103.271 144.853 103.7C145.105 104.12 145.231 104.596 145.231 105.128V110H144.181V105.534C144.181 105.077 144.097 104.689 143.929 104.372C143.761 104.055 143.527 103.812 143.229 103.644C142.939 103.467 142.608 103.378 142.235 103.378C141.861 103.378 141.525 103.467 141.227 103.644C140.928 103.812 140.69 104.059 140.513 104.386C140.345 104.703 140.261 105.086 140.261 105.534V110H139.211Z" fill="white"/>
<g clip-path="url(#clip0_55_173)">
<path d="M139.548 162.266V672H0V173.161L4.09814 171.504L4.51945 171.351L4.845 171.218C5.55356 170.951 6.76002 170.513 8.48354 169.961L9.76661 169.561L11.1454 169.123L12.4668 168.742L13.6158 168.399L14.9372 168.037L16.2777 167.675C18.3331 167.129 20.6312 166.558 23.1718 165.961L24.4357 165.675C26.7145 165.18 29.1658 164.666 31.7893 164.171C34.4129 163.675 37.6876 163.104 40.9431 162.609L44.0455 162.171H44.4093L47.2053 161.809L48.316 161.656L50.863 161.352L53.6206 160.952L58.2166 160.495C66.1831 159.752 75.0114 159.256 84.6248 159.123H89.623C92.304 159.123 94.985 159.123 97.7044 159.218L101.803 159.333L105.901 159.485L110.975 159.733H112.22L116.931 160.037L122.485 160.475C126.2 160.793 129.915 161.161 133.63 161.58L138.609 162.133H139.433L139.548 162.266Z" fill="#FFC700"/>
<path d="M160 193.446V672H139.528V143.162L141.348 144.476L144.814 146.99V165.675C144.816 173.913 147.91 181.853 153.489 187.941C155.408 190.051 157.597 191.901 160 193.446Z" fill="#FFF500"/>
<path opacity="0.6" d="M31.7893 162.266V672H8.48352V166.666C14.5733 165.237 22.3674 163.618 31.7893 162.266Z" fill="#F9FFD2"/>
<path opacity="0.6" d="M50.8438 160.171V672H43.9497V160.761L50.8438 160.171Z" fill="#F9FFD2"/>
<path d="M139.548 143.181V162.228L133.803 161.58C119.18 159.92 104.475 159.074 89.757 159.047C35.6768 159.047 5.49611 170.97 4.17475 171.485L0 173.161V154.114L4.09814 152.457C5.36206 151.923 35.6002 140 89.6804 140C104.398 140.028 119.103 140.873 133.726 142.533L139.548 143.181Z" fill="#EF8F00"/>
<path d="M141.252 242.225L140.62 247.939L139.548 247.825L134.703 247.291C119.862 245.63 104.94 244.784 90.006 244.758C35.313 244.758 4.97905 256.51 3.71514 257.005L0 258.472V252.263L1.57032 251.653C2.87253 251.139 34.2023 239.044 90.006 239.044C105.144 239.07 120.27 239.916 135.315 241.577L139.528 242.053L141.252 242.225Z" fill="#FFF500"/>
<path d="M141.252 316.051L140.62 321.765L139.548 321.651L134.703 321.117C119.86 319.478 104.939 318.645 90.006 318.622C35.313 318.622 4.97905 330.355 3.71514 330.85L0 332.374V326.108L1.57032 325.479C2.87253 324.965 34.1257 312.851 90.006 312.851C105.145 312.874 120.271 313.726 135.315 315.403L139.528 315.86L141.252 316.051Z" fill="#FFF500"/>
<path d="M141.252 389.877L140.62 395.591L139.548 395.477L134.703 394.924C119.86 393.297 104.939 392.477 90.006 392.467C35.4279 392.467 4.97905 404.181 3.71514 404.676L0 406.143V399.934L1.57032 399.305C2.89168 398.791 34.3172 386.677 90.006 386.677C105.145 386.7 120.271 387.552 135.315 389.229L139.528 389.686L141.252 389.877Z" fill="#FFF500"/>
<path d="M141.252 463.798L140.62 469.512L139.548 469.398L134.703 468.864C119.863 467.19 104.941 466.332 90.006 466.293C35.313 466.293 4.97905 478.007 3.71514 478.521L0 479.969V473.759L1.57032 473.15C2.87253 472.636 34.1257 460.522 90.006 460.522C105.144 460.548 120.27 461.394 135.315 463.055L139.528 463.531L141.252 463.798Z" fill="#FFF500"/>
<path d="M141.252 537.548L140.62 543.262L139.548 543.148L134.703 542.614C119.86 540.974 104.939 540.141 90.006 540.119C35.4087 540.119 4.97905 551.852 3.71514 552.347L0 553.795V547.604L1.57032 546.976C2.89168 546.462 34.3172 534.272 90.006 534.272C105.145 534.294 120.271 535.146 135.315 536.824L139.528 537.281L141.252 537.548Z" fill="#FFF500"/>
<path d="M141.252 611.374L140.62 617.088L139.548 616.973L134.703 616.421C119.86 614.794 104.939 613.974 90.006 613.964C35.313 613.964 4.97905 625.678 3.71514 626.173L0 627.602V621.392L1.57032 620.764C2.87253 620.249 34.1257 608.136 90.006 608.136C105.145 608.159 120.271 609.011 135.315 610.688L139.528 611.145L141.252 611.374Z" fill="#FFF500"/>
</g>
<defs>
<clipPath id="clip0_55_173">
<rect width="160" height="532" fill="white" transform="translate(0 140)"/>
</clipPath>
</defs>
</svg>
